<svg width="48" height="48" viewBox="0 0 48 48" fill="none" xmlns="http://www.w3.org/2000/svg">
<g id="atom-02">
<path id="Accent" d="M34.2307 30.7165C33.6893 31.3286 33.1211 31.9331 32.527 32.5272C23.9355 41.1187 13.1717 44.2845 8.48541 39.5982C5.2726 36.3854 5.7504 30.3161 9.13693 24.0486M13.7793 17.4506C14.3428 16.81 14.9354 16.1776 15.5565 15.5566C24.148 6.96506 34.9118 3.79924 39.5981 8.48553C42.8131 11.7005 42.3325 17.776 38.9396 24.0481" stroke="#26262F" stroke-width="2" stroke-linecap="round" stroke-linejoin="round"/>
<g id="Icon">
<path d="M32.527 15.5566C41.1186 24.1481 44.2844 34.9119 39.5981 39.5982C34.9118 44.2845 24.148 41.1187 15.5565 32.5272C6.96494 23.9356 3.79912 13.1718 8.48541 8.48553C13.1717 3.79924 23.9355 6.96506 32.527 15.5566Z" stroke="#8057FF" stroke-width="2" stroke-linecap="round" stroke-linejoin="round"/>
<path d="M24.0001 26.0001C25.1047 26.0001 26.0001 25.1047 26.0001 24.0001C26.0001 22.8955 25.1047 22.0001 24.0001 22.0001C22.8956 22.0001 22.0001 22.8955 22.0001 24.0001C22.0001 25.1047 22.8956 26.0001 24.0001 26.0001Z" stroke="#8057FF" stroke-width="2" stroke-linecap="round" stroke-linejoin="round"/>
</g>
</g>
</svg>
