<svg width="48" height="48" viewBox="0 0 48 48" fill="none" xmlns="http://www.w3.org/2000/svg">
<g id="bar-chart-square-up">
<path id="Accent" d="M24 6.00012H32.4C35.7603 6.00012 37.4405 6.00012 38.7239 6.65408C39.8529 7.22932 40.7708 8.14721 41.346 9.27618C42 10.5596 42 12.2398 42 15.6001V32.4001C42 35.7604 42 37.4406 41.346 38.7241C40.7708 39.853 39.8529 40.7709 38.7239 41.3462C37.4405 42.0001 35.7603 42.0001 32.4 42.0001H15.6C12.2397 42.0001 10.5595 42.0001 9.27606 41.3462C8.14708 40.7709 7.2292 39.853 6.65396 38.7241C6 37.4406 6 35.7604 6 32.4001V24.0001" stroke="#26262F" stroke-width="2" stroke-linecap="round" stroke-linejoin="round"/>
<path id="Icon" d="M16 26.0001V34.0001M32 22.0001V34.0001M24 14.0001V34.0001M4 10.0001L10 4.00012M10 4.00012L16 10.0001M10 4.00012L10 16.0001" stroke="#8057FF" stroke-width="2" stroke-linecap="round" stroke-linejoin="round"/>
</g>
</svg>
