<svg width="48" height="48" viewBox="0 0 48 48" fill="none" xmlns="http://www.w3.org/2000/svg">
<path d="M26 10.0001C26 12.2093 21.0751 14.0001 15 14.0001C8.92487 14.0001 4 12.2093 4 10.0001M26 10.0001C26 7.79098 21.0751 6.00012 15 6.00012C8.92487 6.00012 4 7.79098 4 10.0001M26 10.0001V18.9144C23.557 19.6481 22 20.758 22 22.0001V37.0858C20.0981 37.657 17.6593 38.0001 15 38.0001C8.92487 38.0001 4 36.2093 4 34.0001V10.0001M4 18.0001C4 20.2093 8.92487 22.0001 15 22.0001C17.6593 22.0001 20.0981 21.657 22 21.0858M4 26.0001C4 28.2093 8.92487 30.0001 15 30.0001C17.6593 30.0001 20.0981 29.657 22 29.0858" stroke="#26262F" stroke-width="2" stroke-linecap="round" stroke-linejoin="round"/>
<path d="M44 22.0001C44 24.2093 39.0751 26.0001 33 26.0001C26.9249 26.0001 22 24.2093 22 22.0001M44 22.0001C44 19.791 39.0751 18.0001 33 18.0001C26.9249 18.0001 22 19.791 22 22.0001M44 22.0001V38.0001C44 40.2093 39.0751 42.0001 33 42.0001C26.9249 42.0001 22 40.2093 22 38.0001V22.0001M44 30.0001C44 32.2093 39.0751 34.0001 33 34.0001C26.9249 34.0001 22 32.2093 22 30.0001" stroke="#8057FF" stroke-width="2" stroke-linecap="round" stroke-linejoin="round"/>
</svg>
