<svg width="48" height="48" viewBox="0 0 48 48" fill="none" xmlns="http://www.w3.org/2000/svg">
<g id="telescope">
<path id="Accent" d="M26.2428 29.6893L36 43.9999M21.7572 29.6893L12 43.9999M28 26.4C28 28.6091 26.2091 30.4 24 30.4C21.7909 30.4 20 28.6091 20 26.4C20 24.1909 21.7909 22.4 24 22.4C26.2091 22.4 28 24.1909 28 26.4Z" stroke="#8057FF" stroke-width="2" stroke-linecap="round" stroke-linejoin="round"/>
<g id="Icon">
<path d="M9.59787 17.3393C9.45292 16.7983 9.38044 16.5279 9.43036 16.293C9.47426 16.0865 9.58244 15.8991 9.73937 15.7578C9.91779 15.5972 10.1883 15.5247 10.7292 15.3797L34.2978 9.06454L36.886 18.7238L13.3174 25.039C12.7765 25.1839 12.506 25.2564 12.2711 25.2065C12.0646 25.1626 11.8772 25.0544 11.7359 24.8975C11.5753 24.7191 11.5028 24.4486 11.3578 23.9076L9.59787 17.3393Z" stroke="#0F0F11" stroke-width="2" stroke-linecap="round" stroke-linejoin="round"/>
<path d="M35.4366 13.3146C34.8568 11.1507 34.5669 10.0688 34.7666 9.12947C34.9422 8.30321 35.3749 7.55376 36.0026 6.98854C36.7163 6.34596 37.7982 6.05606 39.9621 5.47625C40.5031 5.3313 40.7736 5.25882 41.0084 5.30873C41.215 5.35264 41.4023 5.46081 41.5436 5.61775C41.7043 5.79616 41.7768 6.06665 41.9217 6.60762L44.717 17.0396C44.8619 17.5806 44.9344 17.8511 44.8845 18.0859C44.8406 18.2925 44.7324 18.4798 44.5755 18.6211C44.397 18.7818 44.1266 18.8543 43.5856 18.9992C41.4217 19.579 40.3398 19.8689 39.4004 19.6693C38.5742 19.4936 37.8247 19.0609 37.2595 18.4332C36.6169 17.7195 36.327 16.6376 35.7472 14.4737L35.4366 13.3146Z" stroke="#0F0F11" stroke-width="2" stroke-linecap="round" stroke-linejoin="round"/>
<path d="M4.31995 20.8241C4.175 20.2831 4.10252 20.0126 4.15244 19.7778C4.19635 19.5712 4.30452 19.3839 4.46146 19.2426C4.63987 19.0819 4.91035 19.0094 5.45132 18.8645L8.15591 18.1398C8.69688 17.9948 8.96737 17.9224 9.2022 17.9723C9.40877 18.0162 9.59613 18.1244 9.73743 18.2813C9.89808 18.4597 9.97055 18.7302 10.1155 19.2712L10.8402 21.9758C10.9852 22.5167 11.0576 22.7872 11.0077 23.022C10.9638 23.2286 10.8556 23.416 10.6987 23.5573C10.5203 23.7179 10.2498 23.7904 9.70883 23.9354L7.00424 24.66C6.46327 24.805 6.19278 24.8775 5.95795 24.8276C5.75139 24.7837 5.56402 24.6755 5.42272 24.5185C5.26207 24.3401 5.1896 24.0696 5.04465 23.5287L4.31995 20.8241Z" stroke="#0F0F11" stroke-width="2" stroke-linecap="round" stroke-linejoin="round"/>
</g>
</g>
</svg>
