<svg width="24" height="24" viewBox="0 0 24 24" fill="none" xmlns="http://www.w3.org/2000/svg">
<g id="Bar_Chart">
<g id="Group">
<g id="Group_2">
<path id="Vector" d="M23.5 24H0.5C0.224 24 0 23.776 0 23.5V0.5C0 0.224 0.224 0 0.5 0C0.776 0 1 0.224 1 0.5V23H23.5C23.776 23 24 23.224 24 23.5C24 23.776 23.776 24 23.5 24Z" fill="white"/>
</g>
<g id="Group_3">
<path id="Vector_2" d="M7.5 22H2.5C2.224 22 2 21.776 2 21.5V12.5C2 12.224 2.224 12 2.5 12H7.5C7.776 12 8 12.224 8 12.5V21.5C8 21.776 7.776 22 7.5 22ZM3 21H7V13H3V21Z" fill="white"/>
</g>
<g id="Group_4">
<path id="Vector_3" d="M15.5 22H10.5C10.224 22 10 21.776 10 21.5V6.5C10 6.224 10.224 6 10.5 6H15.5C15.776 6 16 6.224 16 6.5V21.5C16 21.776 15.776 22 15.5 22ZM11 21H15V7H11V21Z" fill="white"/>
</g>
<g id="Group_5">
<path id="Vector_4" d="M23.5 22H18.5C18.224 22 18 21.776 18 21.5V0.5C18 0.224 18.224 0 18.5 0H23.5C23.776 0 24 0.224 24 0.5V21.5C24 21.776 23.776 22 23.5 22ZM19 21H23V1H19V21Z" fill="white"/>
</g>
</g>
</g>
</svg>
