<svg width="24" height="24" viewBox="0 0 24 24" fill="none" xmlns="http://www.w3.org/2000/svg">
<g id="Search">
<g id="Group">
<g id="Group_2">
<path id="Vector" d="M8.5 16.9999C3.813 16.9999 0 13.1869 0 8.49988C0 3.81288 3.813 -0.00012207 8.5 -0.00012207C13.187 -0.00012207 17 3.81288 17 8.49988C17 13.1869 13.187 16.9999 8.5 16.9999ZM8.5 0.999878C4.364 0.999878 1 4.36388 1 8.49988C1 12.6359 4.364 15.9999 8.5 15.9999C12.636 15.9999 16 12.6359 16 8.49988C16 4.36388 12.636 0.999878 8.5 0.999878Z" fill="white"/>
</g>
<g id="Group_3">
<path id="Vector_2" d="M23.4995 23.9999C23.3715 23.9999 23.2435 23.9509 23.1455 23.8539L13.8025 14.5109C13.6075 14.3159 13.6075 13.9989 13.8025 13.8039C13.9975 13.6089 14.3145 13.6089 14.5095 13.8039L23.8525 23.1469C24.0475 23.3419 24.0475 23.6589 23.8525 23.8539C23.7555 23.9509 23.6275 23.9999 23.4995 23.9999Z" fill="white"/>
</g>
</g>
</g>
</svg>
