<svg width="24" height="24" viewBox="0 0 24 24" fill="none" xmlns="http://www.w3.org/2000/svg">
<g id="Group">
<g id="Group_2">
<path id="Vector" d="M8.29622 24H5.69622C5.30222 24 4.95122 23.708 4.87922 23.322L4.67322 21.855C4.42422 21.735 4.18922 21.597 3.96222 21.439L2.60522 21.985C2.22022 22.13 1.79722 21.983 1.59022 21.639L0.286221 19.386C0.081221 19.045 0.157221 18.6 0.471221 18.335L1.64022 17.418C1.62822 17.279 1.62122 17.14 1.62122 17C1.62122 16.863 1.62822 16.726 1.64022 16.59L0.485221 15.685C0.157221 15.409 0.081221 14.964 0.290221 14.616L1.58622 12.376C1.79622 12.025 2.21722 11.876 2.59422 12.02L3.96222 12.57C4.18422 12.417 4.42122 12.278 4.67222 12.156L4.87522 10.709C4.94922 10.291 5.29322 10 5.69622 10H8.29622C8.68922 10 9.04022 10.291 9.11222 10.677L9.31922 12.145C9.56822 12.265 9.80322 12.403 10.0302 12.561L11.3872 12.015C11.7732 11.871 12.1952 12.017 12.4022 12.361L13.7062 14.615C13.9112 14.956 13.8352 15.401 13.5212 15.666L12.3522 16.583C12.3642 16.722 12.3712 16.862 12.3712 17.001C12.3712 17.138 12.3642 17.275 12.3522 17.411L13.5072 18.316C13.8352 18.592 13.9112 19.037 13.7022 19.385L12.4062 21.625C12.1962 21.975 11.7722 22.121 11.3992 21.982L10.0302 21.431C9.80822 21.584 9.57122 21.723 9.32022 21.845L9.11622 23.291C9.04322 23.709 8.69922 24 8.29622 24ZM5.84422 23H8.14822L8.36822 21.434C8.39222 21.261 8.50622 21.113 8.66622 21.044C9.02922 20.888 9.36122 20.695 9.65122 20.468C9.79122 20.359 9.98022 20.332 10.1452 20.399L11.6172 20.991L12.7662 19.004L11.5162 18.025C11.3762 17.915 11.3052 17.74 11.3292 17.564C11.3542 17.381 11.3712 17.19 11.3712 17C11.3712 16.808 11.3542 16.616 11.3292 16.424C11.3062 16.249 11.3772 16.075 11.5162 15.966L12.7662 14.986L11.6172 13L10.1452 13.592C9.98222 13.659 9.79122 13.633 9.65122 13.523C9.34622 13.286 9.02522 13.098 8.67022 12.949C8.50722 12.881 8.39222 12.732 8.36822 12.557L8.14822 11H5.84522L5.62522 12.566C5.60122 12.739 5.48722 12.887 5.32722 12.956C4.96422 13.112 4.63222 13.305 4.34222 13.532C4.20122 13.641 4.01222 13.667 3.84822 13.601L2.37622 13.009L1.22622 14.996L2.47622 15.975C2.61622 16.085 2.68722 16.26 2.66322 16.436C2.63822 16.619 2.62122 16.81 2.62122 17C2.62122 17.192 2.63822 17.384 2.66322 17.576C2.68622 17.751 2.61522 17.925 2.47622 18.034L1.22622 19.014L2.37522 21L3.84722 20.408C4.01222 20.343 4.20122 20.368 4.34122 20.477C4.64622 20.714 4.96722 20.902 5.32222 21.051C5.48522 21.119 5.60022 21.268 5.62422 21.443L5.84422 23ZM6.99622 19C5.89322 19 4.99622 18.103 4.99622 17C4.99622 15.897 5.89322 15 6.99622 15C8.09922 15 8.99622 15.897 8.99622 17C8.99622 18.103 8.09922 19 6.99622 19ZM6.99622 16C6.44522 16 5.99622 16.449 5.99622 17C5.99622 17.551 6.44522 18 6.99622 18C7.54722 18 7.99622 17.551 7.99622 17C7.99622 16.449 7.54722 16 6.99622 16Z" fill="white"/>
</g>
<g id="Group_3">
<path id="Vector_2" d="M18.2962 14H15.6962C15.3022 14 14.9512 13.708 14.8792 13.322L14.6732 11.855C14.4242 11.735 14.1892 11.597 13.9622 11.439L12.6052 11.985C12.2202 12.131 11.7972 11.983 11.5902 11.639L10.2862 9.386C10.0812 9.045 10.1572 8.6 10.4712 8.335L11.6402 7.418C11.6282 7.279 11.6212 7.14 11.6212 7C11.6212 6.863 11.6282 6.726 11.6402 6.59L10.4852 5.685C10.1572 5.409 10.0812 4.964 10.2902 4.616L11.5862 2.376C11.7952 2.024 12.2172 1.876 12.5942 2.02L13.9622 2.57C14.1842 2.417 14.4212 2.278 14.6722 2.156L14.8752 0.709C14.9492 0.291 15.2932 0 15.6962 0H18.2962C18.6892 0 19.0402 0.291 19.1122 0.677L19.3192 2.145C19.5682 2.265 19.8032 2.403 20.0302 2.561L21.3872 2.015C21.7742 1.87 22.1962 2.017 22.4022 2.36L23.7062 4.614C23.9112 4.955 23.8352 5.4 23.5212 5.665L22.3522 6.582C22.3642 6.721 22.3712 6.86 22.3712 7C22.3712 7.137 22.3642 7.274 22.3522 7.41L23.5072 8.315C23.8352 8.591 23.9112 9.036 23.7022 9.384L22.4062 11.624C22.1962 11.974 21.7722 12.12 21.3992 11.981L20.0302 11.43C19.8082 11.583 19.5712 11.722 19.3202 11.844L19.1172 13.291C19.0432 13.709 18.6992 14 18.2962 14ZM15.8442 13H18.1482L18.3682 11.434C18.3922 11.261 18.5062 11.113 18.6662 11.044C19.0292 10.888 19.3612 10.695 19.6512 10.468C19.7912 10.358 19.9802 10.332 20.1452 10.399L21.6172 10.991L22.7662 9.004L21.5162 8.025C21.3762 7.915 21.3052 7.74 21.3292 7.564C21.3542 7.381 21.3712 7.19 21.3712 7C21.3712 6.808 21.3542 6.616 21.3292 6.424C21.3062 6.249 21.3772 6.075 21.5162 5.966L22.7662 4.986L21.6172 3L20.1452 3.592C19.9812 3.659 19.7912 3.633 19.6512 3.523C19.3462 3.286 19.0252 3.098 18.6702 2.949C18.5072 2.881 18.3922 2.732 18.3682 2.557L18.1482 1H15.8442L15.6242 2.566C15.6002 2.739 15.4862 2.887 15.3262 2.956C14.9632 3.112 14.6312 3.305 14.3412 3.532C14.2012 3.641 14.0112 3.668 13.8472 3.601L12.3752 3.009L11.2262 4.996L12.4762 5.975C12.6162 6.085 12.6872 6.26 12.6632 6.436C12.6382 6.619 12.6212 6.81 12.6212 7C12.6212 7.192 12.6382 7.384 12.6632 7.576C12.6862 7.751 12.6152 7.925 12.4762 8.034L11.2262 9.014L12.3752 11L13.8472 10.408C14.0122 10.341 14.2012 10.368 14.3412 10.477C14.6462 10.714 14.9672 10.902 15.3222 11.051C15.4852 11.119 15.6002 11.268 15.6242 11.443L15.8442 13ZM16.9962 9C15.8932 9 14.9962 8.103 14.9962 7C14.9962 5.897 15.8932 5 16.9962 5C18.0992 5 18.9962 5.897 18.9962 7C18.9962 8.103 18.0992 9 16.9962 9ZM16.9962 6C16.4452 6 15.9962 6.449 15.9962 7C15.9962 7.551 16.4452 8 16.9962 8C17.5472 8 17.9962 7.551 17.9962 7C17.9962 6.449 17.5472 6 16.9962 6Z" fill="white"/>
</g>
</g>
</svg>
