<svg width="24" height="24" viewBox="0 0 24 24" fill="none" xmlns="http://www.w3.org/2000/svg">
<g clip-path="url(#clip0_2101_10265)">
<path d="M11.5 23.9999C5.159 23.9999 0 18.8409 0 12.4999C0 6.15888 5.159 0.999878 11.5 0.999878C17.841 0.999878 23 6.15888 23 12.4999C23 18.8409 17.841 23.9999 11.5 23.9999ZM11.5 1.99988C5.71 1.99988 1 6.70988 1 12.4999C1 18.2899 5.71 22.9999 11.5 22.9999C17.29 22.9999 22 18.2899 22 12.4999C22 6.70988 17.29 1.99988 11.5 1.99988Z" fill="white"/>
<path d="M11.5 23.9999C7.855 23.9999 5 18.9479 5 12.4999C5 6.05188 7.855 0.999878 11.5 0.999878C15.145 0.999878 18 6.05188 18 12.4999C18 18.9479 15.145 23.9999 11.5 23.9999ZM11.5 1.99988C8.519 1.99988 6 6.80888 6 12.4999C6 18.1909 8.519 22.9999 11.5 22.9999C14.481 22.9999 17 18.1909 17 12.4999C17 6.80888 14.481 1.99988 11.5 1.99988Z" fill="white"/>
<path d="M22.5 12.9999H0.5C0.224 12.9999 0 12.7759 0 12.4999C0 12.2239 0.224 11.9999 0.5 11.9999H22.5C22.776 11.9999 23 12.2239 23 12.4999C23 12.7759 22.776 12.9999 22.5 12.9999Z" fill="white"/>
<path d="M20.7233 6.99988H2.28125C2.00525 6.99988 1.78125 6.77588 1.78125 6.49988C1.78125 6.22388 2.00525 5.99988 2.28125 5.99988H20.7222C20.9982 5.99988 21.2222 6.22388 21.2222 6.49988C21.2222 6.77588 20.9993 6.99988 20.7233 6.99988Z" fill="white"/>
<path d="M20.7233 18.9999H2.28125C2.00525 18.9999 1.78125 18.7759 1.78125 18.4999C1.78125 18.2239 2.00525 17.9999 2.28125 17.9999H20.7222C20.9982 17.9999 21.2222 18.2239 21.2222 18.4999C21.2222 18.7759 20.9993 18.9999 20.7233 18.9999Z" fill="white"/>
<path d="M11.5 23.9999C11.224 23.9999 11 23.7759 11 23.4999V1.49988C11 1.22388 11.224 0.999878 11.5 0.999878C11.776 0.999878 12 1.22388 12 1.49988V23.4999C12 23.7759 11.776 23.9999 11.5 23.9999Z" fill="white"/>
</g>
<defs>
<clipPath id="clip0_2101_10265">
<rect width="24" height="24" fill="white"/>
</clipPath>
</defs>
</svg>
