<svg width="24" height="24" viewBox="0 0 24 24" fill="none" xmlns="http://www.w3.org/2000/svg">
<g clip-path="url(#clip0_2101_10551)">
<path d="M22.5 14.481C22.5 13.772 21.039 11.157 20.31 9.89596C20.377 9.53596 20.5 8.71296 20.5 7.48096C20.5 5.34596 17.674 -0.019043 11 -0.019043C4.447 -0.019043 1.5 4.95196 1.5 8.48096C1.5 10.977 2.974 13.534 4.159 15.588C4.849 16.785 5.5 17.915 5.5 18.481C5.5 19.754 3.43 22.277 2.632 23.142C2.445 23.345 2.458 23.661 2.661 23.848C2.757 23.936 2.879 23.98 3 23.98C3.135 23.98 3.269 23.926 3.367 23.82C3.688 23.474 6.5 20.372 6.5 18.482C6.5 17.648 5.849 16.519 5.025 15.09C3.9 13.138 2.5 10.711 2.5 8.48196C2.5 6.03496 4.578 0.981957 11 0.981957C17.375 0.981957 19.5 6.10596 19.5 7.48196C19.5 9.01196 19.298 9.85296 19.296 9.86196C19.265 9.98796 19.284 10.122 19.349 10.234C20.355 11.962 21.464 14.081 21.501 14.474C21.455 14.612 20.937 14.879 20.397 14.993C20.257 15.022 20.137 15.11 20.066 15.233C19.995 15.357 19.98 15.505 20.025 15.64L20.427 16.847L20.146 17.128C20.023 17.251 19.987 17.421 20.019 17.58C19.95 17.613 19.881 17.652 19.815 17.71C19.671 17.837 19.5 18.075 19.5 18.481C19.5 18.881 19.668 19.131 19.791 19.314C19.912 19.495 20 19.626 20 19.98C20 20.37 19.85 20.671 17.919 20.987C16.598 21.203 13.5 22.312 13.5 23.48C13.5 23.756 13.717 24.019 13.993 24.019C14.27 24.019 14.486 23.834 14.487 23.558C14.664 23.201 16.439 22.242 18.081 21.973C19.312 21.773 21 21.497 21 19.981C21 19.321 20.772 18.982 20.621 18.757C20.52 18.606 20.5 18.569 20.438 18.477C20.715 18.515 20.962 18.318 20.996 18.043C21.009 17.938 20.981 17.84 20.935 17.753L21.353 17.335C21.487 17.201 21.534 17.003 21.474 16.823L21.14 15.82C21.715 15.622 22.5 15.214 22.5 14.481ZM11.5 9.08196V7.04396C12.051 7.17796 12.467 7.52296 12.501 7.92796C12.524 8.20296 12.77 8.40396 13.041 8.38396C13.316 8.36096 13.52 8.11896 13.497 7.84396C13.407 6.78496 12.338 5.98596 11.008 5.98296C11.005 5.98296 11.003 5.98096 11 5.98096C10.997 5.98096 10.994 5.98296 10.991 5.98296C9.617 5.98596 8.499 6.88096 8.499 7.98196C8.499 8.92096 9.155 9.55196 10.5 9.88096V11.919C9.949 11.785 9.532 11.44 9.498 11.035C9.475 10.761 9.232 10.565 8.958 10.579C8.683 10.602 8.479 10.844 8.502 11.119C8.592 12.18 9.665 12.981 10.999 12.981C10.999 12.981 10.999 12.981 11 12.981C11 12.981 11 12.981 11.001 12.981C12.379 12.98 13.5 12.084 13.5 10.982C13.5 10.044 12.846 9.41296 11.5 9.08196ZM10.5 8.84896C9.833 8.65696 9.5 8.37896 9.5 7.98196C9.5 7.55696 9.925 7.18696 10.5 7.04596V8.84896ZM11.5 11.917V10.114C12.166 10.306 12.499 10.583 12.499 10.981C12.499 11.405 12.075 11.775 11.5 11.917ZM16.5 9.47996C16.5 6.44796 14.033 3.97996 11 3.97996C7.967 3.97996 5.5 6.44796 5.5 9.47996C5.5 12.512 7.967 14.98 11 14.98C14.033 14.98 16.5 12.513 16.5 9.47996ZM11 13.98C8.519 13.98 6.5 11.961 6.5 9.47996C6.5 6.99996 8.519 4.97996 11 4.97996C13.481 4.97996 15.5 6.99896 15.5 9.47996C15.5 11.961 13.481 13.98 11 13.98Z" fill="white"/>
</g>
<defs>
<clipPath id="clip0_2101_10551">
<rect width="24" height="24" fill="white"/>
</clipPath>
</defs>
</svg>
