<svg width="24" height="24" viewBox="0 0 24 24" fill="none" xmlns="http://www.w3.org/2000/svg">
<g clip-path="url(#clip0_2101_10581)">
<path d="M13.156 20.2779C13.23 20.3169 13.309 20.3349 13.387 20.3349C13.567 20.3349 13.741 20.2379 13.83 20.0659C13.957 19.8209 13.863 19.5189 13.618 19.3909C12.626 18.8729 11.373 18.8729 10.381 19.3909C10.136 19.5189 10.042 19.8209 10.169 20.0659C10.297 20.3109 10.601 20.4049 10.844 20.2779C11.562 19.9029 12.438 19.9029 13.156 20.2779ZM10.231 21.3199C9.857 21.1079 9.432 20.9959 9 20.9959C7.622 20.9959 6.5 22.1179 6.5 23.4959C6.5 23.7719 6.724 23.9959 7 23.9959C7.276 23.9959 7.5 23.7719 7.5 23.4959C7.5 22.6689 8.173 21.9959 9 21.9959C9.259 21.9959 9.515 22.0629 9.737 22.1899C9.978 22.3259 10.283 22.2409 10.419 22.0019C10.556 21.7609 10.471 21.4559 10.231 21.3199ZM5.5 20.9959C4.397 20.9959 3.5 21.8929 3.5 22.9959C3.5 23.2719 3.724 23.4959 4 23.4959C4.276 23.4959 4.5 23.2719 4.5 22.9959C4.5 22.4449 4.949 21.9959 5.5 21.9959C5.776 21.9959 6 21.7719 6 21.4959C6 21.2199 5.776 20.9959 5.5 20.9959ZM13 21.9959C12.173 21.9959 11.5 22.6689 11.5 23.4959C11.5 23.7719 11.724 23.9959 12 23.9959C12.276 23.9959 12.5 23.7719 12.5 23.4959C12.5 23.2199 12.724 22.9959 13 22.9959C13.276 22.9959 13.5 23.2199 13.5 23.4959C13.5 23.7719 13.724 23.9959 14 23.9959C14.276 23.9959 14.5 23.7719 14.5 23.4959C14.5 22.6689 13.827 21.9959 13 21.9959ZM14.985 20.9959C14.709 20.9959 14.485 21.2199 14.485 21.4959C14.485 21.7719 14.709 21.9959 14.985 21.9959C15.812 21.9959 16.485 22.6689 16.485 23.4959C16.485 23.7719 16.709 23.9959 16.985 23.9959C17.261 23.9959 17.485 23.7719 17.485 23.4959C17.485 22.1179 16.363 20.9959 14.985 20.9959ZM22.498 21.0999C22.5 21.0649 22.5 21.0309 22.5 20.9959C22.5 19.3419 21.154 17.9959 19.5 17.9959C18.515 17.9959 17.625 18.4669 17.072 19.2409C16.9 19.1279 16.706 19.0519 16.5 19.0169V18.9959C16.5 17.8929 15.603 16.9959 14.5 16.9959C14.304 16.9959 14.111 17.0239 13.927 17.0799C13.795 16.6579 13.697 16.2849 13.628 15.9959H14C14.154 15.9959 14.299 15.9249 14.394 15.8039C14.489 15.6829 14.523 15.5239 14.485 15.3749L14.133 13.9689C14.321 13.9159 14.459 13.7599 14.487 13.5619C15.699 13.8649 16.352 15.2289 16.536 15.6839C16.614 15.8749 16.799 15.9959 16.999 15.9959C17.031 15.9959 17.062 15.9929 17.095 15.9869C17.33 15.9409 17.499 15.7349 17.499 15.4959C17.499 12.7259 16.566 9.93491 14.5 9.54591V4.49591C14.5 2.67491 12.466 0.272912 12.38 0.170912C12.189 -0.0520879 11.809 -0.0520879 11.619 0.170912C11.533 0.272912 9.5 2.67591 9.5 4.49591V9.54591C7.434 9.93391 6.5 12.7249 6.5 15.4959C6.5 15.7349 6.669 15.9409 6.904 15.9869C6.936 15.9929 6.968 15.9959 7 15.9959C7.2 15.9959 7.386 15.8749 7.463 15.6839C7.648 15.2289 8.301 13.8649 9.513 13.5619C9.54 13.7599 9.678 13.9159 9.866 13.9689L9.514 15.3749C9.477 15.5249 9.51 15.6829 9.605 15.8039C9.7 15.9249 9.845 15.9959 9.999 15.9959H10.372C10.302 16.2849 10.205 16.6569 10.073 17.0789C9.888 17.0239 9.695 16.9959 9.499 16.9959C8.396 16.9959 7.499 17.8929 7.499 18.9959V19.0169C7.293 19.0519 7.098 19.1289 6.927 19.2409C6.374 18.4669 5.484 17.9959 4.499 17.9959C2.845 17.9959 1.499 19.3419 1.499 20.9959C1.499 21.0239 1.499 21.0529 1.5 21.0809C0.918 21.2879 0.5 21.8439 0.5 22.4959C0.5 23.3229 1.173 23.9959 2 23.9959C2.276 23.9959 2.5 23.7719 2.5 23.4959C2.5 23.2199 2.276 22.9959 2 22.9959C1.724 22.9959 1.5 22.7719 1.5 22.4959C1.5 22.2339 1.703 22.0179 1.959 21.9969C1.984 22.0019 2.007 22.0049 2.026 22.0059C2.177 22.0109 2.331 21.9489 2.432 21.8319C2.533 21.7149 2.573 21.5569 2.542 21.4049C2.514 21.2689 2.5 21.1319 2.5 20.9959C2.5 19.8929 3.397 18.9959 4.5 18.9959C5.332 18.9959 6.062 19.5019 6.362 20.2839C6.435 20.4739 6.616 20.6009 6.82 20.6049C7.058 20.5979 7.209 20.4889 7.289 20.3009C7.39 20.0639 7.631 19.9149 7.931 20.0339C8.118 20.1079 8.331 20.0629 8.472 19.9199C8.612 19.7769 8.654 19.5639 8.577 19.3779C8.526 19.2559 8.5 19.1269 8.5 18.9959C8.5 18.4449 8.949 17.9959 9.5 17.9959C9.709 17.9959 9.91 18.0599 10.081 18.1799C10.209 18.2699 10.372 18.2969 10.521 18.2489C10.671 18.2019 10.789 18.0869 10.841 17.9389C11.126 17.1349 11.306 16.4219 11.401 15.9959H12.6C12.696 16.4219 12.876 17.1349 13.16 17.9399C13.212 18.0879 13.33 18.2029 13.48 18.2499C13.628 18.2979 13.792 18.2709 13.92 18.1809C14.09 18.0599 14.291 17.9959 14.5 17.9959C15.051 17.9959 15.5 18.4449 15.5 18.9959C15.5 19.1259 15.474 19.2549 15.423 19.3789C15.346 19.5649 15.388 19.7779 15.529 19.9209C15.671 20.0639 15.883 20.1089 16.069 20.0349C16.369 19.9159 16.609 20.0649 16.711 20.3019C16.79 20.4889 16.976 20.5979 17.18 20.6059C17.384 20.6019 17.565 20.4749 17.638 20.2849C17.937 19.5019 18.668 18.9959 19.5 18.9959C20.603 18.9959 21.5 19.8929 21.5 20.9959C21.5 21.1319 21.486 21.2689 21.459 21.4049C21.427 21.5569 21.468 21.7139 21.569 21.8319C21.664 21.9429 21.802 22.0059 21.948 22.0059C21.975 22.0069 22.005 22.0039 22.04 21.9969C22.297 22.0179 22.5 22.2339 22.5 22.4959C22.5 22.7719 22.276 22.9959 22 22.9959C21.724 22.9959 21.5 23.2199 21.5 23.4959C21.5 23.7719 21.724 23.9959 22 23.9959C22.827 23.9959 23.5 23.3229 23.5 22.4959C23.5 21.8569 23.099 21.3099 22.498 21.0999ZM14.501 10.5829C15.448 10.8979 16.044 12.0939 16.318 13.5209C15.79 12.9919 15.168 12.6629 14.501 12.5489V10.5829ZM9.5 12.5489C8.833 12.6629 8.211 12.9909 7.682 13.5209C7.956 12.0939 8.552 10.8969 9.5 10.5829V12.5489ZM12 1.30091C12.336 1.74991 12.746 2.36791 13.055 2.99591H10.946C11.254 2.36891 11.665 1.74991 12 1.30091ZM10.641 14.9959L10.891 13.9959H13.11L13.36 14.9959H10.641ZM13.5 12.9959H10.5V4.49591C10.5 4.33991 10.529 4.16991 10.57 3.99591H13.43C13.471 4.16991 13.5 4.33991 13.5 4.49591V12.9959ZM12 6.99591C11.724 6.99591 11.5 7.21991 11.5 7.49591C11.5 7.77191 11.724 7.99591 12 7.99591C12.276 7.99591 12.5 7.77191 12.5 7.49591C12.5 7.21991 12.276 6.99591 12 6.99591ZM18.5 20.9959C18.224 20.9959 18 21.2199 18 21.4959C18 21.7719 18.224 21.9959 18.5 21.9959C19.051 21.9959 19.5 22.4449 19.5 22.9959C19.5 23.2719 19.724 23.4959 20 23.4959C20.276 23.4959 20.5 23.2719 20.5 22.9959C20.5 21.8929 19.603 20.9959 18.5 20.9959Z" fill="white"/>
</g>
<defs>
<clipPath id="clip0_2101_10581">
<rect width="24" height="24" fill="white"/>
</clipPath>
</defs>
</svg>
