<svg width="24" height="24" viewBox="0 0 24 24" fill="none" xmlns="http://www.w3.org/2000/svg">
<g clip-path="url(#clip0_2101_10936)">
<path d="M13.001 11.5V6.5C13.001 6.298 12.879 6.115 12.692 6.038C12.504 5.961 12.291 6.002 12.147 6.146L11.147 7.146C10.952 7.341 10.952 7.658 11.147 7.853C11.342 8.048 11.659 8.048 11.854 7.853L12 7.707V11.5C12 11.776 12.224 12 12.5 12C12.776 12 13 11.776 13.001 11.5ZM17.506 14.914C17.552 14.807 17.6 14.714 17.657 14.657C17.791 14.522 18.108 14.427 18.415 14.334C18.925 14.18 19.503 14.005 19.794 13.502C20.082 13.005 19.947 12.421 19.827 11.905C19.754 11.59 19.678 11.262 19.729 11.071C19.776 10.896 20.008 10.649 20.213 10.431C20.582 10.039 21 9.594 21 9C21 8.407 20.582 7.962 20.213 7.569C20.008 7.35 19.776 7.103 19.729 6.928C19.678 6.737 19.754 6.409 19.827 6.094C19.947 5.578 20.083 4.994 19.795 4.497C19.504 3.995 18.926 3.82 18.415 3.666C18.108 3.573 17.791 3.477 17.657 3.343C17.523 3.208 17.427 2.891 17.334 2.584C17.179 2.074 17.004 1.495 16.501 1.204C16.006 0.917 15.422 1.054 14.906 1.172C14.59 1.246 14.261 1.32 14.072 1.27C13.897 1.225 13.65 0.992 13.432 0.787C13.039 0.418 12.593 0 12 0C11.407 0 10.961 0.418 10.568 0.787C10.35 0.992 10.103 1.224 9.929 1.27C9.736 1.319 9.41 1.245 9.094 1.172C8.579 1.053 7.995 0.918 7.498 1.204C6.995 1.495 6.82 2.073 6.666 2.584C6.573 2.891 6.477 3.207 6.343 3.342C6.209 3.477 5.892 3.572 5.585 3.665C5.075 3.819 4.497 3.994 4.206 4.497C3.918 4.994 4.053 5.578 4.173 6.094C4.246 6.409 4.322 6.737 4.271 6.928C4.224 7.103 3.992 7.35 3.787 7.568C3.418 7.961 3 8.406 3 9C3 9.593 3.418 10.038 3.787 10.431C3.992 10.65 4.224 10.897 4.271 11.072C4.322 11.263 4.246 11.591 4.173 11.906C4.053 12.422 3.917 13.006 4.205 13.503C4.496 14.005 5.074 14.18 5.585 14.334C5.892 14.427 6.209 14.523 6.343 14.657C6.4 14.714 6.448 14.808 6.494 14.915L3.038 23.309C2.959 23.502 3.007 23.724 3.16 23.866C3.254 23.954 3.376 24 3.5 24C3.576 24 3.653 23.982 3.724 23.947L7.464 22.077L10.223 23.916C10.35 24.001 10.51 24.023 10.654 23.976C10.8 23.929 10.915 23.819 10.969 23.676L12.061 20.764L13.026 23.659C13.075 23.806 13.191 23.922 13.338 23.973C13.485 24.024 13.648 24.003 13.777 23.916L16.536 22.077L20.276 23.947C20.347 23.982 20.424 24 20.5 24C20.624 24 20.746 23.954 20.841 23.866C20.994 23.724 21.042 23.501 20.963 23.309L17.506 14.914ZM11.533 19.324L10.254 22.734L7.778 21.084C7.629 20.985 7.438 20.973 7.277 21.053L4.471 22.456L7.014 16.281C7.134 16.485 7.282 16.67 7.499 16.796C7.994 17.085 8.578 16.946 9.094 16.828C9.41 16.753 9.738 16.678 9.928 16.73C10.103 16.775 10.35 17.008 10.568 17.213C10.709 17.345 10.86 17.478 11.019 17.601C11.023 17.62 11.02 17.64 11.026 17.659L11.564 19.274C11.555 19.291 11.54 19.305 11.533 19.324ZM12 17C11.803 17 11.511 16.726 11.253 16.484C10.935 16.185 10.605 15.875 10.187 15.763C10.052 15.727 9.915 15.712 9.778 15.712C9.475 15.712 9.168 15.783 8.867 15.852C8.548 15.927 8.153 16.019 7.998 15.929C7.837 15.835 7.723 15.458 7.622 15.124C7.494 14.699 7.361 14.261 7.049 13.948C6.738 13.637 6.298 13.504 5.874 13.375C5.541 13.274 5.163 13.16 5.07 13C4.981 12.845 5.073 12.449 5.147 12.131C5.248 11.696 5.353 11.246 5.237 10.813C5.125 10.395 4.815 10.065 4.516 9.746C4.274 9.489 4 9.197 4 9C4 8.803 4.274 8.511 4.516 8.253C4.816 7.935 5.125 7.605 5.237 7.187C5.353 6.756 5.248 6.305 5.147 5.87C5.073 5.552 4.981 5.155 5.071 5C5.164 4.839 5.541 4.725 5.874 4.624C6.299 4.496 6.738 4.364 7.05 4.051C7.362 3.739 7.495 3.3 7.623 2.875C7.723 2.542 7.837 2.165 7.998 2.071C8.153 1.981 8.549 2.074 8.868 2.148C9.303 2.249 9.753 2.354 10.187 2.238C10.605 2.125 10.934 1.816 11.253 1.517C11.511 1.274 11.803 1 12 1C12.197 1 12.489 1.274 12.749 1.517C13.067 1.816 13.397 2.126 13.815 2.238C14.247 2.354 14.698 2.249 15.133 2.148C15.452 2.073 15.848 1.981 16.002 2.071C16.163 2.165 16.277 2.542 16.378 2.876C16.506 3.301 16.639 3.739 16.951 4.052C17.262 4.363 17.702 4.496 18.126 4.625C18.459 4.726 18.837 4.84 18.93 5C19.019 5.155 18.927 5.551 18.853 5.869C18.752 6.304 18.647 6.754 18.763 7.187C18.875 7.605 19.185 7.935 19.484 8.254C19.726 8.511 20 8.803 20 9C20 9.197 19.726 9.489 19.484 9.747C19.184 10.065 18.875 10.395 18.763 10.813C18.647 11.244 18.752 11.695 18.853 12.13C18.927 12.448 19.019 12.845 18.929 13C18.836 13.161 18.459 13.275 18.126 13.376C17.701 13.504 17.262 13.636 16.95 13.949C16.638 14.261 16.505 14.7 16.377 15.125C16.277 15.458 16.163 15.835 16.002 15.929C15.847 16.018 15.451 15.926 15.132 15.852C14.696 15.75 14.248 15.646 13.813 15.762C13.395 15.875 13.066 16.184 12.747 16.483C12.489 16.726 12.197 17 12 17ZM16.724 21.053C16.562 20.973 16.371 20.984 16.223 21.084L13.767 22.721L12.183 17.969C12.684 17.893 13.082 17.542 13.432 17.213C13.65 17.008 13.897 16.776 14.071 16.73C14.263 16.679 14.589 16.754 14.906 16.828C15.422 16.947 16.006 17.081 16.502 16.796C16.719 16.67 16.868 16.486 16.987 16.281L19.53 22.456L16.724 21.053Z" fill="white"/>
</g>
<defs>
<clipPath id="clip0_2101_10936">
<rect width="24" height="24" fill="white"/>
</clipPath>
</defs>
</svg>
