<svg width="24" height="24" viewBox="0 0 24 24" fill="none" xmlns="http://www.w3.org/2000/svg">
<g clip-path="url(#clip0_2101_10257)">
<path d="M22 23.9999H17C16.724 23.9999 16.5 23.7759 16.5 23.4999V10.4999C16.5 8.01888 14.481 5.99988 12 5.99988C9.519 5.99988 7.5 8.01888 7.5 10.4999V23.4999C7.5 23.7759 7.276 23.9999 7 23.9999H2C1.724 23.9999 1.5 23.7759 1.5 23.4999V10.4999C1.5 4.70988 6.21 -0.00012207 12 -0.00012207C17.79 -0.00012207 22.5 4.70988 22.5 10.4999V23.4999C22.5 23.7759 22.276 23.9999 22 23.9999ZM17.5 22.9999H21.5V10.4999C21.5 5.26188 17.238 0.999878 12 0.999878C6.762 0.999878 2.5 5.26188 2.5 10.4999V22.9999H6.5V10.4999C6.5 7.46788 8.968 4.99988 12 4.99988C15.032 4.99988 17.5 7.46788 17.5 10.4999V22.9999Z" fill="white"/>
<path d="M22 19.9999H17C16.724 19.9999 16.5 19.7759 16.5 19.4999C16.5 19.2239 16.724 18.9999 17 18.9999H22C22.276 18.9999 22.5 19.2239 22.5 19.4999C22.5 19.7759 22.276 19.9999 22 19.9999Z" fill="white"/>
<path d="M7 19.9999H2C1.724 19.9999 1.5 19.7759 1.5 19.4999C1.5 19.2239 1.724 18.9999 2 18.9999H7C7.276 18.9999 7.5 19.2239 7.5 19.4999C7.5 19.7759 7.276 19.9999 7 19.9999Z" fill="white"/>
</g>
<defs>
<clipPath id="clip0_2101_10257">
<rect width="24" height="24" fill="white"/>
</clipPath>
</defs>
</svg>
