<svg width="24" height="24" viewBox="0 0 24 24" fill="none" xmlns="http://www.w3.org/2000/svg">
<g clip-path="url(#clip0_2101_10931)">
<path d="M24 9.75C24 8.883 23.503 8.122 22.765 7.75C22.919 7.443 23 7.103 23 6.75C23 5.882 22.503 5.121 21.764 4.749C21.991 4.294 22.059 3.768 21.944 3.247C21.721 2.234 20.768 1.5 19.679 1.5H10.5C9.806 1.5 8.685 1.724 7.853 2.153C7.505 1.19 6.582 0.5 5.5 0.5H2.5C1.122 0.5 0 1.622 0 3V11C0 12.378 1.122 13.5 2.5 13.5H7.5C7.776 13.5 8 13.276 8 13V12.809L8.12 12.869L11 19.11V22.5C11 22.652 11.069 22.795 11.187 22.891C11.219 22.916 11.961 23.5 13 23.5C14.157 23.5 16 21.669 16 19.5C16 18.132 15.51 16.429 15.205 15.5H21.381C22.727 15.5 23.872 14.505 23.989 13.234C24.055 12.522 23.817 11.836 23.35 11.325C23.761 10.911 24 10.351 24 9.75ZM7 12.504H2.5C1.673 12.504 1 11.831 1 11.004V3.004C1 2.177 1.673 1.504 2.5 1.504H5.5C6.327 1.504 7 2.177 7 3.004V12C7 12.001 7 12.001 7 12.002C7 12.003 7 12.003 7 12.004V12.504ZM22.282 11.727C22.773 12.03 23.046 12.572 22.993 13.143C22.923 13.904 22.215 14.5 21.381 14.5H14.5C14.335 14.5 14.183 14.582 14.089 14.717C13.995 14.852 13.974 15.025 14.033 15.178C14.042 15.203 15 17.741 15 19.5C15 21.137 13.548 22.5 13 22.5C12.569 22.5 12.207 22.343 12 22.228H11.999V19.004C11.999 18.932 11.983 18.86 11.953 18.795L8.953 12.295C8.906 12.192 8.825 12.108 8.723 12.057L8 11.695V3.241C8.56 2.824 9.757 2.504 10.5 2.504H19.681C20.305 2.504 20.847 2.908 20.97 3.466C21.069 3.913 20.937 4.348 20.607 4.66C20.465 4.793 20.414 4.996 20.476 5.181C20.537 5.365 20.7 5.497 20.893 5.519C21.524 5.591 22.001 6.121 22.001 6.752C22.001 7.096 21.861 7.418 21.606 7.659C21.464 7.792 21.413 7.995 21.475 8.18C21.536 8.364 21.699 8.496 21.892 8.518C22.523 8.59 23 9.12 23 9.751C23 10.216 22.738 10.64 22.316 10.857C22.156 10.939 22.052 11.102 22.045 11.282C22.037 11.462 22.128 11.632 22.282 11.727Z" fill="white"/>
</g>
<defs>
<clipPath id="clip0_2101_10931">
<rect width="24" height="24" fill="white"/>
</clipPath>
</defs>
</svg>
