<svg width="24" height="24" viewBox="0 0 24 24" fill="none" xmlns="http://www.w3.org/2000/svg">
<g id="Group">
<path id="Vector" d="M11 23.5C5.21 23.5 0.5 18.79 0.5 13C0.5 7.21 5.21 2.5 11 2.5C13.064 2.5 15.065 3.103 16.788 4.243C17.017 4.395 17.081 4.706 16.929 4.936C16.775 5.167 16.465 5.228 16.236 5.077C14.678 4.046 12.867 3.5 11 3.5C5.762 3.5 1.5 7.762 1.5 13C1.5 18.238 5.762 22.5 11 22.5C16.238 22.5 20.5 18.238 20.5 13C20.5 11.133 19.955 9.322 18.923 7.764C18.771 7.534 18.834 7.223 19.064 7.071C19.293 6.92 19.603 6.981 19.757 7.212C20.898 8.934 21.5 10.936 21.5 13C21.5 18.79 16.79 23.5 11 23.5Z" fill="white"/>
<path id="Vector_2" d="M11 15.5C9.621 15.5 8.5 14.378 8.5 13C8.5 11.622 9.621 10.5 11 10.5C12.379 10.5 13.5 11.622 13.5 13C13.5 14.378 12.379 15.5 11 15.5ZM11 11.5C10.173 11.5 9.5 12.173 9.5 13C9.5 13.827 10.173 14.5 11 14.5C11.827 14.5 12.5 13.827 12.5 13C12.5 12.173 11.827 11.5 11 11.5Z" fill="white"/>
<path id="Vector_3" d="M11.0003 13.5C10.8723 13.5 10.7442 13.451 10.6462 13.354C10.4513 13.159 10.4513 12.842 10.6462 12.647L18.5002 4.79297V2.99997C18.5002 2.86697 18.5532 2.73997 18.6462 2.64597L20.6462 0.645974C20.7902 0.502974 21.0052 0.458974 21.1912 0.537974C21.3783 0.615974 21.5002 0.797974 21.5002 0.999974V2.49997H23.0002C23.2022 2.49997 23.3853 2.62197 23.4622 2.80897C23.5392 2.99597 23.4963 3.21097 23.3542 3.35397L21.3542 5.35397C21.2603 5.44797 21.1333 5.49997 21.0002 5.49997H19.2073L11.3532 13.354C11.2562 13.451 11.1283 13.5 11.0003 13.5ZM19.5002 4.49997H20.7932L21.7932 3.49997H21.0002C20.7242 3.49997 20.5002 3.27597 20.5002 2.99997V2.20697L19.5002 3.20697V4.49997Z" fill="white"/>
<path id="Vector_4" d="M11 19.5C7.416 19.5 4.5 16.584 4.5 13C4.5 9.416 7.416 6.5 11 6.5C11.97 6.5 12.911 6.715 13.797 7.139C14.046 7.259 14.151 7.557 14.032 7.806C13.913 8.055 13.614 8.16 13.365 8.041C12.615 7.682 11.819 7.5 11 7.5C7.968 7.5 5.5 9.967 5.5 13C5.5 16.033 7.968 18.5 11 18.5C14.032 18.5 16.5 16.033 16.5 13C16.5 12.181 16.317 11.385 15.958 10.634C15.839 10.385 15.944 10.087 16.193 9.967C16.439 9.847 16.74 9.951 16.86 10.202C17.285 11.089 17.5 12.03 17.5 13C17.5 16.584 14.584 19.5 11 19.5Z" fill="white"/>
</g>
</svg>
