<svg width="280" height="219" viewBox="0 0 280 219" fill="none" xmlns="http://www.w3.org/2000/svg">
<rect y="16" width="280" height="203" rx="14" fill="#1B1B1F"/>
<rect x="106.5" width="67" height="32" rx="14" fill="#242429"/>
<path opacity="0.5" d="M123.564 21V11.2H127.204C127.895 11.2 128.506 11.34 129.038 11.62C129.57 11.8907 129.985 12.2733 130.284 12.768C130.583 13.2533 130.732 13.818 130.732 14.462C130.732 15.0967 130.587 15.6613 130.298 16.156C130.009 16.6507 129.612 17.0427 129.108 17.332C128.604 17.612 128.021 17.752 127.358 17.752H125.482V21H123.564ZM125.482 15.988H127.316C127.745 15.988 128.095 15.848 128.366 15.568C128.646 15.2787 128.786 14.91 128.786 14.462C128.786 14.014 128.632 13.65 128.324 13.37C128.025 13.09 127.638 12.95 127.162 12.95H125.482V15.988ZM132.588 17.318C132.588 16.562 132.733 15.9367 133.022 15.442C133.321 14.9473 133.699 14.5787 134.156 14.336C134.623 14.0933 135.108 13.972 135.612 13.972V15.764C135.183 15.764 134.777 15.8153 134.394 15.918C134.021 16.0207 133.718 16.1887 133.484 16.422C133.251 16.6553 133.134 16.954 133.134 17.318H132.588ZM131.286 21V14H133.134V21H131.286ZM139.461 21.168C138.752 21.168 138.117 21.014 137.557 20.706C137.006 20.3887 136.572 19.9547 136.255 19.404C135.947 18.8533 135.793 18.2187 135.793 17.5C135.793 16.7813 135.947 16.1467 136.255 15.596C136.563 15.0453 136.992 14.616 137.543 14.308C138.094 13.9907 138.724 13.832 139.433 13.832C140.152 13.832 140.786 13.9907 141.337 14.308C141.888 14.616 142.317 15.0453 142.625 15.596C142.933 16.1467 143.087 16.7813 143.087 17.5C143.087 18.2187 142.933 18.8533 142.625 19.404C142.317 19.9547 141.888 20.3887 141.337 20.706C140.796 21.014 140.17 21.168 139.461 21.168ZM139.461 19.46C139.806 19.46 140.11 19.376 140.371 19.208C140.632 19.04 140.833 18.8113 140.973 18.522C141.122 18.2233 141.197 17.8827 141.197 17.5C141.197 17.1173 141.122 16.7813 140.973 16.492C140.824 16.1933 140.614 15.96 140.343 15.792C140.082 15.624 139.778 15.54 139.433 15.54C139.097 15.54 138.794 15.624 138.523 15.792C138.262 15.96 138.056 16.1933 137.907 16.492C137.758 16.7813 137.683 17.1173 137.683 17.5C137.683 17.8827 137.758 18.2233 137.907 18.522C138.056 18.8113 138.266 19.04 138.537 19.208C138.808 19.376 139.116 19.46 139.461 19.46ZM144.586 21V13.3C144.586 12.5533 144.777 11.9747 145.16 11.564C145.542 11.144 146.126 10.934 146.91 10.934C147.18 10.934 147.465 10.9807 147.764 11.074C148.072 11.1673 148.352 11.2793 148.604 11.41L147.918 12.74C147.768 12.6653 147.633 12.6093 147.512 12.572C147.39 12.5347 147.278 12.516 147.176 12.516C146.924 12.516 146.737 12.6047 146.616 12.782C146.494 12.95 146.434 13.2253 146.434 13.608V21H144.586ZM143.424 15.484V14H148.156V15.484H143.424ZM149.074 21V14H150.922V21H149.074ZM149.998 12.866C149.718 12.866 149.47 12.7633 149.256 12.558C149.041 12.3433 148.934 12.0913 148.934 11.802C148.934 11.5127 149.041 11.2653 149.256 11.06C149.47 10.8453 149.718 10.738 149.998 10.738C150.287 10.738 150.534 10.8453 150.74 11.06C150.954 11.2653 151.062 11.5127 151.062 11.802C151.062 12.0913 150.954 12.3433 150.74 12.558C150.534 12.7633 150.287 12.866 149.998 12.866ZM155.09 21.168C154.315 21.168 153.727 20.9767 153.326 20.594C152.934 20.2113 152.738 19.6653 152.738 18.956V11.816H154.586V18.55C154.586 18.8487 154.651 19.0773 154.782 19.236C154.912 19.3853 155.104 19.46 155.356 19.46C155.449 19.46 155.552 19.4413 155.664 19.404C155.776 19.3573 155.892 19.292 156.014 19.208L156.658 20.594C156.434 20.762 156.182 20.8973 155.902 21C155.631 21.112 155.36 21.168 155.09 21.168ZM151.604 15.568V14H156.336V15.568H151.604Z" fill="white"/>
<path opacity="0.5" d="M25.2 59L17.76 48.824L19.248 47.8L26.672 57.944L25.2 59ZM17.328 59V47.8H19.248L19.184 49.4V59H17.328ZM25.2 59V47.8H27.056V59H25.2ZM32.7906 59.192C32.012 59.192 31.3186 59.016 30.7106 58.664C30.1133 58.3013 29.6386 57.8053 29.2866 57.176C28.9453 56.5467 28.7746 55.8213 28.7746 55C28.7746 54.1787 28.9506 53.4533 29.3026 52.824C29.6546 52.1947 30.1346 51.704 30.7426 51.352C31.3613 50.9893 32.0653 50.808 32.8546 50.808C33.5693 50.808 34.2093 50.9947 34.7746 51.368C35.3506 51.7307 35.8093 52.2587 36.1506 52.952C36.492 53.6453 36.6626 54.472 36.6626 55.432H34.8546C34.8546 54.7387 34.7693 54.168 34.5986 53.72C34.4386 53.272 34.204 52.9413 33.8946 52.728C33.596 52.504 33.228 52.392 32.7906 52.392C32.332 52.392 31.9373 52.4933 31.6066 52.696C31.276 52.8987 31.0253 53.1973 30.8546 53.592C30.684 53.976 30.5986 54.4613 30.5986 55.048C30.5986 55.5707 30.7 56.0187 30.9026 56.392C31.116 56.7653 31.3986 57.0533 31.7506 57.256C32.1133 57.448 32.5133 57.544 32.9506 57.544C33.4306 57.544 33.8253 57.4373 34.1346 57.224C34.444 57 34.684 56.7173 34.8546 56.376L36.5026 57.08C36.2786 57.5067 35.9906 57.88 35.6386 58.2C35.2973 58.52 34.8866 58.7653 34.4066 58.936C33.9373 59.1067 33.3986 59.192 32.7906 59.192ZM29.9586 55.432V54.008H35.7186V55.432H29.9586ZM44.9863 59L47.6583 51H49.4663L46.7463 59H44.9863ZM39.6263 59L42.2343 51H43.8183L41.2423 59H39.6263ZM39.4663 59L36.7463 51H38.5543L41.1623 59H39.4663ZM44.9703 59L42.4103 51H43.9943L46.6023 59H44.9703ZM59.3485 59.192C58.2712 59.192 57.3112 58.9467 56.4685 58.456C55.6365 57.9547 54.9805 57.272 54.5005 56.408C54.0312 55.5333 53.7965 54.5307 53.7965 53.4C53.7965 52.2693 54.0312 51.272 54.5005 50.408C54.9805 49.5333 55.6365 48.8507 56.4685 48.36C57.3005 47.8587 58.2552 47.608 59.3325 47.608C60.0578 47.608 60.7405 47.7413 61.3805 48.008C62.0205 48.264 62.5858 48.6213 63.0765 49.08C63.5778 49.5387 63.9618 50.072 64.2285 50.68L62.5325 51.368C62.3405 50.9627 62.0792 50.6053 61.7485 50.296C61.4285 49.976 61.0605 49.7307 60.6445 49.56C60.2285 49.3893 59.7912 49.304 59.3325 49.304C58.6285 49.304 57.9992 49.48 57.4445 49.832C56.9005 50.184 56.4685 50.6693 56.1485 51.288C55.8392 51.896 55.6845 52.6 55.6845 53.4C55.6845 54.2 55.8392 54.9093 56.1485 55.528C56.4685 56.1467 56.9058 56.632 57.4605 56.984C58.0258 57.336 58.6658 57.512 59.3805 57.512C59.8498 57.512 60.2872 57.4213 60.6925 57.24C61.1085 57.048 61.4765 56.7867 61.7965 56.456C62.1272 56.1253 62.3885 55.7413 62.5805 55.304L64.2765 55.992C64.0098 56.6213 63.6312 57.1813 63.1405 57.672C62.6498 58.152 62.0792 58.5253 61.4285 58.792C60.7778 59.0587 60.0845 59.192 59.3485 59.192ZM65.567 59V47.8H67.359V59H65.567ZM69.3003 59L69.3163 51H71.0923L71.0763 59H69.3003ZM70.1963 49.48C69.9083 49.48 69.6576 49.3787 69.4443 49.176C69.2416 48.9627 69.1403 48.712 69.1403 48.424C69.1403 48.136 69.2416 47.8907 69.4443 47.688C69.6576 47.4853 69.9083 47.384 70.1963 47.384C70.4843 47.384 70.7296 47.4853 70.9323 47.688C71.1456 47.8907 71.2523 48.136 71.2523 48.424C71.2523 48.712 71.1456 48.9627 70.9323 49.176C70.7296 49.3787 70.4843 49.48 70.1963 49.48ZM76.5963 59.192C75.8176 59.192 75.1243 59.016 74.5163 58.664C73.9189 58.3013 73.4443 57.8053 73.0923 57.176C72.7509 56.5467 72.5803 55.8213 72.5803 55C72.5803 54.1787 72.7563 53.4533 73.1083 52.824C73.4603 52.1947 73.9403 51.704 74.5483 51.352C75.1669 50.9893 75.8709 50.808 76.6603 50.808C77.3749 50.808 78.0149 50.9947 78.5803 51.368C79.1563 51.7307 79.6149 52.2587 79.9563 52.952C80.2976 53.6453 80.4683 54.472 80.4683 55.432H78.6603C78.6603 54.7387 78.5749 54.168 78.4043 53.72C78.2443 53.272 78.0096 52.9413 77.7003 52.728C77.4016 52.504 77.0336 52.392 76.5963 52.392C76.1376 52.392 75.7429 52.4933 75.4123 52.696C75.0816 52.8987 74.8309 53.1973 74.6603 53.592C74.4896 53.976 74.4043 54.4613 74.4043 55.048C74.4043 55.5707 74.5056 56.0187 74.7083 56.392C74.9216 56.7653 75.2043 57.0533 75.5563 57.256C75.9189 57.448 76.3189 57.544 76.7563 57.544C77.2363 57.544 77.6309 57.4373 77.9403 57.224C78.2496 57 78.4896 56.7173 78.6603 56.376L80.3083 57.08C80.0843 57.5067 79.7963 57.88 79.4443 58.2C79.1029 58.52 78.6923 58.7653 78.2123 58.936C77.7429 59.1067 77.2043 59.192 76.5963 59.192ZM73.7643 55.432V54.008H79.5243V55.432H73.7643ZM81.6808 59V51H83.3608L83.4728 52.472V59H81.6808ZM87.1048 59V54.904L88.8968 54.424V59H87.1048ZM87.1048 54.904C87.1048 54.264 87.0301 53.7733 86.8808 53.432C86.7421 53.08 86.5394 52.8347 86.2728 52.696C86.0168 52.5573 85.7128 52.488 85.3608 52.488C84.7634 52.4773 84.2994 52.6747 83.9688 53.08C83.6381 53.4853 83.4728 54.0667 83.4728 54.824H82.8008C82.8008 53.9813 82.9234 53.2613 83.1688 52.664C83.4141 52.056 83.7661 51.5973 84.2248 51.288C84.6834 50.968 85.2274 50.808 85.8568 50.808C86.8274 50.808 87.5741 51.1067 88.0968 51.704C88.6301 52.2907 88.8968 53.1973 88.8968 54.424L87.1048 54.904ZM93.736 59.192C92.8933 59.192 92.248 58.984 91.8 58.568C91.3627 58.1413 91.144 57.5333 91.144 56.744V48.504H92.92V56.408C92.92 56.7813 93.0053 57.064 93.176 57.256C93.3573 57.448 93.6187 57.544 93.96 57.544C94.0667 57.544 94.184 57.5227 94.312 57.48C94.44 57.4373 94.584 57.3573 94.744 57.24L95.4 58.6C95.1227 58.792 94.8453 58.936 94.568 59.032C94.2907 59.1387 94.0133 59.192 93.736 59.192ZM89.816 52.536V51H95.08V52.536H89.816ZM99.5853 59.192C99.0519 59.192 98.5613 59.112 98.1133 58.952C97.6653 58.792 97.2813 58.568 96.9613 58.28C96.6413 57.9813 96.3959 57.6347 96.2253 57.24L97.7773 56.552C97.9373 56.8507 98.1719 57.1013 98.4813 57.304C98.8013 57.5067 99.1533 57.608 99.5373 57.608C99.9533 57.608 100.284 57.5387 100.529 57.4C100.785 57.2507 100.913 57.048 100.913 56.792C100.913 56.5467 100.817 56.36 100.625 56.232C100.433 56.0933 100.161 55.9813 99.8093 55.896L99.0573 55.688C98.2999 55.496 97.7079 55.192 97.2813 54.776C96.8546 54.3493 96.6413 53.864 96.6413 53.32C96.6413 52.52 96.8973 51.9013 97.4093 51.464C97.9319 51.0267 98.6786 50.808 99.6493 50.808C100.14 50.808 100.588 50.8827 100.993 51.032C101.409 51.1707 101.767 51.3733 102.065 51.64C102.364 51.896 102.572 52.2 102.689 52.552L101.201 53.224C101.095 52.9573 100.892 52.7547 100.593 52.616C100.295 52.4667 99.9639 52.392 99.6013 52.392C99.2386 52.392 98.9559 52.472 98.7533 52.632C98.5506 52.7813 98.4493 52.9947 98.4493 53.272C98.4493 53.432 98.5399 53.5813 98.7213 53.72C98.9026 53.848 99.1639 53.9547 99.5053 54.04L100.449 54.264C100.972 54.392 101.399 54.5947 101.729 54.872C102.06 55.1387 102.305 55.4427 102.465 55.784C102.625 56.1147 102.705 56.4507 102.705 56.792C102.705 57.272 102.567 57.6933 102.289 58.056C102.023 58.4187 101.655 58.7013 101.185 58.904C100.716 59.096 100.183 59.192 99.5853 59.192Z" fill="white"/>
<rect x="16" y="83" width="160" height="20" rx="10" fill="#303037"/>
<rect x="16" y="111" width="92" height="20" rx="10" fill="#242429"/>
<rect x="216" y="83" width="48" height="48" rx="12" fill="#175438"/>
<path opacity="0.8" d="M233.816 114.424C232.792 114.424 231.864 114.264 231.032 113.944C230.2 113.624 229.512 113.192 228.968 112.648C228.44 112.104 228.104 111.52 227.96 110.896L230.888 110.032C231.064 110.512 231.384 110.928 231.848 111.28C232.328 111.616 232.928 111.792 233.648 111.808C234.4 111.824 235.008 111.664 235.472 111.328C235.952 110.992 236.192 110.544 236.192 109.984C236.192 109.536 236 109.152 235.616 108.832C235.248 108.496 234.736 108.248 234.08 108.088L232.112 107.608C231.376 107.4 230.728 107.104 230.168 106.72C229.608 106.336 229.176 105.864 228.872 105.304C228.568 104.728 228.416 104.064 228.416 103.312C228.416 101.888 228.88 100.776 229.808 99.976C230.752 99.176 232.088 98.776 233.816 98.776C234.776 98.776 235.616 98.912 236.336 99.184C237.072 99.456 237.688 99.856 238.184 100.384C238.68 100.896 239.056 101.512 239.312 102.232L236.384 103.12C236.224 102.656 235.912 102.256 235.448 101.92C235 101.568 234.424 101.392 233.72 101.392C233.032 101.392 232.488 101.56 232.088 101.896C231.688 102.216 231.488 102.664 231.488 103.24C231.488 103.704 231.64 104.08 231.944 104.368C232.264 104.64 232.696 104.84 233.24 104.968L235.232 105.472C236.528 105.792 237.528 106.368 238.232 107.2C238.952 108.016 239.312 108.928 239.312 109.936C239.312 110.848 239.096 111.64 238.664 112.312C238.232 112.984 237.608 113.504 236.792 113.872C235.976 114.24 234.984 114.424 233.816 114.424ZM232.544 117.472V113.296H235.184V117.472H232.544ZM232.544 100.456V96.28H235.184V100.456H232.544ZM246.385 114.424C245.361 114.424 244.433 114.264 243.601 113.944C242.769 113.624 242.081 113.192 241.537 112.648C241.009 112.104 240.673 111.52 240.529 110.896L243.457 110.032C243.633 110.512 243.953 110.928 244.417 111.28C244.897 111.616 245.497 111.792 246.217 111.808C246.969 111.824 247.577 111.664 248.041 111.328C248.521 110.992 248.761 110.544 248.761 109.984C248.761 109.536 248.569 109.152 248.185 108.832C247.817 108.496 247.305 108.248 246.649 108.088L244.681 107.608C243.945 107.4 243.297 107.104 242.737 106.72C242.177 106.336 241.745 105.864 241.441 105.304C241.137 104.728 240.985 104.064 240.985 103.312C240.985 101.888 241.449 100.776 242.377 99.976C243.321 99.176 244.657 98.776 246.385 98.776C247.345 98.776 248.185 98.912 248.905 99.184C249.641 99.456 250.257 99.856 250.753 100.384C251.249 100.896 251.625 101.512 251.881 102.232L248.953 103.12C248.793 102.656 248.481 102.256 248.017 101.92C247.569 101.568 246.993 101.392 246.289 101.392C245.601 101.392 245.057 101.56 244.657 101.896C244.257 102.216 244.057 102.664 244.057 103.24C244.057 103.704 244.209 104.08 244.513 104.368C244.833 104.64 245.265 104.84 245.809 104.968L247.801 105.472C249.097 105.792 250.097 106.368 250.801 107.2C251.521 108.016 251.881 108.928 251.881 109.936C251.881 110.848 251.665 111.64 251.233 112.312C250.801 112.984 250.177 113.504 249.361 113.872C248.545 114.24 247.553 114.424 246.385 114.424ZM245.113 117.472V113.296H247.753V117.472H245.113ZM245.113 100.456V96.28H247.753V100.456H245.113Z" fill="white"/>
<rect x="16" y="151" width="160" height="20" rx="10" fill="#303037"/>
<rect x="16" y="179" width="92" height="20" rx="10" fill="#242429"/>
<rect x="216" y="151" width="48" height="48" rx="12" fill="#175438"/>
<path opacity="0.8" d="M233.816 182.424C232.792 182.424 231.864 182.264 231.032 181.944C230.2 181.624 229.512 181.192 228.968 180.648C228.44 180.104 228.104 179.52 227.96 178.896L230.888 178.032C231.064 178.512 231.384 178.928 231.848 179.28C232.328 179.616 232.928 179.792 233.648 179.808C234.4 179.824 235.008 179.664 235.472 179.328C235.952 178.992 236.192 178.544 236.192 177.984C236.192 177.536 236 177.152 235.616 176.832C235.248 176.496 234.736 176.248 234.08 176.088L232.112 175.608C231.376 175.4 230.728 175.104 230.168 174.72C229.608 174.336 229.176 173.864 228.872 173.304C228.568 172.728 228.416 172.064 228.416 171.312C228.416 169.888 228.88 168.776 229.808 167.976C230.752 167.176 232.088 166.776 233.816 166.776C234.776 166.776 235.616 166.912 236.336 167.184C237.072 167.456 237.688 167.856 238.184 168.384C238.68 168.896 239.056 169.512 239.312 170.232L236.384 171.12C236.224 170.656 235.912 170.256 235.448 169.92C235 169.568 234.424 169.392 233.72 169.392C233.032 169.392 232.488 169.56 232.088 169.896C231.688 170.216 231.488 170.664 231.488 171.24C231.488 171.704 231.64 172.08 231.944 172.368C232.264 172.64 232.696 172.84 233.24 172.968L235.232 173.472C236.528 173.792 237.528 174.368 238.232 175.2C238.952 176.016 239.312 176.928 239.312 177.936C239.312 178.848 239.096 179.64 238.664 180.312C238.232 180.984 237.608 181.504 236.792 181.872C235.976 182.24 234.984 182.424 233.816 182.424ZM232.544 185.472V181.296H235.184V185.472H232.544ZM232.544 168.456V164.28H235.184V168.456H232.544ZM246.385 182.424C245.361 182.424 244.433 182.264 243.601 181.944C242.769 181.624 242.081 181.192 241.537 180.648C241.009 180.104 240.673 179.52 240.529 178.896L243.457 178.032C243.633 178.512 243.953 178.928 244.417 179.28C244.897 179.616 245.497 179.792 246.217 179.808C246.969 179.824 247.577 179.664 248.041 179.328C248.521 178.992 248.761 178.544 248.761 177.984C248.761 177.536 248.569 177.152 248.185 176.832C247.817 176.496 247.305 176.248 246.649 176.088L244.681 175.608C243.945 175.4 243.297 175.104 242.737 174.72C242.177 174.336 241.745 173.864 241.441 173.304C241.137 172.728 240.985 172.064 240.985 171.312C240.985 169.888 241.449 168.776 242.377 167.976C243.321 167.176 244.657 166.776 246.385 166.776C247.345 166.776 248.185 166.912 248.905 167.184C249.641 167.456 250.257 167.856 250.753 168.384C251.249 168.896 251.625 169.512 251.881 170.232L248.953 171.12C248.793 170.656 248.481 170.256 248.017 169.92C247.569 169.568 246.993 169.392 246.289 169.392C245.601 169.392 245.057 169.56 244.657 169.896C244.257 170.216 244.057 170.664 244.057 171.24C244.057 171.704 244.209 172.08 244.513 172.368C244.833 172.64 245.265 172.84 245.809 172.968L247.801 173.472C249.097 173.792 250.097 174.368 250.801 175.2C251.521 176.016 251.881 176.928 251.881 177.936C251.881 178.848 251.665 179.64 251.233 180.312C250.801 180.984 250.177 181.504 249.361 181.872C248.545 182.24 247.553 182.424 246.385 182.424ZM245.113 185.472V181.296H247.753V185.472H245.113ZM245.113 168.456V164.28H247.753V168.456H245.113Z" fill="white"/>
</svg>
