<svg width="24" height="24" viewBox="0 0 24 24" fill="none" xmlns="http://www.w3.org/2000/svg">
<path d="M19 20.5C16.402 20.5 15 15.348 15 10.5C15 5.652 16.402 0.5 19 0.5C21.598 0.5 23 5.652 23 10.5C23 15.348 21.598 20.5 19 20.5ZM19 1.5C17.581 1.5 16 5.196 16 10.5C16 15.804 17.581 19.5 19 19.5C20.419 19.5 22 15.804 22 10.5C22 5.196 20.419 1.5 19 1.5Z" fill="white"/>
<path d="M18.5 13.5C18.224 13.5 18 13.276 18 13C18 12.724 18.224 12.5 18.5 12.5C19.327 12.5 20 11.603 20 10.5C20 9.397 19.327 8.5 18.5 8.5C18.224 8.5 18 8.276 18 8C18 7.724 18.224 7.5 18.5 7.5C19.879 7.5 21 8.846 21 10.5C21 12.154 19.879 13.5 18.5 13.5Z" fill="white"/>
<path d="M17.299 19.2991C17.198 19.2991 17.098 19.2691 17.011 19.2081L10.341 14.5001H5C2.794 14.5001 1 12.7061 1 10.5001C1 8.29405 2.794 6.50005 5 6.50005H10.341L17.011 1.79206C17.205 1.65406 17.474 1.67405 17.647 1.84205C17.82 2.01006 17.849 2.27606 17.716 2.47606C16.657 4.07906 16 7.15306 16 10.5001C16 13.8471 16.657 16.9211 17.716 18.5241C17.849 18.7251 17.82 18.9911 17.647 19.1581C17.551 19.2511 17.425 19.2991 17.299 19.2991ZM5 7.50005C3.346 7.50005 2 8.84606 2 10.5001C2 12.1541 3.346 13.5001 5 13.5001H10.5C10.604 13.5001 10.704 13.5321 10.788 13.5911L16.023 17.2861C15.376 15.4761 15 13.0521 15 10.5001C15 7.94806 15.376 5.52406 16.023 3.71306L10.788 7.40805C10.704 7.46805 10.604 7.50005 10.5 7.50005H5Z" fill="white"/>
<path d="M9.50025 23.5C9.40425 23.5 9.30825 23.473 9.22325 23.416L7.11325 22.01C6.41625 21.545 6.00025 20.768 6.00025 19.93V16.207L4.14625 14.353C3.95125 14.158 3.95125 13.841 4.14625 13.646C4.34125 13.451 4.65825 13.451 4.85325 13.646L6.85325 15.646C6.94725 15.74 7.00025 15.867 7.00025 16V19.93C7.00025 20.432 7.25025 20.899 7.66825 21.178L9.43725 22.357L9.56125 22.233C9.84425 21.949 10.0002 21.572 10.0002 21.171V20.828C10.0002 20.427 9.84425 20.051 9.56125 19.767C9.18225 19.388 9.02025 18.851 9.12425 18.329L9.89925 14.453C8.14225 14.174 7.00025 12.656 7.00025 10.5C7.00025 8.107 8.40625 6.5 10.5002 6.5C10.7762 6.5 11.0002 6.724 11.0002 7C11.0002 7.276 10.7762 7.5 10.5002 7.5C8.65425 7.5 8.00025 9.116 8.00025 10.5C8.00025 11.884 8.65425 13.5 10.5002 13.5C10.6493 13.5 10.7923 13.567 10.8872 13.683C10.9822 13.799 11.0202 13.951 10.9913 14.098L10.1052 18.526C10.0662 18.719 10.1263 18.919 10.2673 19.059C10.7403 19.533 11.0002 20.161 11.0002 20.829V21.172C11.0002 21.84 10.7402 22.468 10.2682 22.94L9.85425 23.354C9.75725 23.45 9.62925 23.5 9.50025 23.5Z" fill="white"/>
</svg>
