<svg width="24" height="24" viewBox="0 0 24 24" fill="none" xmlns="http://www.w3.org/2000/svg">
<g id="Crain" clip-path="url(#clip0_2101_10566)">
<path id="Vector" d="M23.5 8C23.776 8 24 7.776 24 7.5V4.5C24 4.224 23.776 4 23.5 4H20V0.5C20 0.224 19.776 0 19.5 0H16.5C16.224 0 16 0.224 16 0.5V4H4.5C4.367 4 4.24 4.053 4.146 4.146L1.146 7.146C1.003 7.289 0.96 7.504 1.038 7.691C1.115 7.878 1.298 8 1.5 8H2V11.051C0.861 11.283 0 12.294 0 13.5C0 14.878 1.122 16 2.5 16C3.878 16 5 14.878 5 13.5C5 12.293 4.139 11.283 3 11.051V8H16V10.999C16 11 16 11.001 16 11.002V14.499C16 14.5 16 14.501 16 14.502V17.999C16 18 16 18.001 16 18.002V21.001H13.5C13.311 21.001 13.138 21.108 13.053 21.277L12.053 23.277C11.975 23.431 11.984 23.616 12.075 23.763C12.166 23.91 12.327 24 12.5 24H23.5C23.673 24 23.834 23.91 23.925 23.763C24.016 23.616 24.025 23.432 23.947 23.277L22.947 21.277C22.862 21.108 22.689 21.001 22.5 21.001H20V8H23.5ZM4 13.5C4 14.327 3.327 15 2.5 15C1.673 15 1 14.327 1 13.5C1 12.673 1.673 12 2.5 12C3.327 12 4 12.673 4 13.5ZM13.206 7L11.206 5H13.292L15.292 7H13.206ZM9.706 7L7.706 5H9.792L11.792 7H9.706ZM17 11.207L19 9.207V11.293L17 13.293V11.207ZM17 14.707L19 12.707V14.793L17 16.793V14.707ZM17 18.207L19 16.207V18.293L17 20.293V18.207ZM19 19.707V21H17.707L19 19.707ZM17 9.793V8H18.793L17 9.793ZM20 5.208L21.792 7H20V5.208ZM23 6.794L21.206 5H23V6.794ZM17 1H19V7H17V1ZM16 6.294L14.706 5H16V6.294ZM4.707 5H6.292L8.292 7H6.206L4.456 5.25L4.707 5ZM3.75 5.958L4.792 7H2.707L3.75 5.958ZM22.691 23H13.309L13.809 22H16.5H19.5H22.191L22.691 23Z" fill="white"/>
</g>
<defs>
<clipPath id="clip0_2101_10566">
<rect width="24" height="24" fill="white"/>
</clipPath>
</defs>
</svg>
