<svg width="24" height="24" viewBox="0 0 24 24" fill="none" xmlns="http://www.w3.org/2000/svg">
<g clip-path="url(#clip0_2101_10951)">
<path d="M5.19125 13.039C5.00525 12.961 4.79025 13.004 4.64625 13.147L3.00025 14.793L1.35425 13.146C1.21125 13.003 0.99525 12.961 0.80925 13.038C0.62225 13.115 0.50025 13.298 0.50025 13.5V23.5C0.50025 23.776 0.72425 24 1.00025 24H5.00025C5.27625 24 5.50025 23.776 5.50025 23.5V13.5C5.50025 13.298 5.37825 13.115 5.19125 13.039ZM4.50025 23H1.50025V14.707L2.64725 15.853C2.84225 16.048 3.15925 16.048 3.35425 15.853L4.50025 14.707V23ZM22.3542 5.146C22.2603 5.053 22.1332 5 22.0002 5H21.0002C20.8673 5 20.7402 5.053 20.6462 5.146L18.6462 7.146C18.5532 7.24 18.5002 7.367 18.5002 7.5V23.5C18.5002 23.776 18.7243 24 19.0002 24H23.0002C23.2762 24 23.5002 23.776 23.5002 23.5V6.5C23.5002 6.367 23.4473 6.24 23.3542 6.146L22.3542 5.146ZM22.5002 23H19.5002V7.707L21.2073 6H21.7932L22.5002 6.707V23ZM23.0002 0H20.0002C19.7983 0 19.6162 0.122 19.5382 0.309C19.4603 0.496 19.5033 0.711 19.6462 0.854L20.7922 2L17.0002 5.793L15.3532 4.147C15.1582 3.952 14.8412 3.952 14.6462 4.147L11.0002 7.793L9.35325 6.147C9.15825 5.952 8.84125 5.952 8.64625 6.147L3.00025 11.793L1.35325 10.147C1.15825 9.952 0.84125 9.952 0.64625 10.147C0.45125 10.342 0.45125 10.659 0.64625 10.854L2.64625 12.854C2.74425 12.951 2.87225 13 3.00025 13C3.12825 13 3.25625 12.951 3.35425 12.853L9.00025 7.207L10.6473 8.853C10.8422 9.048 11.1593 9.048 11.3542 8.853L15.0002 5.207L16.6462 6.854C16.8412 7.049 17.1583 7.049 17.3533 6.854L21.5002 2.708L22.6462 3.854C22.7423 3.949 22.8703 4 23.0002 4C23.0642 4 23.1302 3.988 23.1912 3.962C23.3783 3.885 23.5002 3.702 23.5002 3.5V0.5C23.5002 0.224 23.2762 0 23.0002 0ZM22.5002 2.293L21.2073 1H22.5002V2.293ZM15.3532 7.146C15.1582 6.951 14.8412 6.951 14.6462 7.146L12.6462 9.146C12.5532 9.24 12.5002 9.367 12.5002 9.5V23.5C12.5002 23.776 12.7242 24 13.0002 24H17.0002C17.2762 24 17.5002 23.776 17.5002 23.5V9.5C17.5002 9.367 17.4473 9.24 17.3533 9.146L15.3532 7.146ZM16.5002 23H13.5002V9.707L15.0002 8.207L16.5002 9.707V23ZM9.35325 9.146C9.15825 8.951 8.84125 8.951 8.64625 9.146L6.64625 11.146C6.55325 11.24 6.50025 11.367 6.50025 11.5V23.5C6.50025 23.776 6.72425 24 7.00025 24H11.0002C11.2762 24 11.5002 23.776 11.5002 23.5V11.5C11.5002 11.367 11.4472 11.24 11.3532 11.146L9.35325 9.146ZM10.5002 23H7.50025V11.707L9.00025 10.207L10.5002 11.707V23Z" fill="white"/>
</g>
<defs>
<clipPath id="clip0_2101_10951">
<rect width="24" height="24" fill="white"/>
</clipPath>
</defs>
</svg>
