<svg width="24" height="24" viewBox="0 0 24 24" fill="none" xmlns="http://www.w3.org/2000/svg">
<g clip-path="url(#clip0_2101_10261)">
<path d="M21.5 23.9999H2.5C1.121 23.9999 0 22.8779 0 21.4999V2.49988C0 1.12188 1.121 -0.00012207 2.5 -0.00012207H21.5C22.879 -0.00012207 24 1.12188 24 2.49988V21.4999C24 22.8779 22.879 23.9999 21.5 23.9999ZM2.5 0.999878C1.673 0.999878 1 1.67288 1 2.49988V21.4999C1 22.3269 1.673 22.9999 2.5 22.9999H21.5C22.327 22.9999 23 22.3269 23 21.4999V2.49988C23 1.67288 22.327 0.999878 21.5 0.999878H2.5Z" fill="white"/>
<path d="M23.5 4.99988H0.5C0.224 4.99988 0 4.77588 0 4.49988C0 4.22388 0.224 3.99988 0.5 3.99988H23.5C23.776 3.99988 24 4.22388 24 4.49988C24 4.77588 23.776 4.99988 23.5 4.99988Z" fill="white"/>
<path d="M16.499 20.9999C16.402 20.9999 16.306 20.9719 16.222 20.9159L11.999 18.1009L7.77601 20.9159C7.60301 21.0319 7.37601 21.0269 7.20701 20.9059C7.03701 20.7839 6.96201 20.5699 7.01701 20.3689L8.42901 15.1899L4.19301 11.8949C4.02401 11.7639 3.95801 11.5399 4.02701 11.3379C4.09601 11.1359 4.28501 10.9999 4.49901 10.9999H9.66001L11.535 6.31388C11.685 5.93388 12.312 5.93388 12.463 6.31388L14.338 10.9999H19.499C19.713 10.9999 19.902 11.1359 19.972 11.3379C20.041 11.5399 19.975 11.7639 19.806 11.8949L15.569 15.1899L16.981 20.3689C17.036 20.5699 16.96 20.7839 16.791 20.9059C16.704 20.9679 16.602 20.9999 16.499 20.9999ZM11.999 16.9999C12.096 16.9999 12.192 17.0279 12.276 17.0839L15.665 19.3429L14.517 15.1309C14.464 14.9369 14.534 14.7289 14.693 14.6049L18.042 11.9999H13.999C13.795 11.9999 13.61 11.8749 13.535 11.6859L11.999 7.84588L10.463 11.6849C10.388 11.8749 10.203 11.9999 9.99901 11.9999H5.95601L9.30601 14.6049C9.46501 14.7289 9.53501 14.9369 9.48201 15.1309L8.33401 19.3429L11.723 17.0839C11.806 17.0279 11.902 16.9999 11.999 16.9999Z" fill="white"/>
<path d="M2.5 2.99988C2.77614 2.99988 3 2.77602 3 2.49988C3 2.22374 2.77614 1.99988 2.5 1.99988C2.22386 1.99988 2 2.22374 2 2.49988C2 2.77602 2.22386 2.99988 2.5 2.99988Z" fill="white"/>
<path d="M4.5 2.99988C4.77614 2.99988 5 2.77602 5 2.49988C5 2.22374 4.77614 1.99988 4.5 1.99988C4.22386 1.99988 4 2.22374 4 2.49988C4 2.77602 4.22386 2.99988 4.5 2.99988Z" fill="white"/>
<path d="M6.5 2.99988C6.77614 2.99988 7 2.77602 7 2.49988C7 2.22374 6.77614 1.99988 6.5 1.99988C6.22386 1.99988 6 2.22374 6 2.49988C6 2.77602 6.22386 2.99988 6.5 2.99988Z" fill="white"/>
</g>
<defs>
<clipPath id="clip0_2101_10261">
<rect width="24" height="24" fill="white"/>
</clipPath>
</defs>
</svg>
