<svg width="31" height="32" viewBox="0 0 31 32" fill="none" xmlns="http://www.w3.org/2000/svg">
<g id="Iron_Giant_1_">
<g id="Iron_Giant">
<g id="Group">
<path id="Vector" d="M21.9948 31.9999H8.66146C4.61879 31.9999 1.32812 28.7105 1.32812 24.6665V15.3332C1.32812 14.9652 1.62679 14.6665 1.99479 14.6665H4.66146C5.02946 14.6665 5.32812 14.9652 5.32812 15.3332C5.32812 15.7012 5.02946 15.9999 4.66146 15.9999H2.66146V24.6665C2.66146 27.9745 5.35346 30.6665 8.66146 30.6665H21.9948C25.3028 30.6665 27.9948 27.9745 27.9948 24.6665V15.9999H25.9948C25.6268 15.9999 25.3281 15.7012 25.3281 15.3332C25.3281 14.9652 25.6268 14.6665 25.9948 14.6665H28.6615C29.0295 14.6665 29.3281 14.9652 29.3281 15.3332V24.6665C29.3281 28.7105 26.0375 31.9999 21.9948 31.9999Z" fill="white"/>
</g>
<g id="Group_2">
<path id="Vector_2" d="M22 26.6665H8.66667C6.09333 26.6665 4 24.5732 4 21.9999V12.6665C4 6.41721 9.084 1.33321 15.3333 1.33321C21.5827 1.33321 26.6667 6.41721 26.6667 12.6665V21.9999C26.6667 24.5732 24.5733 26.6665 22 26.6665ZM15.3333 2.66654C9.81867 2.66654 5.33333 7.15187 5.33333 12.6665V21.9999C5.33333 23.8372 6.828 25.3332 8.66667 25.3332H22C23.8387 25.3332 25.3333 23.8372 25.3333 21.9999V12.6665C25.3333 7.15187 20.848 2.66654 15.3333 2.66654Z" fill="white"/>
</g>
<g id="Group_3">
<path id="Vector_3" d="M2 17.3332H0.666667C0.298667 17.3332 0 17.0345 0 16.6665C0 16.2985 0.298667 15.9999 0.666667 15.9999H2C2.368 15.9999 2.66667 16.2985 2.66667 16.6665C2.66667 17.0345 2.368 17.3332 2 17.3332Z" fill="white"/>
</g>
<g id="Group_4">
<path id="Vector_4" d="M30 17.3332H28.6667C28.2987 17.3332 28 17.0345 28 16.6665C28 16.2985 28.2987 15.9999 28.6667 15.9999H30C30.368 15.9999 30.6667 16.2985 30.6667 16.6665C30.6667 17.0345 30.368 17.3332 30 17.3332Z" fill="white"/>
</g>
<g id="Group_5">
<path id="Vector_5" d="M15.3385 19.9999C14.9705 19.9999 14.6719 19.7012 14.6719 19.3332V0.666545C14.6719 0.298545 14.9705 -0.00012207 15.3385 -0.00012207C15.7065 -0.00012207 16.0052 0.298545 16.0052 0.666545V19.3332C16.0052 19.7012 15.7065 19.9999 15.3385 19.9999Z" fill="white"/>
</g>
<g id="Group_6">
<path id="Vector_6" d="M10.0052 17.3332C8.16654 17.3332 6.67188 15.8372 6.67188 13.9999C6.67188 12.1625 8.16654 10.6665 10.0052 10.6665C11.8439 10.6665 13.3385 12.1625 13.3385 13.9999C13.3385 15.8372 11.8439 17.3332 10.0052 17.3332ZM10.0052 11.9999C8.90254 11.9999 8.00521 12.8972 8.00521 13.9999C8.00521 15.1025 8.90254 15.9999 10.0052 15.9999C11.1079 15.9999 12.0052 15.1025 12.0052 13.9999C12.0052 12.8972 11.1079 11.9999 10.0052 11.9999Z" fill="white"/>
</g>
<g id="Group_7">
<path id="Vector_7" d="M20.6615 17.3332C18.8228 17.3332 17.3281 15.8372 17.3281 13.9999C17.3281 12.1625 18.8228 10.6665 20.6615 10.6665C22.5001 10.6665 23.9948 12.1625 23.9948 13.9999C23.9948 15.8372 22.5001 17.3332 20.6615 17.3332ZM20.6615 11.9999C19.5588 11.9999 18.6615 12.8972 18.6615 13.9999C18.6615 15.1025 19.5588 15.9999 20.6615 15.9999C21.7641 15.9999 22.6615 15.1025 22.6615 13.9999C22.6615 12.8972 21.7641 11.9999 20.6615 11.9999Z" fill="white"/>
</g>
<g id="Group_8">
<path id="Vector_8" d="M9.99479 14.6666C10.363 14.6666 10.6615 14.3681 10.6615 13.9999C10.6615 13.6317 10.363 13.3332 9.99479 13.3332C9.6266 13.3332 9.32812 13.6317 9.32812 13.9999C9.32812 14.3681 9.6266 14.6666 9.99479 14.6666Z" fill="white"/>
</g>
<g id="Group_9">
<path id="Vector_9" d="M20.6667 14.6665C21.0349 14.6665 21.3333 14.3681 21.3333 13.9999C21.3333 13.6317 21.0349 13.3332 20.6667 13.3332C20.2985 13.3332 20 13.6317 20 13.9999C20 14.3681 20.2985 14.6665 20.6667 14.6665Z" fill="white"/>
</g>
<g id="Group_10">
<path id="Vector_10" d="M20.6615 31.9999H9.99479C9.62679 31.9999 9.32812 31.7012 9.32812 31.3332V25.9999C9.32812 25.6319 9.62679 25.3332 9.99479 25.3332H20.6615C21.0295 25.3332 21.3281 25.6319 21.3281 25.9999V31.3332C21.3281 31.7012 21.0295 31.9999 20.6615 31.9999ZM10.6615 30.6666H19.9948V26.6666H10.6615V30.6666Z" fill="white"/>
</g>
</g>
</g>
</svg>
