<svg width="24" height="24" viewBox="0 0 24 24" fill="none" xmlns="http://www.w3.org/2000/svg">
<path d="M7.982 14.5099C7.144 14.5099 5.574 14.3909 4.682 13.5719C4.35 13.2679 4.138 12.9009 4.049 12.4779C2.917 12.4099 2.078 12.0789 1.551 11.4909C1.209 11.1089 1.074 10.7029 1.024 10.4009C0.262 10.0899 0 9.04289 0 8.49189C0 8.45189 0.0609999 4.52689 5.322 2.52489C10.152 0.686894 15.539 1.53789 17.705 3.49789C20.081 3.61689 21.727 5.80289 21.906 7.83189C22.066 9.64689 21.058 11.7939 17.776 12.4489C16.631 13.7849 14.183 13.8869 12.014 13.9769C10.65 14.0339 9.362 14.0869 8.741 14.4299C8.68 14.4639 8.612 14.4839 8.543 14.4899C8.514 14.4929 8.301 14.5099 7.982 14.5099ZM7.017 10.2149C6.429 10.2149 5.865 10.3129 5.493 10.6279C5.161 10.9089 5 11.3559 5 11.9919C5 12.3429 5.113 12.6109 5.357 12.8349C6.072 13.4919 7.685 13.5409 8.361 13.5009C9.194 13.0939 10.486 13.0399 11.973 12.9779C14 12.8939 16.298 12.7979 17.094 11.6989C17.17 11.5939 17.284 11.5229 17.412 11.4999C19.798 11.0759 21.072 9.77089 20.909 7.91989C20.763 6.26489 19.358 4.49189 17.499 4.49189C17.366 4.49189 17.239 4.43889 17.145 4.34589C15.346 2.54789 10.195 1.74089 5.676 3.45989C1.127 5.19089 1 8.45989 1 8.49189C1 8.73289 1.15 9.49189 1.5 9.49189C1.642 9.49189 1.777 9.55289 1.872 9.65789C1.967 9.76389 2.013 9.90489 1.997 10.0459C1.996 10.0559 1.969 10.4689 2.31 10.8379C2.643 11.1979 3.234 11.4149 4.032 11.4749C4.121 10.7889 4.393 10.2489 4.846 9.86489C5.951 8.92589 7.786 9.22889 8.884 9.40789C9.151 9.45289 9.367 9.49189 9.5 9.49189C9.776 9.49189 10 9.71589 10 9.99189C10 10.2679 9.776 10.4919 9.5 10.4919C9.333 10.4919 9.06 10.4509 8.721 10.3949C8.252 10.3189 7.622 10.2149 7.017 10.2149Z" fill="white"/>
<path d="M14.5002 22.492H11.5002C11.2562 22.492 11.0472 22.3149 11.0072 22.0739L10.0733 16.471C8.36925 16.303 7.36425 15.1569 6.86125 14.5829C6.77925 14.4879 6.70825 14.4069 6.64625 14.3449C6.45125 14.1499 6.45125 13.8329 6.64625 13.6379C6.84125 13.4429 7.15825 13.4429 7.35325 13.6379C7.42725 13.7119 7.51325 13.81 7.61325 13.923C8.12825 14.51 8.98825 15.4909 10.5002 15.4909C10.7442 15.4909 10.9532 15.668 10.9932 15.909L11.9242 21.4909H13.9102L13.5072 19.0729C13.4612 18.8009 13.6463 18.5429 13.9183 18.4979C14.1842 18.4479 14.4472 18.636 14.4932 18.9089L14.9932 21.9089C15.0173 22.054 14.9762 22.2019 14.8822 22.3139C14.7863 22.4279 14.6473 22.492 14.5002 22.492Z" fill="white"/>
<path d="M16.5 19.4919C13.935 19.4919 12 18.4169 12 16.9919C12 15.5669 13.935 14.4919 16.5 14.4919C19.065 14.4919 21 15.5669 21 16.9919C21 18.4169 19.065 19.4919 16.5 19.4919ZM16.5 15.4919C14.497 15.4919 13 16.2839 13 16.9919C13 17.6999 14.497 18.4919 16.5 18.4919C18.503 18.4919 20 17.6999 20 16.9919C20 16.2839 18.503 15.4919 16.5 15.4919Z" fill="white"/>
<path d="M20.5 16.492C20.224 16.492 20 16.268 20 15.992C20 15.716 20.224 15.492 20.5 15.492C21.847 15.492 23 14.667 23 13.992C23 13.94 22.988 13.894 22.932 13.839C22.689 13.6 21.986 13.493 21.554 13.492C21.269 13.507 21.002 13.288 21 12.996C20.998 12.722 21.218 12.496 21.492 12.492C21.502 12.492 21.521 12.492 21.538 12.492C22.631 12.479 22.863 11.906 22.942 11.474C23.222 9.93897 21.877 7.64597 21.45 7.48497C21.174 7.48497 20.974 7.26497 20.974 6.98797C20.974 6.71197 21.223 6.49097 21.499 6.49097C22.624 6.49097 23.977 9.28797 23.977 11.045C23.977 11.755 23.789 12.33 23.416 12.752C23.378 12.795 23.338 12.837 23.297 12.877C23.42 12.947 23.534 13.029 23.632 13.126C23.873 13.362 24 13.662 24 13.992C24 15.324 22.364 16.492 20.5 16.492Z" fill="white"/>
<path d="M11.5005 7.49192C11.3935 7.49192 11.2855 7.45792 11.1945 7.38792C10.9765 7.21992 10.9355 6.90592 11.1035 6.68792C11.2045 6.55792 13.6115 3.49292 17.4995 3.49292C17.7755 3.49292 17.9995 3.71692 17.9995 3.99292C17.9995 4.26892 17.7755 4.49292 17.4995 4.49292C14.1115 4.49292 11.9165 7.27092 11.8955 7.29892C11.7975 7.42492 11.6495 7.49192 11.5005 7.49192Z" fill="white"/>
<path d="M17.5 12.4919C15.522 12.4919 15 10.2019 15 8.99194C15 8.71594 15.224 8.49294 15.499 8.49194H15.5C15.775 8.49194 15.999 8.71494 16 8.99094C16 9.01594 16.025 11.4919 17.5 11.4919C17.776 11.4919 18 11.7159 18 11.9919C18 12.2679 17.776 12.4919 17.5 12.4919Z" fill="white"/>
<path d="M18.5 9.49194C18.224 9.49194 18 9.26794 18 8.99194C18 8.00694 17.023 7.49194 16.5 7.49194C16.224 7.49194 16 7.26794 16 6.99194C16 6.71594 16.224 6.49194 16.5 6.49194C17.521 6.49194 19 7.38194 19 8.99194C19 9.26894 18.776 9.49194 18.5 9.49194Z" fill="white"/>
<path d="M11.5 11.4919C11.224 11.4919 11 11.2679 11 10.9919C11 10.7159 11.224 10.4919 11.5 10.4919C11.935 10.4919 13 9.84294 13 8.99194C13 8.71594 13.224 8.49194 13.5 8.49194C13.776 8.49194 14 8.71594 14 8.99194C14 10.4189 12.483 11.4919 11.5 11.4919Z" fill="white"/>
<path d="M4.50178 7.49201C4.41578 7.49201 4.32978 7.47101 4.25078 7.42501C3.34178 6.89901 3.08078 6.20801 3.02278 5.72101C2.92078 4.87801 3.34478 3.91001 4.15478 3.13201C4.35478 2.94201 4.67178 2.94701 4.86178 3.14701C5.05278 3.34601 5.04778 3.66301 4.84778 3.85401C4.27178 4.40701 3.95178 5.07701 4.01578 5.60201C4.06178 5.98101 4.30978 6.30301 4.75278 6.56001C4.99078 6.69801 5.07278 7.00401 4.93478 7.24301C4.84178 7.40301 4.67378 7.49201 4.50178 7.49201Z" fill="white"/>
<path d="M6.5 7.49194C6.224 7.49194 6 7.26794 6 6.99194C6 6.71594 6.224 6.49194 6.5 6.49194C8.167 6.49194 9 4.46994 9 3.99194C9 3.71594 9.224 3.49194 9.5 3.49194C9.776 3.49194 10 3.71594 10 3.99194C10 4.80694 8.909 7.49194 6.5 7.49194Z" fill="white"/>
</svg>
