<svg width="24" height="24" viewBox="0 0 24 24" fill="none" xmlns="http://www.w3.org/2000/svg">
<path d="M21.5 0.999878H2.5C1.122 0.999878 0 2.12188 0 3.49988V20.4999C0 21.8779 1.122 22.9999 2.5 22.9999H21.5C22.878 22.9999 24 21.8779 24 20.4999V3.49988C24 2.12188 22.878 0.999878 21.5 0.999878ZM2.5 1.99988H21.5C22.327 1.99988 23 2.67288 23 3.49988V4.99988H1V3.49988C1 2.67288 1.673 1.99988 2.5 1.99988ZM21.5 21.9999H2.5C1.673 21.9999 1 21.3269 1 20.4999V5.99988H23V20.4999C23 21.3269 22.327 21.9999 21.5 21.9999Z" fill="white"/>
<path d="M2.5 3.99988C2.77614 3.99988 3 3.77602 3 3.49988C3 3.22374 2.77614 2.99988 2.5 2.99988C2.22386 2.99988 2 3.22374 2 3.49988C2 3.77602 2.22386 3.99988 2.5 3.99988Z" fill="white"/>
<path d="M4.5 3.99988C4.77614 3.99988 5 3.77602 5 3.49988C5 3.22374 4.77614 2.99988 4.5 2.99988C4.22386 2.99988 4 3.22374 4 3.49988C4 3.77602 4.22386 3.99988 4.5 3.99988Z" fill="white"/>
<path d="M6.5 3.99988C6.77614 3.99988 7 3.77602 7 3.49988C7 3.22374 6.77614 2.99988 6.5 2.99988C6.22386 2.99988 6 3.22374 6 3.49988C6 3.77602 6.22386 3.99988 6.5 3.99988Z" fill="white"/>
<path d="M7.5 8.99988C7.224 8.99988 7 9.22388 7 9.49988V9.99988C4.794 9.99988 3 11.7939 3 13.9999C3 16.2059 4.794 17.9999 7 17.9999C9.206 17.9999 11 16.2059 11 13.9999H11.5C11.776 13.9999 12 13.7759 12 13.4999C12 11.0189 9.981 8.99988 7.5 8.99988ZM7 16.9999C5.346 16.9999 4 15.6539 4 13.9999C4 12.3459 5.346 10.9999 7 10.9999V13.4999C7 13.7759 7.224 13.9999 7.5 13.9999H10C10 15.6539 8.654 16.9999 7 16.9999ZM8 12.9999V10.0359C9.53 10.2549 10.744 11.4689 10.964 12.9999H8Z" fill="white"/>
<path d="M20.5 9.99988H14.5C14.224 9.99988 14 10.2239 14 10.4999C14 10.7759 14.224 10.9999 14.5 10.9999H20.5C20.776 10.9999 21 10.7759 21 10.4999C21 10.2239 20.776 9.99988 20.5 9.99988Z" fill="white"/>
<path d="M20.5 12.9999H14.5C14.224 12.9999 14 13.2239 14 13.4999C14 13.7759 14.224 13.9999 14.5 13.9999H20.5C20.776 13.9999 21 13.7759 21 13.4999C21 13.2239 20.776 12.9999 20.5 12.9999Z" fill="white"/>
<path d="M20.5 15.9999H14.5C14.224 15.9999 14 16.2239 14 16.4999C14 16.7759 14.224 16.9999 14.5 16.9999H20.5C20.776 16.9999 21 16.7759 21 16.4999C21 16.2239 20.776 15.9999 20.5 15.9999Z" fill="white"/>
</svg>
