<svg width="1046" height="378" viewBox="0 0 1046 378" fill="none" xmlns="http://www.w3.org/2000/svg">
<rect width="1044" height="378" rx="24" fill="#131315"/>
<rect x="30" y="31" width="315" height="316" rx="14" fill="#1B1B1F"/>
<g clip-path="url(#clip0_2095_7537)">
<rect x="365" y="31" width="315" height="316" rx="14" fill="#1B1B1F"/>
<path opacity="0.5" d="M394.2 130L386.76 119.824L388.248 118.8L395.672 128.944L394.2 130ZM386.328 130V118.8H388.248L388.184 120.4V130H386.328ZM394.2 130V118.8H396.056V130H394.2ZM401.791 130.192C401.012 130.192 400.319 130.016 399.711 129.664C399.113 129.301 398.639 128.805 398.287 128.176C397.945 127.547 397.775 126.821 397.775 126C397.775 125.179 397.951 124.453 398.303 123.824C398.655 123.195 399.135 122.704 399.743 122.352C400.361 121.989 401.065 121.808 401.855 121.808C402.569 121.808 403.209 121.995 403.775 122.368C404.351 122.731 404.809 123.259 405.151 123.952C405.492 124.645 405.663 125.472 405.663 126.432H403.855C403.855 125.739 403.769 125.168 403.599 124.72C403.439 124.272 403.204 123.941 402.895 123.728C402.596 123.504 402.228 123.392 401.791 123.392C401.332 123.392 400.937 123.493 400.607 123.696C400.276 123.899 400.025 124.197 399.855 124.592C399.684 124.976 399.599 125.461 399.599 126.048C399.599 126.571 399.7 127.019 399.903 127.392C400.116 127.765 400.399 128.053 400.751 128.256C401.113 128.448 401.513 128.544 401.951 128.544C402.431 128.544 402.825 128.437 403.135 128.224C403.444 128 403.684 127.717 403.855 127.376L405.503 128.08C405.279 128.507 404.991 128.88 404.639 129.2C404.297 129.52 403.887 129.765 403.407 129.936C402.937 130.107 402.399 130.192 401.791 130.192ZM398.959 126.432V125.008H404.719V126.432H398.959ZM413.986 130L416.658 122H418.466L415.746 130H413.986ZM408.626 130L411.234 122H412.818L410.242 130H408.626ZM408.466 130L405.746 122H407.554L410.162 130H408.466ZM413.97 130L411.41 122H412.994L415.602 130H413.97ZM428.349 130.192C427.271 130.192 426.311 129.947 425.469 129.456C424.637 128.955 423.981 128.272 423.501 127.408C423.031 126.533 422.797 125.531 422.797 124.4C422.797 123.269 423.031 122.272 423.501 121.408C423.981 120.533 424.637 119.851 425.469 119.36C426.301 118.859 427.255 118.608 428.333 118.608C429.058 118.608 429.741 118.741 430.381 119.008C431.021 119.264 431.586 119.621 432.077 120.08C432.578 120.539 432.962 121.072 433.229 121.68L431.533 122.368C431.341 121.963 431.079 121.605 430.749 121.296C430.429 120.976 430.061 120.731 429.645 120.56C429.229 120.389 428.791 120.304 428.333 120.304C427.629 120.304 426.999 120.48 426.445 120.832C425.901 121.184 425.469 121.669 425.149 122.288C424.839 122.896 424.685 123.6 424.685 124.4C424.685 125.2 424.839 125.909 425.149 126.528C425.469 127.147 425.906 127.632 426.461 127.984C427.026 128.336 427.666 128.512 428.381 128.512C428.85 128.512 429.287 128.421 429.693 128.24C430.109 128.048 430.477 127.787 430.797 127.456C431.127 127.125 431.389 126.741 431.581 126.304L433.277 126.992C433.01 127.621 432.631 128.181 432.141 128.672C431.65 129.152 431.079 129.525 430.429 129.792C429.778 130.059 429.085 130.192 428.349 130.192ZM434.567 130V118.8H436.359V130H434.567ZM438.3 130L438.316 122H440.092L440.076 130H438.3ZM439.196 120.48C438.908 120.48 438.658 120.379 438.444 120.176C438.242 119.963 438.14 119.712 438.14 119.424C438.14 119.136 438.242 118.891 438.444 118.688C438.658 118.485 438.908 118.384 439.196 118.384C439.484 118.384 439.73 118.485 439.932 118.688C440.146 118.891 440.252 119.136 440.252 119.424C440.252 119.712 440.146 119.963 439.932 120.176C439.73 120.379 439.484 120.48 439.196 120.48ZM445.596 130.192C444.818 130.192 444.124 130.016 443.516 129.664C442.919 129.301 442.444 128.805 442.092 128.176C441.751 127.547 441.58 126.821 441.58 126C441.58 125.179 441.756 124.453 442.108 123.824C442.46 123.195 442.94 122.704 443.548 122.352C444.167 121.989 444.871 121.808 445.66 121.808C446.375 121.808 447.015 121.995 447.58 122.368C448.156 122.731 448.615 123.259 448.956 123.952C449.298 124.645 449.468 125.472 449.468 126.432H447.66C447.66 125.739 447.575 125.168 447.404 124.72C447.244 124.272 447.01 123.941 446.7 123.728C446.402 123.504 446.034 123.392 445.596 123.392C445.138 123.392 444.743 123.493 444.412 123.696C444.082 123.899 443.831 124.197 443.66 124.592C443.49 124.976 443.404 125.461 443.404 126.048C443.404 126.571 443.506 127.019 443.708 127.392C443.922 127.765 444.204 128.053 444.556 128.256C444.919 128.448 445.319 128.544 445.756 128.544C446.236 128.544 446.631 128.437 446.94 128.224C447.25 128 447.49 127.717 447.66 127.376L449.308 128.08C449.084 128.507 448.796 128.88 448.444 129.2C448.103 129.52 447.692 129.765 447.212 129.936C446.743 130.107 446.204 130.192 445.596 130.192ZM442.764 126.432V125.008H448.524V126.432H442.764ZM450.681 130V122H452.361L452.473 123.472V130H450.681ZM456.105 130V125.904L457.897 125.424V130H456.105ZM456.105 125.904C456.105 125.264 456.03 124.773 455.881 124.432C455.742 124.08 455.539 123.835 455.273 123.696C455.017 123.557 454.713 123.488 454.361 123.488C453.763 123.477 453.299 123.675 452.969 124.08C452.638 124.485 452.473 125.067 452.473 125.824H451.801C451.801 124.981 451.923 124.261 452.169 123.664C452.414 123.056 452.766 122.597 453.225 122.288C453.683 121.968 454.227 121.808 454.857 121.808C455.827 121.808 456.574 122.107 457.097 122.704C457.63 123.291 457.897 124.197 457.897 125.424L456.105 125.904ZM462.736 130.192C461.893 130.192 461.248 129.984 460.8 129.568C460.363 129.141 460.144 128.533 460.144 127.744V119.504H461.92V127.408C461.92 127.781 462.005 128.064 462.176 128.256C462.357 128.448 462.619 128.544 462.96 128.544C463.067 128.544 463.184 128.523 463.312 128.48C463.44 128.437 463.584 128.357 463.744 128.24L464.4 129.6C464.123 129.792 463.845 129.936 463.568 130.032C463.291 130.139 463.013 130.192 462.736 130.192ZM458.816 123.536V122H464.08V123.536H458.816ZM468.585 130.192C468.052 130.192 467.561 130.112 467.113 129.952C466.665 129.792 466.281 129.568 465.961 129.28C465.641 128.981 465.396 128.635 465.225 128.24L466.777 127.552C466.937 127.851 467.172 128.101 467.481 128.304C467.801 128.507 468.153 128.608 468.537 128.608C468.953 128.608 469.284 128.539 469.529 128.4C469.785 128.251 469.913 128.048 469.913 127.792C469.913 127.547 469.817 127.36 469.625 127.232C469.433 127.093 469.161 126.981 468.809 126.896L468.057 126.688C467.3 126.496 466.708 126.192 466.281 125.776C465.855 125.349 465.641 124.864 465.641 124.32C465.641 123.52 465.897 122.901 466.409 122.464C466.932 122.027 467.679 121.808 468.649 121.808C469.14 121.808 469.588 121.883 469.993 122.032C470.409 122.171 470.767 122.373 471.065 122.64C471.364 122.896 471.572 123.2 471.689 123.552L470.201 124.224C470.095 123.957 469.892 123.755 469.593 123.616C469.295 123.467 468.964 123.392 468.601 123.392C468.239 123.392 467.956 123.472 467.753 123.632C467.551 123.781 467.449 123.995 467.449 124.272C467.449 124.432 467.54 124.581 467.721 124.72C467.903 124.848 468.164 124.955 468.505 125.04L469.449 125.264C469.972 125.392 470.399 125.595 470.729 125.872C471.06 126.139 471.305 126.443 471.465 126.784C471.625 127.115 471.705 127.451 471.705 127.792C471.705 128.272 471.567 128.693 471.289 129.056C471.023 129.419 470.655 129.701 470.185 129.904C469.716 130.096 469.183 130.192 468.585 130.192Z" fill="white"/>
<rect x="385" y="154" width="185" height="20" rx="10" fill="#303037"/>
<rect x="385" y="182" width="120" height="20" rx="10" fill="#242429"/>
<rect x="612" y="154" width="48" height="48" rx="12" fill="#175438"/>
<path opacity="0.8" d="M629.816 185.424C628.792 185.424 627.864 185.264 627.032 184.944C626.2 184.624 625.512 184.192 624.968 183.648C624.44 183.104 624.104 182.52 623.96 181.896L626.888 181.032C627.064 181.512 627.384 181.928 627.848 182.28C628.328 182.616 628.928 182.792 629.648 182.808C630.4 182.824 631.008 182.664 631.472 182.328C631.952 181.992 632.192 181.544 632.192 180.984C632.192 180.536 632 180.152 631.616 179.832C631.248 179.496 630.736 179.248 630.08 179.088L628.112 178.608C627.376 178.4 626.728 178.104 626.168 177.72C625.608 177.336 625.176 176.864 624.872 176.304C624.568 175.728 624.416 175.064 624.416 174.312C624.416 172.888 624.88 171.776 625.808 170.976C626.752 170.176 628.088 169.776 629.816 169.776C630.776 169.776 631.616 169.912 632.336 170.184C633.072 170.456 633.688 170.856 634.184 171.384C634.68 171.896 635.056 172.512 635.312 173.232L632.384 174.12C632.224 173.656 631.912 173.256 631.448 172.92C631 172.568 630.424 172.392 629.72 172.392C629.032 172.392 628.488 172.56 628.088 172.896C627.688 173.216 627.488 173.664 627.488 174.24C627.488 174.704 627.64 175.08 627.944 175.368C628.264 175.64 628.696 175.84 629.24 175.968L631.232 176.472C632.528 176.792 633.528 177.368 634.232 178.2C634.952 179.016 635.312 179.928 635.312 180.936C635.312 181.848 635.096 182.64 634.664 183.312C634.232 183.984 633.608 184.504 632.792 184.872C631.976 185.24 630.984 185.424 629.816 185.424ZM628.544 188.472V184.296H631.184V188.472H628.544ZM628.544 171.456V167.28H631.184V171.456H628.544ZM642.385 185.424C641.361 185.424 640.433 185.264 639.601 184.944C638.769 184.624 638.081 184.192 637.537 183.648C637.009 183.104 636.673 182.52 636.529 181.896L639.457 181.032C639.633 181.512 639.953 181.928 640.417 182.28C640.897 182.616 641.497 182.792 642.217 182.808C642.969 182.824 643.577 182.664 644.041 182.328C644.521 181.992 644.761 181.544 644.761 180.984C644.761 180.536 644.569 180.152 644.185 179.832C643.817 179.496 643.305 179.248 642.649 179.088L640.681 178.608C639.945 178.4 639.297 178.104 638.737 177.72C638.177 177.336 637.745 176.864 637.441 176.304C637.137 175.728 636.985 175.064 636.985 174.312C636.985 172.888 637.449 171.776 638.377 170.976C639.321 170.176 640.657 169.776 642.385 169.776C643.345 169.776 644.185 169.912 644.905 170.184C645.641 170.456 646.257 170.856 646.753 171.384C647.249 171.896 647.625 172.512 647.881 173.232L644.953 174.12C644.793 173.656 644.481 173.256 644.017 172.92C643.569 172.568 642.993 172.392 642.289 172.392C641.601 172.392 641.057 172.56 640.657 172.896C640.257 173.216 640.057 173.664 640.057 174.24C640.057 174.704 640.209 175.08 640.513 175.368C640.833 175.64 641.265 175.84 641.809 175.968L643.801 176.472C645.097 176.792 646.097 177.368 646.801 178.2C647.521 179.016 647.881 179.928 647.881 180.936C647.881 181.848 647.665 182.64 647.233 183.312C646.801 183.984 646.177 184.504 645.361 184.872C644.545 185.24 643.553 185.424 642.385 185.424ZM641.113 188.472V184.296H643.753V188.472H641.113ZM641.113 171.456V167.28H643.753V171.456H641.113Z" fill="white"/>
<rect x="385" y="222" width="185" height="20" rx="10" fill="#303037"/>
<rect x="385" y="250" width="120" height="20" rx="10" fill="#242429"/>
<rect x="612" y="222" width="48" height="48" rx="12" fill="#175438"/>
<path opacity="0.8" d="M629.816 253.424C628.792 253.424 627.864 253.264 627.032 252.944C626.2 252.624 625.512 252.192 624.968 251.648C624.44 251.104 624.104 250.52 623.96 249.896L626.888 249.032C627.064 249.512 627.384 249.928 627.848 250.28C628.328 250.616 628.928 250.792 629.648 250.808C630.4 250.824 631.008 250.664 631.472 250.328C631.952 249.992 632.192 249.544 632.192 248.984C632.192 248.536 632 248.152 631.616 247.832C631.248 247.496 630.736 247.248 630.08 247.088L628.112 246.608C627.376 246.4 626.728 246.104 626.168 245.72C625.608 245.336 625.176 244.864 624.872 244.304C624.568 243.728 624.416 243.064 624.416 242.312C624.416 240.888 624.88 239.776 625.808 238.976C626.752 238.176 628.088 237.776 629.816 237.776C630.776 237.776 631.616 237.912 632.336 238.184C633.072 238.456 633.688 238.856 634.184 239.384C634.68 239.896 635.056 240.512 635.312 241.232L632.384 242.12C632.224 241.656 631.912 241.256 631.448 240.92C631 240.568 630.424 240.392 629.72 240.392C629.032 240.392 628.488 240.56 628.088 240.896C627.688 241.216 627.488 241.664 627.488 242.24C627.488 242.704 627.64 243.08 627.944 243.368C628.264 243.64 628.696 243.84 629.24 243.968L631.232 244.472C632.528 244.792 633.528 245.368 634.232 246.2C634.952 247.016 635.312 247.928 635.312 248.936C635.312 249.848 635.096 250.64 634.664 251.312C634.232 251.984 633.608 252.504 632.792 252.872C631.976 253.24 630.984 253.424 629.816 253.424ZM628.544 256.472V252.296H631.184V256.472H628.544ZM628.544 239.456V235.28H631.184V239.456H628.544ZM642.385 253.424C641.361 253.424 640.433 253.264 639.601 252.944C638.769 252.624 638.081 252.192 637.537 251.648C637.009 251.104 636.673 250.52 636.529 249.896L639.457 249.032C639.633 249.512 639.953 249.928 640.417 250.28C640.897 250.616 641.497 250.792 642.217 250.808C642.969 250.824 643.577 250.664 644.041 250.328C644.521 249.992 644.761 249.544 644.761 248.984C644.761 248.536 644.569 248.152 644.185 247.832C643.817 247.496 643.305 247.248 642.649 247.088L640.681 246.608C639.945 246.4 639.297 246.104 638.737 245.72C638.177 245.336 637.745 244.864 637.441 244.304C637.137 243.728 636.985 243.064 636.985 242.312C636.985 240.888 637.449 239.776 638.377 238.976C639.321 238.176 640.657 237.776 642.385 237.776C643.345 237.776 644.185 237.912 644.905 238.184C645.641 238.456 646.257 238.856 646.753 239.384C647.249 239.896 647.625 240.512 647.881 241.232L644.953 242.12C644.793 241.656 644.481 241.256 644.017 240.92C643.569 240.568 642.993 240.392 642.289 240.392C641.601 240.392 641.057 240.56 640.657 240.896C640.257 241.216 640.057 241.664 640.057 242.24C640.057 242.704 640.209 243.08 640.513 243.368C640.833 243.64 641.265 243.84 641.809 243.968L643.801 244.472C645.097 244.792 646.097 245.368 646.801 246.2C647.521 247.016 647.881 247.928 647.881 248.936C647.881 249.848 647.665 250.64 647.233 251.312C646.801 251.984 646.177 252.504 645.361 252.872C644.545 253.24 643.553 253.424 642.385 253.424ZM641.113 256.472V252.296H643.753V256.472H641.113ZM641.113 239.456V235.28H643.753V239.456H641.113Z" fill="white"/>
<g opacity="0.3">
<rect x="385" y="290" width="185" height="20" rx="10" fill="#303037"/>
<rect x="385" y="318" width="120" height="20" rx="10" fill="#242429"/>
<rect x="612" y="290" width="48" height="48" rx="12" fill="#175438"/>
<path opacity="0.8" d="M629.816 321.424C628.792 321.424 627.864 321.264 627.032 320.944C626.2 320.624 625.512 320.192 624.968 319.648C624.44 319.104 624.104 318.52 623.96 317.896L626.888 317.032C627.064 317.512 627.384 317.928 627.848 318.28C628.328 318.616 628.928 318.792 629.648 318.808C630.4 318.824 631.008 318.664 631.472 318.328C631.952 317.992 632.192 317.544 632.192 316.984C632.192 316.536 632 316.152 631.616 315.832C631.248 315.496 630.736 315.248 630.08 315.088L628.112 314.608C627.376 314.4 626.728 314.104 626.168 313.72C625.608 313.336 625.176 312.864 624.872 312.304C624.568 311.728 624.416 311.064 624.416 310.312C624.416 308.888 624.88 307.776 625.808 306.976C626.752 306.176 628.088 305.776 629.816 305.776C630.776 305.776 631.616 305.912 632.336 306.184C633.072 306.456 633.688 306.856 634.184 307.384C634.68 307.896 635.056 308.512 635.312 309.232L632.384 310.12C632.224 309.656 631.912 309.256 631.448 308.92C631 308.568 630.424 308.392 629.72 308.392C629.032 308.392 628.488 308.56 628.088 308.896C627.688 309.216 627.488 309.664 627.488 310.24C627.488 310.704 627.64 311.08 627.944 311.368C628.264 311.64 628.696 311.84 629.24 311.968L631.232 312.472C632.528 312.792 633.528 313.368 634.232 314.2C634.952 315.016 635.312 315.928 635.312 316.936C635.312 317.848 635.096 318.64 634.664 319.312C634.232 319.984 633.608 320.504 632.792 320.872C631.976 321.24 630.984 321.424 629.816 321.424ZM628.544 324.472V320.296H631.184V324.472H628.544ZM628.544 307.456V303.28H631.184V307.456H628.544ZM642.385 321.424C641.361 321.424 640.433 321.264 639.601 320.944C638.769 320.624 638.081 320.192 637.537 319.648C637.009 319.104 636.673 318.52 636.529 317.896L639.457 317.032C639.633 317.512 639.953 317.928 640.417 318.28C640.897 318.616 641.497 318.792 642.217 318.808C642.969 318.824 643.577 318.664 644.041 318.328C644.521 317.992 644.761 317.544 644.761 316.984C644.761 316.536 644.569 316.152 644.185 315.832C643.817 315.496 643.305 315.248 642.649 315.088L640.681 314.608C639.945 314.4 639.297 314.104 638.737 313.72C638.177 313.336 637.745 312.864 637.441 312.304C637.137 311.728 636.985 311.064 636.985 310.312C636.985 308.888 637.449 307.776 638.377 306.976C639.321 306.176 640.657 305.776 642.385 305.776C643.345 305.776 644.185 305.912 644.905 306.184C645.641 306.456 646.257 306.856 646.753 307.384C647.249 307.896 647.625 308.512 647.881 309.232L644.953 310.12C644.793 309.656 644.481 309.256 644.017 308.92C643.569 308.568 642.993 308.392 642.289 308.392C641.601 308.392 641.057 308.56 640.657 308.896C640.257 309.216 640.057 309.664 640.057 310.24C640.057 310.704 640.209 311.08 640.513 311.368C640.833 311.64 641.265 311.84 641.809 311.968L643.801 312.472C645.097 312.792 646.097 313.368 646.801 314.2C647.521 315.016 647.881 315.928 647.881 316.936C647.881 317.848 647.665 318.64 647.233 319.312C646.801 319.984 646.177 320.504 645.361 320.872C644.545 321.24 643.553 321.424 642.385 321.424ZM641.113 324.472V320.296H643.753V324.472H641.113ZM641.113 307.456V303.28H643.753V307.456H641.113Z" fill="white"/>
</g>
</g>
<rect x="700" y="31" width="315" height="316" rx="14" fill="#1B1B1F"/>
<line opacity="0.07" x1="723" y1="326.5" x2="995" y2="326.5" stroke="white"/>
<line opacity="0.07" x1="723" y1="262.5" x2="995" y2="262.5" stroke="white"/>
<line opacity="0.07" x1="723" y1="198.5" x2="995" y2="198.5" stroke="white"/>
<line opacity="0.07" x1="720" y1="134.5" x2="995" y2="134.5" stroke="white"/>
<rect x="110" y="51" width="156" height="44" rx="22" fill="#242429"/>
<path opacity="0.5" d="M166.22 80.24C165.513 80.24 164.853 80.1533 164.24 79.98C163.627 79.8067 163.08 79.5667 162.6 79.26C162.12 78.94 161.72 78.5867 161.4 78.2C161.093 77.8133 160.893 77.4067 160.8 76.98L163.48 76.18C163.653 76.6333 163.96 77.0267 164.4 77.36C164.84 77.68 165.393 77.8467 166.06 77.86C166.767 77.8733 167.34 77.72 167.78 77.4C168.233 77.08 168.46 76.6667 168.46 76.16C168.46 75.72 168.28 75.3533 167.92 75.06C167.573 74.7533 167.093 74.52 166.48 74.36L164.66 73.88C163.98 73.7067 163.38 73.4467 162.86 73.1C162.34 72.74 161.933 72.3 161.64 71.78C161.347 71.26 161.2 70.6533 161.2 69.96C161.2 68.64 161.633 67.6133 162.5 66.88C163.38 66.1333 164.62 65.76 166.22 65.76C167.113 65.76 167.893 65.8933 168.56 66.16C169.24 66.4133 169.807 66.78 170.26 67.26C170.713 67.74 171.06 68.3067 171.3 68.96L168.64 69.78C168.48 69.3267 168.187 68.94 167.76 68.62C167.333 68.3 166.793 68.14 166.14 68.14C165.473 68.14 164.947 68.2933 164.56 68.6C164.187 68.9067 164 69.34 164 69.9C164 70.34 164.147 70.6867 164.44 70.94C164.747 71.1933 165.16 71.3867 165.68 71.52L167.52 71.98C168.72 72.2733 169.653 72.8 170.32 73.56C170.987 74.32 171.32 75.1667 171.32 76.1C171.32 76.9267 171.12 77.6533 170.72 78.28C170.32 78.8933 169.74 79.3733 168.98 79.72C168.22 80.0667 167.3 80.24 166.22 80.24ZM177.208 80.24C176.222 80.24 175.348 80.02 174.588 79.58C173.828 79.1267 173.228 78.5067 172.788 77.72C172.362 76.9333 172.148 76.0267 172.148 75C172.148 73.9733 172.368 73.0667 172.808 72.28C173.262 71.4933 173.875 70.88 174.648 70.44C175.435 69.9867 176.335 69.76 177.348 69.76C178.228 69.76 179.035 69.9933 179.768 70.46C180.515 70.9133 181.108 71.5867 181.548 72.48C182.002 73.36 182.228 74.4333 182.228 75.7H174.648L174.888 75.46C174.888 75.9533 175.008 76.3867 175.248 76.76C175.502 77.12 175.822 77.4 176.208 77.6C176.608 77.7867 177.035 77.88 177.488 77.88C178.035 77.88 178.482 77.7667 178.828 77.54C179.175 77.3 179.442 76.9933 179.628 76.62L181.988 77.54C181.708 78.1 181.342 78.5867 180.888 79C180.448 79.4 179.922 79.7067 179.308 79.92C178.695 80.1333 177.995 80.24 177.208 80.24ZM175.028 73.98L174.788 73.74H179.608L179.388 73.98C179.388 73.5 179.275 73.12 179.048 72.84C178.822 72.5467 178.542 72.3333 178.208 72.2C177.888 72.0667 177.575 72 177.268 72C176.962 72 176.635 72.0667 176.288 72.2C175.942 72.3333 175.642 72.5467 175.388 72.84C175.148 73.12 175.028 73.5 175.028 73.98ZM187.283 80.24C186.176 80.24 185.336 79.9667 184.763 79.42C184.203 78.8733 183.923 78.0933 183.923 77.08V66.88H186.563V76.5C186.563 76.9267 186.656 77.2533 186.843 77.48C187.029 77.6933 187.303 77.8 187.663 77.8C187.796 77.8 187.943 77.7733 188.103 77.72C188.263 77.6533 188.429 77.56 188.603 77.44L189.523 79.42C189.203 79.66 188.843 79.8533 188.443 80C188.056 80.16 187.669 80.24 187.283 80.24ZM182.303 72.24V70H189.063V72.24H182.303ZM201.375 80L201.215 78.16V70H203.855V80H201.375ZM194.595 75.12V70H197.235V75.12H194.595ZM197.235 75.12C197.235 75.7867 197.308 76.3133 197.455 76.7C197.615 77.0733 197.835 77.3467 198.115 77.52C198.408 77.68 198.735 77.76 199.095 77.76C199.788 77.7733 200.315 77.5667 200.675 77.14C201.035 76.7 201.215 76.0667 201.215 75.24H202.115C202.115 76.3067 201.955 77.2133 201.635 77.96C201.315 78.6933 200.875 79.26 200.315 79.66C199.755 80.0467 199.095 80.24 198.335 80.24C197.535 80.24 196.855 80.08 196.295 79.76C195.735 79.44 195.308 78.9467 195.015 78.28C194.735 77.6 194.595 76.7267 194.595 75.66V75.12H197.235ZM205.642 84V70H208.122L208.282 71.84V84H205.642ZM211.302 80.24C210.462 80.24 209.749 80.0267 209.162 79.6C208.589 79.1733 208.149 78.5667 207.842 77.78C207.536 76.9933 207.382 76.0667 207.382 75C207.382 73.92 207.536 72.9933 207.842 72.22C208.149 71.4333 208.589 70.8267 209.162 70.4C209.749 69.9733 210.462 69.76 211.302 69.76C212.222 69.76 213.016 69.9733 213.682 70.4C214.362 70.8267 214.889 71.4333 215.262 72.22C215.636 72.9933 215.822 73.92 215.822 75C215.822 76.0667 215.636 76.9933 215.262 77.78C214.889 78.5667 214.362 79.1733 213.682 79.6C213.016 80.0267 212.222 80.24 211.302 80.24ZM210.622 77.82C211.102 77.82 211.522 77.7 211.882 77.46C212.256 77.22 212.549 76.8867 212.762 76.46C212.976 76.0333 213.082 75.5467 213.082 75C213.082 74.4533 212.976 73.9667 212.762 73.54C212.562 73.1133 212.276 72.7867 211.902 72.56C211.542 72.32 211.122 72.2 210.642 72.2C210.189 72.2 209.782 72.32 209.422 72.56C209.062 72.8 208.782 73.1333 208.582 73.56C208.382 73.9733 208.282 74.4533 208.282 75C208.282 75.5467 208.382 76.0333 208.582 76.46C208.782 76.8867 209.056 77.22 209.402 77.46C209.762 77.7 210.169 77.82 210.622 77.82Z" fill="white"/>
<rect x="435" y="51" width="177" height="44" rx="22" fill="#242429"/>
<path opacity="0.5" d="M500.52 80V66H505.72C506.707 66 507.58 66.2 508.34 66.6C509.1 66.9867 509.693 67.5333 510.12 68.24C510.547 68.9333 510.76 69.74 510.76 70.66C510.76 71.5667 510.553 72.3733 510.14 73.08C509.727 73.7867 509.16 74.3467 508.44 74.76C507.72 75.16 506.887 75.36 505.94 75.36H503.26V80H500.52ZM503.26 72.84H505.88C506.493 72.84 506.993 72.64 507.38 72.24C507.78 71.8267 507.98 71.3 507.98 70.66C507.98 70.02 507.76 69.5 507.32 69.1C506.893 68.7 506.34 68.5 505.66 68.5H503.26V72.84ZM513.412 74.74C513.412 73.66 513.618 72.7667 514.032 72.06C514.458 71.3533 514.998 70.8267 515.652 70.48C516.318 70.1333 517.012 69.96 517.732 69.96V72.52C517.118 72.52 516.538 72.5933 515.992 72.74C515.458 72.8867 515.025 73.1267 514.692 73.46C514.358 73.7933 514.192 74.22 514.192 74.74H513.412ZM511.552 80V70H514.192V80H511.552ZM523.23 80.24C522.217 80.24 521.31 80.02 520.51 79.58C519.723 79.1267 519.103 78.5067 518.65 77.72C518.21 76.9333 517.99 76.0267 517.99 75C517.99 73.9733 518.21 73.0667 518.65 72.28C519.09 71.4933 519.703 70.88 520.49 70.44C521.277 69.9867 522.177 69.76 523.19 69.76C524.217 69.76 525.123 69.9867 525.91 70.44C526.697 70.88 527.31 71.4933 527.75 72.28C528.19 73.0667 528.41 73.9733 528.41 75C528.41 76.0267 528.19 76.9333 527.75 77.72C527.31 78.5067 526.697 79.1267 525.91 79.58C525.137 80.02 524.243 80.24 523.23 80.24ZM523.23 77.8C523.723 77.8 524.157 77.68 524.53 77.44C524.903 77.2 525.19 76.8733 525.39 76.46C525.603 76.0333 525.71 75.5467 525.71 75C525.71 74.4533 525.603 73.9733 525.39 73.56C525.177 73.1333 524.877 72.8 524.49 72.56C524.117 72.32 523.683 72.2 523.19 72.2C522.71 72.2 522.277 72.32 521.89 72.56C521.517 72.8 521.223 73.1333 521.01 73.56C520.797 73.9733 520.69 74.4533 520.69 75C520.69 75.5467 520.797 76.0333 521.01 76.46C521.223 76.8733 521.523 77.2 521.91 77.44C522.297 77.68 522.737 77.8 523.23 77.8ZM530.551 80V69C530.551 67.9333 530.824 67.1067 531.371 66.52C531.918 65.92 532.751 65.62 533.871 65.62C534.258 65.62 534.664 65.6867 535.091 65.82C535.531 65.9533 535.931 66.1133 536.291 66.3L535.311 68.2C535.098 68.0933 534.904 68.0133 534.731 67.96C534.558 67.9067 534.398 67.88 534.251 67.88C533.891 67.88 533.624 68.0067 533.451 68.26C533.278 68.5 533.191 68.8933 533.191 69.44V80H530.551ZM528.891 72.12V70H535.651V72.12H528.891ZM536.962 80V70H539.602V80H536.962ZM538.282 68.38C537.882 68.38 537.529 68.2333 537.222 67.94C536.916 67.6333 536.762 67.2733 536.762 66.86C536.762 66.4467 536.916 66.0933 537.222 65.8C537.529 65.4933 537.882 65.34 538.282 65.34C538.696 65.34 539.049 65.4933 539.342 65.8C539.649 66.0933 539.802 66.4467 539.802 66.86C539.802 67.2733 539.649 67.6333 539.342 67.94C539.049 68.2333 538.696 68.38 538.282 68.38ZM545.557 80.24C544.45 80.24 543.61 79.9667 543.037 79.42C542.477 78.8733 542.197 78.0933 542.197 77.08V66.88H544.837V76.5C544.837 76.9267 544.93 77.2533 545.117 77.48C545.304 77.6933 545.577 77.8 545.937 77.8C546.07 77.8 546.217 77.7733 546.377 77.72C546.537 77.6533 546.704 77.56 546.877 77.44L547.797 79.42C547.477 79.66 547.117 79.8533 546.717 80C546.33 80.16 545.944 80.24 545.557 80.24ZM540.577 72.24V70H547.337V72.24H540.577Z" fill="white"/>
<rect x="769" y="51" width="177" height="44" rx="22" fill="#242429"/>
<path opacity="0.5" d="M841.02 80.24C839.593 80.24 838.327 79.9333 837.22 79.32C836.127 78.6933 835.267 77.84 834.64 76.76C834.013 75.6667 833.7 74.4133 833.7 73C833.7 71.5867 834.013 70.34 834.64 69.26C835.267 68.1667 836.127 67.3133 837.22 66.7C838.327 66.0733 839.593 65.76 841.02 65.76C841.873 65.76 842.66 65.8867 843.38 66.14C844.1 66.3933 844.733 66.7467 845.28 67.2C845.84 67.64 846.307 68.1467 846.68 68.72L844.44 70.12C844.213 69.76 843.913 69.44 843.54 69.16C843.18 68.88 842.78 68.66 842.34 68.5C841.9 68.34 841.46 68.26 841.02 68.26C840.14 68.26 839.36 68.4667 838.68 68.88C838 69.28 837.467 69.8333 837.08 70.54C836.693 71.2467 836.5 72.0667 836.5 73C836.5 73.92 836.687 74.74 837.06 75.46C837.447 76.18 837.987 76.7467 838.68 77.16C839.373 77.56 840.173 77.76 841.08 77.76C841.787 77.76 842.413 77.62 842.96 77.34C843.52 77.06 843.96 76.6667 844.28 76.16C844.6 75.6533 844.76 75.0667 844.76 74.4L847.36 74C847.36 75.32 847.087 76.4467 846.54 77.38C846.007 78.3133 845.26 79.0267 844.3 79.52C843.353 80 842.26 80.24 841.02 80.24ZM841.48 74.64V72.5H847.36V74.2L845.88 74.64H841.48ZM850.263 74.74C850.263 73.66 850.47 72.7667 850.883 72.06C851.31 71.3533 851.85 70.8267 852.503 70.48C853.17 70.1333 853.863 69.96 854.583 69.96V72.52C853.97 72.52 853.39 72.5933 852.843 72.74C852.31 72.8867 851.877 73.1267 851.543 73.46C851.21 73.7933 851.043 74.22 851.043 74.74H850.263ZM848.403 80V70H851.043V80H848.403ZM860.081 80.24C859.068 80.24 858.161 80.02 857.361 79.58C856.575 79.1267 855.955 78.5067 855.501 77.72C855.061 76.9333 854.841 76.0267 854.841 75C854.841 73.9733 855.061 73.0667 855.501 72.28C855.941 71.4933 856.555 70.88 857.341 70.44C858.128 69.9867 859.028 69.76 860.041 69.76C861.068 69.76 861.975 69.9867 862.761 70.44C863.548 70.88 864.161 71.4933 864.601 72.28C865.041 73.0667 865.261 73.9733 865.261 75C865.261 76.0267 865.041 76.9333 864.601 77.72C864.161 78.5067 863.548 79.1267 862.761 79.58C861.988 80.02 861.095 80.24 860.081 80.24ZM860.081 77.8C860.575 77.8 861.008 77.68 861.381 77.44C861.755 77.2 862.041 76.8733 862.241 76.46C862.455 76.0333 862.561 75.5467 862.561 75C862.561 74.4533 862.455 73.9733 862.241 73.56C862.028 73.1333 861.728 72.8 861.341 72.56C860.968 72.32 860.535 72.2 860.041 72.2C859.561 72.2 859.128 72.32 858.741 72.56C858.368 72.8 858.075 73.1333 857.861 73.56C857.648 73.9733 857.541 74.4533 857.541 75C857.541 75.5467 857.648 76.0333 857.861 76.46C858.075 76.8733 858.375 77.2 858.761 77.44C859.148 77.68 859.588 77.8 860.081 77.8ZM875.313 80L878.633 70H881.313L877.913 80H875.313ZM868.673 80L871.873 70H874.173L871.013 80H868.673ZM868.413 80L865.013 70H867.693L870.873 80H868.413ZM875.313 80L872.193 70H874.473L877.653 80H875.313Z" fill="white"/>
<path d="M730 325L778.151 266.464C779.887 264.353 782.694 263.446 785.338 264.141L833.33 276.767C836.198 277.521 839.23 276.387 840.899 273.935L886.077 207.531C888.04 204.646 891.828 203.647 894.959 205.19L924.587 219.791C927.853 221.4 931.808 220.237 933.683 217.116L983 135" stroke="#27C57B" stroke-width="7" stroke-linecap="round"/>
<circle cx="781" cy="263" r="9.5" fill="#1D1D22" stroke="#27C57B" stroke-width="5"/>
<circle cx="890" cy="203" r="9.5" fill="#1D1D22" stroke="#27C57B" stroke-width="5"/>
<circle cx="983" cy="135" r="9.5" fill="#1D1D22" stroke="#27C57B" stroke-width="5"/>
<rect x="89.75" y="115" width="48" height="48" rx="24" fill="#242429"/>
<g clip-path="url(#clip1_2095_7537)">
<path d="M113.896 144.492C112.36 144.541 110.935 143.964 109.861 142.889C108.787 141.814 108.217 140.381 108.258 138.854C108.265 138.578 108.047 138.348 107.771 138.341C107.529 138.355 107.265 138.552 107.258 138.828C107.211 140.633 107.883 142.326 109.154 143.596C110.382 144.824 112.006 145.494 113.743 145.494C113.802 145.494 113.862 145.494 113.922 145.492C114.198 145.485 114.416 145.255 114.409 144.979C114.402 144.702 114.16 144.497 113.896 144.492ZM113.038 132.541C112.764 132.572 112.566 132.818 112.596 133.093C112.627 133.367 112.867 133.564 113.148 133.535C114.816 133.353 116.455 133.926 117.64 135.11C118.824 136.295 119.398 137.932 119.214 139.602C119.183 139.877 119.382 140.124 119.656 140.154C119.674 140.156 119.693 140.157 119.711 140.157C119.963 140.157 120.179 139.968 120.207 139.711C120.424 137.738 119.746 135.803 118.346 134.403C116.946 133.003 115.014 132.326 113.038 132.541ZM123.652 136.598C123.181 136.186 122.694 135.76 122.53 135.365C122.353 134.939 122.394 134.27 122.434 133.624C122.496 132.603 122.561 131.549 121.882 130.869C121.203 130.19 120.148 130.256 119.127 130.317C118.479 130.356 117.811 130.396 117.386 130.221C116.991 130.057 116.565 129.57 116.153 129.099C115.498 128.35 114.754 127.5 113.75 127.5C112.746 127.5 112.002 128.35 111.348 129.098C110.936 129.569 110.51 130.056 110.115 130.22C109.689 130.397 109.02 130.356 108.374 130.316C107.353 130.255 106.298 130.188 105.619 130.868C104.94 131.548 105.004 132.602 105.067 133.623C105.106 134.27 105.147 134.938 104.971 135.364C104.807 135.759 104.32 136.185 103.849 136.597C103.1 137.252 102.25 137.996 102.25 139C102.25 140.004 103.1 140.748 103.848 141.402C104.319 141.814 104.806 142.24 104.97 142.635C105.147 143.061 105.106 143.73 105.066 144.376C105.004 145.397 104.939 146.451 105.618 147.131C106.298 147.811 107.353 147.745 108.373 147.683C109.019 147.643 109.688 147.602 110.114 147.779C110.509 147.943 110.935 148.43 111.347 148.901C112.002 149.65 112.746 150.5 113.75 150.5C114.754 150.5 115.498 149.65 116.152 148.902C116.564 148.431 116.99 147.944 117.385 147.78C117.811 147.604 118.479 147.644 119.126 147.684C120.146 147.745 121.202 147.811 121.881 147.132C122.56 146.452 122.496 145.398 122.433 144.377C122.394 143.73 122.353 143.062 122.529 142.636C122.693 142.241 123.18 141.815 123.651 141.403C124.4 140.748 125.25 140.004 125.25 139C125.25 137.996 124.4 137.252 123.652 136.598ZM122.992 140.651C122.435 141.139 121.858 141.643 121.605 142.254C121.34 142.893 121.388 143.679 121.435 144.439C121.484 145.238 121.534 146.064 121.174 146.425C120.814 146.786 119.986 146.736 119.188 146.686C118.428 146.64 117.642 146.591 117.003 146.856C116.392 147.109 115.888 147.685 115.4 148.243C114.86 148.861 114.3 149.5 113.75 149.5C113.2 149.5 112.64 148.861 112.1 148.243C111.612 147.686 111.108 147.109 110.497 146.856C110.107 146.694 109.663 146.649 109.203 146.649C108.909 146.649 108.608 146.667 108.311 146.685C107.513 146.734 106.686 146.785 106.325 146.424C105.964 146.063 106.015 145.237 106.064 144.438C106.111 143.678 106.159 142.892 105.894 142.253C105.641 141.642 105.065 141.138 104.507 140.65C103.889 140.11 103.25 139.55 103.25 139C103.25 138.45 103.889 137.89 104.508 137.349C105.065 136.861 105.642 136.357 105.895 135.746C106.16 135.107 106.112 134.321 106.065 133.561C106.016 132.762 105.966 131.936 106.326 131.575C106.687 131.214 107.516 131.266 108.312 131.314C109.074 131.362 109.859 131.409 110.497 131.144C111.108 130.891 111.612 130.315 112.1 129.757C112.64 129.139 113.2 128.5 113.75 128.5C114.3 128.5 114.86 129.139 115.401 129.758C115.889 130.315 116.393 130.892 117.004 131.145C117.643 131.41 118.428 131.363 119.189 131.315C119.987 131.266 120.815 131.216 121.175 131.576C121.536 131.937 121.485 132.763 121.436 133.562C121.389 134.322 121.341 135.108 121.606 135.747C121.859 136.358 122.435 136.862 122.993 137.35C123.611 137.89 124.25 138.45 124.25 139C124.25 139.55 123.611 140.11 122.992 140.651Z" fill="white"/>
</g>
<rect x="50" y="173" width="27" height="8" rx="4" fill="#242429"/>
<rect x="50" y="189" width="127.5" height="10" rx="5" fill="#303037"/>
<rect x="50" y="189" width="49.5833" height="10" rx="5" fill="#8057FF"/>
<rect x="50" y="216" width="27" height="8" rx="4" fill="#242429"/>
<rect x="50" y="232" width="127.5" height="10" rx="5" fill="#303037"/>
<rect x="50" y="232" width="77.9167" height="10" rx="5" fill="#8057FF"/>
<rect x="50" y="259" width="27" height="8" rx="4" fill="#242429"/>
<rect x="50" y="275" width="127.5" height="10" rx="5" fill="#303037"/>
<rect x="50" y="275" width="54.3056" height="10" rx="5" fill="#8057FF"/>
<g opacity="0.3">
<rect x="50" y="302" width="27" height="8" rx="4" fill="#242429"/>
<rect x="50" y="318" width="127.5" height="10" rx="5" fill="#303037"/>
<rect x="50" y="318" width="54.3056" height="10" rx="5" fill="#8057FF"/>
</g>
<rect x="237.25" y="115" width="48" height="48" rx="24" fill="#242429"/>
<g clip-path="url(#clip2_2095_7537)">
<path d="M261.396 144.492C259.86 144.541 258.435 143.964 257.361 142.889C256.287 141.814 255.717 140.381 255.758 138.854C255.765 138.578 255.547 138.348 255.271 138.341C255.029 138.355 254.765 138.552 254.758 138.828C254.711 140.633 255.383 142.326 256.654 143.596C257.882 144.824 259.506 145.494 261.243 145.494C261.302 145.494 261.362 145.494 261.422 145.492C261.698 145.485 261.916 145.255 261.909 144.979C261.902 144.702 261.66 144.497 261.396 144.492ZM260.538 132.541C260.264 132.572 260.066 132.818 260.096 133.093C260.127 133.367 260.367 133.564 260.648 133.535C262.316 133.353 263.955 133.926 265.14 135.11C266.324 136.295 266.898 137.932 266.714 139.602C266.683 139.877 266.882 140.124 267.156 140.154C267.174 140.156 267.193 140.157 267.211 140.157C267.463 140.157 267.679 139.968 267.707 139.711C267.924 137.738 267.246 135.803 265.846 134.403C264.446 133.003 262.514 132.326 260.538 132.541ZM271.152 136.598C270.681 136.186 270.194 135.76 270.03 135.365C269.853 134.939 269.894 134.27 269.934 133.624C269.996 132.603 270.061 131.549 269.382 130.869C268.703 130.19 267.648 130.256 266.627 130.317C265.979 130.356 265.311 130.396 264.886 130.221C264.491 130.057 264.065 129.57 263.653 129.099C262.998 128.35 262.254 127.5 261.25 127.5C260.246 127.5 259.502 128.35 258.848 129.098C258.436 129.569 258.01 130.056 257.615 130.22C257.189 130.397 256.52 130.356 255.874 130.316C254.853 130.255 253.798 130.188 253.119 130.868C252.44 131.548 252.504 132.602 252.567 133.623C252.606 134.27 252.647 134.938 252.471 135.364C252.307 135.759 251.82 136.185 251.349 136.597C250.6 137.252 249.75 137.996 249.75 139C249.75 140.004 250.6 140.748 251.348 141.402C251.819 141.814 252.306 142.24 252.47 142.635C252.647 143.061 252.606 143.73 252.566 144.376C252.504 145.397 252.439 146.451 253.118 147.131C253.798 147.811 254.853 147.745 255.873 147.683C256.519 147.643 257.188 147.602 257.614 147.779C258.009 147.943 258.435 148.43 258.847 148.901C259.502 149.65 260.246 150.5 261.25 150.5C262.254 150.5 262.998 149.65 263.652 148.902C264.064 148.431 264.49 147.944 264.885 147.78C265.311 147.604 265.979 147.644 266.626 147.684C267.646 147.745 268.702 147.811 269.381 147.132C270.06 146.452 269.996 145.398 269.933 144.377C269.894 143.73 269.853 143.062 270.029 142.636C270.193 142.241 270.68 141.815 271.151 141.403C271.9 140.748 272.75 140.004 272.75 139C272.75 137.996 271.9 137.252 271.152 136.598ZM270.492 140.651C269.935 141.139 269.358 141.643 269.105 142.254C268.84 142.893 268.888 143.679 268.935 144.439C268.984 145.238 269.034 146.064 268.674 146.425C268.314 146.786 267.486 146.736 266.688 146.686C265.928 146.64 265.142 146.591 264.503 146.856C263.892 147.109 263.388 147.685 262.9 148.243C262.36 148.861 261.8 149.5 261.25 149.5C260.7 149.5 260.14 148.861 259.6 148.243C259.112 147.686 258.608 147.109 257.997 146.856C257.607 146.694 257.163 146.649 256.703 146.649C256.409 146.649 256.108 146.667 255.811 146.685C255.013 146.734 254.186 146.785 253.825 146.424C253.464 146.063 253.515 145.237 253.564 144.438C253.611 143.678 253.659 142.892 253.394 142.253C253.141 141.642 252.565 141.138 252.007 140.65C251.389 140.11 250.75 139.55 250.75 139C250.75 138.45 251.389 137.89 252.008 137.349C252.565 136.861 253.142 136.357 253.395 135.746C253.66 135.107 253.612 134.321 253.565 133.561C253.516 132.762 253.466 131.936 253.826 131.575C254.187 131.214 255.016 131.266 255.812 131.314C256.574 131.362 257.359 131.409 257.997 131.144C258.608 130.891 259.112 130.315 259.6 129.757C260.14 129.139 260.7 128.5 261.25 128.5C261.8 128.5 262.36 129.139 262.901 129.758C263.389 130.315 263.893 130.892 264.504 131.145C265.143 131.41 265.928 131.363 266.689 131.315C267.487 131.266 268.315 131.216 268.675 131.576C269.036 131.937 268.985 132.763 268.936 133.562C268.889 134.322 268.841 135.108 269.106 135.747C269.359 136.358 269.935 136.862 270.493 137.35C271.111 137.89 271.75 138.45 271.75 139C271.75 139.55 271.111 140.11 270.492 140.651Z" fill="white"/>
</g>
<rect x="197.5" y="173" width="27" height="8" rx="4" fill="#242429"/>
<rect x="197.5" y="189" width="127.5" height="10" rx="5" fill="#303037"/>
<rect x="197.5" y="189" width="86.1806" height="10" rx="5" fill="#8057FF"/>
<rect x="197.5" y="216" width="27" height="8" rx="4" fill="#242429"/>
<rect x="197.5" y="232" width="127.5" height="10" rx="5" fill="#303037"/>
<rect x="197.5" y="232" width="62.5694" height="10" rx="5" fill="#8057FF"/>
<rect x="197.5" y="259" width="27" height="8" rx="4" fill="#242429"/>
<rect x="197.5" y="275" width="127.5" height="10" rx="5" fill="#303037"/>
<rect x="197.5" y="275" width="81.4583" height="10" rx="5" fill="#8057FF"/>
<g opacity="0.6">
<rect x="197.5" y="302" width="27" height="8" rx="4" fill="#242429"/>
<rect x="198" y="318" width="127" height="10" rx="5" fill="#303037"/>
<rect x="197.5" y="318" width="98" height="10" rx="5" fill="#8057FF"/>
</g>
<defs>
<clipPath id="clip0_2095_7537">
<rect width="315" height="316" fill="white" transform="translate(365 31)"/>
</clipPath>
<clipPath id="clip1_2095_7537">
<rect x="101.75" y="127" width="24" height="24" fill="white"/>
</clipPath>
<clipPath id="clip2_2095_7537">
<rect x="249.25" y="127" width="24" height="24" fill="white"/>
</clipPath>
</defs>
</svg>
