<svg width="24" height="24" viewBox="0 0 24 24" fill="none" xmlns="http://www.w3.org/2000/svg">
<g id="Frame" clip-path="url(#clip0_2101_10571)">
<g id="Group">
<path id="Vector" d="M23.5312 9.51633H19.3915C19.2564 9.51629 19.1234 9.54894 19.0036 9.61149C18.8839 9.67404 18.7811 9.76463 18.704 9.87553C18.5458 10.1033 18.5095 10.3955 18.607 10.6569C18.6468 10.7639 18.6657 10.8775 18.6627 10.9916C18.6518 11.453 18.2831 11.8366 17.8236 11.865C17.5726 11.8808 17.3335 11.7949 17.1512 11.6235C16.9688 11.452 16.8683 11.2198 16.8683 10.9696C16.8683 10.8591 16.8882 10.7513 16.9272 10.6493C17.0247 10.3949 16.9902 10.1082 16.8348 9.88233C16.7573 9.76951 16.6536 9.67724 16.5325 9.61348C16.4113 9.54971 16.2765 9.51637 16.1397 9.51633H14.1094C13.8505 9.51633 13.6406 9.72619 13.6406 9.98508C13.6406 10.244 13.8505 10.4538 14.1094 10.4538H16.0045C15.9555 10.6213 15.9306 10.795 15.9308 10.9695C15.9308 11.4738 16.1416 11.9611 16.5091 12.3066C16.8819 12.6569 17.3692 12.8325 17.8815 12.8007C18.8227 12.7425 19.5775 11.9576 19.5999 11.0138C19.6046 10.8245 19.58 10.6355 19.5268 10.4538H23.0625V21.046H19.3916C19.2547 21.0461 19.1199 21.0794 18.9988 21.1432C18.8777 21.2069 18.7739 21.2992 18.6964 21.412C18.5411 21.6379 18.5065 21.9246 18.604 22.179C18.6431 22.2813 18.6631 22.3898 18.6629 22.4993C18.6629 22.7495 18.5624 22.9817 18.38 23.1532C18.1978 23.3245 17.959 23.4105 17.7076 23.3947C17.2481 23.3663 16.8795 22.9826 16.8686 22.5213C16.8656 22.4072 16.8845 22.2936 16.9243 22.1866C17.0217 21.9251 16.9855 21.633 16.8273 21.4052C16.7502 21.2943 16.6473 21.2037 16.5276 21.1411C16.4079 21.0786 16.2748 21.0459 16.1397 21.046H12.4688V17.3757C12.4687 17.2388 12.4353 17.104 12.3715 16.9828C12.3077 16.8617 12.2154 16.7579 12.1025 16.6804C11.8766 16.5251 11.5898 16.4906 11.3352 16.5882C11.2329 16.6274 11.1243 16.6474 11.0148 16.6471C10.7646 16.6471 10.5323 16.5467 10.3608 16.3643C10.1895 16.182 10.1038 15.9433 10.1193 15.692C10.1477 15.2323 10.5315 14.8637 10.993 14.8528C11.1083 14.85 11.2212 14.8689 11.3279 14.9087C11.5893 15.0063 11.8816 14.9701 12.1095 14.8118C12.2204 14.7347 12.3111 14.6319 12.3736 14.5122C12.4362 14.3924 12.4688 14.2593 12.4688 14.1242V12.0943C12.4688 11.8354 12.2589 11.6256 12 11.6256C11.7412 11.6256 11.5313 11.8354 11.5313 12.0943V13.9889C11.3495 13.9356 11.1605 13.9109 10.971 13.9155C10.0269 13.9377 9.24178 14.6926 9.18361 15.6341C9.15197 16.1463 9.32747 16.6336 9.67781 17.0063C10.0233 17.3738 10.5106 17.5846 11.0148 17.5846C11.1911 17.5846 11.3642 17.5598 11.5313 17.5107V21.0459H7.99552C8.04458 20.8784 8.0694 20.7048 8.0692 20.5302C8.0692 20.026 7.85841 19.5387 7.49091 19.1932C7.11816 18.8428 6.63033 18.6671 6.11855 18.699C5.17734 18.7573 4.42252 19.5422 4.40016 20.486C4.39542 20.6753 4.42008 20.8642 4.47328 21.046H0.9375V10.4538H4.60842C4.74529 10.4538 4.88009 10.4204 5.0012 10.3567C5.12231 10.2929 5.22609 10.2006 5.30358 10.0878C5.45887 9.86199 5.49347 9.57525 5.39597 9.32081C5.35687 9.2186 5.33691 9.11005 5.33709 9.00061C5.33709 8.75039 5.43759 8.51817 5.61998 8.34666C5.80223 8.17538 6.04083 8.08955 6.29241 8.10516C6.75192 8.13356 7.1205 8.51724 7.13142 8.97853C7.13441 9.09264 7.1155 9.20627 7.07573 9.31327C6.97828 9.57474 7.01452 9.86686 7.17272 10.0947C7.24984 10.2056 7.35266 10.2962 7.47239 10.3587C7.59211 10.4213 7.7252 10.4539 7.86028 10.4539H9.89062C10.1495 10.4539 10.3594 10.244 10.3594 9.98513C10.3594 9.72624 10.1495 9.51638 9.89062 9.51638H7.99552C8.04872 9.33461 8.07338 9.14569 8.06864 8.95636C8.04623 8.01263 7.29145 7.2277 6.3503 7.16949C5.83753 7.13747 5.35055 7.3133 4.97789 7.66364C4.61039 8.00911 4.39959 8.49647 4.39959 9.00066C4.39959 9.17658 4.42434 9.34945 4.47328 9.51638H0.46875C0.209906 9.51638 0 9.72624 0 9.98513V21.5149C0 21.7738 0.209906 21.9836 0.46875 21.9836H4.60847C4.74355 21.9837 4.87664 21.951 4.99637 21.8885C5.11609 21.8259 5.21891 21.7353 5.29603 21.6244C5.45423 21.3966 5.49047 21.1045 5.39302 20.8431C5.35323 20.7361 5.33432 20.6224 5.33733 20.5083C5.34825 20.047 5.71688 19.6634 6.17639 19.6349C6.42717 19.6193 6.66647 19.7051 6.84877 19.8764C7.0312 20.0479 7.13166 20.2801 7.13166 20.5304C7.13166 20.6408 7.11183 20.7486 7.07278 20.8506C6.97528 21.105 7.00983 21.3918 7.16517 21.6176C7.24266 21.7304 7.34644 21.8227 7.46755 21.8865C7.58866 21.9502 7.72346 21.9836 7.86033 21.9836H16.0044C15.9512 22.1654 15.9266 22.3543 15.9313 22.5436C15.9537 23.4874 16.7085 24.2723 17.6497 24.3305C17.6891 24.333 17.7284 24.3342 17.7675 24.3342C18.2363 24.3342 18.6781 24.1597 19.0221 23.8364C19.3896 23.4909 19.6004 23.0035 19.6004 22.4993C19.6004 22.3234 19.5757 22.1505 19.5267 21.9836H23.5312C23.7901 21.9836 24 21.7738 24 21.5149V9.98508C24 9.72619 23.7901 9.51633 23.5312 9.51633Z" fill="white"/>
<path id="Vector_2" d="M12 10.4541C12.1233 10.4541 12.2442 10.4039 12.3314 10.3168C12.4185 10.2291 12.4688 10.1086 12.4688 9.98535C12.4688 9.86207 12.4186 9.74113 12.3314 9.65394C12.2442 9.56629 12.1233 9.5166 12 9.5166C11.8767 9.5166 11.7558 9.56629 11.6686 9.65394C11.5809 9.742 11.5316 9.8611 11.5312 9.98535C11.5313 10.1086 11.5814 10.2291 11.6686 10.3168C11.7567 10.4043 11.8758 10.4537 12 10.4541Z" fill="white"/>
</g>
</g>
<defs>
<clipPath id="clip0_2101_10571">
<rect width="24" height="24" fill="white"/>
</clipPath>
</defs>
</svg>
