<svg width="24" height="24" viewBox="0 0 24 24" fill="none" xmlns="http://www.w3.org/2000/svg">
<path d="M15.0204 20C15.0144 19.999 15.0074 20 15.0004 20H9.00045C8.79845 20 8.61545 19.878 8.53845 19.691C8.46045 19.504 8.50345 19.289 8.64645 19.146L11.6464 16.146C11.8414 15.951 12.1584 15.951 12.3534 16.146L15.2794 19.072C15.4234 19.16 15.5194 19.318 15.5194 19.499C15.5204 19.776 15.2964 20 15.0204 20ZM10.2074 19H13.7934L12.0004 17.207L10.2074 19Z" fill="white"/>
<path d="M23 15H1C0.724 15 0.5 14.776 0.5 14.5C0.5 14.224 0.724 14 1 14H23C23.276 14 23.5 14.224 23.5 14.5C23.5 14.776 23.276 15 23 15Z" fill="white"/>
<path d="M5 13C2.519 13 0.5 10.981 0.5 8.5C0.5 6.019 2.519 4 5 4C7.481 4 9.5 6.019 9.5 8.5C9.5 10.981 7.481 13 5 13ZM5 5C3.07 5 1.5 6.57 1.5 8.5C1.5 10.43 3.07 12 5 12C6.93 12 8.5 10.43 8.5 8.5C8.5 6.57 6.93 5 5 5Z" fill="white"/>
<path d="M7 10C6.925 10 6.849 9.983 6.777 9.947L4.777 8.947C4.607 8.862 4.5 8.689 4.5 8.5V6.5C4.5 6.224 4.724 6 5 6C5.276 6 5.5 6.224 5.5 6.5V8.191L7.224 9.053C7.471 9.177 7.571 9.477 7.448 9.724C7.359 9.899 7.183 10 7 10Z" fill="white"/>
<path d="M19.999 12C18.665 12 17.591 11.199 17.502 10.138C17.479 9.863 17.683 9.621 17.958 9.598C18.232 9.573 18.475 9.779 18.498 10.054C18.542 10.576 19.215 11 19.998 11C20.812 11 21.499 10.542 21.499 10C21.499 9.512 21.025 9.198 20.008 9.01L19.9 8.99C18.279 8.692 17.5 8.027 17.5 7C17.5 5.897 18.622 5 20.001 5C21.335 5 22.408 5.8 22.498 6.862C22.521 7.137 22.317 7.379 22.042 7.402C21.771 7.438 21.525 7.221 21.502 6.946C21.458 6.424 20.785 6 20.001 6C19.188 6 18.5 6.458 18.5 7C18.5 7.489 18.975 7.803 19.995 7.99C19.998 7.99 20.099 8.01 20.102 8.011C21.723 8.309 22.5 8.973 22.5 10C22.5 11.103 21.378 12 19.999 12Z" fill="white"/>
<path d="M20 13C19.724 13 19.5 12.776 19.5 12.5V4.5C19.5 4.224 19.724 4 20 4C20.276 4 20.5 4.224 20.5 4.5V12.5C20.5 12.776 20.276 13 20 13Z" fill="white"/>
</svg>
