<svg width="280" height="219" viewBox="0 0 280 219" fill="none" xmlns="http://www.w3.org/2000/svg">
<rect y="16" width="280" height="203" rx="14" fill="#1B1B1F"/>
<rect x="99.5" width="81" height="39" rx="14" fill="#242429"/>
<path opacity="0.5" d="M123.52 27.24C122.093 27.24 120.827 26.9333 119.72 26.32C118.627 25.6933 117.767 24.84 117.14 23.76C116.513 22.6667 116.2 21.4133 116.2 20C116.2 18.5867 116.513 17.34 117.14 16.26C117.767 15.1667 118.627 14.3133 119.72 13.7C120.827 13.0733 122.093 12.76 123.52 12.76C124.373 12.76 125.16 12.8867 125.88 13.14C126.6 13.3933 127.233 13.7467 127.78 14.2C128.34 14.64 128.807 15.1467 129.18 15.72L126.94 17.12C126.713 16.76 126.413 16.44 126.04 16.16C125.68 15.88 125.28 15.66 124.84 15.5C124.4 15.34 123.96 15.26 123.52 15.26C122.64 15.26 121.86 15.4667 121.18 15.88C120.5 16.28 119.967 16.8333 119.58 17.54C119.193 18.2467 119 19.0667 119 20C119 20.92 119.187 21.74 119.56 22.46C119.947 23.18 120.487 23.7467 121.18 24.16C121.873 24.56 122.673 24.76 123.58 24.76C124.287 24.76 124.913 24.62 125.46 24.34C126.02 24.06 126.46 23.6667 126.78 23.16C127.1 22.6533 127.26 22.0667 127.26 21.4L129.86 21C129.86 22.32 129.587 23.4467 129.04 24.38C128.507 25.3133 127.76 26.0267 126.8 26.52C125.853 27 124.76 27.24 123.52 27.24ZM123.98 21.64V19.5H129.86V21.2L128.38 21.64H123.98ZM132.763 21.74C132.763 20.66 132.97 19.7667 133.383 19.06C133.81 18.3533 134.35 17.8267 135.003 17.48C135.67 17.1333 136.363 16.96 137.083 16.96V19.52C136.47 19.52 135.89 19.5933 135.343 19.74C134.81 19.8867 134.377 20.1267 134.043 20.46C133.71 20.7933 133.543 21.22 133.543 21.74H132.763ZM130.903 27V17H133.543V27H130.903ZM142.581 27.24C141.568 27.24 140.661 27.02 139.861 26.58C139.075 26.1267 138.455 25.5067 138.001 24.72C137.561 23.9333 137.341 23.0267 137.341 22C137.341 20.9733 137.561 20.0667 138.001 19.28C138.441 18.4933 139.055 17.88 139.841 17.44C140.628 16.9867 141.528 16.76 142.541 16.76C143.568 16.76 144.475 16.9867 145.261 17.44C146.048 17.88 146.661 18.4933 147.101 19.28C147.541 20.0667 147.761 20.9733 147.761 22C147.761 23.0267 147.541 23.9333 147.101 24.72C146.661 25.5067 146.048 26.1267 145.261 26.58C144.488 27.02 143.595 27.24 142.581 27.24ZM142.581 24.8C143.075 24.8 143.508 24.68 143.881 24.44C144.255 24.2 144.541 23.8733 144.741 23.46C144.955 23.0333 145.061 22.5467 145.061 22C145.061 21.4533 144.955 20.9733 144.741 20.56C144.528 20.1333 144.228 19.8 143.841 19.56C143.468 19.32 143.035 19.2 142.541 19.2C142.061 19.2 141.628 19.32 141.241 19.56C140.868 19.8 140.575 20.1333 140.361 20.56C140.148 20.9733 140.041 21.4533 140.041 22C140.041 22.5467 140.148 23.0333 140.361 23.46C140.575 23.8733 140.875 24.2 141.261 24.44C141.648 24.68 142.088 24.8 142.581 24.8ZM157.813 27L161.133 17H163.813L160.413 27H157.813ZM151.173 27L154.373 17H156.673L153.513 27H151.173ZM150.913 27L147.513 17H150.193L153.373 27H150.913ZM157.813 27L154.693 17H156.973L160.153 27H157.813Z" fill="white"/>
<path d="M16 173.683L60.7216 143.256C63.0305 141.685 66.0104 141.492 68.5026 142.752L107.672 162.556C110.772 164.123 114.538 163.413 116.854 160.825L158.447 114.354C160.269 112.317 163.038 111.404 165.715 111.955L205.59 120.169C208.235 120.714 210.972 119.828 212.796 117.837L258.318 68.1744" stroke="#27C57B" stroke-width="7.67571" stroke-linecap="round" stroke-linejoin="round"/>
<path d="M76.9683 143.865C76.9683 149.973 72.0629 154.886 66.058 154.886C60.0531 154.886 55.1476 149.973 55.1476 143.865C55.1476 137.758 60.0531 132.845 66.058 132.845C72.0629 132.845 76.9683 137.758 76.9683 143.865Z" fill="#1D1D22" stroke="#27C57B" stroke-width="5.48265"/>
<path d="M172.523 111.754C172.523 117.861 167.618 122.775 161.613 122.775C155.608 122.775 150.702 117.861 150.702 111.754C150.702 105.647 155.608 100.733 161.613 100.733C167.618 100.733 172.523 105.647 172.523 111.754Z" fill="#1D1D22" stroke="#27C57B" stroke-width="5.48265"/>
<path d="M261.257 72.7618C261.257 78.8692 256.352 83.7825 250.347 83.7825C244.342 83.7825 239.437 78.8692 239.437 72.7618C239.437 66.6545 244.342 61.7412 250.347 61.7412C256.352 61.7412 261.257 66.6545 261.257 72.7618Z" fill="#1D1D22" stroke="#27C57B" stroke-width="5.48265"/>
<line opacity="0.07" x1="16" y1="188.043" x2="261.731" y2="188.043" stroke="white" stroke-width="1.09653"/>
<line opacity="0.07" x1="16" y1="132.996" x2="261.731" y2="132.996" stroke="white" stroke-width="1.09653"/>
<line opacity="0.07" x1="16" y1="77.9477" x2="261.731" y2="77.9477" stroke="white" stroke-width="1.09653"/>
</svg>
