<svg width="280" height="219" viewBox="0 0 280 219" fill="none" xmlns="http://www.w3.org/2000/svg">
<rect y="16" width="280" height="203" rx="14" fill="#1B1B1F"/>
<rect x="16" y="97.5" width="48" height="48" rx="24" fill="#242429"/>
<path d="M40.146 126.992C38.61 127.041 37.185 126.464 36.111 125.389C35.037 124.314 34.467 122.881 34.508 121.354C34.515 121.078 34.297 120.848 34.021 120.841C33.779 120.855 33.515 121.052 33.508 121.328C33.461 123.133 34.133 124.826 35.404 126.096C36.632 127.324 38.256 127.994 39.993 127.994C40.052 127.994 40.112 127.994 40.172 127.992C40.448 127.985 40.666 127.755 40.659 127.479C40.652 127.202 40.41 126.997 40.146 126.992ZM39.288 115.041C39.014 115.072 38.816 115.318 38.846 115.593C38.877 115.867 39.117 116.064 39.398 116.035C41.066 115.853 42.705 116.426 43.89 117.61C45.074 118.795 45.648 120.432 45.464 122.102C45.433 122.377 45.632 122.624 45.906 122.654C45.924 122.656 45.943 122.657 45.961 122.657C46.213 122.657 46.429 122.468 46.457 122.211C46.674 120.238 45.996 118.303 44.596 116.903C43.196 115.503 41.264 114.826 39.288 115.041ZM49.902 119.098C49.431 118.686 48.944 118.26 48.78 117.865C48.603 117.439 48.644 116.77 48.684 116.124C48.746 115.103 48.811 114.049 48.132 113.369C47.453 112.69 46.398 112.756 45.377 112.817C44.729 112.856 44.061 112.896 43.636 112.721C43.241 112.557 42.815 112.07 42.403 111.599C41.748 110.85 41.004 110 40 110C38.996 110 38.252 110.85 37.598 111.598C37.186 112.069 36.76 112.556 36.365 112.72C35.939 112.897 35.27 112.856 34.624 112.816C33.603 112.755 32.548 112.688 31.869 113.368C31.19 114.048 31.254 115.102 31.317 116.123C31.356 116.77 31.397 117.438 31.221 117.864C31.057 118.259 30.57 118.685 30.099 119.097C29.35 119.752 28.5 120.496 28.5 121.5C28.5 122.504 29.35 123.248 30.098 123.902C30.569 124.314 31.056 124.74 31.22 125.135C31.397 125.561 31.356 126.23 31.316 126.876C31.254 127.897 31.189 128.951 31.868 129.631C32.548 130.311 33.603 130.245 34.623 130.183C35.269 130.143 35.938 130.102 36.364 130.279C36.759 130.443 37.185 130.93 37.597 131.401C38.252 132.15 38.996 133 40 133C41.004 133 41.748 132.15 42.402 131.402C42.814 130.931 43.24 130.444 43.635 130.28C44.061 130.104 44.729 130.144 45.376 130.184C46.396 130.245 47.452 130.311 48.131 129.632C48.81 128.952 48.746 127.898 48.683 126.877C48.644 126.23 48.603 125.562 48.779 125.136C48.943 124.741 49.43 124.315 49.901 123.903C50.65 123.248 51.5 122.504 51.5 121.5C51.5 120.496 50.65 119.752 49.902 119.098ZM49.242 123.151C48.685 123.639 48.108 124.143 47.855 124.754C47.59 125.393 47.638 126.179 47.685 126.939C47.734 127.738 47.784 128.564 47.424 128.925C47.064 129.286 46.236 129.236 45.438 129.186C44.678 129.14 43.892 129.091 43.253 129.356C42.642 129.609 42.138 130.185 41.65 130.743C41.11 131.361 40.55 132 40 132C39.45 132 38.89 131.361 38.35 130.743C37.862 130.186 37.358 129.609 36.747 129.356C36.357 129.194 35.913 129.149 35.453 129.149C35.159 129.149 34.858 129.167 34.561 129.185C33.763 129.234 32.936 129.285 32.575 128.924C32.214 128.563 32.265 127.737 32.314 126.938C32.361 126.178 32.409 125.392 32.144 124.753C31.891 124.142 31.315 123.638 30.757 123.15C30.139 122.61 29.5 122.05 29.5 121.5C29.5 120.95 30.139 120.39 30.758 119.849C31.315 119.361 31.892 118.857 32.145 118.246C32.41 117.607 32.362 116.821 32.315 116.061C32.266 115.262 32.216 114.436 32.576 114.075C32.937 113.714 33.766 113.766 34.562 113.814C35.324 113.862 36.109 113.909 36.747 113.644C37.358 113.391 37.862 112.815 38.35 112.257C38.89 111.639 39.45 111 40 111C40.55 111 41.11 111.639 41.651 112.258C42.139 112.815 42.643 113.392 43.254 113.645C43.893 113.91 44.678 113.863 45.439 113.815C46.237 113.766 47.065 113.716 47.425 114.076C47.786 114.437 47.735 115.263 47.686 116.062C47.639 116.822 47.591 117.608 47.856 118.247C48.109 118.858 48.685 119.362 49.243 119.85C49.861 120.39 50.5 120.95 50.5 121.5C50.5 122.05 49.861 122.61 49.242 123.151Z" fill="white"/>
<rect x="74" y="44" width="27" height="8" rx="4" fill="#242429"/>
<rect x="74" y="60" width="190" height="10" rx="5" fill="#303037"/>
<rect x="74" y="60" width="73.8889" height="10" rx="5" fill="#8057FF"/>
<rect x="74" y="87" width="27" height="8" rx="4" fill="#242429"/>
<rect x="74" y="103" width="190" height="10" rx="5" fill="#303037"/>
<rect x="74" y="103" width="116.111" height="10" rx="5" fill="#8057FF"/>
<rect x="74" y="130" width="27" height="8" rx="4" fill="#242429"/>
<rect x="74" y="146" width="190" height="10" rx="5" fill="#303037"/>
<rect x="74" y="146" width="80.9259" height="10" rx="5" fill="#8057FF"/>
<g opacity="0.3">
<rect x="74" y="173" width="27" height="8" rx="4" fill="#242429"/>
<rect x="74" y="189" width="190" height="10" rx="5" fill="#303037"/>
<rect x="74" y="189" width="80.9259" height="10" rx="5" fill="#8057FF"/>
</g>
<rect x="104" width="72" height="32" rx="14" fill="#242429"/>
<path opacity="0.5" d="M124.354 21.168C123.859 21.168 123.397 21.1073 122.968 20.986C122.539 20.8647 122.156 20.6967 121.82 20.482C121.484 20.258 121.204 20.0107 120.98 19.74C120.765 19.4693 120.625 19.1847 120.56 18.886L122.436 18.326C122.557 18.6433 122.772 18.9187 123.08 19.152C123.388 19.376 123.775 19.4927 124.242 19.502C124.737 19.5113 125.138 19.404 125.446 19.18C125.763 18.956 125.922 18.6667 125.922 18.312C125.922 18.004 125.796 17.7473 125.544 17.542C125.301 17.3273 124.965 17.164 124.536 17.052L123.262 16.716C122.786 16.5947 122.366 16.4127 122.002 16.17C121.638 15.918 121.353 15.61 121.148 15.246C120.943 14.882 120.84 14.4573 120.84 13.972C120.84 13.048 121.143 12.3293 121.75 11.816C122.366 11.2933 123.234 11.032 124.354 11.032C124.979 11.032 125.525 11.1253 125.992 11.312C126.468 11.4893 126.865 11.746 127.182 12.082C127.499 12.418 127.742 12.8147 127.91 13.272L126.048 13.846C125.936 13.5287 125.731 13.258 125.432 13.034C125.133 12.81 124.755 12.698 124.298 12.698C123.831 12.698 123.463 12.8053 123.192 13.02C122.931 13.2347 122.8 13.538 122.8 13.93C122.8 14.238 122.903 14.4807 123.108 14.658C123.323 14.8353 123.612 14.9707 123.976 15.064L125.264 15.386C126.104 15.5913 126.757 15.96 127.224 16.492C127.691 17.024 127.924 17.6167 127.924 18.27C127.924 18.8487 127.784 19.3573 127.504 19.796C127.224 20.2253 126.818 20.5613 126.286 20.804C125.754 21.0467 125.11 21.168 124.354 21.168ZM132.046 21.168C131.355 21.168 130.744 21.014 130.212 20.706C129.68 20.3887 129.26 19.9547 128.952 19.404C128.653 18.8533 128.504 18.2187 128.504 17.5C128.504 16.7813 128.658 16.1467 128.966 15.596C129.283 15.0453 129.713 14.616 130.254 14.308C130.805 13.9907 131.435 13.832 132.144 13.832C132.76 13.832 133.325 13.9953 133.838 14.322C134.361 14.6393 134.776 15.1107 135.084 15.736C135.401 16.352 135.56 17.1033 135.56 17.99H130.254L130.422 17.822C130.422 18.1673 130.506 18.4707 130.674 18.732C130.851 18.984 131.075 19.18 131.346 19.32C131.626 19.4507 131.925 19.516 132.242 19.516C132.625 19.516 132.937 19.4367 133.18 19.278C133.423 19.11 133.609 18.8953 133.74 18.634L135.392 19.278C135.196 19.67 134.939 20.0107 134.622 20.3C134.314 20.58 133.945 20.7947 133.516 20.944C133.087 21.0933 132.597 21.168 132.046 21.168ZM130.52 16.786L130.352 16.618H133.726L133.572 16.786C133.572 16.45 133.493 16.184 133.334 15.988C133.175 15.7827 132.979 15.6333 132.746 15.54C132.522 15.4467 132.303 15.4 132.088 15.4C131.873 15.4 131.645 15.4467 131.402 15.54C131.159 15.6333 130.949 15.7827 130.772 15.988C130.604 16.184 130.52 16.45 130.52 16.786ZM139.098 21.168C138.323 21.168 137.735 20.9767 137.334 20.594C136.942 20.2113 136.746 19.6653 136.746 18.956V11.816H138.594V18.55C138.594 18.8487 138.659 19.0773 138.79 19.236C138.921 19.3853 139.112 19.46 139.364 19.46C139.457 19.46 139.56 19.4413 139.672 19.404C139.784 19.3573 139.901 19.292 140.022 19.208L140.666 20.594C140.442 20.762 140.19 20.8973 139.91 21C139.639 21.112 139.369 21.168 139.098 21.168ZM135.612 15.568V14H140.344V15.568H135.612ZM148.963 21L148.851 19.712V14H150.699V21H148.963ZM144.217 17.584V14H146.065V17.584H144.217ZM146.065 17.584C146.065 18.0507 146.116 18.4193 146.219 18.69C146.331 18.9513 146.485 19.1427 146.681 19.264C146.886 19.376 147.115 19.432 147.367 19.432C147.852 19.4413 148.221 19.2967 148.473 18.998C148.725 18.69 148.851 18.2467 148.851 17.668H149.481C149.481 18.4147 149.369 19.0493 149.145 19.572C148.921 20.0853 148.613 20.482 148.221 20.762C147.829 21.0327 147.367 21.168 146.835 21.168C146.275 21.168 145.799 21.056 145.407 20.832C145.015 20.608 144.716 20.2627 144.511 19.796C144.315 19.32 144.217 18.7087 144.217 17.962V17.584H146.065ZM151.95 23.8V14H153.686L153.798 15.288V23.8H151.95ZM155.912 21.168C155.324 21.168 154.824 21.0187 154.414 20.72C154.012 20.4213 153.704 19.9967 153.49 19.446C153.275 18.8953 153.168 18.2467 153.168 17.5C153.168 16.744 153.275 16.0953 153.49 15.554C153.704 15.0033 154.012 14.5787 154.414 14.28C154.824 13.9813 155.324 13.832 155.912 13.832C156.556 13.832 157.111 13.9813 157.578 14.28C158.054 14.5787 158.422 15.0033 158.684 15.554C158.945 16.0953 159.076 16.744 159.076 17.5C159.076 18.2467 158.945 18.8953 158.684 19.446C158.422 19.9967 158.054 20.4213 157.578 20.72C157.111 21.0187 156.556 21.168 155.912 21.168ZM155.436 19.474C155.772 19.474 156.066 19.39 156.318 19.222C156.579 19.054 156.784 18.8207 156.934 18.522C157.083 18.2233 157.158 17.8827 157.158 17.5C157.158 17.1173 157.083 16.7767 156.934 16.478C156.794 16.1793 156.593 15.9507 156.332 15.792C156.08 15.624 155.786 15.54 155.45 15.54C155.132 15.54 154.848 15.624 154.596 15.792C154.344 15.96 154.148 16.1933 154.008 16.492C153.868 16.7813 153.798 17.1173 153.798 17.5C153.798 17.8827 153.868 18.2233 154.008 18.522C154.148 18.8207 154.339 19.054 154.582 19.222C154.834 19.39 155.118 19.474 155.436 19.474Z" fill="white"/>
</svg>
