<svg width="24" height="24" viewBox="0 0 24 24" fill="none" xmlns="http://www.w3.org/2000/svg">
<g clip-path="url(#clip0_2101_10941)">
<path d="M12 24C6.762 24 2.5 20.636 2.5 16.5C2.5 13.586 7.428 8.375 7.638 8.155C7.732 8.056 7.863 8 8 8H16C16.137 8 16.268 8.056 16.362 8.155C16.572 8.375 21.5 13.586 21.5 16.5C21.5 20.636 17.238 24 12 24ZM8.216 9C6.773 10.548 3.5 14.484 3.5 16.5C3.5 20.084 7.313 23 12 23C16.687 23 20.5 20.084 20.5 16.5C20.5 14.482 17.227 10.547 15.784 9H8.216Z" fill="white"/>
<path d="M16 7H8C7.724 7 7.5 6.777 7.5 6.5C7.5 6.223 7.724 6 8 6H16C16.276 6 16.5 6.224 16.5 6.5C16.5 6.776 16.276 7 16 7Z" fill="white"/>
<path d="M16.0003 4.99999H8.00029C7.81129 4.99999 7.63829 4.89299 7.55329 4.72399L5.55329 0.723995C5.45629 0.530995 5.49429 0.298995 5.64629 0.146995C5.79829 -0.00500542 6.03029 -0.0440054 6.22429 0.0529946L9.90229 1.89199L11.6473 0.146995C11.8423 -0.0480054 12.1593 -0.0480054 12.3543 0.146995L14.0993 1.89199L17.7773 0.0529946C17.9693 -0.0440054 18.2033 -0.00600542 18.3543 0.146995C18.5063 0.298995 18.5443 0.531995 18.4483 0.723995L16.4483 4.72399C16.3623 4.89299 16.1893 4.99999 16.0003 4.99999ZM8.30929 3.99999H15.6923L16.8823 1.61799L14.2243 2.94699C14.0323 3.04399 13.7983 3.00599 13.6473 2.85299L12.0003 1.20699L10.3543 2.85299C10.2023 3.00499 9.97029 3.04299 9.77729 2.94699L7.11829 1.61799L8.30929 3.99999Z" fill="white"/>
<path d="M11.998 20C10.665 20 9.592 19.2 9.502 18.138C9.479 17.863 9.683 17.621 9.958 17.598C10.21 17.564 10.475 17.778 10.498 18.054C10.542 18.575 11.215 19 11.998 19C12.812 19 13.5 18.542 13.5 18C13.5 17.512 13.026 17.198 12.01 17.011L11.9 16.99C10.278 16.691 9.5 16.027 9.5 15C9.5 13.897 10.622 13 12.002 13C13.335 13 14.408 13.8 14.498 14.861C14.521 15.136 14.317 15.379 14.042 15.402C13.785 15.428 13.524 15.222 13.502 14.946C13.458 14.425 12.785 14 12.002 14C11.188 14 10.5 14.458 10.5 15C10.5 15.488 10.975 15.802 11.994 15.99L12.103 16.011C13.723 16.31 14.499 16.974 14.499 18.001C14.5 19.103 13.378 20 11.998 20Z" fill="white"/>
<path d="M12 21C11.724 21 11.5 20.776 11.5 20.5V12.5C11.5 12.224 11.724 12 12 12C12.276 12 12.5 12.224 12.5 12.5V20.5C12.5 20.777 12.276 21 12 21Z" fill="white"/>
</g>
<defs>
<clipPath id="clip0_2101_10941">
<rect width="24" height="24" fill="white"/>
</clipPath>
</defs>
</svg>
