<svg width="18" height="24" viewBox="0 0 18 24" fill="none" xmlns="http://www.w3.org/2000/svg">
<g id="Eva">
<g id="Eve">
<g id="Group">
<path id="Vector" d="M9 9C3.779 9 3 6.807 3 5.5C3 3.194 5.085 0 9 0C12.706 0 15 2.855 15 5.5C15 6.807 14.221 9 9 9ZM9 1C5.737 1 4 3.613 4 5.5C4 7.675 7.133 8 9 8C10.867 8 14 7.675 14 5.5C14 3.685 12.411 1 9 1Z" fill="white"/>
</g>
<g id="Group_2">
<path id="Vector_2" d="M9.00024 24C5.75624 24 3.03824 18.348 2.23024 9.92803C2.21224 9.84703 2.21524 9.75903 2.24024 9.67303C2.32124 9.41003 2.59724 9.25803 2.86524 9.34203C4.21224 9.75403 6.50624 10 9.00024 10C11.4902 10 13.7832 9.75403 15.1322 9.34303C15.2892 9.29403 15.4632 9.32803 15.5942 9.43403C15.7232 9.53903 15.7912 9.70203 15.7762 9.86803C14.9762 18.321 12.2532 24 9.00024 24ZM3.29324 10.486C4.09824 17.779 6.45924 23 9.00024 23C11.5422 23 13.9022 17.78 14.7072 10.486C13.2542 10.812 11.1932 11 9.00024 11C6.80624 11 4.74524 10.812 3.29324 10.486Z" fill="white"/>
</g>
<g id="Group_3">
<path id="Vector_3" d="M2.72095 10.322C2.64595 10.322 2.56995 10.305 2.49695 10.269C2.24995 10.146 2.14795 9.84398 2.27095 9.59698C2.39495 9.35098 2.69395 9.24998 2.93995 9.37298L2.94395 9.37498C3.19095 9.49898 3.29095 9.79898 3.16795 10.046C3.07995 10.221 2.90295 10.322 2.72095 10.322Z" fill="white"/>
</g>
<g id="Group_4">
<path id="Vector_4" d="M5.5 13C5.77614 13 6 12.7761 6 12.5C6 12.2239 5.77614 12 5.5 12C5.22386 12 5 12.2239 5 12.5C5 12.7761 5.22386 13 5.5 13Z" fill="white"/>
</g>
<g id="Group_5">
<path id="Vector_5" d="M7.5 13C7.77614 13 8 12.7761 8 12.5C8 12.2239 7.77614 12 7.5 12C7.22386 12 7 12.2239 7 12.5C7 12.7761 7.22386 13 7.5 13Z" fill="white"/>
</g>
<g id="Group_6">
<path id="Vector_6" d="M9.5 13C9.77614 13 10 12.7761 10 12.5C10 12.2239 9.77614 12 9.5 12C9.22386 12 9 12.2239 9 12.5C9 12.7761 9.22386 13 9.5 13Z" fill="white"/>
</g>
<g id="Group_7">
<path id="Vector_7" d="M5.50002 5.99999C5.38902 5.99999 5.27703 5.96299 5.18503 5.88799C4.97003 5.71299 4.93803 5.39799 5.11203 5.18399C5.16603 5.11799 5.66002 4.53799 6.43002 4.50399C6.93902 4.48699 7.41902 4.69999 7.85902 5.15099C8.05102 5.34899 8.04702 5.66599 7.84902 5.85799C7.65102 6.04999 7.33402 6.04699 7.14202 5.84799C6.90902 5.60999 6.69202 5.49699 6.47402 5.50299C6.15002 5.51699 5.89002 5.81299 5.88802 5.81599C5.78902 5.93699 5.64502 5.99999 5.50002 5.99999Z" fill="white"/>
</g>
<g id="Group_8">
<path id="Vector_8" d="M12.4991 6.00005C12.3681 6.00005 12.2381 5.94905 12.1401 5.84805C11.9131 5.61405 11.7091 5.52005 11.4841 5.50505C11.1491 5.51505 10.8851 5.81905 10.8821 5.82205C10.7031 6.03005 10.3921 6.05805 10.1791 5.88105C9.96907 5.70405 9.93907 5.39405 10.1141 5.18205C10.1691 5.11605 10.6681 4.53605 11.4391 4.50505C11.9431 4.48205 12.4231 4.70205 12.8591 5.15205C13.0511 5.35005 13.0461 5.66705 12.8471 5.85905C12.7501 5.95305 12.6241 6.00005 12.4991 6.00005Z" fill="white"/>
</g>
<g id="Group_9">
<path id="Vector_9" d="M4.32533 23C4.16433 23 4.00633 22.922 3.90933 22.777C2.25633 20.296 1.01333 16.313 0.410331 11.563C0.375331 11.289 0.569331 11.039 0.843331 11.004C1.11433 10.969 1.36733 11.163 1.40333 11.437C1.98733 16.037 3.17333 19.868 4.74233 22.223C4.89533 22.453 4.83333 22.764 4.60333 22.916C4.51833 22.973 4.42133 23 4.32533 23Z" fill="white"/>
</g>
<g id="Group_10">
<path id="Vector_10" d="M13.6715 23C13.5755 23 13.4795 22.973 13.3945 22.916C13.1655 22.763 13.1025 22.453 13.2555 22.223C14.8245 19.868 16.0105 16.037 16.5945 11.437C16.6295 11.163 16.8845 10.969 17.1545 11.004C17.4275 11.039 17.6225 11.289 17.5875 11.563C16.9835 16.313 15.7415 20.296 14.0885 22.777C13.9905 22.922 13.8325 23 13.6715 23Z" fill="white"/>
</g>
</g>
</g>
</svg>
