<svg width="1044" height="481" viewBox="0 0 1044 481" fill="none" xmlns="http://www.w3.org/2000/svg">
<rect width="1044" height="438" rx="24" fill="#131315"/>
<rect x="51" y="181" width="359" height="44" rx="22" fill="#34343C"/>
<rect opacity="0.4" x="526" y="47" width="417" height="343" rx="32" fill="#34343C"/>
<path d="M644.55 226.899L562 388H878L795.01 261.855C791.294 256.208 783.163 255.798 778.898 261.041L729.437 321.85C724.941 327.376 716.274 326.564 712.884 320.298L662.245 226.701C658.415 219.623 648.22 219.737 644.55 226.899Z" fill="#303037"/>
<circle cx="822.5" cy="102.5" r="26.5" fill="#303037"/>
<rect x="51" y="245" width="257" height="44" rx="22" fill="#1B1B1F"/>
<rect x="51" y="47" width="124" height="44" rx="22" fill="#1B1B1F"/>
<g filter="url(#filter0_d_967_2497)">
<rect x="51" y="325" width="203" height="65" rx="32.5" fill="#F8795D"/>
</g>
<path d="M139.732 366.264C138.192 366.264 136.828 365.927 135.64 365.252C134.466 364.563 133.542 363.624 132.868 362.436C132.193 361.233 131.856 359.855 131.856 358.3C131.856 356.745 132.193 355.374 132.868 354.186C133.542 352.983 134.466 352.045 135.64 351.37C136.828 350.681 138.192 350.336 139.732 350.336C140.92 350.336 141.99 350.541 142.944 350.952C143.897 351.363 144.718 351.935 145.408 352.668C146.097 353.401 146.625 354.252 146.992 355.22L143.12 356.452C142.914 355.968 142.65 355.55 142.328 355.198C142.005 354.831 141.624 354.553 141.184 354.362C140.758 354.171 140.274 354.076 139.732 354.076C139.013 354.076 138.375 354.259 137.818 354.626C137.26 354.978 136.82 355.469 136.498 356.1C136.19 356.731 136.036 357.464 136.036 358.3C136.036 359.121 136.197 359.855 136.52 360.5C136.842 361.131 137.282 361.629 137.84 361.996C138.412 362.348 139.064 362.524 139.798 362.524C140.37 362.524 140.861 362.429 141.272 362.238C141.697 362.033 142.056 361.754 142.35 361.402C142.658 361.035 142.922 360.61 143.142 360.126L147.014 361.358C146.662 362.326 146.141 363.184 145.452 363.932C144.762 364.665 143.934 365.237 142.966 365.648C141.998 366.059 140.92 366.264 139.732 366.264ZM151.403 366V351.876H155.473V366H151.403ZM147.047 354.34V350.6H159.807V354.34H147.047ZM170.228 366L164.596 350.6H168.644L174.54 366H170.228ZM158.37 366L164.266 350.6H168.314L162.682 366H158.37ZM161.142 363.536V359.95H171.79V363.536H161.142Z" fill="white"/>
<rect x="706" y="102" width="310" height="379" rx="14" fill="#1B1B1F"/>
<rect x="730" y="171" width="213" height="32" rx="16" fill="#34343C"/>
<rect x="730" y="219" width="148" height="32" rx="16" fill="#292930"/>
<line opacity="0.07" x1="730" y1="455.5" x2="992" y2="455.5" stroke="white"/>
<line opacity="0.07" x1="730" y1="412.5" x2="992" y2="412.5" stroke="white"/>
<line opacity="0.07" x1="730" y1="369.5" x2="992" y2="369.5" stroke="white"/>
<line opacity="0.07" x1="730" y1="326.5" x2="992" y2="326.5" stroke="white"/>
<path d="M730 402C730 398.686 732.686 396 736 396H764C767.314 396 770 398.686 770 402V455H730V402Z" fill="#764AFF"/>
<path d="M804 380C804 376.686 806.686 374 810 374H838C841.314 374 844 376.686 844 380V455H804V380Z" fill="#764AFF"/>
<path d="M878 345C878 341.686 880.686 339 884 339H912C915.314 339 918 341.686 918 345V455H878V345Z" fill="#764AFF"/>
<path d="M952 323C952 319.686 954.686 317 958 317H986C989.314 317 992 319.686 992 323V455H952V323Z" fill="#764AFF"/>
<path opacity="0.6" d="M736.636 142.376L734.572 141.848L738.172 135.8H740.668L736.636 142.376ZM734.508 147V141.624H736.7V147H734.508ZM734.572 142.376L730.54 135.8H733.036L736.636 141.848L734.572 142.376ZM743.605 147.192C742.794 147.192 742.069 147.016 741.429 146.664C740.799 146.301 740.303 145.805 739.941 145.176C739.589 144.547 739.413 143.821 739.413 143C739.413 142.179 739.589 141.453 739.941 140.824C740.293 140.195 740.783 139.704 741.413 139.352C742.042 138.989 742.762 138.808 743.573 138.808C744.394 138.808 745.119 138.989 745.749 139.352C746.378 139.704 746.869 140.195 747.221 140.824C747.573 141.453 747.749 142.179 747.749 143C747.749 143.821 747.573 144.547 747.221 145.176C746.869 145.805 746.378 146.301 745.749 146.664C745.13 147.016 744.415 147.192 743.605 147.192ZM743.605 145.24C743.999 145.24 744.346 145.144 744.645 144.952C744.943 144.76 745.173 144.499 745.333 144.168C745.503 143.827 745.589 143.437 745.589 143C745.589 142.563 745.503 142.179 745.333 141.848C745.162 141.507 744.922 141.24 744.613 141.048C744.314 140.856 743.967 140.76 743.573 140.76C743.189 140.76 742.842 140.856 742.533 141.048C742.234 141.24 741.999 141.507 741.829 141.848C741.658 142.179 741.573 142.563 741.573 143C741.573 143.437 741.658 143.827 741.829 144.168C741.999 144.499 742.239 144.76 742.549 144.952C742.858 145.144 743.21 145.24 743.605 145.24ZM753.942 147L753.814 145.528V139H755.926V147H753.942ZM748.518 143.576V139H750.63V143.096L748.518 143.576ZM750.63 143.096C750.63 143.629 750.688 144.051 750.806 144.36C750.934 144.659 751.11 144.877 751.334 145.016C751.568 145.144 751.83 145.208 752.118 145.208C752.672 145.219 753.094 145.053 753.382 144.712C753.67 144.36 753.814 143.853 753.814 143.192H754.534C754.534 144.045 754.406 144.771 754.15 145.368C753.904 145.955 753.552 146.408 753.094 146.728C752.646 147.037 752.118 147.192 751.51 147.192C750.55 147.192 749.808 146.899 749.286 146.312C748.774 145.715 748.518 144.803 748.518 143.576L750.63 143.096ZM758.763 142.792C758.763 141.928 758.929 141.213 759.259 140.648C759.601 140.083 760.033 139.661 760.555 139.384C761.089 139.107 761.643 138.968 762.219 138.968V141.016C761.729 141.016 761.265 141.075 760.827 141.192C760.401 141.309 760.054 141.501 759.787 141.768C759.521 142.035 759.387 142.376 759.387 142.792H758.763ZM757.275 147V139H759.387V147H757.275ZM775.47 147L778.686 135.8H780.91L777.566 147H775.47ZM768.718 147L765.406 135.8H767.63L770.814 147H768.718ZM769.006 147L772.062 135.8H774.046L771.006 147H769.006ZM775.262 147L772.254 135.8H774.238L777.358 147H775.262ZM784.42 147.192C783.631 147.192 782.932 147.016 782.324 146.664C781.716 146.301 781.236 145.805 780.884 145.176C780.543 144.547 780.372 143.821 780.372 143C780.372 142.179 780.548 141.453 780.9 140.824C781.263 140.195 781.754 139.704 782.372 139.352C783.002 138.989 783.722 138.808 784.532 138.808C785.226 138.808 785.866 138.995 786.452 139.368C787.05 139.731 787.53 140.269 787.892 140.984C788.255 141.688 788.436 142.547 788.436 143.56H786.292C786.303 142.856 786.228 142.296 786.068 141.88C785.919 141.453 785.706 141.149 785.428 140.968C785.151 140.776 784.826 140.68 784.452 140.68C784.036 140.68 783.684 140.765 783.396 140.936C783.108 141.107 782.89 141.368 782.74 141.72C782.602 142.061 782.532 142.509 782.532 143.064C782.532 143.544 782.628 143.944 782.82 144.264C783.012 144.584 783.268 144.829 783.588 145C783.908 145.16 784.26 145.24 784.644 145.24C785.06 145.24 785.396 145.149 785.652 144.968C785.919 144.787 786.122 144.552 786.26 144.264L788.244 145.032C788.02 145.48 787.727 145.869 787.364 146.2C787.012 146.52 786.591 146.765 786.1 146.936C785.61 147.107 785.05 147.192 784.42 147.192ZM781.748 143.56L781.764 141.912H787.396V143.56H781.748ZM789.184 147V135.8H791.296V145.512L791.184 147H789.184ZM793.712 147.192C793.04 147.192 792.469 147.021 792 146.68C791.541 146.339 791.189 145.853 790.944 145.224C790.698 144.595 790.576 143.853 790.576 143C790.576 142.136 790.698 141.395 790.944 140.776C791.189 140.147 791.541 139.661 792 139.32C792.469 138.979 793.04 138.808 793.712 138.808C794.448 138.808 795.082 138.979 795.616 139.32C796.16 139.661 796.581 140.147 796.88 140.776C797.178 141.395 797.328 142.136 797.328 143C797.328 143.853 797.178 144.595 796.88 145.224C796.581 145.853 796.16 146.339 795.616 146.68C795.082 147.021 794.448 147.192 793.712 147.192ZM793.168 145.256C793.552 145.256 793.888 145.16 794.176 144.968C794.474 144.776 794.709 144.509 794.88 144.168C795.05 143.827 795.136 143.437 795.136 143C795.136 142.563 795.05 142.173 794.88 141.832C794.72 141.491 794.49 141.229 794.192 141.048C793.904 140.856 793.568 140.76 793.184 140.76C792.821 140.76 792.496 140.856 792.208 141.048C791.92 141.24 791.696 141.507 791.536 141.848C791.376 142.179 791.296 142.563 791.296 143C791.296 143.437 791.376 143.827 791.536 144.168C791.696 144.509 791.914 144.776 792.192 144.968C792.48 145.16 792.805 145.256 793.168 145.256ZM801.227 147.192C800.715 147.192 800.235 147.117 799.787 146.968C799.339 146.808 798.944 146.584 798.603 146.296C798.261 145.997 797.995 145.635 797.803 145.208L799.611 144.376C799.771 144.632 799.989 144.856 800.267 145.048C800.544 145.229 800.864 145.32 801.227 145.32C801.579 145.32 801.851 145.272 802.043 145.176C802.235 145.069 802.331 144.92 802.331 144.728C802.331 144.536 802.251 144.397 802.091 144.312C801.941 144.216 801.733 144.136 801.467 144.072L800.731 143.88C799.963 143.677 799.355 143.357 798.907 142.92C798.469 142.472 798.251 141.96 798.251 141.384C798.251 140.563 798.512 139.928 799.035 139.48C799.568 139.032 800.32 138.808 801.291 138.808C801.792 138.808 802.256 138.883 802.683 139.032C803.12 139.181 803.493 139.389 803.803 139.656C804.112 139.923 804.325 140.232 804.443 140.584L802.699 141.384C802.624 141.171 802.443 141 802.155 140.872C801.867 140.733 801.579 140.664 801.291 140.664C801.003 140.664 800.779 140.728 800.619 140.856C800.469 140.973 800.395 141.139 800.395 141.352C800.395 141.491 800.469 141.608 800.619 141.704C800.768 141.789 800.981 141.864 801.259 141.928L802.299 142.184C802.821 142.312 803.237 142.52 803.547 142.808C803.867 143.085 804.096 143.4 804.235 143.752C804.384 144.093 804.459 144.429 804.459 144.76C804.459 145.24 804.315 145.667 804.027 146.04C803.749 146.403 803.365 146.685 802.875 146.888C802.395 147.091 801.845 147.192 801.227 147.192ZM805.336 147V139H807.448V147H805.336ZM806.392 137.704C806.072 137.704 805.789 137.587 805.544 137.352C805.299 137.107 805.176 136.819 805.176 136.488C805.176 136.157 805.299 135.875 805.544 135.64C805.789 135.395 806.072 135.272 806.392 135.272C806.723 135.272 807.005 135.395 807.24 135.64C807.485 135.875 807.608 136.157 807.608 136.488C807.608 136.819 807.485 137.107 807.24 137.352C807.005 137.587 806.723 137.704 806.392 137.704ZM812.211 147.192C811.326 147.192 810.654 146.973 810.195 146.536C809.747 146.099 809.523 145.475 809.523 144.664V136.504H811.635V144.2C811.635 144.541 811.71 144.803 811.859 144.984C812.009 145.155 812.227 145.24 812.515 145.24C812.622 145.24 812.739 145.219 812.867 145.176C812.995 145.123 813.129 145.048 813.267 144.952L814.003 146.536C813.747 146.728 813.459 146.883 813.139 147C812.83 147.128 812.521 147.192 812.211 147.192ZM808.227 140.792V139H813.635V140.792H808.227ZM818.348 147.192C817.559 147.192 816.86 147.016 816.252 146.664C815.644 146.301 815.164 145.805 814.812 145.176C814.471 144.547 814.3 143.821 814.3 143C814.3 142.179 814.476 141.453 814.828 140.824C815.191 140.195 815.682 139.704 816.3 139.352C816.93 138.989 817.65 138.808 818.46 138.808C819.154 138.808 819.794 138.995 820.38 139.368C820.978 139.731 821.458 140.269 821.82 140.984C822.183 141.688 822.364 142.547 822.364 143.56H820.22C820.231 142.856 820.156 142.296 819.996 141.88C819.847 141.453 819.634 141.149 819.356 140.968C819.079 140.776 818.754 140.68 818.38 140.68C817.964 140.68 817.612 140.765 817.324 140.936C817.036 141.107 816.818 141.368 816.668 141.72C816.53 142.061 816.46 142.509 816.46 143.064C816.46 143.544 816.556 143.944 816.748 144.264C816.94 144.584 817.196 144.829 817.516 145C817.836 145.16 818.188 145.24 818.572 145.24C818.988 145.24 819.324 145.149 819.58 144.968C819.847 144.787 820.05 144.552 820.188 144.264L822.172 145.032C821.948 145.48 821.655 145.869 821.292 146.2C820.94 146.52 820.519 146.765 820.028 146.936C819.538 147.107 818.978 147.192 818.348 147.192ZM815.676 143.56L815.692 141.912H821.324V143.56H815.676ZM831.692 147.192C830.604 147.192 829.639 146.947 828.796 146.456C827.954 145.955 827.292 145.272 826.812 144.408C826.332 143.533 826.092 142.531 826.092 141.4C826.092 140.269 826.332 139.272 826.812 138.408C827.292 137.533 827.948 136.851 828.78 136.36C829.623 135.859 830.588 135.608 831.676 135.608C832.444 135.608 833.159 135.747 833.82 136.024C834.482 136.291 835.058 136.669 835.548 137.16C836.05 137.64 836.434 138.195 836.7 138.824L834.668 139.576C834.487 139.181 834.247 138.84 833.948 138.552C833.65 138.253 833.308 138.024 832.924 137.864C832.54 137.693 832.124 137.608 831.676 137.608C831.026 137.608 830.444 137.773 829.932 138.104C829.431 138.424 829.036 138.867 828.748 139.432C828.471 139.997 828.332 140.653 828.332 141.4C828.332 142.147 828.476 142.808 828.764 143.384C829.052 143.949 829.452 144.397 829.964 144.728C830.476 145.048 831.063 145.208 831.724 145.208C832.183 145.208 832.599 145.123 832.972 144.952C833.356 144.771 833.692 144.525 833.98 144.216C834.279 143.907 834.519 143.549 834.7 143.144L836.732 143.88C836.466 144.531 836.082 145.107 835.58 145.608C835.09 146.109 834.514 146.499 833.852 146.776C833.191 147.053 832.471 147.192 831.692 147.192ZM841.318 147.192C840.507 147.192 839.782 147.016 839.142 146.664C838.513 146.301 838.017 145.805 837.654 145.176C837.302 144.547 837.126 143.821 837.126 143C837.126 142.179 837.302 141.453 837.654 140.824C838.006 140.195 838.497 139.704 839.126 139.352C839.755 138.989 840.475 138.808 841.286 138.808C842.107 138.808 842.833 138.989 843.462 139.352C844.091 139.704 844.582 140.195 844.934 140.824C845.286 141.453 845.462 142.179 845.462 143C845.462 143.821 845.286 144.547 844.934 145.176C844.582 145.805 844.091 146.301 843.462 146.664C842.843 147.016 842.129 147.192 841.318 147.192ZM841.318 145.24C841.713 145.24 842.059 145.144 842.358 144.952C842.657 144.76 842.886 144.499 843.046 144.168C843.217 143.827 843.302 143.437 843.302 143C843.302 142.563 843.217 142.179 843.046 141.848C842.875 141.507 842.635 141.24 842.326 141.048C842.027 140.856 841.681 140.76 841.286 140.76C840.902 140.76 840.555 140.856 840.246 141.048C839.947 141.24 839.713 141.507 839.542 141.848C839.371 142.179 839.286 142.563 839.286 143C839.286 143.437 839.371 143.827 839.542 144.168C839.713 144.499 839.953 144.76 840.262 144.952C840.571 145.144 840.923 145.24 841.318 145.24ZM846.375 147V139H848.359L848.487 140.472V147H846.375ZM851.671 147V142.904L853.783 142.424V147H851.671ZM851.671 142.904C851.671 142.36 851.607 141.939 851.479 141.64C851.361 141.341 851.191 141.128 850.967 141C850.743 140.861 850.481 140.792 850.183 140.792C849.639 140.781 849.217 140.947 848.919 141.288C848.631 141.629 848.487 142.136 848.487 142.808H847.783C847.783 141.955 847.905 141.235 848.151 140.648C848.407 140.051 848.759 139.597 849.207 139.288C849.655 138.968 850.183 138.808 850.791 138.808C851.761 138.808 852.503 139.107 853.015 139.704C853.537 140.291 853.793 141.197 853.783 142.424L851.671 142.904ZM857.426 147L860.466 139H862.642L859.362 147H857.426ZM857.25 147L853.97 139H856.146L859.186 147H857.25ZM866.546 147.192C865.757 147.192 865.058 147.016 864.45 146.664C863.842 146.301 863.362 145.805 863.01 145.176C862.669 144.547 862.498 143.821 862.498 143C862.498 142.179 862.674 141.453 863.026 140.824C863.389 140.195 863.88 139.704 864.498 139.352C865.128 138.989 865.848 138.808 866.658 138.808C867.352 138.808 867.992 138.995 868.578 139.368C869.176 139.731 869.656 140.269 870.018 140.984C870.381 141.688 870.562 142.547 870.562 143.56H868.418C868.429 142.856 868.354 142.296 868.194 141.88C868.045 141.453 867.832 141.149 867.554 140.968C867.277 140.776 866.952 140.68 866.578 140.68C866.162 140.68 865.81 140.765 865.522 140.936C865.234 141.107 865.016 141.368 864.866 141.72C864.728 142.061 864.658 142.509 864.658 143.064C864.658 143.544 864.754 143.944 864.946 144.264C865.138 144.584 865.394 144.829 865.714 145C866.034 145.16 866.386 145.24 866.77 145.24C867.186 145.24 867.522 145.149 867.778 144.968C868.045 144.787 868.248 144.552 868.386 144.264L870.37 145.032C870.146 145.48 869.853 145.869 869.49 146.2C869.138 146.52 868.717 146.765 868.226 146.936C867.736 147.107 867.176 147.192 866.546 147.192ZM863.874 143.56L863.89 141.912H869.522V143.56H863.874ZM872.798 142.792C872.798 141.928 872.963 141.213 873.294 140.648C873.635 140.083 874.067 139.661 874.59 139.384C875.123 139.107 875.678 138.968 876.254 138.968V141.016C875.763 141.016 875.299 141.075 874.862 141.192C874.435 141.309 874.088 141.501 873.822 141.768C873.555 142.035 873.422 142.376 873.422 142.792H872.798ZM871.31 147V139H873.422V147H871.31ZM879.884 147.192C879.372 147.192 878.892 147.117 878.444 146.968C877.996 146.808 877.602 146.584 877.26 146.296C876.919 145.997 876.652 145.635 876.46 145.208L878.268 144.376C878.428 144.632 878.647 144.856 878.924 145.048C879.202 145.229 879.522 145.32 879.884 145.32C880.236 145.32 880.508 145.272 880.7 145.176C880.892 145.069 880.988 144.92 880.988 144.728C880.988 144.536 880.908 144.397 880.748 144.312C880.599 144.216 880.391 144.136 880.124 144.072L879.388 143.88C878.62 143.677 878.012 143.357 877.564 142.92C877.127 142.472 876.908 141.96 876.908 141.384C876.908 140.563 877.17 139.928 877.692 139.48C878.226 139.032 878.978 138.808 879.948 138.808C880.45 138.808 880.914 138.883 881.34 139.032C881.778 139.181 882.151 139.389 882.46 139.656C882.77 139.923 882.983 140.232 883.1 140.584L881.356 141.384C881.282 141.171 881.1 141 880.812 140.872C880.524 140.733 880.236 140.664 879.948 140.664C879.66 140.664 879.436 140.728 879.276 140.856C879.127 140.973 879.052 141.139 879.052 141.352C879.052 141.491 879.127 141.608 879.276 141.704C879.426 141.789 879.639 141.864 879.916 141.928L880.956 142.184C881.479 142.312 881.895 142.52 882.204 142.808C882.524 143.085 882.754 143.4 882.892 143.752C883.042 144.093 883.116 144.429 883.116 144.76C883.116 145.24 882.972 145.667 882.684 146.04C882.407 146.403 882.023 146.685 881.532 146.888C881.052 147.091 880.503 147.192 879.884 147.192ZM883.993 147V139H886.105V147H883.993ZM885.049 137.704C884.729 137.704 884.447 137.587 884.201 137.352C883.956 137.107 883.833 136.819 883.833 136.488C883.833 136.157 883.956 135.875 884.201 135.64C884.447 135.395 884.729 135.272 885.049 135.272C885.38 135.272 885.663 135.395 885.897 135.64C886.143 135.875 886.265 136.157 886.265 136.488C886.265 136.819 886.143 137.107 885.897 137.352C885.663 137.587 885.38 137.704 885.049 137.704ZM891.333 147.192C890.522 147.192 889.797 147.016 889.157 146.664C888.528 146.301 888.032 145.805 887.669 145.176C887.317 144.547 887.141 143.821 887.141 143C887.141 142.179 887.317 141.453 887.669 140.824C888.021 140.195 888.512 139.704 889.141 139.352C889.77 138.989 890.49 138.808 891.301 138.808C892.122 138.808 892.848 138.989 893.477 139.352C894.106 139.704 894.597 140.195 894.949 140.824C895.301 141.453 895.477 142.179 895.477 143C895.477 143.821 895.301 144.547 894.949 145.176C894.597 145.805 894.106 146.301 893.477 146.664C892.858 147.016 892.144 147.192 891.333 147.192ZM891.333 145.24C891.728 145.24 892.074 145.144 892.373 144.952C892.672 144.76 892.901 144.499 893.061 144.168C893.232 143.827 893.317 143.437 893.317 143C893.317 142.563 893.232 142.179 893.061 141.848C892.89 141.507 892.65 141.24 892.341 141.048C892.042 140.856 891.696 140.76 891.301 140.76C890.917 140.76 890.57 140.856 890.261 141.048C889.962 141.24 889.728 141.507 889.557 141.848C889.386 142.179 889.301 142.563 889.301 143C889.301 143.437 889.386 143.827 889.557 144.168C889.728 144.499 889.968 144.76 890.277 144.952C890.586 145.144 890.938 145.24 891.333 145.24ZM896.39 147V139H898.374L898.502 140.472V147H896.39ZM901.686 147V142.904L903.798 142.424V147H901.686ZM901.686 142.904C901.686 142.36 901.622 141.939 901.494 141.64C901.376 141.341 901.206 141.128 900.982 141C900.758 140.861 900.496 140.792 900.198 140.792C899.654 140.781 899.232 140.947 898.934 141.288C898.646 141.629 898.502 142.136 898.502 142.808H897.798C897.798 141.955 897.92 141.235 898.166 140.648C898.422 140.051 898.774 139.597 899.222 139.288C899.67 138.968 900.198 138.808 900.806 138.808C901.776 138.808 902.518 139.107 903.03 139.704C903.552 140.291 903.808 141.197 903.798 142.424L901.686 142.904Z" fill="white"/>
<defs>
<filter id="filter0_d_967_2497" x="25.1" y="303.1" width="254.8" height="116.8" filterUnits="userSpaceOnUse" color-interpolation-filters="sRGB">
<feFlood flood-opacity="0" result="BackgroundImageFix"/>
<feColorMatrix in="SourceAlpha" type="matrix" values="0 0 0 0 0 0 0 0 0 0 0 0 0 0 0 0 0 0 127 0" result="hardAlpha"/>
<feOffset dy="4"/>
<feGaussianBlur stdDeviation="12.95"/>
<feComposite in2="hardAlpha" operator="out"/>
<feColorMatrix type="matrix" values="0 0 0 0 0.972549 0 0 0 0 0.47451 0 0 0 0 0.364706 0 0 0 0.3 0"/>
<feBlend mode="normal" in2="BackgroundImageFix" result="effect1_dropShadow_967_2497"/>
<feBlend mode="normal" in="SourceGraphic" in2="effect1_dropShadow_967_2497" result="shape"/>
</filter>
</defs>
</svg>
