<svg width="280" height="306" viewBox="0 0 280 306" fill="none" xmlns="http://www.w3.org/2000/svg">
<rect width="280" height="306" rx="16" fill="#131315"/>
<circle cx="27" cy="27" r="7" fill="#2C2C32"/>
<circle cx="47" cy="27" r="7" fill="#43434D"/>
<circle cx="67" cy="27" r="7" fill="#2C2C32"/>
<rect x="20" y="56" width="240" height="229" rx="10.3871" fill="#1B1B1F"/>
<path d="M36.2044 79.9436L38.4884 77.0683C38.6614 76.8506 38.9217 76.7241 39.1967 76.7241H47.8486C48.3517 76.7241 48.7595 77.1394 48.7595 77.6516V86.2643C48.7595 86.5103 48.6635 86.7462 48.4927 86.9201L45.6688 89.7954C45.0949 90.3797 44.1137 89.9659 44.1137 89.1396V82.3819C44.1137 81.8697 43.7058 81.4544 43.2027 81.4544H36.9127C36.1466 81.4544 35.7226 80.5501 36.2044 79.9436Z" fill="white"/>
<path d="M38.494 86.3812C38.3548 86.5479 38.2785 86.7585 38.2785 86.976V95.3478C38.2785 96.2166 39.3634 96.6073 39.9143 95.9369L42.7765 92.4533C42.9128 92.2874 42.9873 92.0792 42.9873 91.8642V83.5488C42.9873 82.6837 41.9101 82.2908 41.3563 82.9539L38.494 86.3812Z" fill="white"/>
<path fill-rule="evenodd" clip-rule="evenodd" d="M90.8288 91.3302C89.8007 91.3302 88.8917 91.1065 88.1016 90.6592C87.3115 90.2022 86.6928 89.5798 86.2454 88.7922C85.798 87.9948 85.5743 87.0856 85.5743 86.0646C85.5743 85.0338 85.798 84.1246 86.2454 83.3369C86.6928 82.5396 87.3068 81.9172 88.0873 81.4699C88.8774 81.0129 89.7817 80.7844 90.8002 80.7844C91.8188 80.7844 92.7183 81.0129 93.4989 81.4699C94.2889 81.9172 94.9077 82.5396 95.3551 83.3369C95.8025 84.1246 96.0261 85.0338 96.0261 86.0646C96.0261 87.0856 95.8025 87.9948 95.3551 88.7922C94.9172 89.5798 94.308 90.2022 93.5274 90.6592C92.7469 91.1065 91.8473 91.3302 90.8288 91.3302ZM90.8288 89.1714C91.3904 89.1714 91.8854 89.0402 92.3137 88.7776C92.7421 88.5151 93.0753 88.1504 93.3132 87.6836C93.5512 87.2072 93.6702 86.6675 93.6702 86.0646C93.6702 85.4519 93.5465 84.9123 93.299 84.4455C93.0515 83.969 92.7135 83.5995 92.2852 83.3369C91.8568 83.0647 91.3618 82.9285 90.8002 82.9285C90.2386 82.9285 89.7436 83.0647 89.3153 83.3369C88.8869 83.5995 88.549 83.969 88.3015 84.4455C88.054 84.9123 87.9303 85.4519 87.9303 86.0646C87.9303 86.6675 88.054 87.2072 88.3015 87.6836C88.549 88.1504 88.8917 88.5151 89.3295 88.7776C89.7674 89.0402 90.2672 89.1714 90.8288 89.1714Z" fill="white"/>
<path d="M82.7347 80.9448V91.1552H85.0335V80.9448H82.7347Z" fill="white"/>
<path d="M80.7271 91.3739C80.3654 91.3739 80.056 91.2427 79.799 90.9801C79.542 90.7176 79.4135 90.4015 79.4135 90.032C79.4135 89.6722 79.542 89.3611 79.799 89.0985C80.056 88.8359 80.3654 88.7047 80.7271 88.7047C81.0793 88.7047 81.3839 88.8359 81.6409 89.0985C81.8979 89.3611 82.0264 89.6722 82.0264 90.032C82.0264 90.4015 81.8979 90.7176 81.6409 90.9801C81.3839 91.2427 81.0793 91.3739 80.7271 91.3739Z" fill="white"/>
<path fill-rule="evenodd" clip-rule="evenodd" d="M72.152 90.6592C72.9135 91.1065 73.7892 91.3302 74.7792 91.3302C75.5122 91.3302 76.1833 91.1989 76.7925 90.9364C77.4017 90.6738 77.93 90.3092 78.3774 89.8424C78.8248 89.3659 79.1627 88.8165 79.3912 88.1942L77.2351 87.4503C77.0733 87.7906 76.8782 88.0921 76.6497 88.3546C76.4308 88.6172 76.169 88.8214 75.8644 88.9672C75.5598 89.1131 75.2123 89.186 74.8221 89.186C74.289 89.186 73.813 89.0547 73.3942 88.7922C72.9849 88.5199 72.6612 88.1504 72.4233 87.6836C72.1948 87.2072 72.0806 86.6626 72.0806 86.05C72.0806 85.4374 72.1948 84.8977 72.4233 84.4309C72.6517 83.9544 72.9706 83.5849 73.3799 83.3224C73.7892 83.0598 74.2557 82.9285 74.7792 82.9285C75.1505 82.9285 75.4884 82.9966 75.793 83.1327C76.1071 83.2689 76.3832 83.4634 76.6211 83.7162C76.8686 83.969 77.0638 84.2656 77.2066 84.6059L79.3626 83.8621C79.1246 83.2494 78.7819 82.7097 78.3346 82.243C77.8967 81.7762 77.3731 81.4164 76.7639 81.1636C76.1642 80.9011 75.5027 80.7698 74.7792 80.7698C73.7892 80.7698 72.9135 80.9983 72.152 81.4553C71.4 81.9026 70.805 82.525 70.3672 83.3224C70.2189 83.5949 70.0963 83.8821 69.9994 84.1838C69.965 83.5945 69.8055 83.0692 69.521 82.6076C69.2069 82.0825 68.7691 81.6693 68.2074 81.3678C67.6458 81.0664 67.0033 80.9205 66.2798 80.9302L64.3522 80.9448H62.3533V91.1552H64.6521V87.9316H66.3512C67.0652 87.9316 67.6982 87.7809 68.2503 87.4794C68.8024 87.178 69.2307 86.7647 69.5353 86.2396C69.6076 86.1166 69.6715 85.9901 69.7271 85.8599C69.7255 85.9228 69.7246 85.9862 69.7246 86.05C69.7246 87.0807 69.9388 87.9948 70.3672 88.7922C70.805 89.5798 71.4 90.2022 72.152 90.6592ZM64.6521 85.7728V83.089H66.2227C66.5083 83.089 66.7558 83.1473 66.9652 83.264C67.1841 83.371 67.3507 83.5266 67.465 83.7308C67.5887 83.935 67.6506 84.1684 67.6506 84.4309C67.6506 84.8296 67.5268 85.1554 67.2793 85.4082C67.0318 85.6513 66.7034 85.7728 66.2941 85.7728H64.6521Z" fill="white"/>
<path fill-rule="evenodd" clip-rule="evenodd" d="M56.7381 87.9316V91.1552H54.4393V80.9448H56.4383L58.3659 80.9302C59.0893 80.9205 59.7318 81.0664 60.2935 81.3678C60.8551 81.6693 61.293 82.0825 61.6071 82.6076C61.9307 83.1327 62.0926 83.7405 62.0926 84.4309C62.0926 85.1019 61.9355 85.7048 61.6214 86.2396C61.3168 86.7647 60.8884 87.178 60.3363 87.4794C59.7842 87.7809 59.1512 87.9316 58.4373 87.9316H56.7381ZM56.7381 83.089H58.3088C58.5943 83.089 58.8418 83.1473 59.0512 83.264C59.2702 83.371 59.4368 83.5266 59.551 83.7308C59.6747 83.935 59.7366 84.1684 59.7366 84.4309C59.7366 84.8296 59.6129 85.1554 59.3654 85.4082C59.1179 85.6513 58.7895 85.7728 58.3802 85.7728H56.7381V83.089Z" fill="white"/>
<rect x="36" y="155" width="168" height="28" rx="14" fill="#34343C"/>
<rect x="36" y="237" width="125" height="28" rx="14" fill="#8057FF"/>
<rect x="36" y="196" width="208" height="28" rx="14" fill="#34343C"/>
</svg>
