<svg width="1044" height="438" viewBox="0 0 1044 438" fill="none" xmlns="http://www.w3.org/2000/svg">
<rect width="1044" height="438" rx="24" fill="#131315"/>
<rect x="24" y="79" width="996" height="100" rx="14" fill="#1B1B1F"/>
<rect x="646" y="101" width="359" height="56" rx="28" fill="#34343C"/>
<path d="M24 215C24 207.268 30.268 201 38 201H493C500.732 201 507 207.268 507 215V438H24V215Z" fill="#1B1B1F"/>
<path d="M537 215C537 207.268 543.268 201 551 201H1006C1013.73 201 1020 207.268 1020 215V438H537V215Z" fill="#1B1B1F"/>
<rect x="620" y="225" width="99" height="21" rx="10.5" fill="#303037"/>
<rect x="620" y="252" width="61" height="21" rx="10.5" fill="#242429"/>
<rect x="561" y="225" width="48" height="48" rx="6" fill="#242429"/>
<rect x="620" y="297" width="99" height="21" rx="10.5" fill="#303037"/>
<rect x="620" y="324" width="61" height="21" rx="10.5" fill="#242429"/>
<rect x="561" y="297" width="48" height="48" rx="6" fill="#242429"/>
<rect x="620" y="369" width="99" height="21" rx="10.5" fill="#303037"/>
<rect x="620" y="396" width="61" height="21" rx="10.5" fill="#242429"/>
<rect x="561" y="369" width="48" height="48" rx="6" fill="#242429"/>
<rect x="48" y="229" width="278" height="44" rx="22" fill="#34343C"/>
<rect x="48" y="357" width="207" height="44" rx="22" fill="#8057FF"/>
<rect x="48" y="293" width="345" height="44" rx="22" fill="#34343C"/>
<path d="M977 321.5C977 340.82 970.606 359.597 958.815 374.901C947.024 390.206 930.499 401.178 911.819 406.106C893.138 411.034 873.351 409.64 855.545 402.143C837.739 394.646 822.915 381.467 813.386 364.661C803.856 347.855 800.156 328.367 802.863 309.238C805.571 290.109 814.533 272.413 828.353 258.912C842.172 245.411 860.071 236.863 879.258 234.601C898.445 232.34 917.841 236.492 934.421 246.411L916.287 276.724C906.4 270.809 894.834 268.333 883.393 269.682C871.951 271.03 861.278 276.127 853.037 284.178C844.797 292.229 839.452 302.781 837.838 314.188C836.223 325.595 838.43 337.215 844.112 347.237C849.795 357.259 858.635 365.118 869.252 369.588C879.87 374.059 891.669 374.89 902.809 371.951C913.948 369.013 923.802 362.47 930.833 353.344C937.864 344.217 941.677 333.021 941.677 321.5H977Z" fill="#34343C"/>
<path d="M50.3066 119.287L53.7327 115.027C53.9921 114.705 54.3825 114.517 54.7951 114.517H67.7728C68.5275 114.517 69.1392 115.132 69.1392 115.891V128.651C69.1392 129.015 68.9953 129.365 68.739 129.622L64.5031 133.882C63.6423 134.748 62.1705 134.135 62.1705 132.911V122.899C62.1705 122.14 61.5588 121.525 60.8041 121.525H51.369C50.2198 121.525 49.5839 120.185 50.3066 119.287Z" fill="white"/>
<path d="M53.7411 128.824C53.5322 129.071 53.4177 129.383 53.4177 129.705V142.108C53.4177 143.395 55.0451 143.974 55.8714 142.981L60.1648 137.82C60.3692 137.574 60.481 137.265 60.481 136.947V124.628C60.481 123.346 58.8651 122.764 58.0344 123.747L53.7411 128.824Z" fill="white"/>
<path fill-rule="evenodd" clip-rule="evenodd" d="M132.243 136.156C130.701 136.156 129.337 135.825 128.152 135.162C126.967 134.485 126.039 133.563 125.368 132.396C124.697 131.215 124.361 129.868 124.361 128.355C124.361 126.828 124.697 125.481 125.368 124.314C126.039 123.133 126.96 122.211 128.131 121.548C129.316 120.871 130.673 120.532 132.2 120.532C133.728 120.532 135.077 120.871 136.248 121.548C137.433 122.211 138.361 123.133 139.033 124.314C139.704 125.481 140.039 126.828 140.039 128.355C140.039 129.868 139.704 131.215 139.033 132.396C138.376 133.563 137.462 134.485 136.291 135.162C135.12 135.825 133.771 136.156 132.243 136.156ZM132.243 132.958C133.086 132.958 133.828 132.763 134.471 132.374C135.113 131.985 135.613 131.445 135.97 130.754C136.327 130.048 136.505 129.248 136.505 128.355C136.505 127.447 136.32 126.648 135.948 125.956C135.577 125.25 135.07 124.703 134.428 124.314C133.785 123.911 133.043 123.709 132.2 123.709C131.358 123.709 130.615 123.911 129.973 124.314C129.33 124.703 128.823 125.25 128.452 125.956C128.081 126.648 127.895 127.447 127.895 128.355C127.895 129.248 128.081 130.048 128.452 130.754C128.823 131.445 129.337 131.985 129.994 132.374C130.651 132.763 131.401 132.958 132.243 132.958Z" fill="white"/>
<path d="M120.102 120.77V135.897H123.55V120.77H120.102Z" fill="white"/>
<path d="M117.091 136.221C116.548 136.221 116.084 136.026 115.698 135.637C115.313 135.248 115.12 134.78 115.12 134.233C115.12 133.7 115.313 133.239 115.698 132.85C116.084 132.461 116.548 132.266 117.091 132.266C117.619 132.266 118.076 132.461 118.461 132.85C118.847 133.239 119.04 133.7 119.04 134.233C119.04 134.78 118.847 135.248 118.461 135.637C118.076 136.026 117.619 136.221 117.091 136.221Z" fill="white"/>
<path fill-rule="evenodd" clip-rule="evenodd" d="M104.228 135.162C105.37 135.825 106.684 136.156 108.169 136.156C109.268 136.156 110.275 135.961 111.189 135.572C112.103 135.183 112.895 134.643 113.566 133.952C114.237 133.246 114.744 132.432 115.087 131.51L111.853 130.408C111.61 130.912 111.317 131.359 110.975 131.748C110.646 132.137 110.253 132.439 109.797 132.655C109.34 132.871 108.818 132.979 108.233 132.979C107.433 132.979 106.72 132.785 106.091 132.396C105.477 131.992 104.992 131.445 104.635 130.754C104.292 130.048 104.121 129.241 104.121 128.333C104.121 127.426 104.292 126.626 104.635 125.935C104.978 125.229 105.456 124.681 106.07 124.292C106.684 123.903 107.383 123.709 108.169 123.709C108.726 123.709 109.233 123.81 109.689 124.011C110.161 124.213 110.575 124.501 110.932 124.876C111.303 125.25 111.596 125.69 111.81 126.194L115.044 125.092C114.687 124.184 114.173 123.385 113.502 122.693C112.845 122.002 112.06 121.469 111.146 121.094C110.246 120.705 109.254 120.511 108.169 120.511C106.684 120.511 105.37 120.849 104.228 121.526C103.1 122.189 102.208 123.111 101.551 124.292C101.328 124.696 101.145 125.122 100.999 125.569C100.947 124.696 100.708 123.917 100.282 123.234C99.8104 122.456 99.1536 121.843 98.3111 121.397C97.4687 120.95 96.5049 120.734 95.4198 120.749L92.5284 120.77H89.5299V135.897H92.9781V131.121H95.5268C96.5977 131.121 97.5472 130.898 98.3754 130.451C99.2035 130.004 99.8461 129.392 100.303 128.614C100.411 128.432 100.507 128.245 100.591 128.052C100.588 128.145 100.587 128.239 100.587 128.333C100.587 129.86 100.908 131.215 101.551 132.396C102.208 133.563 103.1 134.485 104.228 135.162ZM92.9781 127.923V123.947H95.3341C95.7624 123.947 96.1337 124.033 96.4478 124.206C96.7762 124.364 97.0261 124.595 97.1974 124.897C97.383 125.2 97.4758 125.546 97.4758 125.935C97.4758 126.525 97.2902 127.008 96.919 127.383C96.5477 127.743 96.0551 127.923 95.4412 127.923H92.9781Z" fill="white"/>
<path fill-rule="evenodd" clip-rule="evenodd" d="M81.1072 131.121V135.897H77.6589V120.77H80.6574L83.5488 120.749C84.634 120.734 85.5978 120.95 86.4402 121.397C87.2826 121.843 87.9394 122.456 88.4106 123.234C88.8961 124.011 89.1388 124.912 89.1388 125.935C89.1388 126.929 88.9032 127.822 88.4321 128.614C87.9751 129.392 87.3326 130.004 86.5045 130.451C85.6763 130.898 84.7268 131.121 83.6559 131.121H81.1072ZM81.1072 123.947H83.4631C83.8915 123.947 84.2627 124.033 84.5769 124.206C84.9053 124.364 85.1551 124.595 85.3265 124.897C85.5121 125.2 85.6049 125.546 85.6049 125.935C85.6049 126.525 85.4193 127.008 85.048 127.383C84.6768 127.743 84.1842 127.923 83.5702 127.923H81.1072V123.947Z" fill="white"/>
<circle cx="35.5" cy="43.5" r="11.5" fill="#2C2C32"/>
<circle cx="68.5" cy="43.5" r="11.5" fill="#43434D"/>
<circle cx="101.5" cy="43.5" r="11.5" fill="#2C2C32"/>
</svg>
