<svg width="1705" height="612" viewBox="0 0 1705 612" fill="none" xmlns="http://www.w3.org/2000/svg">
<g opacity="0.5">
<g opacity="0.2">
<path fill-rule="evenodd" clip-rule="evenodd" d="M1704.3 60.8679L1651.08 60.8679L1651.08 120.739L1704.3 120.739L1704.3 121.739L1651.08 121.739L1651.08 181.604L1704.3 181.604L1704.3 182.604L1651.08 182.604L1651.08 242.471L1704.3 242.471L1704.3 243.471L1651.08 243.471L1651.08 303.34L1704.3 303.34L1704.3 304.34L1651.08 304.34L1651.08 364.208L1704.3 364.208L1704.3 365.208L1651.08 365.208L1651.08 425.077L1704.3 425.077L1704.3 426.077L1651.08 426.077L1651.08 485.946L1704.3 485.946L1704.3 486.946L1651.08 486.946L1651.08 546.813L1704.3 546.813L1704.3 547.813L1651.08 547.813L1651.08 611.999L1650.08 611.999L1650.08 547.813L1595.56 547.813L1595.56 611.999L1594.56 611.999L1594.56 547.813L1541.33 547.813L1541.33 611.999L1540.33 611.999L1540.33 547.813L1485.81 547.813L1485.81 611.999L1484.81 611.999L1484.81 547.813L1431.58 547.813L1431.58 611.999L1430.58 611.999L1430.58 547.813L1376.06 547.813L1376.06 611.999L1375.06 611.999L1375.06 547.813L1321.83 547.813L1321.83 611.999L1320.83 611.999L1320.83 547.813L1267.61 547.813L1267.61 611.999L1266.61 611.999L1266.61 547.813L1212.09 547.813L1212.09 611.999L1211.09 611.999L1211.09 547.813L1157.86 547.813L1157.86 611.999L1156.86 611.999L1156.86 547.813L1102.34 547.813L1102.34 611.999L1101.34 611.999L1101.34 547.813L1048.12 547.813L1048.12 611.999L1047.12 611.999L1047.12 547.813L992.596 547.813L992.596 611.999L991.596 611.999L991.596 547.813L938.367 547.813L938.367 611.999L937.367 611.999L937.367 547.813L884.139 547.813L884.139 611.999L883.139 611.999L883.139 547.813L828.619 547.813L828.619 611.999L827.619 611.999L827.619 547.813L774.392 547.813L774.392 611.999L773.392 611.999L773.392 547.813L718.873 547.813L718.873 611.999L717.873 611.999L717.873 547.813L664.646 547.813L664.646 611.999L663.646 611.999L663.646 547.813L609.127 547.813L609.127 611.999L608.127 611.999L608.127 547.813L554.898 547.813L554.898 611.999L553.898 611.999L553.898 547.813L500.672 547.813L500.672 611.999L499.672 611.999L499.672 547.813L445.152 547.813L445.152 611.999L444.152 611.999L444.152 547.813L390.924 547.813L390.924 611.999L389.924 611.999L389.924 547.813L335.406 547.813L335.406 611.999L334.406 611.999L334.406 547.813L281.178 547.813L281.178 611.999L280.178 611.999L280.178 547.813L225.658 547.813L225.658 611.999L224.658 611.999L224.658 547.813L171.431 547.813L171.431 611.999L170.431 611.999L170.431 547.813L117.203 547.813L117.203 611.999L116.203 611.999L116.203 547.813L61.6834 547.813L61.6834 611.999L60.6834 611.999L60.6834 547.813L-0.000146016 547.813L-0.000145972 546.813L60.6834 546.813L60.6835 486.946L-0.000143355 486.946L-0.000143312 485.946L60.6835 485.946L60.6835 426.077L-0.000140695 426.077L-0.000140651 425.077L60.6835 425.077L60.6835 365.207L-0.000138034 365.207L-0.00013799 364.207L60.6835 364.207L60.6835 304.34L-0.000135373 304.34L-0.00013533 303.34L60.6835 303.34L60.6835 243.471L-0.000132713 243.471L-0.000132669 242.471L60.6835 242.471L60.6835 182.604L-0.000130052 182.604L-0.000130008 181.604L60.6835 181.604L60.6835 121.739L-0.000127392 121.739L-0.000127348 120.739L60.6835 120.739L60.6835 60.8677L-0.000124731 60.8677L-0.000124687 59.8677L60.6835 59.8677L60.6835 5.98199e-05L61.6835 5.98636e-05L61.6835 59.8677L116.203 59.8677L116.203 5.98199e-05L117.203 5.98636e-05L117.203 59.8677L170.432 59.8678L170.432 5.98199e-05L171.432 5.98636e-05L171.432 59.8678L224.658 59.8678L224.658 5.98199e-05L225.658 5.98636e-05L225.658 59.8678L280.178 59.8678L280.178 5.98199e-05L281.178 5.98636e-05L281.178 59.8678L334.406 59.8678L334.406 0.00018189L335.406 0.000181934L335.406 59.8678L389.924 59.8678L389.924 0.00018189L390.924 0.000181934L390.924 59.8678L444.152 59.8678L444.152 0.00018189L445.152 0.000181934L445.152 59.8678L499.672 59.8678L499.672 0.00018189L500.672 0.000181934L500.672 59.8678L553.898 59.8678L553.898 0.00018189L554.898 0.000181934L554.898 59.8678L608.127 59.8678L608.127 0.00018189L609.127 0.000181934L609.127 59.8678L663.646 59.8678L663.646 0.00018189L664.646 0.000181934L664.646 59.8678L717.873 59.8678L717.873 0.00018189L718.873 0.000181934L718.873 59.8678L773.392 59.8678L773.392 0.00018189L774.392 0.000181934L774.392 59.8678L827.619 59.8678L827.619 0.00018189L828.619 0.000181934L828.619 59.8678L883.139 59.8678L883.139 0.00018189L884.139 0.000181934L884.139 59.8678L937.367 59.8678L937.367 0.00018189L938.367 0.000181934L938.367 59.8678L991.596 59.8678L991.596 0.00018189L992.596 0.000181934L992.596 59.8678L1047.12 59.8678L1047.12 0.00018189L1048.12 0.000181934L1048.12 59.8678L1101.34 59.8678L1101.34 0.00018189L1102.34 0.000181934L1102.34 59.8678L1156.86 59.8678L1156.86 0.00018189L1157.86 0.000181934L1157.86 59.8678L1211.09 59.8678L1211.09 0.00018189L1212.09 0.000181934L1212.09 59.8678L1266.61 59.8678L1266.61 0.00018189L1267.61 0.000181934L1267.61 59.8678L1320.83 59.8678L1320.83 0.00018189L1321.83 0.000181934L1321.83 59.8678L1375.06 59.8679L1375.06 0.00018189L1376.06 0.000181934L1376.06 59.8679L1430.58 59.8679L1430.58 0.00018189L1431.58 0.000181934L1431.58 59.8679L1484.81 59.8679L1484.81 0.00018189L1485.81 0.000181934L1485.81 59.8679L1540.33 59.8679L1540.33 0.00018189L1541.33 0.000181934L1541.33 59.8679L1594.56 59.8679L1594.56 0.00018189L1595.56 0.000181934L1595.56 59.8679L1650.08 59.8679L1650.08 0.00018189L1651.08 0.000181934L1651.08 59.8679L1704.3 59.8679L1704.3 60.8679ZM61.6835 60.8677L61.6835 120.739L116.203 120.739L116.203 60.8677L61.6835 60.8677ZM61.6835 121.739L61.6835 181.604L116.203 181.604L116.203 121.739L61.6835 121.739ZM61.6835 182.604L61.6835 242.471L116.203 242.471L116.203 182.604L61.6835 182.604ZM61.6835 243.471L61.6835 303.34L116.203 303.34L116.203 243.471L61.6835 243.471ZM61.6835 304.34L61.6835 364.207L116.203 364.207L116.203 304.34L61.6835 304.34ZM61.6835 365.207L61.6835 425.077L116.203 425.077L116.203 365.207L61.6835 365.207ZM61.6835 426.077L61.6835 485.946L116.203 485.946L116.203 426.077L61.6835 426.077ZM61.6835 486.946L61.6834 546.813L116.203 546.813L116.203 486.946L61.6835 486.946ZM170.431 546.813L117.203 546.813L117.203 486.946L170.431 486.946L170.431 546.813ZM170.431 485.946L117.203 485.946L117.203 426.077L170.431 426.077L170.431 485.946ZM170.431 425.077L117.203 425.077L117.203 365.207L170.432 365.207L170.431 425.077ZM170.432 364.207L117.203 364.207L117.203 304.34L170.432 304.34L170.432 364.207ZM170.432 303.34L117.203 303.34L117.203 243.471L170.432 243.471L170.432 303.34ZM170.432 242.471L117.203 242.471L117.203 182.604L170.432 182.604L170.432 242.471ZM170.432 181.604L117.203 181.604L117.203 121.739L170.432 121.739L170.432 181.604ZM170.432 120.739L117.203 120.739L117.203 60.8677L170.432 60.8678L170.432 120.739ZM171.432 60.8678L171.432 120.739L224.658 120.739L224.658 60.8678L171.432 60.8678ZM171.432 121.739L171.432 181.604L224.658 181.604L224.658 121.739L171.432 121.739ZM171.432 182.604L171.432 242.471L224.658 242.471L224.658 182.604L171.432 182.604ZM171.432 243.471L171.432 303.34L224.658 303.34L224.658 243.471L171.432 243.471ZM171.432 304.34L171.432 364.207L224.658 364.207L224.658 304.34L171.432 304.34ZM171.432 365.207L171.431 425.077L224.658 425.077L224.658 365.207L171.432 365.207ZM171.431 426.077L171.431 485.946L224.658 485.946L224.658 426.077L171.431 426.077ZM171.431 486.946L171.431 546.813L224.658 546.813L224.658 486.946L171.431 486.946ZM280.178 546.813L225.658 546.813L225.658 486.946L280.178 486.946L280.178 546.813ZM280.178 485.946L225.658 485.946L225.658 426.077L280.178 426.077L280.178 485.946ZM280.178 425.077L225.658 425.077L225.658 365.207L280.178 365.207L280.178 425.077ZM280.178 364.207L225.658 364.207L225.658 304.34L280.178 304.34L280.178 364.207ZM280.178 303.34L225.658 303.34L225.658 243.471L280.178 243.471L280.178 303.34ZM280.178 242.471L225.658 242.471L225.658 182.604L280.178 182.604L280.178 242.471ZM280.178 181.604L225.658 181.604L225.658 121.739L280.178 121.739L280.178 181.604ZM280.178 120.739L225.658 120.739L225.658 60.8678L280.178 60.8678L280.178 120.739ZM281.178 60.8678L281.178 120.739L334.406 120.739L334.406 60.8678L281.178 60.8678ZM281.178 121.739L281.178 181.604L334.406 181.604L334.406 121.739L281.178 121.739ZM281.178 182.604L281.178 242.471L334.406 242.471L334.406 182.604L281.178 182.604ZM281.178 243.471L281.178 303.34L334.406 303.34L334.406 243.471L281.178 243.471ZM281.178 304.34L281.178 364.207L334.406 364.207L334.406 304.34L281.178 304.34ZM281.178 365.207L281.178 425.077L334.406 425.077L334.406 365.207L281.178 365.207ZM281.178 426.077L281.178 485.946L334.406 485.946L334.406 426.077L281.178 426.077ZM281.178 486.946L281.178 546.813L334.406 546.813L334.406 486.946L281.178 486.946ZM389.924 546.813L335.406 546.813L335.406 486.946L389.924 486.946L389.924 546.813ZM389.924 485.946L335.406 485.946L335.406 426.077L389.924 426.077L389.924 485.946ZM389.924 425.077L335.406 425.077L335.406 365.207L389.924 365.207L389.924 425.077ZM389.924 364.207L335.406 364.207L335.406 304.34L389.924 304.34L389.924 364.207ZM389.924 303.34L335.406 303.34L335.406 243.471L389.924 243.471L389.924 303.34ZM389.924 242.471L335.406 242.471L335.406 182.604L389.924 182.604L389.924 242.471ZM389.924 181.604L335.406 181.604L335.406 121.739L389.924 121.739L389.924 181.604ZM389.924 120.739L335.406 120.739L335.406 60.8678L389.924 60.8678L389.924 120.739ZM390.924 60.8678L390.924 120.739L444.152 120.739L444.152 60.8678L390.924 60.8678ZM390.924 121.739L390.924 181.604L444.152 181.604L444.152 121.739L390.924 121.739ZM390.924 182.604L390.924 242.471L444.152 242.471L444.152 182.604L390.924 182.604ZM390.924 243.471L390.924 303.34L444.152 303.34L444.152 243.471L390.924 243.471ZM390.924 304.34L390.924 364.207L444.152 364.207L444.152 304.34L390.924 304.34ZM390.924 365.207L390.924 425.077L444.152 425.077L444.152 365.207L390.924 365.207ZM390.924 426.077L390.924 485.946L444.152 485.946L444.152 426.077L390.924 426.077ZM390.924 486.946L390.924 546.813L444.152 546.813L444.152 486.946L390.924 486.946ZM499.672 546.813L445.152 546.813L445.152 486.946L499.672 486.946L499.672 546.813ZM499.672 485.946L445.152 485.946L445.152 426.077L499.672 426.077L499.672 485.946ZM499.672 425.077L445.152 425.077L445.152 365.207L499.672 365.207L499.672 425.077ZM499.672 364.207L445.152 364.207L445.152 304.34L499.672 304.34L499.672 364.207ZM499.672 303.34L445.152 303.34L445.152 243.471L499.672 243.471L499.672 303.34ZM499.672 242.471L445.152 242.471L445.152 182.604L499.672 182.604L499.672 242.471ZM499.672 181.604L445.152 181.604L445.152 121.739L499.672 121.739L499.672 181.604ZM499.672 120.739L445.152 120.739L445.152 60.8678L499.672 60.8678L499.672 120.739ZM500.672 60.8678L500.672 120.739L553.898 120.739L553.898 60.8678L500.672 60.8678ZM500.672 121.739L500.672 181.604L553.898 181.604L553.898 121.739L500.672 121.739ZM500.672 182.604L500.672 242.471L553.898 242.471L553.898 182.604L500.672 182.604ZM500.672 243.471L500.672 303.34L553.898 303.34L553.898 243.471L500.672 243.471ZM500.672 304.34L500.672 364.207L553.898 364.207L553.898 304.34L500.672 304.34ZM500.672 365.207L500.672 425.077L553.898 425.077L553.898 365.207L500.672 365.207ZM500.672 426.077L500.672 485.946L553.898 485.946L553.898 426.077L500.672 426.077ZM500.672 486.946L500.672 546.813L553.898 546.813L553.898 486.946L500.672 486.946ZM608.127 546.813L554.898 546.813L554.898 486.946L608.127 486.946L608.127 546.813ZM608.127 485.946L554.898 485.946L554.898 426.077L608.127 426.077L608.127 485.946ZM608.127 425.077L554.898 425.077L554.898 365.207L608.127 365.207L608.127 425.077ZM608.127 364.207L554.898 364.207L554.898 304.34L608.127 304.34L608.127 364.207ZM608.127 303.34L554.898 303.34L554.898 243.471L608.127 243.471L608.127 303.34ZM608.127 242.471L554.898 242.471L554.898 182.604L608.127 182.604L608.127 242.471ZM608.127 181.604L554.898 181.604L554.898 121.739L608.127 121.739L608.127 181.604ZM608.127 120.739L554.898 120.739L554.898 60.8678L608.127 60.8678L608.127 120.739ZM609.127 60.8678L609.127 120.739L663.646 120.739L663.646 60.8678L609.127 60.8678ZM609.127 121.739L609.127 181.604L663.646 181.604L663.646 121.739L609.127 121.739ZM609.127 182.604L609.127 242.471L663.646 242.471L663.646 182.604L609.127 182.604ZM609.127 243.471L609.127 303.34L663.646 303.34L663.646 243.471L609.127 243.471ZM609.127 304.34L609.127 364.207L663.646 364.207L663.646 304.34L609.127 304.34ZM609.127 365.207L609.127 425.077L663.646 425.077L663.646 365.207L609.127 365.207ZM609.127 426.077L609.127 485.946L663.646 485.946L663.646 426.077L609.127 426.077ZM609.127 486.946L609.127 546.813L663.646 546.813L663.646 486.946L609.127 486.946ZM717.873 546.813L664.646 546.813L664.646 486.946L717.873 486.946L717.873 546.813ZM717.873 485.946L664.646 485.946L664.646 426.077L717.873 426.077L717.873 485.946ZM717.873 425.077L664.646 425.077L664.646 365.207L717.873 365.207L717.873 425.077ZM717.873 364.207L664.646 364.207L664.646 304.34L717.873 304.34L717.873 364.207ZM717.873 303.34L664.646 303.34L664.646 243.471L717.873 243.471L717.873 303.34ZM717.873 242.471L664.646 242.471L664.646 182.604L717.873 182.604L717.873 242.471ZM717.873 181.604L664.646 181.604L664.646 121.739L717.873 121.739L717.873 181.604ZM717.873 120.739L664.646 120.739L664.646 60.8678L717.873 60.8678L717.873 120.739ZM718.873 60.8678L718.873 120.739L773.392 120.739L773.392 60.8678L718.873 60.8678ZM718.873 121.739L718.873 181.604L773.392 181.604L773.392 121.739L718.873 121.739ZM718.873 182.604L718.873 242.471L773.392 242.471L773.392 182.604L718.873 182.604ZM718.873 243.471L718.873 303.34L773.392 303.34L773.392 243.471L718.873 243.471ZM718.873 304.34L718.873 364.207L773.392 364.207L773.392 304.34L718.873 304.34ZM718.873 365.207L718.873 425.077L773.392 425.077L773.392 365.207L718.873 365.207ZM718.873 426.077L718.873 485.946L773.392 485.946L773.392 426.077L718.873 426.077ZM718.873 486.946L718.873 546.813L773.392 546.813L773.392 486.946L718.873 486.946ZM827.619 546.813L774.392 546.813L774.392 486.946L827.619 486.946L827.619 546.813ZM827.619 485.946L774.392 485.946L774.392 426.077L827.619 426.077L827.619 485.946ZM827.619 425.077L774.392 425.077L774.392 365.207L827.619 365.207L827.619 425.077ZM827.619 364.207L774.392 364.207L774.392 304.34L827.619 304.34L827.619 364.207ZM827.619 303.34L774.392 303.34L774.392 243.471L827.619 243.471L827.619 303.34ZM827.619 242.471L774.392 242.471L774.392 182.604L827.619 182.604L827.619 242.471ZM827.619 181.604L774.392 181.604L774.392 121.739L827.619 121.739L827.619 181.604ZM827.619 120.739L774.392 120.739L774.392 60.8678L827.619 60.8678L827.619 120.739ZM828.619 60.8678L828.619 120.739L883.139 120.739L883.139 60.8678L828.619 60.8678ZM828.619 121.739L828.619 181.604L883.139 181.604L883.139 121.739L828.619 121.739ZM828.619 182.604L828.619 242.471L883.139 242.471L883.139 182.604L828.619 182.604ZM828.619 243.471L828.619 303.34L883.139 303.34L883.139 243.471L828.619 243.471ZM828.619 304.34L828.619 364.207L883.139 364.207L883.139 304.34L828.619 304.34ZM828.619 365.207L828.619 425.077L883.139 425.077L883.139 365.207L828.619 365.207ZM828.619 426.077L828.619 485.946L883.139 485.946L883.139 426.077L828.619 426.077ZM828.619 486.946L828.619 546.813L883.139 546.813L883.139 486.946L828.619 486.946ZM937.367 546.813L884.139 546.813L884.139 486.946L937.367 486.946L937.367 546.813ZM937.367 485.946L884.139 485.946L884.139 426.077L937.367 426.077L937.367 485.946ZM937.367 425.077L884.139 425.077L884.139 365.207L937.367 365.207L937.367 425.077ZM937.367 364.207L884.139 364.207L884.139 304.34L937.367 304.34L937.367 364.207ZM937.367 303.34L884.139 303.34L884.139 243.471L937.367 243.471L937.367 303.34ZM937.367 242.471L884.139 242.471L884.139 182.604L937.367 182.604L937.367 242.471ZM937.367 181.604L884.139 181.604L884.139 121.739L937.367 121.739L937.367 181.604ZM937.367 120.739L884.139 120.739L884.139 60.8678L937.367 60.8678L937.367 120.739ZM938.367 60.8678L938.367 120.739L991.596 120.739L991.596 60.8678L938.367 60.8678ZM938.367 121.739L938.367 181.604L991.596 181.604L991.596 121.739L938.367 121.739ZM938.367 182.604L938.367 242.471L991.596 242.471L991.596 182.604L938.367 182.604ZM938.367 243.471L938.367 303.34L991.596 303.34L991.596 243.471L938.367 243.471ZM938.367 304.34L938.367 364.207L991.596 364.207L991.596 304.34L938.367 304.34ZM938.367 365.207L938.367 425.077L991.596 425.077L991.596 365.207L938.367 365.207ZM938.367 426.077L938.367 485.946L991.596 485.946L991.596 426.077L938.367 426.077ZM938.367 486.946L938.367 546.813L991.596 546.813L991.596 486.946L938.367 486.946ZM1047.12 546.813L992.596 546.813L992.596 486.946L1047.12 486.946L1047.12 546.813ZM1047.12 485.946L992.596 485.946L992.596 426.077L1047.12 426.077L1047.12 485.946ZM1047.12 425.077L992.596 425.077L992.596 365.207L1047.12 365.207L1047.12 425.077ZM1047.12 364.207L992.596 364.207L992.596 304.34L1047.12 304.34L1047.12 364.207ZM1047.12 303.34L992.596 303.34L992.596 243.471L1047.12 243.471L1047.12 303.34ZM1047.12 242.471L992.596 242.471L992.596 182.604L1047.12 182.604L1047.12 242.471ZM1047.12 181.604L992.596 181.604L992.596 121.739L1047.12 121.739L1047.12 181.604ZM1047.12 120.739L992.596 120.739L992.596 60.8678L1047.12 60.8678L1047.12 120.739ZM1048.12 60.8678L1048.12 120.739L1101.34 120.739L1101.34 60.8678L1048.12 60.8678ZM1048.12 121.739L1048.12 181.604L1101.34 181.604L1101.34 121.739L1048.12 121.739ZM1048.12 182.604L1048.12 242.471L1101.34 242.471L1101.34 182.604L1048.12 182.604ZM1048.12 243.471L1048.12 303.34L1101.34 303.34L1101.34 243.471L1048.12 243.471ZM1048.12 304.34L1048.12 364.207L1101.34 364.207L1101.34 304.34L1048.12 304.34ZM1048.12 365.207L1048.12 425.077L1101.34 425.077L1101.34 365.207L1048.12 365.207ZM1048.12 426.077L1048.12 485.946L1101.34 485.946L1101.34 426.077L1048.12 426.077ZM1048.12 486.946L1048.12 546.813L1101.34 546.813L1101.34 486.946L1048.12 486.946ZM1156.86 546.813L1102.34 546.813L1102.34 486.946L1156.86 486.946L1156.86 546.813ZM1156.86 485.946L1102.34 485.946L1102.34 426.077L1156.86 426.077L1156.86 485.946ZM1156.86 425.077L1102.34 425.077L1102.34 365.207L1156.86 365.207L1156.86 425.077ZM1156.86 364.207L1102.34 364.207L1102.34 304.34L1156.86 304.34L1156.86 364.207ZM1156.86 303.34L1102.34 303.34L1102.34 243.471L1156.86 243.471L1156.86 303.34ZM1156.86 242.471L1102.34 242.471L1102.34 182.604L1156.86 182.604L1156.86 242.471ZM1156.86 181.604L1102.34 181.604L1102.34 121.739L1156.86 121.739L1156.86 181.604ZM1156.86 120.739L1102.34 120.739L1102.34 60.8678L1156.86 60.8678L1156.86 120.739ZM1157.86 60.8678L1157.86 120.739L1211.09 120.739L1211.09 60.8678L1157.86 60.8678ZM1157.86 121.739L1157.86 181.604L1211.09 181.604L1211.09 121.739L1157.86 121.739ZM1157.86 182.604L1157.86 242.471L1211.09 242.471L1211.09 182.604L1157.86 182.604ZM1157.86 243.471L1157.86 303.34L1211.09 303.34L1211.09 243.471L1157.86 243.471ZM1157.86 304.34L1157.86 364.207L1211.09 364.207L1211.09 304.34L1157.86 304.34ZM1157.86 365.207L1157.86 425.077L1211.09 425.077L1211.09 365.207L1157.86 365.207ZM1157.86 426.077L1157.86 485.946L1211.09 485.946L1211.09 426.077L1157.86 426.077ZM1157.86 486.946L1157.86 546.813L1211.09 546.813L1211.09 486.946L1157.86 486.946ZM1266.61 546.813L1212.09 546.813L1212.09 486.946L1266.61 486.946L1266.61 546.813ZM1266.61 485.946L1212.09 485.946L1212.09 426.077L1266.61 426.077L1266.61 485.946ZM1266.61 425.077L1212.09 425.077L1212.09 365.207L1266.61 365.208L1266.61 425.077ZM1266.61 364.208L1212.09 364.207L1212.09 304.34L1266.61 304.34L1266.61 364.208ZM1266.61 303.34L1212.09 303.34L1212.09 243.471L1266.61 243.471L1266.61 303.34ZM1266.61 242.471L1212.09 242.471L1212.09 182.604L1266.61 182.604L1266.61 242.471ZM1266.61 181.604L1212.09 181.604L1212.09 121.739L1266.61 121.739L1266.61 181.604ZM1266.61 120.739L1212.09 120.739L1212.09 60.8678L1266.61 60.8678L1266.61 120.739ZM1267.61 60.8678L1267.61 120.739L1320.83 120.739L1320.83 60.8678L1267.61 60.8678ZM1267.61 121.739L1267.61 181.604L1320.83 181.604L1320.83 121.739L1267.61 121.739ZM1267.61 182.604L1267.61 242.471L1320.83 242.471L1320.83 182.604L1267.61 182.604ZM1267.61 243.471L1267.61 303.34L1320.83 303.34L1320.83 243.471L1267.61 243.471ZM1267.61 304.34L1267.61 364.208L1320.83 364.208L1320.83 304.34L1267.61 304.34ZM1267.61 365.208L1267.61 425.077L1320.83 425.077L1320.83 365.208L1267.61 365.208ZM1267.61 426.077L1267.61 485.946L1320.83 485.946L1320.83 426.077L1267.61 426.077ZM1267.61 486.946L1267.61 546.813L1320.83 546.813L1320.83 486.946L1267.61 486.946ZM1375.06 546.813L1321.83 546.813L1321.83 486.946L1375.06 486.946L1375.06 546.813ZM1375.06 485.946L1321.83 485.946L1321.83 426.077L1375.06 426.077L1375.06 485.946ZM1375.06 425.077L1321.83 425.077L1321.83 365.208L1375.06 365.208L1375.06 425.077ZM1375.06 364.208L1321.83 364.208L1321.83 304.34L1375.06 304.34L1375.06 364.208ZM1375.06 303.34L1321.83 303.34L1321.83 243.471L1375.06 243.471L1375.06 303.34ZM1375.06 242.471L1321.83 242.471L1321.83 182.604L1375.06 182.604L1375.06 242.471ZM1375.06 181.604L1321.83 181.604L1321.83 121.739L1375.06 121.739L1375.06 181.604ZM1375.06 120.739L1321.83 120.739L1321.83 60.8678L1375.06 60.8679L1375.06 120.739ZM1376.06 60.8679L1376.06 120.739L1430.58 120.739L1430.58 60.8679L1376.06 60.8679ZM1376.06 121.739L1376.06 181.604L1430.58 181.604L1430.58 121.739L1376.06 121.739ZM1376.06 182.604L1376.06 242.471L1430.58 242.471L1430.58 182.604L1376.06 182.604ZM1376.06 243.471L1376.06 303.34L1430.58 303.34L1430.58 243.471L1376.06 243.471ZM1376.06 304.34L1376.06 364.208L1430.58 364.208L1430.58 304.34L1376.06 304.34ZM1376.06 365.208L1376.06 425.077L1430.58 425.077L1430.58 365.208L1376.06 365.208ZM1376.06 426.077L1376.06 485.946L1430.58 485.946L1430.58 426.077L1376.06 426.077ZM1376.06 486.946L1376.06 546.813L1430.58 546.813L1430.58 486.946L1376.06 486.946ZM1484.81 546.813L1431.58 546.813L1431.58 486.946L1484.81 486.946L1484.81 546.813ZM1484.81 485.946L1431.58 485.946L1431.58 426.077L1484.81 426.077L1484.81 485.946ZM1484.81 425.077L1431.58 425.077L1431.58 365.208L1484.81 365.208L1484.81 425.077ZM1484.81 364.208L1431.58 364.208L1431.58 304.34L1484.81 304.34L1484.81 364.208ZM1484.81 303.34L1431.58 303.34L1431.58 243.471L1484.81 243.471L1484.81 303.34ZM1484.81 242.471L1431.58 242.471L1431.58 182.604L1484.81 182.604L1484.81 242.471ZM1484.81 181.604L1431.58 181.604L1431.58 121.739L1484.81 121.739L1484.81 181.604ZM1484.81 120.739L1431.58 120.739L1431.58 60.8679L1484.81 60.8679L1484.81 120.739ZM1485.81 60.8679L1485.81 120.739L1540.33 120.739L1540.33 60.8679L1485.81 60.8679ZM1485.81 121.739L1485.81 181.604L1540.33 181.604L1540.33 121.739L1485.81 121.739ZM1485.81 182.604L1485.81 242.471L1540.33 242.471L1540.33 182.604L1485.81 182.604ZM1485.81 243.471L1485.81 303.34L1540.33 303.34L1540.33 243.471L1485.81 243.471ZM1485.81 304.34L1485.81 364.208L1540.33 364.208L1540.33 304.34L1485.81 304.34ZM1485.81 365.208L1485.81 425.077L1540.33 425.077L1540.33 365.208L1485.81 365.208ZM1485.81 426.077L1485.81 485.946L1540.33 485.946L1540.33 426.077L1485.81 426.077ZM1485.81 486.946L1485.81 546.813L1540.33 546.813L1540.33 486.946L1485.81 486.946ZM1594.56 546.813L1541.33 546.813L1541.33 486.946L1594.56 486.946L1594.56 546.813ZM1594.56 485.946L1541.33 485.946L1541.33 426.077L1594.56 426.077L1594.56 485.946ZM1594.56 425.077L1541.33 425.077L1541.33 365.208L1594.56 365.208L1594.56 425.077ZM1594.56 364.208L1541.33 364.208L1541.33 304.34L1594.56 304.34L1594.56 364.208ZM1594.56 303.34L1541.33 303.34L1541.33 243.471L1594.56 243.471L1594.56 303.34ZM1594.56 242.471L1541.33 242.471L1541.33 182.604L1594.56 182.604L1594.56 242.471ZM1594.56 181.604L1541.33 181.604L1541.33 121.739L1594.56 121.739L1594.56 181.604ZM1594.56 120.739L1541.33 120.739L1541.33 60.8679L1594.56 60.8679L1594.56 120.739ZM1595.56 60.8679L1595.56 120.739L1650.08 120.739L1650.08 60.8679L1595.56 60.8679ZM1595.56 121.739L1595.56 181.604L1650.08 181.604L1650.08 121.739L1595.56 121.739ZM1595.56 182.604L1595.56 242.471L1650.08 242.471L1650.08 182.604L1595.56 182.604ZM1595.56 243.471L1595.56 303.34L1650.08 303.34L1650.08 243.471L1595.56 243.471ZM1595.56 304.34L1595.56 364.208L1650.08 364.208L1650.08 304.34L1595.56 304.34ZM1595.56 365.208L1595.56 425.077L1650.08 425.077L1650.08 365.208L1595.56 365.208ZM1595.56 426.077L1595.56 485.946L1650.08 485.946L1650.08 426.077L1595.56 426.077ZM1595.56 486.946L1595.56 546.813L1650.08 546.813L1650.08 486.946L1595.56 486.946Z" fill="url(#paint0_linear_856_5535)"/>
</g>
</g>
<defs>
<linearGradient id="paint0_linear_856_5535" x1="778.302" y1="-5.49992" x2="778.302" y2="631" gradientUnits="userSpaceOnUse">
<stop stop-color="white" stop-opacity="0"/>
<stop offset="0.488761" stop-color="white" stop-opacity="0.88"/>
<stop offset="1" stop-color="white" stop-opacity="0"/>
</linearGradient>
</defs>
</svg>
