<svg width="396" height="174" viewBox="0 0 396 174" fill="none" xmlns="http://www.w3.org/2000/svg">
<path d="M1.34559 44.748L16.3823 26.2184C17.5209 24.8153 19.2345 24 21.0451 24H78.003C81.315 24 84 26.6761 84 29.9773V85.4811C84 87.0664 83.3682 88.5867 82.2435 89.7077L63.6527 108.237C59.8748 112.003 53.4151 109.336 53.4151 104.011V60.4615C53.4151 57.1603 50.7301 54.4842 47.4181 54.4842H6.00835C0.964841 54.4842 -1.82612 48.6564 1.34559 44.748Z" fill="white"/>
<path d="M16.4191 86.2346C15.5024 87.3091 15 88.6661 15 90.0679V144.019C15 149.618 22.1426 152.136 25.7689 147.816L44.6121 125.366C45.5093 124.297 46 122.955 46 121.569V67.9809C46 62.4059 38.9081 59.8742 35.2622 64.1477L16.4191 86.2346Z" fill="white"/>
<path fill-rule="evenodd" clip-rule="evenodd" d="M360.956 118.128C354.188 118.128 348.203 116.687 343.002 113.804C337.801 110.859 333.727 106.848 330.782 101.772C327.837 96.6333 326.364 90.774 326.364 84.194C326.364 77.5513 327.837 71.692 330.782 66.616C333.727 61.4773 337.769 57.4666 342.908 54.584C348.109 51.6386 354.063 50.166 360.768 50.166C367.473 50.166 373.395 51.6386 378.534 54.584C383.735 57.4666 387.809 61.4773 390.754 66.616C393.699 71.692 395.172 77.5513 395.172 84.194C395.172 90.774 393.699 96.6333 390.754 101.772C387.871 106.848 383.861 110.859 378.722 113.804C373.583 116.687 367.661 118.128 360.956 118.128ZM360.956 104.216C364.653 104.216 367.912 103.37 370.732 101.678C373.552 99.986 375.745 97.636 377.312 94.628C378.879 91.5573 379.662 88.0793 379.662 84.194C379.662 80.246 378.847 76.768 377.218 73.76C375.589 70.6893 373.364 68.308 370.544 66.616C367.724 64.8613 364.465 63.984 360.768 63.984C357.071 63.984 353.812 64.8613 350.992 66.616C348.172 68.308 345.947 70.6893 344.318 73.76C342.689 76.768 341.874 80.246 341.874 84.194C341.874 88.0793 342.689 91.5573 344.318 94.628C345.947 97.636 348.203 99.986 351.086 101.678C353.969 103.37 357.259 104.216 360.956 104.216Z" fill="white"/>
<path d="M307.67 51.2V117H322.804V51.2H307.67Z" fill="white"/>
<path d="M294.453 118.41C292.072 118.41 290.035 117.564 288.343 115.872C286.651 114.18 285.805 112.143 285.805 109.762C285.805 107.443 286.651 105.438 288.343 103.746C290.035 102.054 292.072 101.208 294.453 101.208C296.772 101.208 298.777 102.054 300.469 103.746C302.161 105.438 303.007 107.443 303.007 109.762C303.007 112.143 302.161 114.18 300.469 115.872C298.777 117.564 296.772 118.41 294.453 118.41Z" fill="white"/>
<path fill-rule="evenodd" clip-rule="evenodd" d="M238 113.804C243.014 116.687 248.779 118.128 255.296 118.128C260.122 118.128 264.54 117.282 268.55 115.59C272.561 113.898 276.039 111.548 278.984 108.54C281.93 105.469 284.154 101.929 285.658 97.918L271.464 93.124C270.399 95.3173 269.114 97.26 267.61 98.952C266.169 100.644 264.446 101.96 262.44 102.9C260.435 103.84 258.148 104.31 255.578 104.31C252.069 104.31 248.936 103.464 246.178 101.772C243.484 100.017 241.353 97.636 239.786 94.628C238.282 91.5573 237.53 88.048 237.53 84.1C237.53 80.152 238.282 76.674 239.786 73.666C241.29 70.5953 243.39 68.214 246.084 66.522C248.779 64.83 251.85 63.984 255.296 63.984C257.74 63.984 259.965 64.4227 261.97 65.3C264.038 66.1773 265.856 67.4307 267.422 69.06C269.052 70.6893 270.336 72.6007 271.276 74.794L285.47 70C283.904 66.052 281.648 62.574 278.702 59.566C275.82 56.558 272.373 54.2393 268.362 52.61C264.414 50.918 260.059 50.072 255.296 50.072C248.779 50.072 243.014 51.5447 238 54.49C233.05 57.3727 229.133 61.3833 226.25 66.522C225.275 68.2786 224.468 70.129 223.829 72.0732C223.603 68.276 222.553 64.8903 220.68 61.916C218.612 58.532 215.73 55.8687 212.032 53.926C208.335 51.9833 204.105 51.0433 199.342 51.106L186.652 51.2H173.492V117H188.626V96.226H199.812C204.512 96.226 208.68 95.2547 212.314 93.312C215.949 91.3693 218.769 88.706 220.774 85.322C221.25 84.5295 221.671 83.7139 222.037 82.875C222.026 83.2803 222.02 83.6887 222.02 84.1C222.02 90.7427 223.43 96.6333 226.25 101.772C229.133 106.848 233.05 110.859 238 113.804ZM188.626 82.314V65.018H198.966C200.846 65.018 202.476 65.394 203.854 66.146C205.296 66.8353 206.392 67.838 207.144 69.154C207.959 70.47 208.366 71.974 208.366 73.666C208.366 76.2353 207.552 78.3347 205.922 79.964C204.293 81.5307 202.131 82.314 199.436 82.314H188.626Z" fill="white"/>
<path fill-rule="evenodd" clip-rule="evenodd" d="M136.526 96.226V117H121.392V51.2H134.552L147.242 51.106C152.005 51.0433 156.235 51.9833 159.932 53.926C163.629 55.8687 166.512 58.532 168.58 61.916C170.711 65.3 171.776 69.2167 171.776 73.666C171.776 77.99 170.742 81.8753 168.674 85.322C166.669 88.706 163.849 91.3693 160.214 93.312C156.579 95.2547 152.412 96.226 147.712 96.226H136.526ZM136.526 65.018H146.866C148.746 65.018 150.375 65.394 151.754 66.146C153.195 66.8353 154.292 67.838 155.044 69.154C155.859 70.47 156.266 71.974 156.266 73.666C156.266 76.2353 155.451 78.3347 153.822 79.964C152.193 81.5307 150.031 82.314 147.336 82.314H136.526V65.018Z" fill="white"/>
</svg>
