<svg width="76" height="76" viewBox="0 0 76 76" fill="none" xmlns="http://www.w3.org/2000/svg">
<path d="M44.3333 31.9992C44.3333 31.5396 44.2428 31.0846 44.067 30.6601C43.8911 30.2356 43.6334 29.8498 43.3085 29.5249C42.9835 29.2 42.5978 28.9422 42.1732 28.7664C41.7487 28.5905 41.2937 28.5 40.8342 28.5H35.1658C34.7063 28.5 34.2513 28.5905 33.8268 28.7664C33.4022 28.9422 33.0165 29.2 32.6915 29.5249C32.3666 29.8498 32.1089 30.2356 31.933 30.6601C31.7572 31.0846 31.6667 31.5396 31.6667 31.9992V63.0008C31.6667 63.9289 32.0353 64.8189 32.6915 65.4751C33.3478 66.1313 34.2378 66.5 35.1658 66.5H40.8342C41.7622 66.5 42.6522 66.1313 43.3085 65.4751C43.9647 64.8189 44.3333 63.9289 44.3333 63.0008V31.9992Z" stroke="#8057FF" stroke-width="3" stroke-linecap="round" stroke-linejoin="round"/>
<path d="M22.1667 12.9992C22.1667 12.0711 21.798 11.1811 21.1418 10.5249C20.4856 9.86866 19.5955 9.5 18.6675 9.5H12.9992C12.0711 9.5 11.1811 9.86866 10.5249 10.5249C9.86866 11.1811 9.5 12.0711 9.5 12.9992V63.0008C9.5 63.9289 9.86866 64.8189 10.5249 65.4751C11.1811 66.1313 12.0711 66.5 12.9992 66.5H18.6675C19.5955 66.5 20.4856 66.1313 21.1418 65.4751C21.798 64.8189 22.1667 63.9289 22.1667 63.0008V12.9992Z" stroke="#8057FF" stroke-width="3" stroke-linecap="round" stroke-linejoin="round"/>
<path d="M66.5 60.1667C66.5 61.8464 65.8327 63.4573 64.645 64.645C63.4573 65.8327 61.8464 66.5 60.1667 66.5C58.487 66.5 56.8761 65.8327 55.6883 64.645C54.5006 63.4573 53.8333 61.8464 53.8333 60.1667C53.8333 58.487 54.5006 56.8761 55.6883 55.6883C56.8761 54.5006 58.487 53.8333 60.1667 53.8333C61.8464 53.8333 63.4573 54.5006 64.645 55.6883C65.8327 56.8761 66.5 58.487 66.5 60.1667Z" stroke="#8057FF" stroke-width="3" stroke-linecap="round" stroke-linejoin="round"/>
</svg>
