<svg width="36" height="36" viewBox="0 0 36 36" fill="none" xmlns="http://www.w3.org/2000/svg">
<path d="M22.5 13.5C23.6935 13.5 24.8381 13.9741 25.682 14.818C26.5259 15.6619 27 16.8065 27 18C27 19.1935 26.5259 20.3381 25.682 21.182C24.8381 22.0259 23.6935 22.5 22.5 22.5C21.3065 22.5 20.1619 22.0259 19.318 21.182C18.4741 20.3381 18 19.1935 18 18C18 16.8065 18.4741 15.6619 19.318 14.818C20.1619 13.9741 21.3065 13.5 22.5 13.5ZM22.5 13.5C23.6935 13.5 24.8381 13.0259 25.682 12.182C26.5259 11.3381 27 10.1935 27 9C27 7.80653 26.5259 6.66193 25.682 5.81802C24.8381 4.97411 23.6935 4.5 22.5 4.5H13.5C12.3065 4.5 11.1619 4.97411 10.318 5.81802C9.47411 6.66193 9 7.80653 9 9C9 10.1935 9.47411 11.3381 10.318 12.182C11.1619 13.0259 12.3065 13.5 13.5 13.5M22.5 13.5H13.5M13.5 13.5C12.3065 13.5 11.1619 13.9741 10.318 14.818C9.47411 15.6619 9 16.8065 9 18C9 19.1935 9.47411 20.3381 10.318 21.182C11.1619 22.0259 12.3065 22.5 13.5 22.5M13.5 22.5H18M13.5 22.5C12.61 22.5 11.74 22.7639 10.9999 23.2584C10.2599 23.7529 9.68314 24.4557 9.34254 25.2779C9.00195 26.1002 8.91283 27.005 9.08647 27.8779C9.2601 28.7508 9.68869 29.5526 10.318 30.182C10.9474 30.8113 11.7492 31.2399 12.6221 31.4135C13.495 31.5872 14.3998 31.4981 15.2221 31.1575C16.0443 30.8169 16.7471 30.2401 17.2416 29.5001C17.7361 28.76 18 27.89 18 27V4.5" stroke="#8057FF" stroke-width="2" stroke-linecap="round" stroke-linejoin="round"/>
</svg>
