<svg width="36" height="36" viewBox="0 0 36 36" fill="none" xmlns="http://www.w3.org/2000/svg">
<path d="M21 15.1575C21 14.9398 20.9571 14.7243 20.8738 14.5232C20.7905 14.3221 20.6684 14.1394 20.5145 13.9855C20.3606 13.8316 20.1779 13.7095 19.9768 13.6262C19.7757 13.5429 19.5602 13.5 19.3425 13.5H16.6575C16.4398 13.5 16.2243 13.5429 16.0232 13.6262C15.8221 13.7095 15.6394 13.8316 15.4855 13.9855C15.3316 14.1394 15.2095 14.3221 15.1262 14.5232C15.0429 14.7243 15 14.9398 15 15.1575V29.8425C15 30.2821 15.1746 30.7037 15.4855 31.0145C15.7963 31.3254 16.2179 31.5 16.6575 31.5H19.3425C19.7821 31.5 20.2037 31.3254 20.5145 31.0145C20.8254 30.7037 21 30.2821 21 29.8425V15.1575Z" stroke="#8057FF" stroke-width="2" stroke-linecap="round" stroke-linejoin="round"/>
<path d="M10.5 6.1575C10.5 5.7179 10.3254 5.29631 10.0145 4.98547C9.70369 4.67463 9.2821 4.5 8.8425 4.5H6.1575C5.7179 4.5 5.29631 4.67463 4.98547 4.98547C4.67463 5.29631 4.5 5.7179 4.5 6.1575V29.8425C4.5 30.2821 4.67463 30.7037 4.98547 31.0145C5.29631 31.3254 5.7179 31.5 6.1575 31.5H8.8425C9.2821 31.5 9.70369 31.3254 10.0145 31.0145C10.3254 30.7037 10.5 30.2821 10.5 29.8425V6.1575Z" stroke="#8057FF" stroke-width="2" stroke-linecap="round" stroke-linejoin="round"/>
<path d="M31.5 28.5C31.5 29.2956 31.1839 30.0587 30.6213 30.6213C30.0587 31.1839 29.2956 31.5 28.5 31.5C27.7044 31.5 26.9413 31.1839 26.3787 30.6213C25.8161 30.0587 25.5 29.2956 25.5 28.5C25.5 27.7044 25.8161 26.9413 26.3787 26.3787C26.9413 25.8161 27.7044 25.5 28.5 25.5C29.2956 25.5 30.0587 25.8161 30.6213 26.3787C31.1839 26.9413 31.5 27.7044 31.5 28.5Z" stroke="#8057FF" stroke-width="2" stroke-linecap="round" stroke-linejoin="round"/>
</svg>
