<svg width="36" height="36" viewBox="0 0 36 36" fill="none" xmlns="http://www.w3.org/2000/svg">
<path d="M19.3395 6.77124L31.305 27.7712C31.403 27.9439 31.4655 28.1345 31.4888 28.3316C31.512 28.5288 31.4957 28.7287 31.4406 28.9194C31.3856 29.1102 31.2929 29.288 31.1681 29.4425C31.0433 29.5969 30.8889 29.7248 30.714 29.8187C30.484 29.9442 30.226 30.0097 29.964 30.0092H24.75L18 18.0092L14.25 24.0092H16.5L19.5 30.0092H6.0345C5.187 30.0092 4.5 29.3342 4.5 28.5092C4.5 28.2527 4.5675 27.9992 4.695 27.7742L16.6605 6.78474C16.7971 6.55069 16.9927 6.35652 17.2277 6.22158C17.4627 6.08663 17.729 6.01562 18 6.01562C18.271 6.01562 18.5373 6.08663 18.7723 6.22158C19.0073 6.35652 19.2029 6.55069 19.3395 6.78474V6.77124Z" stroke="#8057FF" stroke-width="2" stroke-linecap="round" stroke-linejoin="round"/>
</svg>
