<svg width="24" height="24" viewBox="0 0 24 24" fill="none" xmlns="http://www.w3.org/2000/svg">
<g id="diamond-01">
<path id="Accent" opacity="0.4" d="M10 3L8 9L12 20.5L16 9L14 3" stroke="#8057FF" stroke-width="2" stroke-linecap="round" stroke-linejoin="round"/>
<path id="Icon" d="M2.50149 9H21.5015M12.6161 20.2625L21.5747 9.51215C21.7265 9.32995 21.8024 9.23885 21.8315 9.13716C21.857 9.04751 21.857 8.95249 21.8315 8.86283C21.8024 8.76114 21.7265 8.67005 21.5747 8.48785L17.2414 3.28785C17.1532 3.18204 17.1091 3.12914 17.0551 3.09111C17.0072 3.05741 16.9537 3.03238 16.8972 3.01717C16.8334 3 16.7645 3 16.6268 3H7.37619C7.23846 3 7.16959 3 7.10578 3.01717C7.04923 3.03238 6.9958 3.05741 6.94792 3.09111C6.89387 3.12914 6.84979 3.18204 6.76161 3.28785L2.42828 8.48785C2.27645 8.67004 2.20054 8.76114 2.17153 8.86283C2.14595 8.95249 2.14595 9.04751 2.17153 9.13716C2.20054 9.23885 2.27645 9.32995 2.42828 9.51214L11.3869 20.2625C11.598 20.5158 11.7035 20.6424 11.8298 20.6886C11.9407 20.7291 12.0623 20.7291 12.1731 20.6886C12.2995 20.6424 12.405 20.5158 12.6161 20.2625Z" stroke="#8057FF" stroke-width="2" stroke-linecap="round" stroke-linejoin="round"/>
</g>
</svg>
