<svg width="38" height="38" viewBox="0 0 38 38" fill="none" xmlns="http://www.w3.org/2000/svg">
<path opacity="0.4" d="M31.6663 19.792V10.767C31.6663 8.10674 31.6663 6.77662 31.1486 5.76054C30.6932 4.86677 29.9666 4.14011 29.0728 3.68471C28.0567 3.16699 26.7266 3.16699 24.0663 3.16699H13.933C11.2728 3.16699 9.94263 3.16699 8.92655 3.68471C8.03278 4.14011 7.30613 4.86677 6.85073 5.76054C6.33301 6.77662 6.33301 8.10674 6.33301 10.767V27.2337C6.33301 29.8939 6.33301 31.224 6.85073 32.2401C7.30613 33.1339 8.03278 33.8605 8.92655 34.3159C9.94263 34.8337 11.2728 34.8337 13.933 34.8337H18.9997" stroke="#8057FF" stroke-width="3" stroke-linecap="round" stroke-linejoin="round"/>
<path d="M22.167 17.4163H12.667M15.8337 23.7497H12.667M25.3337 11.083H12.667M22.9587 30.083L26.1253 33.2497L33.2503 26.1247" stroke="#8057FF" stroke-width="3" stroke-linecap="round" stroke-linejoin="round"/>
</svg>
