<svg width="20" height="20" viewBox="0 0 20 20" fill="none" xmlns="http://www.w3.org/2000/svg">
<path opacity="0.4" d="M14.1663 9.16667L14.1663 2.5M10.833 5.83333H17.4997" stroke="#9979FF" stroke-width="2" stroke-linecap="round" stroke-linejoin="round"/>
<path d="M6.15056 8.2108C6.73055 9.41882 7.52121 10.551 8.52253 11.5523C9.52384 12.5536 10.656 13.3443 11.8641 13.9243C11.968 13.9742 12.0199 13.9991 12.0857 14.0183C12.3193 14.0864 12.6062 14.0375 12.804 13.8958C12.8597 13.8559 12.9073 13.8083 13.0026 13.7131C13.2939 13.4217 13.4396 13.276 13.5861 13.1808C14.1385 12.8216 14.8506 12.8216 15.4031 13.1808C15.5495 13.276 15.6952 13.4217 15.9865 13.7131L16.1489 13.8754C16.5918 14.3183 16.8132 14.5397 16.9335 14.7776C17.1728 15.2505 17.1728 15.8091 16.9335 16.2821C16.8132 16.5199 16.5918 16.7413 16.1489 17.1842L16.0176 17.3155C15.5762 17.7569 15.3555 17.9776 15.0555 18.1461C14.7226 18.3331 14.2055 18.4676 13.8237 18.4665C13.4795 18.4654 13.2444 18.3987 12.774 18.2652C10.2462 17.5477 7.86086 16.194 5.87088 14.204C3.88089 12.214 2.52716 9.8287 1.80969 7.30087C1.67618 6.8305 1.60943 6.59531 1.60841 6.25119C1.60727 5.86934 1.74174 5.35226 1.92875 5.01934C2.09729 4.71931 2.31797 4.49864 2.75932 4.05729L2.89069 3.92592C3.33355 3.48305 3.55499 3.26162 3.79281 3.14133C4.26577 2.90211 4.82433 2.90211 5.2973 3.14133C5.53511 3.26162 5.75655 3.48305 6.19942 3.92592L6.36181 4.08831C6.65315 4.37965 6.79881 4.52532 6.89405 4.6718C7.25321 5.22421 7.25322 5.93636 6.89405 6.48877C6.79881 6.63525 6.65315 6.78092 6.36181 7.07226C6.26655 7.16752 6.21892 7.21515 6.17905 7.27083C6.03737 7.46869 5.98846 7.75557 6.05656 7.9892C6.07572 8.05494 6.10067 8.10689 6.15056 8.2108Z" stroke="#9979FF" stroke-width="2" stroke-linecap="round" stroke-linejoin="round"/>
</svg>
