<svg width="48" height="48" viewBox="0 0 48 48" fill="none" xmlns="http://www.w3.org/2000/svg">
<g id="pie-chart-04">
<g id="Accent">
<path d="M44 24C44 35.0457 35.0457 44 24 44C12.9543 44 4.00002 35.0457 4.00002 24C4.00002 12.9543 12.9543 4 24 4C35.0457 4 44 12.9543 44 24Z" stroke="#0F0F11" stroke-width="2" stroke-linecap="round" stroke-linejoin="round"/>
<path d="M16.5079 42.5437C11.9923 40.7193 8.29761 37.3099 6.11694 32.9552C3.93626 28.6005 3.41948 23.5997 4.66356 18.8911L24 24L16.5079 42.5437Z" stroke="#0F0F11" stroke-width="2" stroke-linecap="round" stroke-linejoin="round"/>
</g>
<path id="Icon" d="M4.68164 18.8236C5.83042 14.5363 8.37274 10.7529 11.9082 8.0694C15.4436 5.38586 19.7713 3.95462 24.2096 4.0011L24.0002 24L4.68164 18.8236Z" stroke="#8057FF" stroke-width="2" stroke-linecap="round" stroke-linejoin="round"/>
</g>
</svg>
