<svg xmlns="http://www.w3.org/2000/svg" width="93" height="79" viewBox="0 0 93 79" fill="none">
  <path fill-rule="evenodd" clip-rule="evenodd" d="M54.9366 18.8637C53.2324 17.4673 51.3476 16.2528 49.3964 15.2655C45.5799 13.3342 39.8506 11.5959 34.5456 11.5466C30.9093 11.5129 27.474 12.2777 24.9369 14.2473C20.1044 17.9987 19.1093 24.4787 20.49 31.2117C21.4971 36.1223 23.7584 41.1604 26.6142 45.297C23.3703 43.4349 19.1754 41.7078 15.1018 41.2829C10.5352 40.803 6.12644 41.9402 3.24845 46.1743C-2.76578 55.0248 0.246058 63.5878 6.77951 69.7689C13.198 75.8401 23.0411 79.5667 30.8096 78.9294C31.2203 78.8944 31.5263 78.532 31.4927 78.1196C31.4592 77.7072 31.0987 77.3997 30.6882 77.4347C23.2862 78.0396 13.9185 74.4629 7.80302 68.6767C1.80272 63.0005 -1.04218 55.1473 4.48119 47.0216C7.0161 43.2924 10.9246 42.3502 14.947 42.7726C19.1316 43.2125 23.4459 45.1095 26.6125 47.0341C27.4701 47.554 28.3351 48.0689 29.1932 48.5962C31.4947 51.1882 34.0179 53.1402 36.4954 54.085C37.1106 54.3174 37.3938 53.9126 37.4677 53.7951C37.5687 53.6351 37.6664 53.3777 37.5035 53.0453C37.4729 52.9828 37.3975 52.8653 37.2634 52.7353C37.08 52.5603 36.6718 52.2379 36.5024 52.0804C35.8033 51.4256 35.0367 50.8232 34.2824 50.2384C32.9713 49.2186 31.5786 48.3113 30.165 47.439C29.9627 47.2066 29.7627 46.9716 29.5646 46.7317C26.0206 42.4252 23.1148 36.579 21.9519 30.9093C20.6955 24.7824 21.4524 18.8475 25.8497 15.434C28.1386 13.6572 31.2514 13.0158 34.5319 13.0463C39.6023 13.0933 45.0774 14.7589 48.7249 16.6047C50.9528 17.7322 53.0906 19.1702 54.9481 20.8465C55.5646 21.4029 56.1268 22.0343 56.666 22.6664C56.7252 22.7359 56.8068 22.8386 56.8976 22.9563C57.133 23.3095 57.3817 23.6496 57.6442 23.9758C57.7825 24.1475 57.8771 24.2088 57.8942 24.2198C58.3453 24.5094 58.666 24.2663 58.8023 24.1403C58.8429 24.1028 59.2524 23.7004 58.9195 23.171C58.8518 23.0638 58.4304 22.4899 58.0945 22.0578C55.6046 18.2894 54.8294 12.9858 55.9291 8.68103C56.6264 5.95215 58.0816 3.62017 60.3876 2.4032C61.9211 1.59413 63.8234 1.28621 66.1055 1.65387C71.6093 2.54067 76.2193 5.69571 80.3218 9.57983C84.5187 13.5532 88.1841 18.2931 91.6963 22.2592C91.9699 22.5684 92.4421 22.5961 92.7499 22.3209C93.0576 22.046 93.0853 21.5716 92.8113 21.2624C89.2723 17.2656 85.5748 12.4927 81.3456 8.48832C77.0219 4.395 72.1424 1.10774 66.3419 0.173204C63.6868 -0.254699 61.4776 0.134225 59.6935 1.07551C57.0237 2.48419 55.2904 5.14883 54.4833 8.30811C53.6399 11.6096 53.8149 15.447 54.9366 18.8637Z" fill="#8057FF"/>
</svg>