  <svg xmlns="http://www.w3.org/2000/svg" width="36" height="38" viewBox="0 0 36 38" fill="none">
    <path fill-rule="evenodd" clip-rule="evenodd" d="M16.4958 33.5813C13.6202 33.4764 10.71 33.779 7.89192 34.0933C7.28545 34.163 6.83921 34.7073 6.93828 35.2967C6.99542 35.8968 7.54518 36.3244 8.10962 36.2649C10.8404 35.958 13.6607 35.6543 16.4034 35.7616C16.9885 35.7872 17.4977 35.317 17.5288 34.7137C17.5601 34.1109 17.0811 33.6073 16.4958 33.5813Z" fill="#8057FF"/>
    <path fill-rule="evenodd" clip-rule="evenodd" d="M22.0242 20.8139C16.6102 17.4186 10.7892 14.7293 5.43012 11.1941C4.94781 10.8595 4.26965 11.0005 3.94634 11.5013C3.62313 12.0025 3.74465 12.6834 4.269 13.0077C9.63126 16.556 15.4553 19.2581 20.8726 22.6665C21.3944 22.9807 22.0683 22.8228 22.3888 22.3105C22.6674 21.809 22.5461 21.1281 22.0242 20.8139Z" fill="#8057FF"/>
    <path fill-rule="evenodd" clip-rule="evenodd" d="M25.9679 1.72015C26.7146 4.23651 27.461 6.75292 28.2077 9.2697C28.3499 9.85312 28.9643 10.1806 29.5459 10.0089C30.1274 9.83672 30.4266 9.23774 30.2843 8.65389C29.5366 6.1333 28.7893 3.61307 28.0417 1.09291C27.8575 0.519725 27.244 0.195127 26.6632 0.370264C26.1244 0.535159 25.7838 1.14739 25.9679 1.72015Z" fill="#8057FF"/>
  </svg>