<svg width="1440" height="335" viewBox="0 0 1440 335" fill="none" xmlns="http://www.w3.org/2000/svg">
<g opacity="0.5">
<g opacity="0.2">
<path fill-rule="evenodd" clip-rule="evenodd" d="M1572 -216.133L1518.77 -216.133L1518.77 -156.262L1572 -156.262L1572 -155.262L1518.77 -155.262L1518.77 -95.3963L1572 -95.3963L1572 -94.3963L1518.77 -94.3963L1518.77 -34.5291L1572 -34.5291L1572 -33.5291L1518.77 -33.5291L1518.77 26.34L1572 26.34L1572 27.34L1518.77 27.34L1518.77 87.2072L1572 87.2072L1572 88.2072L1518.77 88.2072L1518.77 148.076L1572 148.076L1572 149.076L1518.77 149.076L1518.77 208.945L1572 208.945L1572 209.945L1518.77 209.945L1518.77 269.813L1572 269.813L1572 270.813L1518.77 270.813L1518.77 334.999L1517.77 334.999L1517.77 270.813L1463.25 270.813L1463.25 334.999L1462.25 334.999L1462.25 270.813L1409.03 270.813L1409.03 334.999L1408.03 334.999L1408.03 270.813L1353.51 270.813L1353.51 334.999L1352.51 334.999L1352.51 270.813L1299.28 270.813L1299.28 334.999L1298.28 334.999L1298.28 270.813L1243.76 270.813L1243.76 334.999L1242.76 334.999L1242.76 270.813L1189.53 270.813L1189.53 334.999L1188.53 334.999L1188.53 270.813L1135.31 270.813L1135.31 334.999L1134.31 334.999L1134.31 270.813L1079.79 270.813L1079.79 334.999L1078.79 334.999L1078.79 270.813L1025.56 270.813L1025.56 334.999L1024.56 334.999L1024.56 270.813L970.04 270.813L970.04 334.999L969.04 334.999L969.04 270.813L915.813 270.813L915.813 334.999L914.813 334.999L914.813 270.813L860.294 270.813L860.294 334.999L859.294 334.999L859.294 270.813L806.065 270.813L806.065 334.999L805.065 334.999L805.065 270.813L751.837 270.813L751.837 334.999L750.837 334.999L750.837 270.813L696.317 270.813L696.317 334.999L695.317 334.999L695.317 270.813L642.091 270.813L642.091 334.999L641.091 334.999L641.091 270.813L586.571 270.813L586.571 334.999L585.571 334.999L585.571 270.813L532.345 270.813L532.345 334.999L531.345 334.999L531.345 270.813L476.825 270.813L476.825 334.999L475.825 334.999L475.825 270.813L422.597 270.813L422.597 334.999L421.597 334.999L421.597 270.813L368.37 270.813L368.37 334.999L367.37 334.999L367.37 270.813L312.85 270.813L312.85 334.999L311.85 334.999L311.85 270.813L258.622 270.813L258.622 334.999L257.622 334.999L257.622 270.813L203.104 270.813L203.104 334.999L202.104 334.999L202.104 270.813L148.876 270.813L148.876 334.999L147.876 334.999L147.876 270.813L93.3563 270.813L93.3563 334.999L92.3563 334.999L92.3563 270.813L39.1297 270.813L39.1297 334.999L38.1297 334.999L38.1297 270.813L-15.0988 270.813L-15.0988 334.999L-16.0988 334.999L-16.0988 270.813L-70.6183 270.813L-70.6183 334.999L-71.6183 334.999L-71.6183 270.813L-132.302 270.812L-132.302 269.812L-71.6183 269.813L-71.6183 209.945L-132.302 209.945L-132.302 208.945L-71.6183 208.945L-71.6183 149.076L-132.302 149.076L-132.302 148.076L-71.6183 148.076L-71.6183 88.2071L-132.302 88.207L-132.302 87.207L-71.6183 87.2071L-71.6183 27.3399L-132.302 27.3398L-132.302 26.3398L-71.6183 26.3399L-71.6183 -33.5293L-132.302 -33.5293L-132.302 -34.5293L-71.6183 -34.5293L-71.6183 -94.3965L-132.302 -94.3965L-132.302 -95.3965L-71.6183 -95.3965L-71.6183 -155.262L-132.302 -155.262L-132.302 -156.262L-71.6183 -156.262L-71.6183 -216.133L-132.302 -216.133L-132.302 -217.133L-71.6183 -217.133L-71.6183 -277L-70.6183 -277L-70.6183 -217.133L-16.0988 -217.133L-16.0988 -277L-15.0988 -277L-15.0988 -217.133L38.1298 -217.133L38.1298 -277L39.1298 -277L39.1298 -217.133L92.3563 -217.133L92.3563 -277L93.3563 -277L93.3563 -217.133L147.876 -217.133L147.876 -277L148.876 -277L148.876 -217.133L202.104 -217.133L202.104 -277L203.104 -277L203.104 -217.133L257.622 -217.133L257.622 -277L258.622 -277L258.622 -217.133L311.85 -217.133L311.85 -277L312.85 -277L312.85 -217.133L367.37 -217.133L367.37 -277L368.37 -277L368.37 -217.133L421.597 -217.133L421.597 -277L422.597 -277L422.597 -217.133L475.825 -217.133L475.825 -277L476.825 -277L476.825 -217.133L531.345 -217.133L531.345 -277L532.345 -277L532.345 -217.133L585.571 -217.133L585.571 -277L586.571 -277L586.571 -217.133L641.091 -217.133L641.091 -277L642.091 -277L642.091 -217.133L695.317 -217.133L695.317 -277L696.317 -277L696.317 -217.133L750.837 -217.133L750.837 -277L751.837 -277L751.837 -217.133L805.065 -217.133L805.065 -277L806.065 -277L806.065 -217.133L859.294 -217.133L859.294 -277L860.294 -277L860.294 -217.133L914.813 -217.133L914.813 -277L915.813 -277L915.813 -217.133L969.04 -217.133L969.04 -277L970.04 -277L970.04 -217.133L1024.56 -217.133L1024.56 -277L1025.56 -277L1025.56 -217.133L1078.79 -217.133L1078.79 -277L1079.79 -277L1079.79 -217.133L1134.31 -217.133L1134.31 -277L1135.31 -277L1135.31 -217.133L1188.53 -217.133L1188.53 -277L1189.53 -277L1189.53 -217.133L1242.76 -217.133L1242.76 -277L1243.76 -277L1243.76 -217.133L1298.28 -217.133L1298.28 -277L1299.28 -277L1299.28 -217.133L1352.51 -217.133L1352.51 -277L1353.51 -277L1353.51 -217.133L1408.03 -217.133L1408.03 -277L1409.03 -277L1409.03 -217.133L1462.25 -217.133L1462.25 -277L1463.25 -277L1463.25 -217.133L1517.77 -217.133L1517.77 -277L1518.77 -277L1518.77 -217.133L1572 -217.133L1572 -216.133ZM-70.6183 -216.133L-70.6183 -156.262L-16.0988 -156.262L-16.0988 -216.133L-70.6183 -216.133ZM-70.6183 -155.262L-70.6183 -95.3965L-16.0988 -95.3965L-16.0988 -155.262L-70.6183 -155.262ZM-70.6183 -94.3965L-70.6183 -34.5293L-16.0988 -34.5293L-16.0988 -94.3965L-70.6183 -94.3965ZM-70.6183 -33.5293L-70.6183 26.3399L-16.0988 26.3399L-16.0988 -33.5293L-70.6183 -33.5293ZM-70.6183 27.3399L-70.6183 87.2071L-16.0988 87.2071L-16.0988 27.3399L-70.6183 27.3399ZM-70.6183 88.2071L-70.6183 148.076L-16.0988 148.076L-16.0988 88.2071L-70.6183 88.2071ZM-70.6183 149.076L-70.6183 208.945L-16.0988 208.945L-16.0988 149.076L-70.6183 149.076ZM-70.6183 209.945L-70.6183 269.813L-16.0988 269.813L-16.0988 209.945L-70.6183 209.945ZM38.1297 269.813L-15.0988 269.813L-15.0988 209.945L38.1297 209.945L38.1297 269.813ZM38.1297 208.945L-15.0988 208.945L-15.0988 149.076L38.1297 149.076L38.1297 208.945ZM38.1297 148.076L-15.0988 148.076L-15.0988 88.2071L38.1297 88.2071L38.1297 148.076ZM38.1297 87.2071L-15.0988 87.2071L-15.0988 27.3399L38.1297 27.3399L38.1297 87.2071ZM38.1297 26.3399L-15.0988 26.3399L-15.0988 -33.5293L38.1298 -33.5293L38.1297 26.3399ZM38.1298 -34.5293L-15.0988 -34.5293L-15.0988 -94.3965L38.1298 -94.3964L38.1298 -34.5293ZM38.1298 -95.3964L-15.0988 -95.3965L-15.0988 -155.262L38.1298 -155.262L38.1298 -95.3964ZM38.1298 -156.262L-15.0988 -156.262L-15.0988 -216.133L38.1298 -216.133L38.1298 -156.262ZM39.1298 -216.133L39.1298 -156.262L92.3563 -156.262L92.3563 -216.133L39.1298 -216.133ZM39.1298 -155.262L39.1298 -95.3964L92.3563 -95.3964L92.3563 -155.262L39.1298 -155.262ZM39.1298 -94.3964L39.1298 -34.5293L92.3563 -34.5293L92.3563 -94.3964L39.1298 -94.3964ZM39.1298 -33.5293L39.1297 26.3399L92.3563 26.3399L92.3563 -33.5293L39.1298 -33.5293ZM39.1297 27.3399L39.1297 87.2071L92.3563 87.2071L92.3563 27.3399L39.1297 27.3399ZM39.1297 88.2071L39.1297 148.076L92.3563 148.076L92.3563 88.2071L39.1297 88.2071ZM39.1297 149.076L39.1297 208.945L92.3563 208.945L92.3563 149.076L39.1297 149.076ZM39.1297 209.945L39.1297 269.813L92.3563 269.813L92.3563 209.945L39.1297 209.945ZM147.876 269.813L93.3563 269.813L93.3563 209.945L147.876 209.945L147.876 269.813ZM147.876 208.945L93.3563 208.945L93.3563 149.076L147.876 149.076L147.876 208.945ZM147.876 148.076L93.3563 148.076L93.3563 88.2071L147.876 88.2071L147.876 148.076ZM147.876 87.2071L93.3563 87.2071L93.3563 27.3399L147.876 27.3399L147.876 87.2071ZM147.876 26.3399L93.3563 26.3399L93.3563 -33.5293L147.876 -33.5292L147.876 26.3399ZM147.876 -34.5292L93.3563 -34.5293L93.3563 -94.3964L147.876 -94.3964L147.876 -34.5292ZM147.876 -95.3964L93.3563 -95.3964L93.3563 -155.262L147.876 -155.262L147.876 -95.3964ZM147.876 -156.262L93.3563 -156.262L93.3563 -216.133L147.876 -216.133L147.876 -156.262ZM148.876 -216.133L148.876 -156.262L202.104 -156.262L202.104 -216.133L148.876 -216.133ZM148.876 -155.262L148.876 -95.3964L202.104 -95.3964L202.104 -155.262L148.876 -155.262ZM148.876 -94.3964L148.876 -34.5292L202.104 -34.5292L202.104 -94.3964L148.876 -94.3964ZM148.876 -33.5292L148.876 26.3399L202.104 26.3399L202.104 -33.5292L148.876 -33.5292ZM148.876 27.3399L148.876 87.2071L202.104 87.2071L202.104 27.3399L148.876 27.3399ZM148.876 88.2071L148.876 148.076L202.104 148.076L202.104 88.2071L148.876 88.2071ZM148.876 149.076L148.876 208.945L202.104 208.945L202.104 149.076L148.876 149.076ZM148.876 209.945L148.876 269.813L202.104 269.813L202.104 209.945L148.876 209.945ZM257.622 269.813L203.104 269.813L203.104 209.945L257.622 209.945L257.622 269.813ZM257.622 208.945L203.104 208.945L203.104 149.076L257.622 149.076L257.622 208.945ZM257.622 148.076L203.104 148.076L203.104 88.2071L257.622 88.2071L257.622 148.076ZM257.622 87.2071L203.104 87.2071L203.104 27.3399L257.622 27.3399L257.622 87.2071ZM257.622 26.3399L203.104 26.3399L203.104 -33.5292L257.622 -33.5292L257.622 26.3399ZM257.622 -34.5292L203.104 -34.5292L203.104 -94.3964L257.622 -94.3964L257.622 -34.5292ZM257.622 -95.3964L203.104 -95.3964L203.104 -155.262L257.622 -155.262L257.622 -95.3964ZM257.622 -156.262L203.104 -156.262L203.104 -216.133L257.622 -216.133L257.622 -156.262ZM258.622 -216.133L258.622 -156.262L311.85 -156.262L311.85 -216.133L258.622 -216.133ZM258.622 -155.262L258.622 -95.3964L311.85 -95.3964L311.85 -155.262L258.622 -155.262ZM258.622 -94.3964L258.622 -34.5292L311.85 -34.5292L311.85 -94.3964L258.622 -94.3964ZM258.622 -33.5292L258.622 26.3399L311.85 26.3399L311.85 -33.5292L258.622 -33.5292ZM258.622 27.3399L258.622 87.2071L311.85 87.2071L311.85 27.3399L258.622 27.3399ZM258.622 88.2071L258.622 148.076L311.85 148.076L311.85 88.2071L258.622 88.2071ZM258.622 149.076L258.622 208.945L311.85 208.945L311.85 149.076L258.622 149.076ZM258.622 209.945L258.622 269.813L311.85 269.813L311.85 209.945L258.622 209.945ZM367.37 269.813L312.85 269.813L312.85 209.945L367.37 209.945L367.37 269.813ZM367.37 208.945L312.85 208.945L312.85 149.076L367.37 149.076L367.37 208.945ZM367.37 148.076L312.85 148.076L312.85 88.2071L367.37 88.2071L367.37 148.076ZM367.37 87.2071L312.85 87.2071L312.85 27.3399L367.37 27.3399L367.37 87.2071ZM367.37 26.3399L312.85 26.3399L312.85 -33.5292L367.37 -33.5292L367.37 26.3399ZM367.37 -34.5292L312.85 -34.5292L312.85 -94.3964L367.37 -94.3964L367.37 -34.5292ZM367.37 -95.3964L312.85 -95.3964L312.85 -155.262L367.37 -155.262L367.37 -95.3964ZM367.37 -156.262L312.85 -156.262L312.85 -216.133L367.37 -216.133L367.37 -156.262ZM368.37 -216.133L368.37 -156.262L421.597 -156.262L421.597 -216.133L368.37 -216.133ZM368.37 -155.262L368.37 -95.3964L421.597 -95.3964L421.597 -155.262L368.37 -155.262ZM368.37 -94.3964L368.37 -34.5292L421.597 -34.5292L421.597 -94.3964L368.37 -94.3964ZM368.37 -33.5292L368.37 26.3399L421.597 26.3399L421.597 -33.5292L368.37 -33.5292ZM368.37 27.3399L368.37 87.2071L421.597 87.2071L421.597 27.3399L368.37 27.3399ZM368.37 88.2071L368.37 148.076L421.597 148.076L421.597 88.2071L368.37 88.2071ZM368.37 149.076L368.37 208.945L421.597 208.945L421.597 149.076L368.37 149.076ZM368.37 209.945L368.37 269.813L421.597 269.813L421.597 209.945L368.37 209.945ZM475.825 269.813L422.597 269.813L422.597 209.945L475.825 209.945L475.825 269.813ZM475.825 208.945L422.597 208.945L422.597 149.076L475.825 149.076L475.825 208.945ZM475.825 148.076L422.597 148.076L422.597 88.2071L475.825 88.2071L475.825 148.076ZM475.825 87.2071L422.597 87.2071L422.597 27.3399L475.825 27.3399L475.825 87.2071ZM475.825 26.3399L422.597 26.3399L422.597 -33.5292L475.825 -33.5292L475.825 26.3399ZM475.825 -34.5292L422.597 -34.5292L422.597 -94.3964L475.825 -94.3964L475.825 -34.5292ZM475.825 -95.3964L422.597 -95.3964L422.597 -155.262L475.825 -155.262L475.825 -95.3964ZM475.825 -156.262L422.597 -156.262L422.597 -216.133L475.825 -216.133L475.825 -156.262ZM476.825 -216.133L476.825 -156.262L531.345 -156.262L531.345 -216.133L476.825 -216.133ZM476.825 -155.262L476.825 -95.3964L531.345 -95.3964L531.345 -155.262L476.825 -155.262ZM476.825 -94.3964L476.825 -34.5292L531.345 -34.5292L531.345 -94.3964L476.825 -94.3964ZM476.825 -33.5292L476.825 26.3399L531.345 26.3399L531.345 -33.5292L476.825 -33.5292ZM476.825 27.3399L476.825 87.2071L531.345 87.2071L531.345 27.3399L476.825 27.3399ZM476.825 88.2071L476.825 148.076L531.345 148.076L531.345 88.2071L476.825 88.2071ZM476.825 149.076L476.825 208.945L531.345 208.945L531.345 149.076L476.825 149.076ZM476.825 209.945L476.825 269.813L531.345 269.813L531.345 209.945L476.825 209.945ZM585.571 269.813L532.345 269.813L532.345 209.945L585.571 209.945L585.571 269.813ZM585.571 208.945L532.345 208.945L532.345 149.076L585.571 149.076L585.571 208.945ZM585.571 148.076L532.345 148.076L532.345 88.2071L585.571 88.2071L585.571 148.076ZM585.571 87.2071L532.345 87.2071L532.345 27.3399L585.571 27.3399L585.571 87.2071ZM585.571 26.3399L532.345 26.3399L532.345 -33.5292L585.571 -33.5292L585.571 26.3399ZM585.571 -34.5292L532.345 -34.5292L532.345 -94.3964L585.571 -94.3964L585.571 -34.5292ZM585.571 -95.3964L532.345 -95.3964L532.345 -155.262L585.571 -155.262L585.571 -95.3964ZM585.571 -156.262L532.345 -156.262L532.345 -216.133L585.571 -216.133L585.571 -156.262ZM586.571 -216.133L586.571 -156.262L641.091 -156.262L641.091 -216.133L586.571 -216.133ZM586.571 -155.262L586.571 -95.3964L641.091 -95.3964L641.091 -155.262L586.571 -155.262ZM586.571 -94.3964L586.571 -34.5292L641.091 -34.5292L641.091 -94.3964L586.571 -94.3964ZM586.571 -33.5292L586.571 26.3399L641.091 26.3399L641.091 -33.5292L586.571 -33.5292ZM586.571 27.3399L586.571 87.2071L641.091 87.2071L641.091 27.3399L586.571 27.3399ZM586.571 88.2071L586.571 148.076L641.091 148.076L641.091 88.2071L586.571 88.2071ZM586.571 149.076L586.571 208.945L641.091 208.945L641.091 149.076L586.571 149.076ZM586.571 209.945L586.571 269.813L641.091 269.813L641.091 209.945L586.571 209.945ZM695.317 269.813L642.091 269.813L642.091 209.945L695.317 209.945L695.317 269.813ZM695.317 208.945L642.091 208.945L642.091 149.076L695.317 149.076L695.317 208.945ZM695.317 148.076L642.091 148.076L642.091 88.2071L695.317 88.2071L695.317 148.076ZM695.317 87.2071L642.091 87.2071L642.091 27.3399L695.317 27.3399L695.317 87.2071ZM695.317 26.3399L642.091 26.3399L642.091 -33.5292L695.317 -33.5292L695.317 26.3399ZM695.317 -34.5292L642.091 -34.5292L642.091 -94.3964L695.317 -94.3964L695.317 -34.5292ZM695.317 -95.3964L642.091 -95.3964L642.091 -155.262L695.317 -155.262L695.317 -95.3964ZM695.317 -156.262L642.091 -156.262L642.091 -216.133L695.317 -216.133L695.317 -156.262ZM696.317 -216.133L696.317 -156.262L750.837 -156.262L750.837 -216.133L696.317 -216.133ZM696.317 -155.262L696.317 -95.3964L750.837 -95.3964L750.837 -155.262L696.317 -155.262ZM696.317 -94.3964L696.317 -34.5292L750.837 -34.5292L750.837 -94.3964L696.317 -94.3964ZM696.317 -33.5292L696.317 26.3399L750.837 26.3399L750.837 -33.5292L696.317 -33.5292ZM696.317 27.3399L696.317 87.2071L750.837 87.2071L750.837 27.3399L696.317 27.3399ZM696.317 88.2071L696.317 148.076L750.837 148.076L750.837 88.2071L696.317 88.2071ZM696.317 149.076L696.317 208.945L750.837 208.945L750.837 149.076L696.317 149.076ZM696.317 209.945L696.317 269.813L750.837 269.813L750.837 209.945L696.317 209.945ZM805.065 269.813L751.837 269.813L751.837 209.945L805.065 209.945L805.065 269.813ZM805.065 208.945L751.837 208.945L751.837 149.076L805.065 149.076L805.065 208.945ZM805.065 148.076L751.837 148.076L751.837 88.2071L805.065 88.2071L805.065 148.076ZM805.065 87.2071L751.837 87.2071L751.837 27.3399L805.065 27.3399L805.065 87.2071ZM805.065 26.3399L751.837 26.3399L751.837 -33.5292L805.065 -33.5292L805.065 26.3399ZM805.065 -34.5292L751.837 -34.5292L751.837 -94.3964L805.065 -94.3964L805.065 -34.5292ZM805.065 -95.3964L751.837 -95.3964L751.837 -155.262L805.065 -155.262L805.065 -95.3964ZM805.065 -156.262L751.837 -156.262L751.837 -216.133L805.065 -216.133L805.065 -156.262ZM806.065 -216.133L806.065 -156.262L859.294 -156.262L859.294 -216.133L806.065 -216.133ZM806.065 -155.262L806.065 -95.3964L859.294 -95.3964L859.294 -155.262L806.065 -155.262ZM806.065 -94.3964L806.065 -34.5292L859.294 -34.5292L859.294 -94.3964L806.065 -94.3964ZM806.065 -33.5292L806.065 26.3399L859.294 26.3399L859.294 -33.5292L806.065 -33.5292ZM806.065 27.3399L806.065 87.2071L859.294 87.2071L859.294 27.3399L806.065 27.3399ZM806.065 88.2071L806.065 148.076L859.294 148.076L859.294 88.2071L806.065 88.2071ZM806.065 149.076L806.065 208.945L859.294 208.945L859.294 149.076L806.065 149.076ZM806.065 209.945L806.065 269.813L859.294 269.813L859.294 209.945L806.065 209.945ZM914.813 269.813L860.294 269.813L860.294 209.945L914.813 209.945L914.813 269.813ZM914.813 208.945L860.294 208.945L860.294 149.076L914.813 149.076L914.813 208.945ZM914.813 148.076L860.294 148.076L860.294 88.2071L914.813 88.2071L914.813 148.076ZM914.813 87.2071L860.294 87.2071L860.294 27.3399L914.813 27.3399L914.813 87.2071ZM914.813 26.3399L860.294 26.3399L860.294 -33.5292L914.813 -33.5292L914.813 26.3399ZM914.813 -34.5292L860.294 -34.5292L860.294 -94.3964L914.813 -94.3964L914.813 -34.5292ZM914.813 -95.3964L860.294 -95.3964L860.294 -155.262L914.813 -155.262L914.813 -95.3964ZM914.813 -156.262L860.294 -156.262L860.294 -216.133L914.813 -216.133L914.813 -156.262ZM915.813 -216.133L915.813 -156.262L969.04 -156.262L969.04 -216.133L915.813 -216.133ZM915.813 -155.262L915.813 -95.3964L969.04 -95.3964L969.04 -155.262L915.813 -155.262ZM915.813 -94.3964L915.813 -34.5292L969.04 -34.5292L969.04 -94.3964L915.813 -94.3964ZM915.813 -33.5292L915.813 26.3399L969.04 26.3399L969.04 -33.5292L915.813 -33.5292ZM915.813 27.3399L915.813 87.2071L969.04 87.2071L969.04 27.3399L915.813 27.3399ZM915.813 88.2071L915.813 148.076L969.04 148.076L969.04 88.2071L915.813 88.2071ZM915.813 149.076L915.813 208.945L969.04 208.945L969.04 149.076L915.813 149.076ZM915.813 209.945L915.813 269.813L969.04 269.813L969.04 209.945L915.813 209.945ZM1024.56 269.813L970.04 269.813L970.04 209.945L1024.56 209.945L1024.56 269.813ZM1024.56 208.945L970.04 208.945L970.04 149.076L1024.56 149.076L1024.56 208.945ZM1024.56 148.076L970.04 148.076L970.04 88.2071L1024.56 88.2071L1024.56 148.076ZM1024.56 87.2071L970.04 87.2071L970.04 27.3399L1024.56 27.3399L1024.56 87.2071ZM1024.56 26.3399L970.04 26.3399L970.04 -33.5292L1024.56 -33.5292L1024.56 26.3399ZM1024.56 -34.5292L970.04 -34.5292L970.04 -94.3964L1024.56 -94.3964L1024.56 -34.5292ZM1024.56 -95.3964L970.04 -95.3964L970.04 -155.262L1024.56 -155.262L1024.56 -95.3964ZM1024.56 -156.262L970.04 -156.262L970.04 -216.133L1024.56 -216.133L1024.56 -156.262ZM1025.56 -216.133L1025.56 -156.262L1078.79 -156.262L1078.79 -216.133L1025.56 -216.133ZM1025.56 -155.262L1025.56 -95.3964L1078.79 -95.3964L1078.79 -155.262L1025.56 -155.262ZM1025.56 -94.3964L1025.56 -34.5292L1078.79 -34.5292L1078.79 -94.3964L1025.56 -94.3964ZM1025.56 -33.5292L1025.56 26.3399L1078.79 26.3399L1078.79 -33.5292L1025.56 -33.5292ZM1025.56 27.3399L1025.56 87.2071L1078.79 87.2071L1078.79 27.3399L1025.56 27.3399ZM1025.56 88.2071L1025.56 148.076L1078.79 148.076L1078.79 88.2071L1025.56 88.2071ZM1025.56 149.076L1025.56 208.945L1078.79 208.945L1078.79 149.076L1025.56 149.076ZM1025.56 209.945L1025.56 269.813L1078.79 269.813L1078.79 209.945L1025.56 209.945ZM1134.31 269.813L1079.79 269.813L1079.79 209.945L1134.31 209.945L1134.31 269.813ZM1134.31 208.945L1079.79 208.945L1079.79 149.076L1134.31 149.076L1134.31 208.945ZM1134.31 148.076L1079.79 148.076L1079.79 88.2071L1134.31 88.2071L1134.31 148.076ZM1134.31 87.2071L1079.79 87.2071L1079.79 27.3399L1134.31 27.3399L1134.31 87.2071ZM1134.31 26.3399L1079.79 26.3399L1079.79 -33.5292L1134.31 -33.5292L1134.31 26.3399ZM1134.31 -34.5292L1079.79 -34.5292L1079.79 -94.3964L1134.31 -94.3964L1134.31 -34.5292ZM1134.31 -95.3964L1079.79 -95.3964L1079.79 -155.262L1134.31 -155.262L1134.31 -95.3964ZM1134.31 -156.262L1079.79 -156.262L1079.79 -216.133L1134.31 -216.133L1134.31 -156.262ZM1135.31 -216.133L1135.31 -156.262L1188.53 -156.262L1188.53 -216.133L1135.31 -216.133ZM1135.31 -155.262L1135.31 -95.3964L1188.53 -95.3963L1188.53 -155.262L1135.31 -155.262ZM1135.31 -94.3964L1135.31 -34.5292L1188.53 -34.5292L1188.53 -94.3963L1135.31 -94.3964ZM1135.31 -33.5292L1135.31 26.3399L1188.53 26.3399L1188.53 -33.5292L1135.31 -33.5292ZM1135.31 27.3399L1135.31 87.2071L1188.53 87.2071L1188.53 27.3399L1135.31 27.3399ZM1135.31 88.2071L1135.31 148.076L1188.53 148.076L1188.53 88.2071L1135.31 88.2071ZM1135.31 149.076L1135.31 208.945L1188.53 208.945L1188.53 149.076L1135.31 149.076ZM1135.31 209.945L1135.31 269.813L1188.53 269.813L1188.53 209.945L1135.31 209.945ZM1242.76 269.813L1189.53 269.813L1189.53 209.945L1242.76 209.945L1242.76 269.813ZM1242.76 208.945L1189.53 208.945L1189.53 149.076L1242.76 149.076L1242.76 208.945ZM1242.76 148.076L1189.53 148.076L1189.53 88.2071L1242.76 88.2071L1242.76 148.076ZM1242.76 87.2071L1189.53 87.2071L1189.53 27.3399L1242.76 27.34L1242.76 87.2071ZM1242.76 26.34L1189.53 26.3399L1189.53 -33.5292L1242.76 -33.5292L1242.76 26.34ZM1242.76 -34.5292L1189.53 -34.5292L1189.53 -94.3963L1242.76 -94.3963L1242.76 -34.5292ZM1242.76 -95.3963L1189.53 -95.3963L1189.53 -155.262L1242.76 -155.262L1242.76 -95.3963ZM1242.76 -156.262L1189.53 -156.262L1189.53 -216.133L1242.76 -216.133L1242.76 -156.262ZM1243.76 -216.133L1243.76 -156.262L1298.28 -156.262L1298.28 -216.133L1243.76 -216.133ZM1243.76 -155.262L1243.76 -95.3963L1298.28 -95.3963L1298.28 -155.262L1243.76 -155.262ZM1243.76 -94.3963L1243.76 -34.5292L1298.28 -34.5292L1298.28 -94.3963L1243.76 -94.3963ZM1243.76 -33.5292L1243.76 26.34L1298.28 26.34L1298.28 -33.5292L1243.76 -33.5292ZM1243.76 27.34L1243.76 87.2071L1298.28 87.2071L1298.28 27.34L1243.76 27.34ZM1243.76 88.2071L1243.76 148.076L1298.28 148.076L1298.28 88.2071L1243.76 88.2071ZM1243.76 149.076L1243.76 208.945L1298.28 208.945L1298.28 149.076L1243.76 149.076ZM1243.76 209.945L1243.76 269.813L1298.28 269.813L1298.28 209.945L1243.76 209.945ZM1352.51 269.813L1299.28 269.813L1299.28 209.945L1352.51 209.945L1352.51 269.813ZM1352.51 208.945L1299.28 208.945L1299.28 149.076L1352.51 149.076L1352.51 208.945ZM1352.51 148.076L1299.28 148.076L1299.28 88.2071L1352.51 88.2071L1352.51 148.076ZM1352.51 87.2071L1299.28 87.2071L1299.28 27.34L1352.51 27.34L1352.51 87.2071ZM1352.51 26.34L1299.28 26.34L1299.28 -33.5292L1352.51 -33.5292L1352.51 26.34ZM1352.51 -34.5292L1299.28 -34.5292L1299.28 -94.3963L1352.51 -94.3963L1352.51 -34.5292ZM1352.51 -95.3963L1299.28 -95.3963L1299.28 -155.262L1352.51 -155.262L1352.51 -95.3963ZM1352.51 -156.262L1299.28 -156.262L1299.28 -216.133L1352.51 -216.133L1352.51 -156.262ZM1353.51 -216.133L1353.51 -156.262L1408.03 -156.262L1408.03 -216.133L1353.51 -216.133ZM1353.51 -155.262L1353.51 -95.3963L1408.03 -95.3963L1408.03 -155.262L1353.51 -155.262ZM1353.51 -94.3963L1353.51 -34.5292L1408.03 -34.5292L1408.03 -94.3963L1353.51 -94.3963ZM1353.51 -33.5292L1353.51 26.34L1408.03 26.34L1408.03 -33.5292L1353.51 -33.5292ZM1353.51 27.34L1353.51 87.2071L1408.03 87.2071L1408.03 27.34L1353.51 27.34ZM1353.51 88.2071L1353.51 148.076L1408.03 148.076L1408.03 88.2071L1353.51 88.2071ZM1353.51 149.076L1353.51 208.945L1408.03 208.945L1408.03 149.076L1353.51 149.076ZM1353.51 209.945L1353.51 269.813L1408.03 269.813L1408.03 209.945L1353.51 209.945ZM1462.25 269.813L1409.03 269.813L1409.03 209.945L1462.25 209.945L1462.25 269.813ZM1462.25 208.945L1409.03 208.945L1409.03 149.076L1462.25 149.076L1462.25 208.945ZM1462.25 148.076L1409.03 148.076L1409.03 88.2071L1462.25 88.2071L1462.25 148.076ZM1462.25 87.2071L1409.03 87.2071L1409.03 27.34L1462.25 27.34L1462.25 87.2071ZM1462.25 26.34L1409.03 26.34L1409.03 -33.5292L1462.25 -33.5291L1462.25 26.34ZM1462.25 -34.5291L1409.03 -34.5292L1409.03 -94.3963L1462.25 -94.3963L1462.25 -34.5291ZM1462.25 -95.3963L1409.03 -95.3963L1409.03 -155.262L1462.25 -155.262L1462.25 -95.3963ZM1462.25 -156.262L1409.03 -156.262L1409.03 -216.133L1462.25 -216.133L1462.25 -156.262ZM1463.25 -216.133L1463.25 -156.262L1517.77 -156.262L1517.77 -216.133L1463.25 -216.133ZM1463.25 -155.262L1463.25 -95.3963L1517.77 -95.3963L1517.77 -155.262L1463.25 -155.262ZM1463.25 -94.3963L1463.25 -34.5291L1517.77 -34.5291L1517.77 -94.3963L1463.25 -94.3963ZM1463.25 -33.5291L1463.25 26.34L1517.77 26.34L1517.77 -33.5291L1463.25 -33.5291ZM1463.25 27.34L1463.25 87.2071L1517.77 87.2072L1517.77 27.34L1463.25 27.34ZM1463.25 88.2071L1463.25 148.076L1517.77 148.076L1517.77 88.2072L1463.25 88.2071ZM1463.25 149.076L1463.25 208.945L1517.77 208.945L1517.77 149.076L1463.25 149.076ZM1463.25 209.945L1463.25 269.813L1517.77 269.813L1517.77 209.945L1463.25 209.945Z" fill="url(#paint0_linear_856_6925)"/>
</g>
</g>
<defs>
<linearGradient id="paint0_linear_856_6925" x1="646" y1="-282.5" x2="646" y2="354" gradientUnits="userSpaceOnUse">
<stop stop-color="white" stop-opacity="0"/>
<stop offset="0.488761" stop-color="white" stop-opacity="0.88"/>
<stop offset="1" stop-color="white" stop-opacity="0"/>
</linearGradient>
</defs>
</svg>
