<svg width="1440" height="612" viewBox="0 0 1440 612" fill="none" xmlns="http://www.w3.org/2000/svg">
<g opacity="0.4">
<g opacity="0.2">
<path fill-rule="evenodd" clip-rule="evenodd" d="M1572.15 60.869L1518.93 60.869L1518.93 120.739L1572.15 120.739L1572.15 121.739L1518.93 121.739L1518.93 181.605L1572.15 181.605L1572.15 182.605L1518.93 182.605L1518.93 242.472L1572.15 242.472L1572.15 243.472L1518.93 243.472L1518.93 303.341L1572.15 303.341L1572.15 304.341L1518.93 304.341L1518.93 364.208L1572.15 364.208L1572.15 365.208L1518.93 365.208L1518.93 425.077L1572.15 425.077L1572.15 426.077L1518.93 426.077L1518.93 485.946L1572.15 485.946L1572.15 486.946L1518.93 486.946L1518.93 546.814L1572.15 546.814L1572.15 547.814L1518.93 547.814L1518.93 611.999L1517.93 611.999L1517.93 547.814L1463.41 547.814L1463.41 611.999L1462.41 611.999L1462.41 547.814L1409.18 547.814L1409.18 611.999L1408.18 611.999L1408.18 547.814L1353.66 547.814L1353.66 611.999L1352.66 611.999L1352.66 547.814L1299.43 547.814L1299.43 611.999L1298.43 611.999L1298.43 547.814L1243.91 547.814L1243.91 611.999L1242.91 611.999L1242.91 547.814L1189.68 547.814L1189.68 611.999L1188.68 611.999L1188.68 547.814L1135.46 547.814L1135.46 611.999L1134.46 611.999L1134.46 547.814L1079.94 547.814L1079.94 611.999L1078.94 611.999L1078.94 547.814L1025.71 547.814L1025.71 611.999L1024.71 611.999L1024.71 547.814L970.192 547.814L970.192 611.999L969.192 611.999L969.192 547.814L915.966 547.814L915.966 611.999L914.966 611.999L914.966 547.814L860.446 547.814L860.446 611.999L859.446 611.999L859.446 547.814L806.22 547.814L806.22 611.999L805.22 611.999L805.22 547.814L751.989 547.814L751.989 611.999L750.989 611.999L750.989 547.814L696.47 547.813L696.47 611.999L695.47 611.999L695.47 547.813L642.243 547.813L642.243 611.999L641.243 611.999L641.243 547.813L586.723 547.813L586.723 611.999L585.723 611.999L585.723 547.813L532.497 547.813L532.497 611.999L531.497 611.999L531.497 547.813L476.977 547.813L476.977 611.999L475.977 611.999L475.977 547.813L422.751 547.813L422.751 611.999L421.751 611.999L421.751 547.813L368.524 547.813L368.524 611.999L367.524 611.999L367.524 547.813L313.005 547.813L313.005 611.999L312.005 611.999L312.005 547.813L258.774 547.813L258.774 611.999L257.774 611.999L257.774 547.813L203.259 547.813L203.259 611.999L202.259 611.999L202.259 547.813L149.028 547.813L149.028 611.999L148.028 611.999L148.028 547.813L93.5086 547.813L93.5086 611.999L92.5086 611.999L92.5086 547.813L39.2821 547.813L39.2821 611.999L38.2821 611.999L38.2821 547.813L-14.9445 547.813L-14.9445 611.999L-15.9445 611.999L-15.9445 547.813L-70.466 547.813L-70.466 611.999L-71.466 611.999L-71.466 547.813L-132.15 547.813L-132.15 546.813L-71.466 546.813L-71.466 486.946L-132.15 486.946L-132.15 485.946L-71.466 485.946L-71.466 426.077L-132.15 426.077L-132.15 425.077L-71.466 425.077L-71.466 365.208L-132.15 365.208L-132.15 364.208L-71.466 364.208L-71.466 304.341L-132.15 304.341L-132.15 303.341L-71.466 303.341L-71.466 243.472L-132.15 243.472L-132.15 242.472L-71.466 242.472L-71.466 182.604L-132.15 182.604L-132.15 181.604L-71.466 181.604L-71.4659 121.739L-132.15 121.739L-132.15 120.739L-71.4659 120.739L-71.4659 60.8688L-132.15 60.8688L-132.15 59.8688L-71.4659 59.8688L-71.4659 6.10352e-05L-70.4659 6.10789e-05L-70.4659 59.8688L-15.9445 59.8688L-15.9445 6.10352e-05L-14.9445 6.10789e-05L-14.9445 59.8688L38.2821 59.8689L38.2821 6.10352e-05L39.2821 6.10789e-05L39.2821 59.8689L92.5087 59.8689L92.5087 6.10352e-05L93.5087 6.10789e-05L93.5087 59.8689L148.028 59.8689L148.028 5.98199e-05L149.028 5.98636e-05L149.028 59.8689L202.259 59.8689L202.259 0.000183106L203.259 0.000183149L203.259 59.8689L257.774 59.8689L257.774 0.000183106L258.774 0.000183149L258.774 59.8689L312.005 59.8689L312.005 0.000183106L313.005 0.000183149L313.005 59.8689L367.524 59.8689L367.524 0.000183106L368.524 0.000183149L368.524 59.8689L421.751 59.8689L421.751 0.000183106L422.751 0.000183149L422.751 59.8689L475.977 59.8689L475.977 0.000183106L476.977 0.000183149L476.977 59.8689L531.497 59.8689L531.497 0.000183106L532.497 0.000183149L532.497 59.8689L585.724 59.8689L585.724 0.000183106L586.724 0.000183149L586.724 59.8689L641.243 59.8689L641.243 0.000183106L642.243 0.000183149L642.243 59.8689L695.47 59.8689L695.47 0.000183106L696.47 0.000183149L696.47 59.8689L750.989 59.8689L750.989 0.000183106L751.989 0.000183149L751.989 59.8689L805.22 59.8689L805.22 0.000183106L806.22 0.000183149L806.22 59.8689L859.446 59.8689L859.446 0.000183106L860.446 0.000183149L860.446 59.8689L914.966 59.8689L914.966 0.000183106L915.966 0.000183149L915.966 59.8689L969.192 59.8689L969.192 0.000183106L970.192 0.000183149L970.192 59.8689L1024.71 59.8689L1024.71 0.000183106L1025.71 0.000183149L1025.71 59.8689L1078.94 59.8689L1078.94 0.000183106L1079.94 0.000183149L1079.94 59.8689L1134.46 59.8689L1134.46 0.000183106L1135.46 0.000183149L1135.46 59.8689L1188.68 59.8689L1188.68 0.000183106L1189.68 0.000183149L1189.68 59.8689L1242.91 59.869L1242.91 0.000183106L1243.91 0.000183149L1243.91 59.869L1298.43 59.869L1298.43 0.000183106L1299.43 0.000183149L1299.43 59.869L1352.66 59.869L1352.66 0.000183106L1353.66 0.000183149L1353.66 59.869L1408.18 59.869L1408.18 0.000183106L1409.18 0.000183149L1409.18 59.869L1462.41 59.869L1462.41 0.000183106L1463.41 0.000183149L1463.41 59.869L1517.93 59.869L1517.93 0.000183106L1518.93 0.000183149L1518.93 59.869L1572.15 59.869L1572.15 60.869ZM-70.4659 60.8688L-70.4659 120.739L-15.9445 120.739L-15.9445 60.8688L-70.4659 60.8688ZM-70.4659 121.739L-70.466 181.604L-15.9445 181.604L-15.9445 121.739L-70.4659 121.739ZM-70.466 182.604L-70.466 242.472L-15.9445 242.472L-15.9445 182.604L-70.466 182.604ZM-70.466 243.472L-70.466 303.341L-15.9445 303.341L-15.9445 243.472L-70.466 243.472ZM-70.466 304.341L-70.466 364.208L-15.9445 364.208L-15.9445 304.341L-70.466 304.341ZM-70.466 365.208L-70.466 425.077L-15.9445 425.077L-15.9445 365.208L-70.466 365.208ZM-70.466 426.077L-70.466 485.946L-15.9445 485.946L-15.9445 426.077L-70.466 426.077ZM-70.466 486.946L-70.466 546.813L-15.9445 546.813L-15.9445 486.946L-70.466 486.946ZM38.2821 546.813L-14.9445 546.813L-14.9445 486.946L38.2821 486.946L38.2821 546.813ZM38.2821 485.946L-14.9445 485.946L-14.9445 426.077L38.2821 426.077L38.2821 485.946ZM38.2821 425.077L-14.9445 425.077L-14.9445 365.208L38.2821 365.208L38.2821 425.077ZM38.2821 364.208L-14.9445 364.208L-14.9445 304.341L38.2821 304.341L38.2821 364.208ZM38.2821 303.341L-14.9445 303.341L-14.9445 243.472L38.2821 243.472L38.2821 303.341ZM38.2821 242.472L-14.9445 242.472L-14.9445 182.604L38.2821 182.604L38.2821 242.472ZM38.2821 181.604L-14.9445 181.604L-14.9445 121.739L38.2821 121.739L38.2821 181.604ZM38.2821 120.739L-14.9445 120.739L-14.9445 60.8688L38.2821 60.8689L38.2821 120.739ZM39.2821 60.8689L39.2821 120.739L92.5087 120.739L92.5087 60.8689L39.2821 60.8689ZM39.2821 121.739L39.2821 181.604L92.5087 181.604L92.5087 121.739L39.2821 121.739ZM39.2821 182.604L39.2821 242.472L92.5087 242.472L92.5087 182.604L39.2821 182.604ZM39.2821 243.472L39.2821 303.341L92.5087 303.341L92.5087 243.472L39.2821 243.472ZM39.2821 304.341L39.2821 364.208L92.5087 364.208L92.5087 304.341L39.2821 304.341ZM39.2821 365.208L39.2821 425.077L92.5086 425.077L92.5087 365.208L39.2821 365.208ZM39.2821 426.077L39.2821 485.946L92.5086 485.946L92.5086 426.077L39.2821 426.077ZM39.2821 486.946L39.2821 546.813L92.5086 546.813L92.5086 486.946L39.2821 486.946ZM148.028 546.813L93.5086 546.813L93.5086 486.946L148.028 486.946L148.028 546.813ZM148.028 485.946L93.5086 485.946L93.5086 426.077L148.028 426.077L148.028 485.946ZM148.028 425.077L93.5086 425.077L93.5087 365.208L148.028 365.208L148.028 425.077ZM148.028 364.208L93.5087 364.208L93.5087 304.341L148.028 304.341L148.028 364.208ZM148.028 303.341L93.5087 303.341L93.5087 243.472L148.028 243.472L148.028 303.341ZM148.028 242.472L93.5087 242.472L93.5087 182.604L148.028 182.604L148.028 242.472ZM148.028 181.604L93.5087 181.604L93.5087 121.739L148.028 121.739L148.028 181.604ZM148.028 120.739L93.5087 120.739L93.5087 60.8689L148.028 60.8689L148.028 120.739ZM149.028 60.8689L149.028 120.739L202.259 120.739L202.259 60.8689L149.028 60.8689ZM149.028 121.739L149.028 181.604L202.259 181.604L202.259 121.739L149.028 121.739ZM149.028 182.604L149.028 242.472L202.259 242.472L202.259 182.604L149.028 182.604ZM149.028 243.472L149.028 303.341L202.259 303.341L202.259 243.472L149.028 243.472ZM149.028 304.341L149.028 364.208L202.259 364.208L202.259 304.341L149.028 304.341ZM149.028 365.208L149.028 425.077L202.259 425.077L202.259 365.208L149.028 365.208ZM149.028 426.077L149.028 485.946L202.259 485.946L202.259 426.077L149.028 426.077ZM149.028 486.946L149.028 546.813L202.259 546.813L202.259 486.946L149.028 486.946ZM257.774 546.813L203.259 546.813L203.259 486.946L257.774 486.946L257.774 546.813ZM257.774 485.946L203.259 485.946L203.259 426.077L257.774 426.077L257.774 485.946ZM257.774 425.077L203.259 425.077L203.259 365.208L257.774 365.208L257.774 425.077ZM257.774 364.208L203.259 364.208L203.259 304.341L257.774 304.341L257.774 364.208ZM257.774 303.341L203.259 303.341L203.259 243.472L257.774 243.472L257.774 303.341ZM257.774 242.472L203.259 242.472L203.259 182.604L257.774 182.605L257.774 242.472ZM257.774 181.605L203.259 181.604L203.259 121.739L257.774 121.739L257.774 181.605ZM257.774 120.739L203.259 120.739L203.259 60.8689L257.774 60.8689L257.774 120.739ZM258.774 60.8689L258.774 120.739L312.005 120.739L312.005 60.8689L258.774 60.8689ZM258.774 121.739L258.774 181.605L312.005 181.605L312.005 121.739L258.774 121.739ZM258.774 182.605L258.774 242.472L312.005 242.472L312.005 182.605L258.774 182.605ZM258.774 243.472L258.774 303.341L312.005 303.341L312.005 243.472L258.774 243.472ZM258.774 304.341L258.774 364.208L312.005 364.208L312.005 304.341L258.774 304.341ZM258.774 365.208L258.774 425.077L312.005 425.077L312.005 365.208L258.774 365.208ZM258.774 426.077L258.774 485.946L312.005 485.946L312.005 426.077L258.774 426.077ZM258.774 486.946L258.774 546.813L312.005 546.813L312.005 486.946L258.774 486.946ZM367.524 546.813L313.005 546.813L313.005 486.946L367.524 486.946L367.524 546.813ZM367.524 485.946L313.005 485.946L313.005 426.077L367.524 426.077L367.524 485.946ZM367.524 425.077L313.005 425.077L313.005 365.208L367.524 365.208L367.524 425.077ZM367.524 364.208L313.005 364.208L313.005 304.341L367.524 304.341L367.524 364.208ZM367.524 303.341L313.005 303.341L313.005 243.472L367.524 243.472L367.524 303.341ZM367.524 242.472L313.005 242.472L313.005 182.605L367.524 182.605L367.524 242.472ZM367.524 181.605L313.005 181.605L313.005 121.739L367.524 121.739L367.524 181.605ZM367.524 120.739L313.005 120.739L313.005 60.8689L367.524 60.8689L367.524 120.739ZM368.524 60.8689L368.524 120.739L421.751 120.739L421.751 60.8689L368.524 60.8689ZM368.524 121.739L368.524 181.605L421.751 181.605L421.751 121.739L368.524 121.739ZM368.524 182.605L368.524 242.472L421.751 242.472L421.751 182.605L368.524 182.605ZM368.524 243.472L368.524 303.341L421.751 303.341L421.751 243.472L368.524 243.472ZM368.524 304.341L368.524 364.208L421.751 364.208L421.751 304.341L368.524 304.341ZM368.524 365.208L368.524 425.077L421.751 425.077L421.751 365.208L368.524 365.208ZM368.524 426.077L368.524 485.946L421.751 485.946L421.751 426.077L368.524 426.077ZM368.524 486.946L368.524 546.813L421.751 546.813L421.751 486.946L368.524 486.946ZM475.977 546.813L422.751 546.813L422.751 486.946L475.977 486.946L475.977 546.813ZM475.977 485.946L422.751 485.946L422.751 426.077L475.977 426.077L475.977 485.946ZM475.977 425.077L422.751 425.077L422.751 365.208L475.977 365.208L475.977 425.077ZM475.977 364.208L422.751 364.208L422.751 304.341L475.977 304.341L475.977 364.208ZM475.977 303.341L422.751 303.341L422.751 243.472L475.977 243.472L475.977 303.341ZM475.977 242.472L422.751 242.472L422.751 182.605L475.977 182.605L475.977 242.472ZM475.977 181.605L422.751 181.605L422.751 121.739L475.977 121.739L475.977 181.605ZM475.977 120.739L422.751 120.739L422.751 60.8689L475.977 60.8689L475.977 120.739ZM476.977 60.8689L476.977 120.739L531.497 120.739L531.497 60.8689L476.977 60.8689ZM476.977 121.739L476.977 181.605L531.497 181.605L531.497 121.739L476.977 121.739ZM476.977 182.605L476.977 242.472L531.497 242.472L531.497 182.605L476.977 182.605ZM476.977 243.472L476.977 303.341L531.497 303.341L531.497 243.472L476.977 243.472ZM476.977 304.341L476.977 364.208L531.497 364.208L531.497 304.341L476.977 304.341ZM476.977 365.208L476.977 425.077L531.497 425.077L531.497 365.208L476.977 365.208ZM476.977 426.077L476.977 485.946L531.497 485.946L531.497 426.077L476.977 426.077ZM476.977 486.946L476.977 546.813L531.497 546.813L531.497 486.946L476.977 486.946ZM585.723 546.813L532.497 546.813L532.497 486.946L585.723 486.946L585.723 546.813ZM585.723 485.946L532.497 485.946L532.497 426.077L585.723 426.077L585.723 485.946ZM585.723 425.077L532.497 425.077L532.497 365.208L585.723 365.208L585.723 425.077ZM585.723 364.208L532.497 364.208L532.497 304.341L585.723 304.341L585.723 364.208ZM585.723 303.341L532.497 303.341L532.497 243.472L585.724 243.472L585.723 303.341ZM585.724 242.472L532.497 242.472L532.497 182.605L585.724 182.605L585.724 242.472ZM585.724 181.605L532.497 181.605L532.497 121.739L585.724 121.739L585.724 181.605ZM585.724 120.739L532.497 120.739L532.497 60.8689L585.724 60.8689L585.724 120.739ZM586.724 60.8689L586.724 120.739L641.243 120.739L641.243 60.8689L586.724 60.8689ZM586.724 121.739L586.724 181.605L641.243 181.605L641.243 121.739L586.724 121.739ZM586.724 182.605L586.724 242.472L641.243 242.472L641.243 182.605L586.724 182.605ZM586.724 243.472L586.723 303.341L641.243 303.341L641.243 243.472L586.724 243.472ZM586.723 304.341L586.723 364.208L641.243 364.208L641.243 304.341L586.723 304.341ZM586.723 365.208L586.723 425.077L641.243 425.077L641.243 365.208L586.723 365.208ZM586.723 426.077L586.723 485.946L641.243 485.946L641.243 426.077L586.723 426.077ZM586.723 486.946L586.723 546.813L641.243 546.813L641.243 486.946L586.723 486.946ZM695.47 546.813L642.243 546.813L642.243 486.946L695.47 486.946L695.47 546.813ZM695.47 485.946L642.243 485.946L642.243 426.077L695.47 426.077L695.47 485.946ZM695.47 425.077L642.243 425.077L642.243 365.208L695.47 365.208L695.47 425.077ZM695.47 364.208L642.243 364.208L642.243 304.341L695.47 304.341L695.47 364.208ZM695.47 303.341L642.243 303.341L642.243 243.472L695.47 243.472L695.47 303.341ZM695.47 242.472L642.243 242.472L642.243 182.605L695.47 182.605L695.47 242.472ZM695.47 181.605L642.243 181.605L642.243 121.739L695.47 121.739L695.47 181.605ZM695.47 120.739L642.243 120.739L642.243 60.8689L695.47 60.8689L695.47 120.739ZM696.47 60.8689L696.47 120.739L750.989 120.739L750.989 60.8689L696.47 60.8689ZM696.47 121.739L696.47 181.605L750.989 181.605L750.989 121.739L696.47 121.739ZM696.47 182.605L696.47 242.472L750.989 242.472L750.989 182.605L696.47 182.605ZM696.47 243.472L696.47 303.341L750.989 303.341L750.989 243.472L696.47 243.472ZM696.47 304.341L696.47 364.208L750.989 364.208L750.989 304.341L696.47 304.341ZM696.47 365.208L696.47 425.077L750.989 425.077L750.989 365.208L696.47 365.208ZM696.47 426.077L696.47 485.946L750.989 485.946L750.989 426.077L696.47 426.077ZM696.47 486.946L696.47 546.813L750.989 546.814L750.989 486.946L696.47 486.946ZM805.22 546.814L751.989 546.814L751.989 486.946L805.22 486.946L805.22 546.814ZM805.22 485.946L751.989 485.946L751.989 426.077L805.22 426.077L805.22 485.946ZM805.22 425.077L751.989 425.077L751.989 365.208L805.22 365.208L805.22 425.077ZM805.22 364.208L751.989 364.208L751.989 304.341L805.22 304.341L805.22 364.208ZM805.22 303.341L751.989 303.341L751.989 243.472L805.22 243.472L805.22 303.341ZM805.22 242.472L751.989 242.472L751.989 182.605L805.22 182.605L805.22 242.472ZM805.22 181.605L751.989 181.605L751.989 121.739L805.22 121.739L805.22 181.605ZM805.22 120.739L751.989 120.739L751.989 60.8689L805.22 60.8689L805.22 120.739ZM806.22 60.8689L806.22 120.739L859.446 120.739L859.446 60.8689L806.22 60.8689ZM806.22 121.739L806.22 181.605L859.446 181.605L859.446 121.739L806.22 121.739ZM806.22 182.605L806.22 242.472L859.446 242.472L859.446 182.605L806.22 182.605ZM806.22 243.472L806.22 303.341L859.446 303.341L859.446 243.472L806.22 243.472ZM806.22 304.341L806.22 364.208L859.446 364.208L859.446 304.341L806.22 304.341ZM806.22 365.208L806.22 425.077L859.446 425.077L859.446 365.208L806.22 365.208ZM806.22 426.077L806.22 485.946L859.446 485.946L859.446 426.077L806.22 426.077ZM806.22 486.946L806.22 546.814L859.446 546.814L859.446 486.946L806.22 486.946ZM914.966 546.814L860.446 546.814L860.446 486.946L914.966 486.946L914.966 546.814ZM914.966 485.946L860.446 485.946L860.446 426.077L914.966 426.077L914.966 485.946ZM914.966 425.077L860.446 425.077L860.446 365.208L914.966 365.208L914.966 425.077ZM914.966 364.208L860.446 364.208L860.446 304.341L914.966 304.341L914.966 364.208ZM914.966 303.341L860.446 303.341L860.446 243.472L914.966 243.472L914.966 303.341ZM914.966 242.472L860.446 242.472L860.446 182.605L914.966 182.605L914.966 242.472ZM914.966 181.605L860.446 181.605L860.446 121.739L914.966 121.739L914.966 181.605ZM914.966 120.739L860.446 120.739L860.446 60.8689L914.966 60.8689L914.966 120.739ZM915.966 60.8689L915.966 120.739L969.192 120.739L969.192 60.8689L915.966 60.8689ZM915.966 121.739L915.966 181.605L969.192 181.605L969.192 121.739L915.966 121.739ZM915.966 182.605L915.966 242.472L969.192 242.472L969.192 182.605L915.966 182.605ZM915.966 243.472L915.966 303.341L969.192 303.341L969.192 243.472L915.966 243.472ZM915.966 304.341L915.966 364.208L969.192 364.208L969.192 304.341L915.966 304.341ZM915.966 365.208L915.966 425.077L969.192 425.077L969.192 365.208L915.966 365.208ZM915.966 426.077L915.966 485.946L969.192 485.946L969.192 426.077L915.966 426.077ZM915.966 486.946L915.966 546.814L969.192 546.814L969.192 486.946L915.966 486.946ZM1024.71 546.814L970.192 546.814L970.192 486.946L1024.71 486.946L1024.71 546.814ZM1024.71 485.946L970.192 485.946L970.192 426.077L1024.71 426.077L1024.71 485.946ZM1024.71 425.077L970.192 425.077L970.192 365.208L1024.71 365.208L1024.71 425.077ZM1024.71 364.208L970.192 364.208L970.192 304.341L1024.71 304.341L1024.71 364.208ZM1024.71 303.341L970.192 303.341L970.192 243.472L1024.71 243.472L1024.71 303.341ZM1024.71 242.472L970.192 242.472L970.192 182.605L1024.71 182.605L1024.71 242.472ZM1024.71 181.605L970.192 181.605L970.192 121.739L1024.71 121.739L1024.71 181.605ZM1024.71 120.739L970.192 120.739L970.192 60.8689L1024.71 60.8689L1024.71 120.739ZM1025.71 60.8689L1025.71 120.739L1078.94 120.739L1078.94 60.8689L1025.71 60.8689ZM1025.71 121.739L1025.71 181.605L1078.94 181.605L1078.94 121.739L1025.71 121.739ZM1025.71 182.605L1025.71 242.472L1078.94 242.472L1078.94 182.605L1025.71 182.605ZM1025.71 243.472L1025.71 303.341L1078.94 303.341L1078.94 243.472L1025.71 243.472ZM1025.71 304.341L1025.71 364.208L1078.94 364.208L1078.94 304.341L1025.71 304.341ZM1025.71 365.208L1025.71 425.077L1078.94 425.077L1078.94 365.208L1025.71 365.208ZM1025.71 426.077L1025.71 485.946L1078.94 485.946L1078.94 426.077L1025.71 426.077ZM1025.71 486.946L1025.71 546.814L1078.94 546.814L1078.94 486.946L1025.71 486.946ZM1134.46 546.814L1079.94 546.814L1079.94 486.946L1134.46 486.946L1134.46 546.814ZM1134.46 485.946L1079.94 485.946L1079.94 426.077L1134.46 426.077L1134.46 485.946ZM1134.46 425.077L1079.94 425.077L1079.94 365.208L1134.46 365.208L1134.46 425.077ZM1134.46 364.208L1079.94 364.208L1079.94 304.341L1134.46 304.341L1134.46 364.208ZM1134.46 303.341L1079.94 303.341L1079.94 243.472L1134.46 243.472L1134.46 303.341ZM1134.46 242.472L1079.94 242.472L1079.94 182.605L1134.46 182.605L1134.46 242.472ZM1134.46 181.605L1079.94 181.605L1079.94 121.739L1134.46 121.739L1134.46 181.605ZM1134.46 120.739L1079.94 120.739L1079.94 60.8689L1134.46 60.8689L1134.46 120.739ZM1135.46 60.8689L1135.46 120.739L1188.68 120.739L1188.68 60.8689L1135.46 60.8689ZM1135.46 121.739L1135.46 181.605L1188.68 181.605L1188.68 121.739L1135.46 121.739ZM1135.46 182.605L1135.46 242.472L1188.68 242.472L1188.68 182.605L1135.46 182.605ZM1135.46 243.472L1135.46 303.341L1188.68 303.341L1188.68 243.472L1135.46 243.472ZM1135.46 304.341L1135.46 364.208L1188.68 364.208L1188.68 304.341L1135.46 304.341ZM1135.46 365.208L1135.46 425.077L1188.68 425.077L1188.68 365.208L1135.46 365.208ZM1135.46 426.077L1135.46 485.946L1188.68 485.946L1188.68 426.077L1135.46 426.077ZM1135.46 486.946L1135.46 546.814L1188.68 546.814L1188.68 486.946L1135.46 486.946ZM1242.91 546.814L1189.68 546.814L1189.68 486.946L1242.91 486.946L1242.91 546.814ZM1242.91 485.946L1189.68 485.946L1189.68 426.077L1242.91 426.077L1242.91 485.946ZM1242.91 425.077L1189.68 425.077L1189.68 365.208L1242.91 365.208L1242.91 425.077ZM1242.91 364.208L1189.68 364.208L1189.68 304.341L1242.91 304.341L1242.91 364.208ZM1242.91 303.341L1189.68 303.341L1189.68 243.472L1242.91 243.472L1242.91 303.341ZM1242.91 242.472L1189.68 242.472L1189.68 182.605L1242.91 182.605L1242.91 242.472ZM1242.91 181.605L1189.68 181.605L1189.68 121.739L1242.91 121.739L1242.91 181.605ZM1242.91 120.739L1189.68 120.739L1189.68 60.8689L1242.91 60.869L1242.91 120.739ZM1243.91 60.869L1243.91 120.739L1298.43 120.739L1298.43 60.869L1243.91 60.869ZM1243.91 121.739L1243.91 181.605L1298.43 181.605L1298.43 121.739L1243.91 121.739ZM1243.91 182.605L1243.91 242.472L1298.43 242.472L1298.43 182.605L1243.91 182.605ZM1243.91 243.472L1243.91 303.341L1298.43 303.341L1298.43 243.472L1243.91 243.472ZM1243.91 304.341L1243.91 364.208L1298.43 364.208L1298.43 304.341L1243.91 304.341ZM1243.91 365.208L1243.91 425.077L1298.43 425.077L1298.43 365.208L1243.91 365.208ZM1243.91 426.077L1243.91 485.946L1298.43 485.946L1298.43 426.077L1243.91 426.077ZM1243.91 486.946L1243.91 546.814L1298.43 546.814L1298.43 486.946L1243.91 486.946ZM1352.66 546.814L1299.43 546.814L1299.43 486.946L1352.66 486.946L1352.66 546.814ZM1352.66 485.946L1299.43 485.946L1299.43 426.077L1352.66 426.077L1352.66 485.946ZM1352.66 425.077L1299.43 425.077L1299.43 365.208L1352.66 365.208L1352.66 425.077ZM1352.66 364.208L1299.43 364.208L1299.43 304.341L1352.66 304.341L1352.66 364.208ZM1352.66 303.341L1299.43 303.341L1299.43 243.472L1352.66 243.472L1352.66 303.341ZM1352.66 242.472L1299.43 242.472L1299.43 182.605L1352.66 182.605L1352.66 242.472ZM1352.66 181.605L1299.43 181.605L1299.43 121.739L1352.66 121.739L1352.66 181.605ZM1352.66 120.739L1299.43 120.739L1299.43 60.869L1352.66 60.869L1352.66 120.739ZM1353.66 60.869L1353.66 120.739L1408.18 120.739L1408.18 60.869L1353.66 60.869ZM1353.66 121.739L1353.66 181.605L1408.18 181.605L1408.18 121.739L1353.66 121.739ZM1353.66 182.605L1353.66 242.472L1408.18 242.472L1408.18 182.605L1353.66 182.605ZM1353.66 243.472L1353.66 303.341L1408.18 303.341L1408.18 243.472L1353.66 243.472ZM1353.66 304.341L1353.66 364.208L1408.18 364.208L1408.18 304.341L1353.66 304.341ZM1353.66 365.208L1353.66 425.077L1408.18 425.077L1408.18 365.208L1353.66 365.208ZM1353.66 426.077L1353.66 485.946L1408.18 485.946L1408.18 426.077L1353.66 426.077ZM1353.66 486.946L1353.66 546.814L1408.18 546.814L1408.18 486.946L1353.66 486.946ZM1462.41 546.814L1409.18 546.814L1409.18 486.946L1462.41 486.946L1462.41 546.814ZM1462.41 485.946L1409.18 485.946L1409.18 426.077L1462.41 426.077L1462.41 485.946ZM1462.41 425.077L1409.18 425.077L1409.18 365.208L1462.41 365.208L1462.41 425.077ZM1462.41 364.208L1409.18 364.208L1409.18 304.341L1462.41 304.341L1462.41 364.208ZM1462.41 303.341L1409.18 303.341L1409.18 243.472L1462.41 243.472L1462.41 303.341ZM1462.41 242.472L1409.18 242.472L1409.18 182.605L1462.41 182.605L1462.41 242.472ZM1462.41 181.605L1409.18 181.605L1409.18 121.739L1462.41 121.739L1462.41 181.605ZM1462.41 120.739L1409.18 120.739L1409.18 60.869L1462.41 60.869L1462.41 120.739ZM1463.41 60.869L1463.41 120.739L1517.93 120.739L1517.93 60.869L1463.41 60.869ZM1463.41 121.739L1463.41 181.605L1517.93 181.605L1517.93 121.739L1463.41 121.739ZM1463.41 182.605L1463.41 242.472L1517.93 242.472L1517.93 182.605L1463.41 182.605ZM1463.41 243.472L1463.41 303.341L1517.93 303.341L1517.93 243.472L1463.41 243.472ZM1463.41 304.341L1463.41 364.208L1517.93 364.208L1517.93 304.341L1463.41 304.341ZM1463.41 365.208L1463.41 425.077L1517.93 425.077L1517.93 365.208L1463.41 365.208ZM1463.41 426.077L1463.41 485.946L1517.93 485.946L1517.93 426.077L1463.41 426.077ZM1463.41 486.946L1463.41 546.814L1517.93 546.814L1517.93 486.946L1463.41 486.946Z" fill="url(#paint0_linear_1087_3677)"/>
</g>
</g>
<defs>
<linearGradient id="paint0_linear_1087_3677" x1="646.152" y1="-5.49992" x2="646.152" y2="631" gradientUnits="userSpaceOnUse">
<stop stop-color="white" stop-opacity="0"/>
<stop offset="0.488761" stop-color="white" stop-opacity="0.88"/>
<stop offset="1" stop-color="white" stop-opacity="0"/>
</linearGradient>
</defs>
</svg>
