<svg width="1440" height="404" viewBox="0 0 1440 404" fill="none" xmlns="http://www.w3.org/2000/svg">
<g opacity="0.2">
<path fill-rule="evenodd" clip-rule="evenodd" d="M1572.15 -147.133L1518.93 -147.133L1518.93 -87.2616L1572.15 -87.2616L1572.15 -86.2616L1518.93 -86.2616L1518.93 -26.3963L1572.15 -26.3963L1572.15 -25.3963L1518.93 -25.3963L1518.93 34.4709L1572.15 34.4709L1572.15 35.4709L1518.93 35.4709L1518.93 95.34L1572.15 95.34L1572.15 96.34L1518.93 96.34L1518.93 156.207L1572.15 156.207L1572.15 157.207L1518.93 157.207L1518.93 217.076L1572.15 217.076L1572.15 218.076L1518.93 218.076L1518.93 277.945L1572.15 277.945L1572.15 278.945L1518.93 278.945L1518.93 338.813L1572.15 338.813L1572.15 339.813L1518.93 339.813L1518.93 403.999L1517.93 403.999L1517.93 339.813L1463.41 339.813L1463.41 403.999L1462.41 403.999L1462.41 339.813L1409.18 339.813L1409.18 403.999L1408.18 403.999L1408.18 339.813L1353.66 339.813L1353.66 403.999L1352.66 403.999L1352.66 339.813L1299.43 339.813L1299.43 403.999L1298.43 403.999L1298.43 339.813L1243.91 339.813L1243.91 403.999L1242.91 403.999L1242.91 339.813L1189.68 339.813L1189.68 403.999L1188.68 403.999L1188.68 339.813L1135.46 339.813L1135.46 403.999L1134.46 403.999L1134.46 339.813L1079.94 339.813L1079.94 403.999L1078.94 403.999L1078.94 339.813L1025.71 339.813L1025.71 403.999L1024.71 403.999L1024.71 339.813L970.192 339.813L970.192 403.999L969.192 403.999L969.192 339.813L915.966 339.813L915.966 403.999L914.966 403.999L914.966 339.813L860.446 339.813L860.446 403.999L859.446 403.999L859.446 339.813L806.218 339.813L806.218 403.999L805.218 403.999L805.218 339.813L751.989 339.813L751.989 403.999L750.989 403.999L750.989 339.813L696.47 339.813L696.47 403.999L695.47 403.999L695.47 339.813L642.243 339.813L642.243 403.999L641.243 403.999L641.243 339.813L586.723 339.813L586.723 403.999L585.723 403.999L585.723 339.813L532.497 339.813L532.497 403.999L531.497 403.999L531.497 339.813L476.977 339.813L476.977 403.999L475.977 403.999L475.977 339.813L422.749 339.813L422.749 403.999L421.749 403.999L421.749 339.813L368.522 339.813L368.522 403.999L367.522 403.999L367.522 339.813L313.003 339.813L313.003 403.999L312.003 403.999L312.003 339.813L258.774 339.813L258.774 403.999L257.774 403.999L257.774 339.813L203.257 339.813L203.257 403.999L202.257 403.999L202.257 339.813L149.028 339.813L149.028 403.999L148.028 403.999L148.028 339.813L93.5086 339.813L93.5086 403.999L92.5086 403.999L92.5086 339.813L39.2821 339.813L39.2821 403.999L38.2821 403.999L38.2821 339.813L-14.9464 339.813L-14.9464 403.999L-15.9464 403.999L-15.9464 339.813L-70.466 339.813L-70.466 403.999L-71.466 403.999L-71.466 339.813L-132.15 339.812L-132.15 338.812L-71.466 338.813L-71.466 278.945L-132.15 278.945L-132.15 277.945L-71.466 277.945L-71.466 218.076L-132.15 218.076L-132.15 217.076L-71.466 217.076L-71.466 157.207L-132.15 157.207L-132.15 156.207L-71.466 156.207L-71.466 96.3399L-132.15 96.3398L-132.15 95.3398L-71.466 95.3399L-71.466 35.4707L-132.15 35.4707L-132.15 34.4707L-71.466 34.4707L-71.466 -25.3965L-132.15 -25.3965L-132.15 -26.3965L-71.466 -26.3965L-71.4659 -86.2617L-132.15 -86.2617L-132.15 -87.2617L-71.4659 -87.2617L-71.4659 -147.133L-132.15 -147.133L-132.15 -148.133L-71.4659 -148.133L-71.4659 -208L-70.4659 -208L-70.4659 -148.133L-15.9464 -148.133L-15.9464 -208L-14.9464 -208L-14.9464 -148.133L38.2821 -148.133L38.2821 -208L39.2821 -208L39.2821 -148.133L92.5087 -148.133L92.5087 -208L93.5087 -208L93.5087 -148.133L148.028 -148.133L148.028 -208L149.028 -208L149.028 -148.133L202.257 -148.133L202.257 -208L203.257 -208L203.257 -148.133L257.774 -148.133L257.774 -208L258.774 -208L258.774 -148.133L312.003 -148.133L312.003 -208L313.003 -208L313.003 -148.133L367.522 -148.133L367.522 -208L368.522 -208L368.522 -148.133L421.749 -148.133L421.749 -208L422.749 -208L422.749 -148.133L475.977 -148.133L475.977 -208L476.977 -208L476.977 -148.133L531.497 -148.133L531.497 -208L532.497 -208L532.497 -148.133L585.724 -148.133L585.724 -208L586.724 -208L586.724 -148.133L641.243 -148.133L641.243 -208L642.243 -208L642.243 -148.133L695.47 -148.133L695.47 -208L696.47 -208L696.47 -148.133L750.989 -148.133L750.989 -208L751.989 -208L751.989 -148.133L805.218 -148.133L805.218 -208L806.218 -208L806.218 -148.133L859.446 -148.133L859.446 -208L860.446 -208L860.446 -148.133L914.966 -148.133L914.966 -208L915.966 -208L915.966 -148.133L969.192 -148.133L969.192 -208L970.192 -208L970.192 -148.133L1024.71 -148.133L1024.71 -208L1025.71 -208L1025.71 -148.133L1078.94 -148.133L1078.94 -208L1079.94 -208L1079.94 -148.133L1134.46 -148.133L1134.46 -208L1135.46 -208L1135.46 -148.133L1188.68 -148.133L1188.68 -208L1189.68 -208L1189.68 -148.133L1242.91 -148.133L1242.91 -208L1243.91 -208L1243.91 -148.133L1298.43 -148.133L1298.43 -208L1299.43 -208L1299.43 -148.133L1352.66 -148.133L1352.66 -208L1353.66 -208L1353.66 -148.133L1408.18 -148.133L1408.18 -208L1409.18 -208L1409.18 -148.133L1462.41 -148.133L1462.41 -208L1463.41 -208L1463.41 -148.133L1517.93 -148.133L1517.93 -208L1518.93 -208L1518.93 -148.133L1572.15 -148.133L1572.15 -147.133ZM-70.4659 -147.133L-70.4659 -87.2617L-15.9464 -87.2617L-15.9464 -147.133L-70.4659 -147.133ZM-70.4659 -86.2617L-70.466 -26.3965L-15.9464 -26.3965L-15.9464 -86.2617L-70.4659 -86.2617ZM-70.466 -25.3965L-70.466 34.4707L-15.9464 34.4707L-15.9464 -25.3965L-70.466 -25.3965ZM-70.466 35.4707L-70.466 95.3399L-15.9464 95.3399L-15.9464 35.4707L-70.466 35.4707ZM-70.466 96.3399L-70.466 156.207L-15.9464 156.207L-15.9464 96.3399L-70.466 96.3399ZM-70.466 157.207L-70.466 217.076L-15.9464 217.076L-15.9464 157.207L-70.466 157.207ZM-70.466 218.076L-70.466 277.945L-15.9464 277.945L-15.9464 218.076L-70.466 218.076ZM-70.466 278.945L-70.466 338.813L-15.9464 338.813L-15.9464 278.945L-70.466 278.945ZM38.2821 338.813L-14.9464 338.813L-14.9464 278.945L38.2821 278.945L38.2821 338.813ZM38.2821 277.945L-14.9464 277.945L-14.9464 218.076L38.2821 218.076L38.2821 277.945ZM38.2821 217.076L-14.9464 217.076L-14.9464 157.207L38.2821 157.207L38.2821 217.076ZM38.2821 156.207L-14.9464 156.207L-14.9464 96.3399L38.2821 96.3399L38.2821 156.207ZM38.2821 95.3399L-14.9464 95.3399L-14.9464 35.4707L38.2821 35.4707L38.2821 95.3399ZM38.2821 34.4707L-14.9464 34.4707L-14.9464 -25.3965L38.2821 -25.3964L38.2821 34.4707ZM38.2821 -26.3964L-14.9464 -26.3965L-14.9464 -86.2617L38.2821 -86.2617L38.2821 -26.3964ZM38.2821 -87.2617L-14.9464 -87.2617L-14.9464 -147.133L38.2821 -147.133L38.2821 -87.2617ZM39.2821 -147.133L39.2821 -87.2617L92.5087 -87.2617L92.5087 -147.133L39.2821 -147.133ZM39.2821 -86.2617L39.2821 -26.3964L92.5087 -26.3964L92.5087 -86.2617L39.2821 -86.2617ZM39.2821 -25.3964L39.2821 34.4707L92.5087 34.4707L92.5087 -25.3964L39.2821 -25.3964ZM39.2821 35.4707L39.2821 95.3399L92.5087 95.3399L92.5087 35.4707L39.2821 35.4707ZM39.2821 96.3399L39.2821 156.207L92.5087 156.207L92.5087 96.3399L39.2821 96.3399ZM39.2821 157.207L39.2821 217.076L92.5086 217.076L92.5087 157.207L39.2821 157.207ZM39.2821 218.076L39.2821 277.945L92.5086 277.945L92.5086 218.076L39.2821 218.076ZM39.2821 278.945L39.2821 338.813L92.5086 338.813L92.5086 278.945L39.2821 278.945ZM148.028 338.813L93.5086 338.813L93.5086 278.945L148.028 278.945L148.028 338.813ZM148.028 277.945L93.5086 277.945L93.5086 218.076L148.028 218.076L148.028 277.945ZM148.028 217.076L93.5086 217.076L93.5087 157.207L148.028 157.207L148.028 217.076ZM148.028 156.207L93.5087 156.207L93.5087 96.3399L148.028 96.3399L148.028 156.207ZM148.028 95.3399L93.5087 95.3399L93.5087 35.4707L148.028 35.4708L148.028 95.3399ZM148.028 34.4708L93.5087 34.4707L93.5087 -25.3964L148.028 -25.3964L148.028 34.4708ZM148.028 -26.3964L93.5087 -26.3964L93.5087 -86.2617L148.028 -86.2617L148.028 -26.3964ZM148.028 -87.2617L93.5087 -87.2617L93.5087 -147.133L148.028 -147.133L148.028 -87.2617ZM149.028 -147.133L149.028 -87.2617L202.257 -87.2617L202.257 -147.133L149.028 -147.133ZM149.028 -86.2617L149.028 -26.3964L202.257 -26.3964L202.257 -86.2617L149.028 -86.2617ZM149.028 -25.3964L149.028 34.4708L202.257 34.4708L202.257 -25.3964L149.028 -25.3964ZM149.028 35.4708L149.028 95.3399L202.257 95.3399L202.257 35.4708L149.028 35.4708ZM149.028 96.3399L149.028 156.207L202.257 156.207L202.257 96.3399L149.028 96.3399ZM149.028 157.207L149.028 217.076L202.257 217.076L202.257 157.207L149.028 157.207ZM149.028 218.076L149.028 277.945L202.257 277.945L202.257 218.076L149.028 218.076ZM149.028 278.945L149.028 338.813L202.257 338.813L202.257 278.945L149.028 278.945ZM257.774 338.813L203.257 338.813L203.257 278.945L257.774 278.945L257.774 338.813ZM257.774 277.945L203.257 277.945L203.257 218.076L257.774 218.076L257.774 277.945ZM257.774 217.076L203.257 217.076L203.257 157.207L257.774 157.207L257.774 217.076ZM257.774 156.207L203.257 156.207L203.257 96.3399L257.774 96.3399L257.774 156.207ZM257.774 95.3399L203.257 95.3399L203.257 35.4708L257.774 35.4708L257.774 95.3399ZM257.774 34.4708L203.257 34.4708L203.257 -25.3964L257.774 -25.3964L257.774 34.4708ZM257.774 -26.3964L203.257 -26.3964L203.257 -86.2617L257.774 -86.2617L257.774 -26.3964ZM257.774 -87.2617L203.257 -87.2617L203.257 -147.133L257.774 -147.133L257.774 -87.2617ZM258.774 -147.133L258.774 -87.2617L312.003 -87.2617L312.003 -147.133L258.774 -147.133ZM258.774 -86.2617L258.774 -26.3964L312.003 -26.3964L312.003 -86.2617L258.774 -86.2617ZM258.774 -25.3964L258.774 34.4708L312.003 34.4708L312.003 -25.3964L258.774 -25.3964ZM258.774 35.4708L258.774 95.3399L312.003 95.3399L312.003 35.4708L258.774 35.4708ZM258.774 96.3399L258.774 156.207L312.003 156.207L312.003 96.3399L258.774 96.3399ZM258.774 157.207L258.774 217.076L312.003 217.076L312.003 157.207L258.774 157.207ZM258.774 218.076L258.774 277.945L312.003 277.945L312.003 218.076L258.774 218.076ZM258.774 278.945L258.774 338.813L312.003 338.813L312.003 278.945L258.774 278.945ZM367.522 338.813L313.003 338.813L313.003 278.945L367.522 278.945L367.522 338.813ZM367.522 277.945L313.003 277.945L313.003 218.076L367.522 218.076L367.522 277.945ZM367.522 217.076L313.003 217.076L313.003 157.207L367.522 157.207L367.522 217.076ZM367.522 156.207L313.003 156.207L313.003 96.3399L367.522 96.3399L367.522 156.207ZM367.522 95.3399L313.003 95.3399L313.003 35.4708L367.522 35.4708L367.522 95.3399ZM367.522 34.4708L313.003 34.4708L313.003 -25.3964L367.522 -25.3964L367.522 34.4708ZM367.522 -26.3964L313.003 -26.3964L313.003 -86.2617L367.522 -86.2617L367.522 -26.3964ZM367.522 -87.2617L313.003 -87.2617L313.003 -147.133L367.522 -147.133L367.522 -87.2617ZM368.522 -147.133L368.522 -87.2617L421.749 -87.2617L421.749 -147.133L368.522 -147.133ZM368.522 -86.2617L368.522 -26.3964L421.749 -26.3964L421.749 -86.2617L368.522 -86.2617ZM368.522 -25.3964L368.522 34.4708L421.749 34.4708L421.749 -25.3964L368.522 -25.3964ZM368.522 35.4708L368.522 95.3399L421.749 95.3399L421.749 35.4708L368.522 35.4708ZM368.522 96.3399L368.522 156.207L421.749 156.207L421.749 96.3399L368.522 96.3399ZM368.522 157.207L368.522 217.076L421.749 217.076L421.749 157.207L368.522 157.207ZM368.522 218.076L368.522 277.945L421.749 277.945L421.749 218.076L368.522 218.076ZM368.522 278.945L368.522 338.813L421.749 338.813L421.749 278.945L368.522 278.945ZM475.977 338.813L422.749 338.813L422.749 278.945L475.977 278.945L475.977 338.813ZM475.977 277.945L422.749 277.945L422.749 218.076L475.977 218.076L475.977 277.945ZM475.977 217.076L422.749 217.076L422.749 157.207L475.977 157.207L475.977 217.076ZM475.977 156.207L422.749 156.207L422.749 96.3399L475.977 96.3399L475.977 156.207ZM475.977 95.3399L422.749 95.3399L422.749 35.4708L475.977 35.4708L475.977 95.3399ZM475.977 34.4708L422.749 34.4708L422.749 -25.3964L475.977 -25.3964L475.977 34.4708ZM475.977 -26.3964L422.749 -26.3964L422.749 -86.2617L475.977 -86.2617L475.977 -26.3964ZM475.977 -87.2617L422.749 -87.2617L422.749 -147.133L475.977 -147.133L475.977 -87.2617ZM476.977 -147.133L476.977 -87.2616L531.497 -87.2616L531.497 -147.133L476.977 -147.133ZM476.977 -86.2616L476.977 -26.3964L531.497 -26.3964L531.497 -86.2616L476.977 -86.2616ZM476.977 -25.3964L476.977 34.4708L531.497 34.4708L531.497 -25.3964L476.977 -25.3964ZM476.977 35.4708L476.977 95.3399L531.497 95.3399L531.497 35.4708L476.977 35.4708ZM476.977 96.3399L476.977 156.207L531.497 156.207L531.497 96.3399L476.977 96.3399ZM476.977 157.207L476.977 217.076L531.497 217.076L531.497 157.207L476.977 157.207ZM476.977 218.076L476.977 277.945L531.497 277.945L531.497 218.076L476.977 218.076ZM476.977 278.945L476.977 338.813L531.497 338.813L531.497 278.945L476.977 278.945ZM585.723 338.813L532.497 338.813L532.497 278.945L585.723 278.945L585.723 338.813ZM585.723 277.945L532.497 277.945L532.497 218.076L585.723 218.076L585.723 277.945ZM585.723 217.076L532.497 217.076L532.497 157.207L585.723 157.207L585.723 217.076ZM585.723 156.207L532.497 156.207L532.497 96.3399L585.723 96.3399L585.723 156.207ZM585.723 95.3399L532.497 95.3399L532.497 35.4708L585.724 35.4708L585.723 95.3399ZM585.724 34.4708L532.497 34.4708L532.497 -25.3964L585.724 -25.3964L585.724 34.4708ZM585.724 -26.3964L532.497 -26.3964L532.497 -86.2616L585.724 -86.2616L585.724 -26.3964ZM585.724 -87.2616L532.497 -87.2616L532.497 -147.133L585.724 -147.133L585.724 -87.2616ZM586.724 -147.133L586.724 -87.2616L641.243 -87.2616L641.243 -147.133L586.724 -147.133ZM586.724 -86.2616L586.724 -26.3964L641.243 -26.3964L641.243 -86.2616L586.724 -86.2616ZM586.724 -25.3964L586.724 34.4708L641.243 34.4708L641.243 -25.3964L586.724 -25.3964ZM586.724 35.4708L586.723 95.3399L641.243 95.3399L641.243 35.4708L586.724 35.4708ZM586.723 96.3399L586.723 156.207L641.243 156.207L641.243 96.3399L586.723 96.3399ZM586.723 157.207L586.723 217.076L641.243 217.076L641.243 157.207L586.723 157.207ZM586.723 218.076L586.723 277.945L641.243 277.945L641.243 218.076L586.723 218.076ZM586.723 278.945L586.723 338.813L641.243 338.813L641.243 278.945L586.723 278.945ZM695.47 338.813L642.243 338.813L642.243 278.945L695.47 278.945L695.47 338.813ZM695.47 277.945L642.243 277.945L642.243 218.076L695.47 218.076L695.47 277.945ZM695.47 217.076L642.243 217.076L642.243 157.207L695.47 157.207L695.47 217.076ZM695.47 156.207L642.243 156.207L642.243 96.3399L695.47 96.3399L695.47 156.207ZM695.47 95.3399L642.243 95.3399L642.243 35.4708L695.47 35.4708L695.47 95.3399ZM695.47 34.4708L642.243 34.4708L642.243 -25.3964L695.47 -25.3964L695.47 34.4708ZM695.47 -26.3964L642.243 -26.3964L642.243 -86.2616L695.47 -86.2616L695.47 -26.3964ZM695.47 -87.2616L642.243 -87.2616L642.243 -147.133L695.47 -147.133L695.47 -87.2616ZM696.47 -147.133L696.47 -87.2616L750.989 -87.2616L750.989 -147.133L696.47 -147.133ZM696.47 -86.2616L696.47 -26.3964L750.989 -26.3964L750.989 -86.2616L696.47 -86.2616ZM696.47 -25.3964L696.47 34.4708L750.989 34.4708L750.989 -25.3964L696.47 -25.3964ZM696.47 35.4708L696.47 95.3399L750.989 95.3399L750.989 35.4708L696.47 35.4708ZM696.47 96.3399L696.47 156.207L750.989 156.207L750.989 96.3399L696.47 96.3399ZM696.47 157.207L696.47 217.076L750.989 217.076L750.989 157.207L696.47 157.207ZM696.47 218.076L696.47 277.945L750.989 277.945L750.989 218.076L696.47 218.076ZM696.47 278.945L696.47 338.813L750.989 338.813L750.989 278.945L696.47 278.945ZM805.218 338.813L751.989 338.813L751.989 278.945L805.218 278.945L805.218 338.813ZM805.218 277.945L751.989 277.945L751.989 218.076L805.218 218.076L805.218 277.945ZM805.218 217.076L751.989 217.076L751.989 157.207L805.218 157.207L805.218 217.076ZM805.218 156.207L751.989 156.207L751.989 96.3399L805.218 96.3399L805.218 156.207ZM805.218 95.3399L751.989 95.3399L751.989 35.4708L805.218 35.4708L805.218 95.3399ZM805.218 34.4708L751.989 34.4708L751.989 -25.3964L805.218 -25.3964L805.218 34.4708ZM805.218 -26.3964L751.989 -26.3964L751.989 -86.2616L805.218 -86.2616L805.218 -26.3964ZM805.218 -87.2616L751.989 -87.2616L751.989 -147.133L805.218 -147.133L805.218 -87.2616ZM806.218 -147.133L806.218 -87.2616L859.446 -87.2616L859.446 -147.133L806.218 -147.133ZM806.218 -86.2616L806.218 -26.3964L859.446 -26.3964L859.446 -86.2616L806.218 -86.2616ZM806.218 -25.3964L806.218 34.4708L859.446 34.4708L859.446 -25.3964L806.218 -25.3964ZM806.218 35.4708L806.218 95.3399L859.446 95.3399L859.446 35.4708L806.218 35.4708ZM806.218 96.3399L806.218 156.207L859.446 156.207L859.446 96.3399L806.218 96.3399ZM806.218 157.207L806.218 217.076L859.446 217.076L859.446 157.207L806.218 157.207ZM806.218 218.076L806.218 277.945L859.446 277.945L859.446 218.076L806.218 218.076ZM806.218 278.945L806.218 338.813L859.446 338.813L859.446 278.945L806.218 278.945ZM914.966 338.813L860.446 338.813L860.446 278.945L914.966 278.945L914.966 338.813ZM914.966 277.945L860.446 277.945L860.446 218.076L914.966 218.076L914.966 277.945ZM914.966 217.076L860.446 217.076L860.446 157.207L914.966 157.207L914.966 217.076ZM914.966 156.207L860.446 156.207L860.446 96.3399L914.966 96.3399L914.966 156.207ZM914.966 95.3399L860.446 95.3399L860.446 35.4708L914.966 35.4708L914.966 95.3399ZM914.966 34.4708L860.446 34.4708L860.446 -25.3964L914.966 -25.3964L914.966 34.4708ZM914.966 -26.3964L860.446 -26.3964L860.446 -86.2616L914.966 -86.2616L914.966 -26.3964ZM914.966 -87.2616L860.446 -87.2616L860.446 -147.133L914.966 -147.133L914.966 -87.2616ZM915.966 -147.133L915.966 -87.2616L969.192 -87.2616L969.192 -147.133L915.966 -147.133ZM915.966 -86.2616L915.966 -26.3964L969.192 -26.3964L969.192 -86.2616L915.966 -86.2616ZM915.966 -25.3964L915.966 34.4708L969.192 34.4708L969.192 -25.3964L915.966 -25.3964ZM915.966 35.4708L915.966 95.3399L969.192 95.3399L969.192 35.4708L915.966 35.4708ZM915.966 96.3399L915.966 156.207L969.192 156.207L969.192 96.3399L915.966 96.3399ZM915.966 157.207L915.966 217.076L969.192 217.076L969.192 157.207L915.966 157.207ZM915.966 218.076L915.966 277.945L969.192 277.945L969.192 218.076L915.966 218.076ZM915.966 278.945L915.966 338.813L969.192 338.813L969.192 278.945L915.966 278.945ZM1024.71 338.813L970.192 338.813L970.192 278.945L1024.71 278.945L1024.71 338.813ZM1024.71 277.945L970.192 277.945L970.192 218.076L1024.71 218.076L1024.71 277.945ZM1024.71 217.076L970.192 217.076L970.192 157.207L1024.71 157.207L1024.71 217.076ZM1024.71 156.207L970.192 156.207L970.192 96.3399L1024.71 96.3399L1024.71 156.207ZM1024.71 95.3399L970.192 95.3399L970.192 35.4708L1024.71 35.4708L1024.71 95.3399ZM1024.71 34.4708L970.192 34.4708L970.192 -25.3964L1024.71 -25.3964L1024.71 34.4708ZM1024.71 -26.3964L970.192 -26.3964L970.192 -86.2616L1024.71 -86.2616L1024.71 -26.3964ZM1024.71 -87.2616L970.192 -87.2616L970.192 -147.133L1024.71 -147.133L1024.71 -87.2616ZM1025.71 -147.133L1025.71 -87.2616L1078.94 -87.2616L1078.94 -147.133L1025.71 -147.133ZM1025.71 -86.2616L1025.71 -26.3964L1078.94 -26.3964L1078.94 -86.2616L1025.71 -86.2616ZM1025.71 -25.3964L1025.71 34.4708L1078.94 34.4708L1078.94 -25.3964L1025.71 -25.3964ZM1025.71 35.4708L1025.71 95.3399L1078.94 95.3399L1078.94 35.4708L1025.71 35.4708ZM1025.71 96.3399L1025.71 156.207L1078.94 156.207L1078.94 96.3399L1025.71 96.3399ZM1025.71 157.207L1025.71 217.076L1078.94 217.076L1078.94 157.207L1025.71 157.207ZM1025.71 218.076L1025.71 277.945L1078.94 277.945L1078.94 218.076L1025.71 218.076ZM1025.71 278.945L1025.71 338.813L1078.94 338.813L1078.94 278.945L1025.71 278.945ZM1134.46 338.813L1079.94 338.813L1079.94 278.945L1134.46 278.945L1134.46 338.813ZM1134.46 277.945L1079.94 277.945L1079.94 218.076L1134.46 218.076L1134.46 277.945ZM1134.46 217.076L1079.94 217.076L1079.94 157.207L1134.46 157.207L1134.46 217.076ZM1134.46 156.207L1079.94 156.207L1079.94 96.3399L1134.46 96.3399L1134.46 156.207ZM1134.46 95.3399L1079.94 95.3399L1079.94 35.4708L1134.46 35.4708L1134.46 95.3399ZM1134.46 34.4708L1079.94 34.4708L1079.94 -25.3964L1134.46 -25.3964L1134.46 34.4708ZM1134.46 -26.3964L1079.94 -26.3964L1079.94 -86.2616L1134.46 -86.2616L1134.46 -26.3964ZM1134.46 -87.2616L1079.94 -87.2616L1079.94 -147.133L1134.46 -147.133L1134.46 -87.2616ZM1135.46 -147.133L1135.46 -87.2616L1188.68 -87.2616L1188.68 -147.133L1135.46 -147.133ZM1135.46 -86.2616L1135.46 -26.3964L1188.68 -26.3963L1188.68 -86.2616L1135.46 -86.2616ZM1135.46 -25.3964L1135.46 34.4708L1188.68 34.4708L1188.68 -25.3963L1135.46 -25.3964ZM1135.46 35.4708L1135.46 95.3399L1188.68 95.3399L1188.68 35.4708L1135.46 35.4708ZM1135.46 96.3399L1135.46 156.207L1188.68 156.207L1188.68 96.3399L1135.46 96.3399ZM1135.46 157.207L1135.46 217.076L1188.68 217.076L1188.68 157.207L1135.46 157.207ZM1135.46 218.076L1135.46 277.945L1188.68 277.945L1188.68 218.076L1135.46 218.076ZM1135.46 278.945L1135.46 338.813L1188.68 338.813L1188.68 278.945L1135.46 278.945ZM1242.91 338.813L1189.68 338.813L1189.68 278.945L1242.91 278.945L1242.91 338.813ZM1242.91 277.945L1189.68 277.945L1189.68 218.076L1242.91 218.076L1242.91 277.945ZM1242.91 217.076L1189.68 217.076L1189.68 157.207L1242.91 157.207L1242.91 217.076ZM1242.91 156.207L1189.68 156.207L1189.68 96.3399L1242.91 96.34L1242.91 156.207ZM1242.91 95.34L1189.68 95.3399L1189.68 35.4708L1242.91 35.4708L1242.91 95.34ZM1242.91 34.4708L1189.68 34.4708L1189.68 -25.3963L1242.91 -25.3963L1242.91 34.4708ZM1242.91 -26.3963L1189.68 -26.3963L1189.68 -86.2616L1242.91 -86.2616L1242.91 -26.3963ZM1242.91 -87.2616L1189.68 -87.2616L1189.68 -147.133L1242.91 -147.133L1242.91 -87.2616ZM1243.91 -147.133L1243.91 -87.2616L1298.43 -87.2616L1298.43 -147.133L1243.91 -147.133ZM1243.91 -86.2616L1243.91 -26.3963L1298.43 -26.3963L1298.43 -86.2616L1243.91 -86.2616ZM1243.91 -25.3963L1243.91 34.4708L1298.43 34.4708L1298.43 -25.3963L1243.91 -25.3963ZM1243.91 35.4708L1243.91 95.34L1298.43 95.34L1298.43 35.4708L1243.91 35.4708ZM1243.91 96.34L1243.91 156.207L1298.43 156.207L1298.43 96.34L1243.91 96.34ZM1243.91 157.207L1243.91 217.076L1298.43 217.076L1298.43 157.207L1243.91 157.207ZM1243.91 218.076L1243.91 277.945L1298.43 277.945L1298.43 218.076L1243.91 218.076ZM1243.91 278.945L1243.91 338.813L1298.43 338.813L1298.43 278.945L1243.91 278.945ZM1352.66 338.813L1299.43 338.813L1299.43 278.945L1352.66 278.945L1352.66 338.813ZM1352.66 277.945L1299.43 277.945L1299.43 218.076L1352.66 218.076L1352.66 277.945ZM1352.66 217.076L1299.43 217.076L1299.43 157.207L1352.66 157.207L1352.66 217.076ZM1352.66 156.207L1299.43 156.207L1299.43 96.34L1352.66 96.34L1352.66 156.207ZM1352.66 95.34L1299.43 95.34L1299.43 35.4708L1352.66 35.4708L1352.66 95.34ZM1352.66 34.4708L1299.43 34.4708L1299.43 -25.3963L1352.66 -25.3963L1352.66 34.4708ZM1352.66 -26.3963L1299.43 -26.3963L1299.43 -86.2616L1352.66 -86.2616L1352.66 -26.3963ZM1352.66 -87.2616L1299.43 -87.2616L1299.43 -147.133L1352.66 -147.133L1352.66 -87.2616ZM1353.66 -147.133L1353.66 -87.2616L1408.18 -87.2616L1408.18 -147.133L1353.66 -147.133ZM1353.66 -86.2616L1353.66 -26.3963L1408.18 -26.3963L1408.18 -86.2616L1353.66 -86.2616ZM1353.66 -25.3963L1353.66 34.4708L1408.18 34.4708L1408.18 -25.3963L1353.66 -25.3963ZM1353.66 35.4708L1353.66 95.34L1408.18 95.34L1408.18 35.4708L1353.66 35.4708ZM1353.66 96.34L1353.66 156.207L1408.18 156.207L1408.18 96.34L1353.66 96.34ZM1353.66 157.207L1353.66 217.076L1408.18 217.076L1408.18 157.207L1353.66 157.207ZM1353.66 218.076L1353.66 277.945L1408.18 277.945L1408.18 218.076L1353.66 218.076ZM1353.66 278.945L1353.66 338.813L1408.18 338.813L1408.18 278.945L1353.66 278.945ZM1462.41 338.813L1409.18 338.813L1409.18 278.945L1462.41 278.945L1462.41 338.813ZM1462.41 277.945L1409.18 277.945L1409.18 218.076L1462.41 218.076L1462.41 277.945ZM1462.41 217.076L1409.18 217.076L1409.18 157.207L1462.41 157.207L1462.41 217.076ZM1462.41 156.207L1409.18 156.207L1409.18 96.34L1462.41 96.34L1462.41 156.207ZM1462.41 95.34L1409.18 95.34L1409.18 35.4708L1462.41 35.4709L1462.41 95.34ZM1462.41 34.4709L1409.18 34.4708L1409.18 -25.3963L1462.41 -25.3963L1462.41 34.4709ZM1462.41 -26.3963L1409.18 -26.3963L1409.18 -86.2616L1462.41 -86.2616L1462.41 -26.3963ZM1462.41 -87.2616L1409.18 -87.2616L1409.18 -147.133L1462.41 -147.133L1462.41 -87.2616ZM1463.41 -147.133L1463.41 -87.2616L1517.93 -87.2616L1517.93 -147.133L1463.41 -147.133ZM1463.41 -86.2616L1463.41 -26.3963L1517.93 -26.3963L1517.93 -86.2616L1463.41 -86.2616ZM1463.41 -25.3963L1463.41 34.4709L1517.93 34.4709L1517.93 -25.3963L1463.41 -25.3963ZM1463.41 35.4709L1463.41 95.34L1517.93 95.34L1517.93 35.4709L1463.41 35.4709ZM1463.41 96.34L1463.41 156.207L1517.93 156.207L1517.93 96.34L1463.41 96.34ZM1463.41 157.207L1463.41 217.076L1517.93 217.076L1517.93 157.207L1463.41 157.207ZM1463.41 218.076L1463.41 277.945L1517.93 277.945L1517.93 218.076L1463.41 218.076ZM1463.41 278.945L1463.41 338.813L1517.93 338.813L1517.93 278.945L1463.41 278.945Z" fill="url(#paint0_linear_1273_3087)"/>
</g>
<defs>
<linearGradient id="paint0_linear_1273_3087" x1="646.152" y1="-213.5" x2="646.152" y2="423" gradientUnits="userSpaceOnUse">
<stop stop-color="white" stop-opacity="0"/>
<stop offset="0.488761" stop-color="white" stop-opacity="0.88"/>
<stop offset="1" stop-color="white" stop-opacity="0"/>
</linearGradient>
</defs>
</svg>
