<svg width="1440" height="612" viewBox="0 0 1440 612" fill="none" xmlns="http://www.w3.org/2000/svg">
<g opacity="0.5">
<g opacity="0.2">
<path fill-rule="evenodd" clip-rule="evenodd" d="M1572.15 60.8673L1518.93 60.8673L1518.93 120.738L1572.15 120.738L1572.15 121.738L1518.93 121.738L1518.93 181.604L1572.15 181.604L1572.15 182.604L1518.93 182.604L1518.93 242.471L1572.15 242.471L1572.15 243.471L1518.93 243.471L1518.93 303.34L1572.15 303.34L1572.15 304.34L1518.93 304.34L1518.93 364.207L1572.15 364.207L1572.15 365.207L1518.93 365.207L1518.93 425.076L1572.15 425.076L1572.15 426.076L1518.93 426.076L1518.93 485.945L1572.15 485.945L1572.15 486.945L1518.93 486.945L1518.93 546.813L1572.15 546.813L1572.15 547.813L1518.93 547.813L1518.93 611.999L1517.93 611.999L1517.93 547.813L1463.41 547.813L1463.41 611.999L1462.41 611.999L1462.41 547.813L1409.18 547.813L1409.18 611.999L1408.18 611.999L1408.18 547.813L1353.66 547.813L1353.66 611.999L1352.66 611.999L1352.66 547.813L1299.43 547.813L1299.43 611.999L1298.43 611.999L1298.43 547.813L1243.91 547.813L1243.91 611.999L1242.91 611.999L1242.91 547.813L1189.68 547.813L1189.68 611.999L1188.68 611.999L1188.68 547.813L1135.46 547.813L1135.46 611.999L1134.46 611.999L1134.46 547.813L1079.94 547.813L1079.94 611.999L1078.94 611.999L1078.94 547.813L1025.71 547.813L1025.71 611.999L1024.71 611.999L1024.71 547.813L970.191 547.813L970.191 611.999L969.191 611.999L969.191 547.813L915.965 547.813L915.965 611.999L914.965 611.999L914.965 547.813L860.445 547.813L860.445 611.999L859.445 611.999L859.445 547.813L806.217 547.813L806.217 611.999L805.217 611.999L805.217 547.813L751.988 547.813L751.988 611.999L750.988 611.999L750.988 547.813L696.469 547.813L696.469 611.999L695.469 611.999L695.469 547.813L642.242 547.813L642.242 611.999L641.242 611.999L641.242 547.813L586.723 547.813L586.723 611.999L585.723 611.999L585.723 547.813L532.496 547.813L532.496 611.999L531.496 611.999L531.496 547.813L476.976 547.813L476.976 611.999L475.976 611.999L475.976 547.813L422.748 547.813L422.748 611.999L421.748 611.999L421.748 547.813L368.521 547.813L368.521 611.999L367.521 611.999L367.521 547.813L313.002 547.813L313.002 611.999L312.002 611.999L312.002 547.813L258.773 547.813L258.773 611.999L257.773 611.999L257.773 547.813L203.256 547.813L203.256 611.999L202.256 611.999L202.256 547.813L149.027 547.813L149.027 611.999L148.027 611.999L148.027 547.813L93.5077 547.813L93.5077 611.999L92.5077 611.999L92.5077 547.813L39.2811 547.813L39.2811 611.999L38.2811 611.999L38.2811 547.813L-14.9474 547.813L-14.9474 611.999L-15.9474 611.999L-15.9474 547.813L-70.4669 547.813L-70.4669 611.999L-71.4669 611.999L-71.4669 547.813L-132.151 547.812L-132.151 546.812L-71.4669 546.813L-71.4669 486.945L-132.151 486.945L-132.151 485.945L-71.4669 485.945L-71.4669 426.076L-132.151 426.076L-132.151 425.076L-71.4669 425.076L-71.4669 365.207L-132.151 365.207L-132.151 364.207L-71.4669 364.207L-71.4669 304.34L-132.151 304.34L-132.151 303.34L-71.4669 303.34L-71.4669 243.471L-132.151 243.471L-132.151 242.471L-71.4669 242.471L-71.4669 182.604L-132.151 182.604L-132.151 181.604L-71.4669 181.604L-71.4669 121.738L-132.151 121.738L-132.151 120.738L-71.4669 120.738L-71.4669 60.8672L-132.151 60.8672L-132.151 59.8672L-71.4669 59.8672L-71.4669 -2.37028e-06L-70.4669 -2.32657e-06L-70.4669 59.8672L-15.9474 59.8672L-15.9474 -2.37028e-06L-14.9474 -2.32657e-06L-14.9474 59.8672L38.2811 59.8672L38.2811 -2.37028e-06L39.2811 -2.32657e-06L39.2811 59.8672L92.5077 59.8672L92.5077 -2.37028e-06L93.5077 -2.32657e-06L93.5077 59.8672L148.027 59.8672L148.027 -2.37028e-06L149.027 -2.32657e-06L149.027 59.8672L202.256 59.8672L202.256 -2.37028e-06L203.256 -2.32657e-06L203.256 59.8672L257.773 59.8672L257.773 -2.37028e-06L258.773 -2.32657e-06L258.773 59.8672L312.002 59.8672L312.002 -2.37028e-06L313.002 -2.32657e-06L313.002 59.8672L367.521 59.8672L367.521 -2.37028e-06L368.521 -2.32657e-06L368.521 59.8672L421.748 59.8672L421.748 -2.37028e-06L422.748 -2.32657e-06L422.748 59.8672L475.976 59.8672L475.976 -2.37028e-06L476.976 -2.32657e-06L476.976 59.8672L531.496 59.8672L531.496 -2.37028e-06L532.496 -2.32657e-06L532.496 59.8672L585.723 59.8672L585.723 -2.37028e-06L586.723 -2.32657e-06L586.723 59.8672L641.242 59.8672L641.242 -2.37028e-06L642.242 -2.32657e-06L642.242 59.8672L695.469 59.8672L695.469 -2.37028e-06L696.469 -2.32657e-06L696.469 59.8673L750.988 59.8673L750.988 -2.37028e-06L751.988 -2.32657e-06L751.988 59.8673L805.217 59.8673L805.217 -2.37028e-06L806.217 -2.32657e-06L806.217 59.8673L859.445 59.8673L859.445 -2.37028e-06L860.445 -2.32657e-06L860.445 59.8673L914.965 59.8673L914.965 -2.37028e-06L915.965 -2.32657e-06L915.965 59.8673L969.191 59.8673L969.191 -2.37028e-06L970.191 -2.32657e-06L970.191 59.8673L1024.71 59.8673L1024.71 -2.37028e-06L1025.71 -2.32657e-06L1025.71 59.8673L1078.94 59.8673L1078.94 -2.37028e-06L1079.94 -2.32657e-06L1079.94 59.8673L1134.46 59.8673L1134.46 -2.37028e-06L1135.46 -2.32657e-06L1135.46 59.8673L1188.68 59.8673L1188.68 -2.37028e-06L1189.68 -2.32657e-06L1189.68 59.8673L1242.91 59.8673L1242.91 -2.37028e-06L1243.91 -2.32657e-06L1243.91 59.8673L1298.43 59.8673L1298.43 -2.37028e-06L1299.43 -2.32657e-06L1299.43 59.8673L1352.66 59.8673L1352.66 -2.37028e-06L1353.66 -2.32657e-06L1353.66 59.8673L1408.18 59.8673L1408.18 -2.37028e-06L1409.18 -2.32657e-06L1409.18 59.8673L1462.41 59.8673L1462.41 -2.37028e-06L1463.41 -2.32657e-06L1463.41 59.8673L1517.93 59.8673L1517.93 -2.37028e-06L1518.93 -2.32657e-06L1518.93 59.8673L1572.15 59.8673L1572.15 60.8673ZM-70.4669 60.8672L-70.4669 120.738L-15.9474 120.738L-15.9474 60.8672L-70.4669 60.8672ZM-70.4669 121.738L-70.4669 181.604L-15.9474 181.604L-15.9474 121.738L-70.4669 121.738ZM-70.4669 182.604L-70.4669 242.471L-15.9474 242.471L-15.9474 182.604L-70.4669 182.604ZM-70.4669 243.471L-70.4669 303.34L-15.9474 303.34L-15.9474 243.471L-70.4669 243.471ZM-70.4669 304.34L-70.4669 364.207L-15.9474 364.207L-15.9474 304.34L-70.4669 304.34ZM-70.4669 365.207L-70.4669 425.076L-15.9474 425.076L-15.9474 365.207L-70.4669 365.207ZM-70.4669 426.076L-70.4669 485.945L-15.9474 485.945L-15.9474 426.076L-70.4669 426.076ZM-70.4669 486.945L-70.4669 546.813L-15.9474 546.813L-15.9474 486.945L-70.4669 486.945ZM38.2811 546.813L-14.9474 546.813L-14.9474 486.945L38.2811 486.945L38.2811 546.813ZM38.2811 485.945L-14.9474 485.945L-14.9474 426.076L38.2811 426.076L38.2811 485.945ZM38.2811 425.076L-14.9474 425.076L-14.9474 365.207L38.2811 365.207L38.2811 425.076ZM38.2811 364.207L-14.9474 364.207L-14.9474 304.34L38.2811 304.34L38.2811 364.207ZM38.2811 303.34L-14.9474 303.34L-14.9474 243.471L38.2811 243.471L38.2811 303.34ZM38.2811 242.471L-14.9474 242.471L-14.9474 182.604L38.2811 182.604L38.2811 242.471ZM38.2811 181.604L-14.9474 181.604L-14.9474 121.738L38.2811 121.738L38.2811 181.604ZM38.2811 120.738L-14.9474 120.738L-14.9474 60.8672L38.2811 60.8672L38.2811 120.738ZM39.2811 60.8672L39.2811 120.738L92.5077 120.738L92.5077 60.8672L39.2811 60.8672ZM39.2811 121.738L39.2811 181.604L92.5077 181.604L92.5077 121.738L39.2811 121.738ZM39.2811 182.604L39.2811 242.471L92.5077 242.471L92.5077 182.604L39.2811 182.604ZM39.2811 243.471L39.2811 303.34L92.5077 303.34L92.5077 243.471L39.2811 243.471ZM39.2811 304.34L39.2811 364.207L92.5077 364.207L92.5077 304.34L39.2811 304.34ZM39.2811 365.207L39.2811 425.076L92.5077 425.076L92.5077 365.207L39.2811 365.207ZM39.2811 426.076L39.2811 485.945L92.5077 485.945L92.5077 426.076L39.2811 426.076ZM39.2811 486.945L39.2811 546.813L92.5077 546.813L92.5077 486.945L39.2811 486.945ZM148.027 546.813L93.5077 546.813L93.5077 486.945L148.027 486.945L148.027 546.813ZM148.027 485.945L93.5077 485.945L93.5077 426.076L148.027 426.076L148.027 485.945ZM148.027 425.076L93.5077 425.076L93.5077 365.207L148.027 365.207L148.027 425.076ZM148.027 364.207L93.5077 364.207L93.5077 304.34L148.027 304.34L148.027 364.207ZM148.027 303.34L93.5077 303.34L93.5077 243.471L148.027 243.471L148.027 303.34ZM148.027 242.471L93.5077 242.471L93.5077 182.604L148.027 182.604L148.027 242.471ZM148.027 181.604L93.5077 181.604L93.5077 121.738L148.027 121.738L148.027 181.604ZM148.027 120.738L93.5077 120.738L93.5077 60.8672L148.027 60.8672L148.027 120.738ZM149.027 60.8672L149.027 120.738L202.256 120.738L202.256 60.8672L149.027 60.8672ZM149.027 121.738L149.027 181.604L202.256 181.604L202.256 121.738L149.027 121.738ZM149.027 182.604L149.027 242.471L202.256 242.471L202.256 182.604L149.027 182.604ZM149.027 243.471L149.027 303.34L202.256 303.34L202.256 243.471L149.027 243.471ZM149.027 304.34L149.027 364.207L202.256 364.207L202.256 304.34L149.027 304.34ZM149.027 365.207L149.027 425.076L202.256 425.076L202.256 365.207L149.027 365.207ZM149.027 426.076L149.027 485.945L202.256 485.945L202.256 426.076L149.027 426.076ZM149.027 486.945L149.027 546.813L202.256 546.813L202.256 486.945L149.027 486.945ZM257.773 546.813L203.256 546.813L203.256 486.945L257.773 486.945L257.773 546.813ZM257.773 485.945L203.256 485.945L203.256 426.076L257.773 426.076L257.773 485.945ZM257.773 425.076L203.256 425.076L203.256 365.207L257.773 365.207L257.773 425.076ZM257.773 364.207L203.256 364.207L203.256 304.34L257.773 304.34L257.773 364.207ZM257.773 303.34L203.256 303.34L203.256 243.471L257.773 243.471L257.773 303.34ZM257.773 242.471L203.256 242.471L203.256 182.604L257.773 182.604L257.773 242.471ZM257.773 181.604L203.256 181.604L203.256 121.738L257.773 121.738L257.773 181.604ZM257.773 120.738L203.256 120.738L203.256 60.8672L257.773 60.8672L257.773 120.738ZM258.773 60.8672L258.773 120.738L312.002 120.738L312.002 60.8672L258.773 60.8672ZM258.773 121.738L258.773 181.604L312.002 181.604L312.002 121.738L258.773 121.738ZM258.773 182.604L258.773 242.471L312.002 242.471L312.002 182.604L258.773 182.604ZM258.773 243.471L258.773 303.34L312.002 303.34L312.002 243.471L258.773 243.471ZM258.773 304.34L258.773 364.207L312.002 364.207L312.002 304.34L258.773 304.34ZM258.773 365.207L258.773 425.076L312.002 425.076L312.002 365.207L258.773 365.207ZM258.773 426.076L258.773 485.945L312.002 485.945L312.002 426.076L258.773 426.076ZM258.773 486.945L258.773 546.813L312.002 546.813L312.002 486.945L258.773 486.945ZM367.521 546.813L313.002 546.813L313.002 486.945L367.521 486.945L367.521 546.813ZM367.521 485.945L313.002 485.945L313.002 426.076L367.521 426.076L367.521 485.945ZM367.521 425.076L313.002 425.076L313.002 365.207L367.521 365.207L367.521 425.076ZM367.521 364.207L313.002 364.207L313.002 304.34L367.521 304.34L367.521 364.207ZM367.521 303.34L313.002 303.34L313.002 243.471L367.521 243.471L367.521 303.34ZM367.521 242.471L313.002 242.471L313.002 182.604L367.521 182.604L367.521 242.471ZM367.521 181.604L313.002 181.604L313.002 121.738L367.521 121.738L367.521 181.604ZM367.521 120.738L313.002 120.738L313.002 60.8672L367.521 60.8672L367.521 120.738ZM368.521 60.8672L368.521 120.738L421.748 120.738L421.748 60.8672L368.521 60.8672ZM368.521 121.738L368.521 181.604L421.748 181.604L421.748 121.738L368.521 121.738ZM368.521 182.604L368.521 242.471L421.748 242.471L421.748 182.604L368.521 182.604ZM368.521 243.471L368.521 303.34L421.748 303.34L421.748 243.471L368.521 243.471ZM368.521 304.34L368.521 364.207L421.748 364.207L421.748 304.34L368.521 304.34ZM368.521 365.207L368.521 425.076L421.748 425.076L421.748 365.207L368.521 365.207ZM368.521 426.076L368.521 485.945L421.748 485.945L421.748 426.076L368.521 426.076ZM368.521 486.945L368.521 546.813L421.748 546.813L421.748 486.945L368.521 486.945ZM475.976 546.813L422.748 546.813L422.748 486.945L475.976 486.945L475.976 546.813ZM475.976 485.945L422.748 485.945L422.748 426.076L475.976 426.076L475.976 485.945ZM475.976 425.076L422.748 425.076L422.748 365.207L475.976 365.207L475.976 425.076ZM475.976 364.207L422.748 364.207L422.748 304.34L475.976 304.34L475.976 364.207ZM475.976 303.34L422.748 303.34L422.748 243.471L475.976 243.471L475.976 303.34ZM475.976 242.471L422.748 242.471L422.748 182.604L475.976 182.604L475.976 242.471ZM475.976 181.604L422.748 181.604L422.748 121.738L475.976 121.738L475.976 181.604ZM475.976 120.738L422.748 120.738L422.748 60.8672L475.976 60.8672L475.976 120.738ZM476.976 60.8672L476.976 120.738L531.496 120.738L531.496 60.8672L476.976 60.8672ZM476.976 121.738L476.976 181.604L531.496 181.604L531.496 121.738L476.976 121.738ZM476.976 182.604L476.976 242.471L531.496 242.471L531.496 182.604L476.976 182.604ZM476.976 243.471L476.976 303.34L531.496 303.34L531.496 243.471L476.976 243.471ZM476.976 304.34L476.976 364.207L531.496 364.207L531.496 304.34L476.976 304.34ZM476.976 365.207L476.976 425.076L531.496 425.076L531.496 365.207L476.976 365.207ZM476.976 426.076L476.976 485.945L531.496 485.945L531.496 426.076L476.976 426.076ZM476.976 486.945L476.976 546.813L531.496 546.813L531.496 486.945L476.976 486.945ZM585.723 546.813L532.496 546.813L532.496 486.945L585.723 486.945L585.723 546.813ZM585.723 485.945L532.496 485.945L532.496 426.076L585.723 426.076L585.723 485.945ZM585.723 425.076L532.496 425.076L532.496 365.207L585.723 365.207L585.723 425.076ZM585.723 364.207L532.496 364.207L532.496 304.34L585.723 304.34L585.723 364.207ZM585.723 303.34L532.496 303.34L532.496 243.471L585.723 243.471L585.723 303.34ZM585.723 242.471L532.496 242.471L532.496 182.604L585.723 182.604L585.723 242.471ZM585.723 181.604L532.496 181.604L532.496 121.738L585.723 121.738L585.723 181.604ZM585.723 120.738L532.496 120.738L532.496 60.8672L585.723 60.8672L585.723 120.738ZM586.723 60.8672L586.723 120.738L641.242 120.738L641.242 60.8672L586.723 60.8672ZM586.723 121.738L586.723 181.604L641.242 181.604L641.242 121.738L586.723 121.738ZM586.723 182.604L586.723 242.471L641.242 242.471L641.242 182.604L586.723 182.604ZM586.723 243.471L586.723 303.34L641.242 303.34L641.242 243.471L586.723 243.471ZM586.723 304.34L586.723 364.207L641.242 364.207L641.242 304.34L586.723 304.34ZM586.723 365.207L586.723 425.076L641.242 425.076L641.242 365.207L586.723 365.207ZM586.723 426.076L586.723 485.945L641.242 485.945L641.242 426.076L586.723 426.076ZM586.723 486.945L586.723 546.813L641.242 546.813L641.242 486.945L586.723 486.945ZM695.469 546.813L642.242 546.813L642.242 486.945L695.469 486.945L695.469 546.813ZM695.469 485.945L642.242 485.945L642.242 426.076L695.469 426.076L695.469 485.945ZM695.469 425.076L642.242 425.076L642.242 365.207L695.469 365.207L695.469 425.076ZM695.469 364.207L642.242 364.207L642.242 304.34L695.469 304.34L695.469 364.207ZM695.469 303.34L642.242 303.34L642.242 243.471L695.469 243.471L695.469 303.34ZM695.469 242.471L642.242 242.471L642.242 182.604L695.469 182.604L695.469 242.471ZM695.469 181.604L642.242 181.604L642.242 121.738L695.469 121.738L695.469 181.604ZM695.469 120.738L642.242 120.738L642.242 60.8672L695.469 60.8672L695.469 120.738ZM696.469 60.8673L696.469 120.738L750.988 120.738L750.988 60.8673L696.469 60.8673ZM696.469 121.738L696.469 181.604L750.988 181.604L750.988 121.738L696.469 121.738ZM696.469 182.604L696.469 242.471L750.988 242.471L750.988 182.604L696.469 182.604ZM696.469 243.471L696.469 303.34L750.988 303.34L750.988 243.471L696.469 243.471ZM696.469 304.34L696.469 364.207L750.988 364.207L750.988 304.34L696.469 304.34ZM696.469 365.207L696.469 425.076L750.988 425.076L750.988 365.207L696.469 365.207ZM696.469 426.076L696.469 485.945L750.988 485.945L750.988 426.076L696.469 426.076ZM696.469 486.945L696.469 546.813L750.988 546.813L750.988 486.945L696.469 486.945ZM805.217 546.813L751.988 546.813L751.988 486.945L805.217 486.945L805.217 546.813ZM805.217 485.945L751.988 485.945L751.988 426.076L805.217 426.076L805.217 485.945ZM805.217 425.076L751.988 425.076L751.988 365.207L805.217 365.207L805.217 425.076ZM805.217 364.207L751.988 364.207L751.988 304.34L805.217 304.34L805.217 364.207ZM805.217 303.34L751.988 303.34L751.988 243.471L805.217 243.471L805.217 303.34ZM805.217 242.471L751.988 242.471L751.988 182.604L805.217 182.604L805.217 242.471ZM805.217 181.604L751.988 181.604L751.988 121.738L805.217 121.738L805.217 181.604ZM805.217 120.738L751.988 120.738L751.988 60.8673L805.217 60.8673L805.217 120.738ZM806.217 60.8673L806.217 120.738L859.445 120.738L859.445 60.8673L806.217 60.8673ZM806.217 121.738L806.217 181.604L859.445 181.604L859.445 121.738L806.217 121.738ZM806.217 182.604L806.217 242.471L859.445 242.471L859.445 182.604L806.217 182.604ZM806.217 243.471L806.217 303.34L859.445 303.34L859.445 243.471L806.217 243.471ZM806.217 304.34L806.217 364.207L859.445 364.207L859.445 304.34L806.217 304.34ZM806.217 365.207L806.217 425.076L859.445 425.076L859.445 365.207L806.217 365.207ZM806.217 426.076L806.217 485.945L859.445 485.945L859.445 426.076L806.217 426.076ZM806.217 486.945L806.217 546.813L859.445 546.813L859.445 486.945L806.217 486.945ZM914.965 546.813L860.445 546.813L860.445 486.945L914.965 486.945L914.965 546.813ZM914.965 485.945L860.445 485.945L860.445 426.076L914.965 426.076L914.965 485.945ZM914.965 425.076L860.445 425.076L860.445 365.207L914.965 365.207L914.965 425.076ZM914.965 364.207L860.445 364.207L860.445 304.34L914.965 304.34L914.965 364.207ZM914.965 303.34L860.445 303.34L860.445 243.471L914.965 243.471L914.965 303.34ZM914.965 242.471L860.445 242.471L860.445 182.604L914.965 182.604L914.965 242.471ZM914.965 181.604L860.445 181.604L860.445 121.738L914.965 121.738L914.965 181.604ZM914.965 120.738L860.445 120.738L860.445 60.8673L914.965 60.8673L914.965 120.738ZM915.965 60.8673L915.965 120.738L969.191 120.738L969.191 60.8673L915.965 60.8673ZM915.965 121.738L915.965 181.604L969.191 181.604L969.191 121.738L915.965 121.738ZM915.965 182.604L915.965 242.471L969.191 242.471L969.191 182.604L915.965 182.604ZM915.965 243.471L915.965 303.34L969.191 303.34L969.191 243.471L915.965 243.471ZM915.965 304.34L915.965 364.207L969.191 364.207L969.191 304.34L915.965 304.34ZM915.965 365.207L915.965 425.076L969.191 425.076L969.191 365.207L915.965 365.207ZM915.965 426.076L915.965 485.945L969.191 485.945L969.191 426.076L915.965 426.076ZM915.965 486.945L915.965 546.813L969.191 546.813L969.191 486.945L915.965 486.945ZM1024.71 546.813L970.191 546.813L970.191 486.945L1024.71 486.945L1024.71 546.813ZM1024.71 485.945L970.191 485.945L970.191 426.076L1024.71 426.076L1024.71 485.945ZM1024.71 425.076L970.191 425.076L970.191 365.207L1024.71 365.207L1024.71 425.076ZM1024.71 364.207L970.191 364.207L970.191 304.34L1024.71 304.34L1024.71 364.207ZM1024.71 303.34L970.191 303.34L970.191 243.471L1024.71 243.471L1024.71 303.34ZM1024.71 242.471L970.191 242.471L970.191 182.604L1024.71 182.604L1024.71 242.471ZM1024.71 181.604L970.191 181.604L970.191 121.738L1024.71 121.738L1024.71 181.604ZM1024.71 120.738L970.191 120.738L970.191 60.8673L1024.71 60.8673L1024.71 120.738ZM1025.71 60.8673L1025.71 120.738L1078.94 120.738L1078.94 60.8673L1025.71 60.8673ZM1025.71 121.738L1025.71 181.604L1078.94 181.604L1078.94 121.738L1025.71 121.738ZM1025.71 182.604L1025.71 242.471L1078.94 242.471L1078.94 182.604L1025.71 182.604ZM1025.71 243.471L1025.71 303.34L1078.94 303.34L1078.94 243.471L1025.71 243.471ZM1025.71 304.34L1025.71 364.207L1078.94 364.207L1078.94 304.34L1025.71 304.34ZM1025.71 365.207L1025.71 425.076L1078.94 425.076L1078.94 365.207L1025.71 365.207ZM1025.71 426.076L1025.71 485.945L1078.94 485.945L1078.94 426.076L1025.71 426.076ZM1025.71 486.945L1025.71 546.813L1078.94 546.813L1078.94 486.945L1025.71 486.945ZM1134.46 546.813L1079.94 546.813L1079.94 486.945L1134.46 486.945L1134.46 546.813ZM1134.46 485.945L1079.94 485.945L1079.94 426.076L1134.46 426.076L1134.46 485.945ZM1134.46 425.076L1079.94 425.076L1079.94 365.207L1134.46 365.207L1134.46 425.076ZM1134.46 364.207L1079.94 364.207L1079.94 304.34L1134.46 304.34L1134.46 364.207ZM1134.46 303.34L1079.94 303.34L1079.94 243.471L1134.46 243.471L1134.46 303.34ZM1134.46 242.471L1079.94 242.471L1079.94 182.604L1134.46 182.604L1134.46 242.471ZM1134.46 181.604L1079.94 181.604L1079.94 121.738L1134.46 121.738L1134.46 181.604ZM1134.46 120.738L1079.94 120.738L1079.94 60.8673L1134.46 60.8673L1134.46 120.738ZM1135.46 60.8673L1135.46 120.738L1188.68 120.738L1188.68 60.8673L1135.46 60.8673ZM1135.46 121.738L1135.46 181.604L1188.68 181.604L1188.68 121.738L1135.46 121.738ZM1135.46 182.604L1135.46 242.471L1188.68 242.471L1188.68 182.604L1135.46 182.604ZM1135.46 243.471L1135.46 303.34L1188.68 303.34L1188.68 243.471L1135.46 243.471ZM1135.46 304.34L1135.46 364.207L1188.68 364.207L1188.68 304.34L1135.46 304.34ZM1135.46 365.207L1135.46 425.076L1188.68 425.076L1188.68 365.207L1135.46 365.207ZM1135.46 426.076L1135.46 485.945L1188.68 485.945L1188.68 426.076L1135.46 426.076ZM1135.46 486.945L1135.46 546.813L1188.68 546.813L1188.68 486.945L1135.46 486.945ZM1242.91 546.813L1189.68 546.813L1189.68 486.945L1242.91 486.945L1242.91 546.813ZM1242.91 485.945L1189.68 485.945L1189.68 426.076L1242.91 426.076L1242.91 485.945ZM1242.91 425.076L1189.68 425.076L1189.68 365.207L1242.91 365.207L1242.91 425.076ZM1242.91 364.207L1189.68 364.207L1189.68 304.34L1242.91 304.34L1242.91 364.207ZM1242.91 303.34L1189.68 303.34L1189.68 243.471L1242.91 243.471L1242.91 303.34ZM1242.91 242.471L1189.68 242.471L1189.68 182.604L1242.91 182.604L1242.91 242.471ZM1242.91 181.604L1189.68 181.604L1189.68 121.738L1242.91 121.738L1242.91 181.604ZM1242.91 120.738L1189.68 120.738L1189.68 60.8673L1242.91 60.8673L1242.91 120.738ZM1243.91 60.8673L1243.91 120.738L1298.43 120.738L1298.43 60.8673L1243.91 60.8673ZM1243.91 121.738L1243.91 181.604L1298.43 181.604L1298.43 121.738L1243.91 121.738ZM1243.91 182.604L1243.91 242.471L1298.43 242.471L1298.43 182.604L1243.91 182.604ZM1243.91 243.471L1243.91 303.34L1298.43 303.34L1298.43 243.471L1243.91 243.471ZM1243.91 304.34L1243.91 364.207L1298.43 364.207L1298.43 304.34L1243.91 304.34ZM1243.91 365.207L1243.91 425.076L1298.43 425.076L1298.43 365.207L1243.91 365.207ZM1243.91 426.076L1243.91 485.945L1298.43 485.945L1298.43 426.076L1243.91 426.076ZM1243.91 486.945L1243.91 546.813L1298.43 546.813L1298.43 486.945L1243.91 486.945ZM1352.66 546.813L1299.43 546.813L1299.43 486.945L1352.66 486.945L1352.66 546.813ZM1352.66 485.945L1299.43 485.945L1299.43 426.076L1352.66 426.076L1352.66 485.945ZM1352.66 425.076L1299.43 425.076L1299.43 365.207L1352.66 365.207L1352.66 425.076ZM1352.66 364.207L1299.43 364.207L1299.43 304.34L1352.66 304.34L1352.66 364.207ZM1352.66 303.34L1299.43 303.34L1299.43 243.471L1352.66 243.471L1352.66 303.34ZM1352.66 242.471L1299.43 242.471L1299.43 182.604L1352.66 182.604L1352.66 242.471ZM1352.66 181.604L1299.43 181.604L1299.43 121.738L1352.66 121.738L1352.66 181.604ZM1352.66 120.738L1299.43 120.738L1299.43 60.8673L1352.66 60.8673L1352.66 120.738ZM1353.66 60.8673L1353.66 120.738L1408.18 120.738L1408.18 60.8673L1353.66 60.8673ZM1353.66 121.738L1353.66 181.604L1408.18 181.604L1408.18 121.738L1353.66 121.738ZM1353.66 182.604L1353.66 242.471L1408.18 242.471L1408.18 182.604L1353.66 182.604ZM1353.66 243.471L1353.66 303.34L1408.18 303.34L1408.18 243.471L1353.66 243.471ZM1353.66 304.34L1353.66 364.207L1408.18 364.207L1408.18 304.34L1353.66 304.34ZM1353.66 365.207L1353.66 425.076L1408.18 425.076L1408.18 365.207L1353.66 365.207ZM1353.66 426.076L1353.66 485.945L1408.18 485.945L1408.18 426.076L1353.66 426.076ZM1353.66 486.945L1353.66 546.813L1408.18 546.813L1408.18 486.945L1353.66 486.945ZM1462.41 546.813L1409.18 546.813L1409.18 486.945L1462.41 486.945L1462.41 546.813ZM1462.41 485.945L1409.18 485.945L1409.18 426.076L1462.41 426.076L1462.41 485.945ZM1462.41 425.076L1409.18 425.076L1409.18 365.207L1462.41 365.207L1462.41 425.076ZM1462.41 364.207L1409.18 364.207L1409.18 304.34L1462.41 304.34L1462.41 364.207ZM1462.41 303.34L1409.18 303.34L1409.18 243.471L1462.41 243.471L1462.41 303.34ZM1462.41 242.471L1409.18 242.471L1409.18 182.604L1462.41 182.604L1462.41 242.471ZM1462.41 181.604L1409.18 181.604L1409.18 121.738L1462.41 121.738L1462.41 181.604ZM1462.41 120.738L1409.18 120.738L1409.18 60.8673L1462.41 60.8673L1462.41 120.738ZM1463.41 60.8673L1463.41 120.738L1517.93 120.738L1517.93 60.8673L1463.41 60.8673ZM1463.41 121.738L1463.41 181.604L1517.93 181.604L1517.93 121.738L1463.41 121.738ZM1463.41 182.604L1463.41 242.471L1517.93 242.471L1517.93 182.604L1463.41 182.604ZM1463.41 243.471L1463.41 303.34L1517.93 303.34L1517.93 243.471L1463.41 243.471ZM1463.41 304.34L1463.41 364.207L1517.93 364.207L1517.93 304.34L1463.41 304.34ZM1463.41 365.207L1463.41 425.076L1517.93 425.076L1517.93 365.207L1463.41 365.207ZM1463.41 426.076L1463.41 485.945L1517.93 485.945L1517.93 426.076L1463.41 426.076ZM1463.41 486.945L1463.41 546.813L1517.93 546.813L1517.93 486.945L1463.41 486.945Z" fill="url(#paint0_linear_856_5190)"/>
</g>
</g>
<defs>
<linearGradient id="paint0_linear_856_5190" x1="646.151" y1="-5.50004" x2="646.151" y2="631" gradientUnits="userSpaceOnUse">
<stop stop-color="white" stop-opacity="0"/>
<stop offset="0.488761" stop-color="white" stop-opacity="0.88"/>
<stop offset="1" stop-color="white" stop-opacity="0"/>
</linearGradient>
</defs>
</svg>
