<svg width="612" height="1023" viewBox="0 0 612 1023" fill="none" xmlns="http://www.w3.org/2000/svg">
<g opacity="0.2">
<path fill-rule="evenodd" clip-rule="evenodd" d="M60.8673 4.3714e-08L60.8673 53.2279H120.738V0L121.738 4.3714e-08V53.2279H181.604V0L182.604 4.3714e-08V53.2279H242.471V0L243.471 4.3714e-08V53.2279H303.34V0L304.34 4.3714e-08V53.2279H364.207V0L365.207 4.3714e-08V53.2279H425.076V0L426.076 4.3714e-08V53.2279H485.945V0L486.945 4.3714e-08V53.2279H546.811V0L547.811 4.3714e-08V53.2279H611.999V54.2279H547.811V108.747H611.999V109.747H547.811V162.975H611.999V163.975H547.811V218.494H611.999V219.494H547.811V272.721H611.999V273.721H547.811V328.24H611.999V329.24H547.811V382.468H611.999V383.468H547.811V436.696H611.999V437.696H547.811V492.215H611.999V493.215H547.811V546.443H611.999V547.443H547.811V601.961H611.999V602.961H547.811V656.189H611.999V657.189H547.811V711.708H611.999V712.708H547.811V765.936H611.999V766.936H547.811V820.164H611.999V821.164H547.811V875.683H611.999V876.683H547.811V929.911H611.999V930.911H547.811V985.429H611.999V986.429H547.811V1039.66H611.999V1040.66H547.811V1095.18H611.999V1096.18H547.811V1149.4H611.999V1150.4H547.811V1203.63H611.999V1204.63H547.811V1259.15H611.999V1260.15H547.811V1313.38H611.999V1314.38H547.811V1368.9H611.999V1369.9H547.811V1423.13H611.999V1424.13H547.811V1478.64H611.999V1479.64H547.811V1532.87H611.999V1533.87H547.811V1587.1H611.999V1588.1H547.811V1642.62H611.999V1643.62H547.811L547.811 1704.3H546.811L546.811 1643.62H486.945L486.945 1704.3H485.945L485.945 1643.62H426.076L426.076 1704.3H425.076L425.076 1643.62H365.207L365.207 1704.3H364.207L364.207 1643.62H304.34L304.34 1704.3H303.34L303.34 1643.62H243.471L243.471 1704.3H242.471L242.471 1643.62H182.604L182.604 1704.3H181.604L181.604 1643.62H121.738L121.738 1704.3H120.738L120.738 1643.62H60.8672L60.8672 1704.3H59.8672L59.8672 1643.62H0V1642.62H59.8672V1588.1H0V1587.1H59.8672L59.8672 1533.87H0V1532.87H59.8672V1479.64H0V1478.64H59.8672L59.8672 1424.13H0V1423.13H59.8672V1369.9H0V1368.9H59.8672L59.8672 1314.38H0V1313.38H59.8672V1260.15H0V1259.15H59.8672L59.8672 1204.63H0V1203.63H59.8672V1150.4H0V1149.4H59.8672V1096.18H0V1095.18H59.8672V1040.66H0V1039.66H59.8672V986.429H0V985.429H59.8672V930.911H0V929.911H59.8672V876.683H0V875.683H59.8672V821.164H0V820.164H59.8672L59.8672 766.936H0V765.936H59.8672V712.708H0V711.708H59.8672L59.8672 657.189H0V656.189H59.8672V602.961H0V601.961H59.8672L59.8672 547.443H0V546.443H59.8672V493.215H0V492.215H59.8672L59.8672 437.696H0V436.696H59.8672L59.8672 383.468H0V382.468H59.8672L59.8672 329.24H0V328.24H59.8672L59.8672 273.721H0V272.721H59.8672L59.8672 219.494H0V218.494H59.8672L59.8673 163.975H0V162.975H59.8673L59.8673 109.747H0V108.747H59.8673L59.8673 54.2279H0V53.2279H59.8673L59.8673 0L60.8673 4.3714e-08ZM60.8672 1642.62H120.738V1588.1H60.8672V1642.62ZM121.738 1642.62H181.604V1588.1H121.738V1642.62ZM182.604 1642.62H242.471V1588.1H182.604V1642.62ZM243.471 1642.62H303.34V1588.1H243.471V1642.62ZM304.34 1642.62H364.207V1588.1H304.34V1642.62ZM365.207 1642.62H425.076V1588.1H365.207V1642.62ZM426.076 1642.62H485.945V1588.1H426.076V1642.62ZM486.945 1642.62H546.811V1588.1H486.945V1642.62ZM546.811 1533.87V1587.1H486.945L486.945 1533.87H546.811ZM485.945 1533.87L485.945 1587.1H426.076L426.076 1533.87H485.945ZM425.076 1533.87L425.076 1587.1H365.207L365.207 1533.87H425.076ZM364.207 1533.87L364.207 1587.1H304.34L304.34 1533.87H364.207ZM303.34 1533.87L303.34 1587.1H243.471L243.471 1533.87H303.34ZM242.471 1533.87L242.471 1587.1H182.604L182.604 1533.87H242.471ZM181.604 1533.87L181.604 1587.1H121.738L121.738 1533.87H181.604ZM120.738 1533.87L120.738 1587.1H60.8672L60.8672 1533.87H120.738ZM60.8672 1532.87H120.738V1479.64H60.8672V1532.87ZM121.738 1532.87H181.604V1479.64H121.738V1532.87ZM182.604 1532.87H242.471V1479.64H182.604V1532.87ZM243.471 1532.87H303.34V1479.64H243.471V1532.87ZM304.34 1532.87H364.207V1479.64H304.34V1532.87ZM365.207 1532.87H425.076V1479.64H365.207V1532.87ZM426.076 1532.87H485.945V1479.64H426.076V1532.87ZM486.945 1532.87H546.811V1479.64H486.945V1532.87ZM546.811 1424.13V1478.64H486.945V1424.13H546.811ZM485.945 1424.13V1478.64H426.076V1424.13H485.945ZM425.076 1424.13V1478.64H365.207V1424.13H425.076ZM364.207 1424.13V1478.64H304.34V1424.13H364.207ZM303.34 1424.13V1478.64H243.471L243.471 1424.13H303.34ZM242.471 1424.13L242.471 1478.64H182.604L182.604 1424.13H242.471ZM181.604 1424.13L181.604 1478.64H121.738L121.738 1424.13H181.604ZM120.738 1424.13L120.738 1478.64H60.8672L60.8672 1424.13H120.738ZM60.8672 1423.13H120.738V1369.9H60.8672V1423.13ZM121.738 1423.13H181.604V1369.9H121.738V1423.13ZM182.604 1423.13H242.471V1369.9H182.604V1423.13ZM243.471 1423.13H303.34V1369.9H243.471V1423.13ZM304.34 1423.13H364.207V1369.9H304.34V1423.13ZM365.207 1423.13H425.076V1369.9H365.207V1423.13ZM426.076 1423.13H485.945V1369.9H426.076V1423.13ZM486.945 1423.13H546.811V1369.9H486.945V1423.13ZM546.811 1314.38V1368.9H486.945V1314.38H546.811ZM485.945 1314.38V1368.9H426.076V1314.38H485.945ZM425.076 1314.38V1368.9H365.207V1314.38H425.076ZM364.207 1314.38V1368.9H304.34V1314.38H364.207ZM303.34 1314.38V1368.9H243.471L243.471 1314.38H303.34ZM242.471 1314.38L242.471 1368.9H182.604L182.604 1314.38H242.471ZM181.604 1314.38L181.604 1368.9H121.738L121.738 1314.38H181.604ZM120.738 1314.38L120.738 1368.9H60.8672L60.8672 1314.38H120.738ZM60.8672 1313.38H120.738V1260.15H60.8672V1313.38ZM121.738 1313.38H181.604V1260.15H121.738V1313.38ZM182.604 1313.38H242.471V1260.15H182.604V1313.38ZM243.471 1313.38H303.34V1260.15H243.471V1313.38ZM304.34 1313.38H364.207V1260.15H304.34V1313.38ZM365.207 1313.38H425.076V1260.15H365.207V1313.38ZM426.076 1313.38H485.945V1260.15H426.076V1313.38ZM486.945 1313.38H546.811V1260.15H486.945V1313.38ZM546.811 1204.63V1259.15H486.945V1204.63H546.811ZM485.945 1204.63V1259.15H426.076V1204.63H485.945ZM425.076 1204.63V1259.15H365.207V1204.63H425.076ZM364.207 1204.63V1259.15H304.34V1204.63H364.207ZM303.34 1204.63V1259.15H243.471L243.471 1204.63H303.34ZM242.471 1204.63L242.471 1259.15H182.604L182.604 1204.63H242.471ZM181.604 1204.63L181.604 1259.15H121.738L121.738 1204.63H181.604ZM120.738 1204.63L120.738 1259.15H60.8672L60.8672 1204.63H120.738ZM60.8672 1203.63H120.738V1150.4H60.8672V1203.63ZM121.738 1203.63H181.604V1150.4H121.738V1203.63ZM182.604 1203.63H242.471V1150.4H182.604V1203.63ZM243.471 1203.63H303.34V1150.4H243.471V1203.63ZM304.34 1203.63H364.207V1150.4H304.34V1203.63ZM365.207 1203.63H425.076V1150.4H365.207V1203.63ZM426.076 1203.63H485.945V1150.4H426.076V1203.63ZM486.945 1203.63H546.811V1150.4H486.945V1203.63ZM546.811 1096.18V1149.4H486.945V1096.18H546.811ZM485.945 1096.18V1149.4H426.076V1096.18H485.945ZM425.076 1096.18V1149.4H365.207V1096.18H425.076ZM364.207 1096.18V1149.4H304.34V1096.18H364.207ZM303.34 1096.18V1149.4H243.471V1096.18H303.34ZM242.471 1096.18V1149.4H182.604V1096.18H242.471ZM181.604 1096.18V1149.4H121.738V1096.18H181.604ZM120.738 1096.18V1149.4H60.8672V1096.18H120.738ZM60.8672 1095.18H120.738V1040.66H60.8672V1095.18ZM121.738 1095.18H181.604V1040.66H121.738V1095.18ZM182.604 1095.18H242.471V1040.66H182.604V1095.18ZM243.471 1095.18H303.34V1040.66H243.471V1095.18ZM304.34 1095.18H364.207V1040.66H304.34V1095.18ZM365.207 1095.18H425.076V1040.66H365.207V1095.18ZM426.076 1095.18H485.945V1040.66H426.076V1095.18ZM486.945 1095.18H546.811V1040.66H486.945V1095.18ZM546.811 986.429V1039.66H486.945V986.429H546.811ZM485.945 986.429V1039.66H426.076V986.429H485.945ZM425.076 986.429V1039.66H365.207V986.429H425.076ZM364.207 986.429V1039.66H304.34V986.429H364.207ZM303.34 986.429V1039.66H243.471V986.429H303.34ZM242.471 986.429V1039.66H182.604V986.429H242.471ZM181.604 986.429V1039.66H121.738V986.429H181.604ZM120.738 986.429V1039.66H60.8672V986.429H120.738ZM60.8672 985.429H120.738V930.911H60.8672V985.429ZM121.738 985.429H181.604V930.911H121.738V985.429ZM182.604 985.429H242.471V930.911H182.604V985.429ZM243.471 985.429H303.34V930.911H243.471V985.429ZM304.34 985.429H364.207V930.911H304.34V985.429ZM365.207 985.429H425.076V930.911H365.207V985.429ZM426.076 985.429H485.945V930.911H426.076V985.429ZM486.945 985.429H546.811V930.911H486.945V985.429ZM546.811 876.683V929.911H486.945V876.683H546.811ZM485.945 876.683V929.911H426.076V876.683H485.945ZM425.076 876.683V929.911H365.207V876.683H425.076ZM364.207 876.683V929.911H304.34V876.683H364.207ZM303.34 876.683V929.911H243.471V876.683H303.34ZM242.471 876.683V929.911H182.604V876.683H242.471ZM181.604 876.683V929.911H121.738V876.683H181.604ZM120.738 876.683V929.911H60.8672V876.683H120.738ZM60.8672 875.683H120.738V821.164H60.8672V875.683ZM121.738 875.683H181.604V821.164H121.738V875.683ZM182.604 875.683H242.471V821.164H182.604V875.683ZM243.471 875.683H303.34V821.164H243.471V875.683ZM304.34 875.683H364.207V821.164H304.34V875.683ZM365.207 875.683H425.076V821.164H365.207V875.683ZM426.076 875.683H485.945V821.164H426.076V875.683ZM486.945 875.683H546.811V821.164H486.945V875.683ZM546.811 766.936V820.164H486.945V766.936H546.811ZM485.945 766.936V820.164H426.076V766.936H485.945ZM425.076 766.936V820.164H365.207V766.936H425.076ZM364.207 766.936V820.164H304.34V766.936H364.207ZM303.34 766.936V820.164H243.471V766.936H303.34ZM242.471 766.936V820.164H182.604V766.936H242.471ZM181.604 766.936V820.164H121.738L121.738 766.936H181.604ZM120.738 766.936L120.738 820.164H60.8672L60.8672 766.936H120.738ZM60.8672 765.936H120.738V712.708H60.8672V765.936ZM121.738 765.936H181.604V712.708H121.738V765.936ZM182.604 765.936H242.471V712.708H182.604V765.936ZM243.471 765.936H303.34V712.708H243.471V765.936ZM304.34 765.936H364.207V712.708H304.34V765.936ZM365.207 765.936H425.076V712.708H365.207V765.936ZM426.076 765.936H485.945V712.708H426.076V765.936ZM486.945 765.936H546.811V712.708H486.945V765.936ZM546.811 657.189V711.708H486.945V657.189H546.811ZM485.945 657.189V711.708H426.076V657.189H485.945ZM425.076 657.189V711.708H365.207V657.189H425.076ZM364.207 657.189V711.708H304.34V657.189H364.207ZM303.34 657.189V711.708H243.471V657.189H303.34ZM242.471 657.189V711.708H182.604V657.189H242.471ZM181.604 657.189V711.708H121.738L121.738 657.189H181.604ZM120.738 657.189L120.738 711.708H60.8672L60.8672 657.189H120.738ZM60.8672 656.189H120.738V602.961H60.8672V656.189ZM121.738 656.189H181.604V602.961H121.738V656.189ZM182.604 656.189H242.471V602.961H182.604V656.189ZM243.471 656.189H303.34V602.961H243.471V656.189ZM304.34 656.189H364.207V602.961H304.34V656.189ZM365.207 656.189H425.076V602.961H365.207V656.189ZM426.076 656.189H485.945V602.961H426.076V656.189ZM486.945 656.189H546.811V602.961H486.945V656.189ZM546.811 547.443V601.961H486.945V547.443H546.811ZM485.945 547.443V601.961H426.076V547.443H485.945ZM425.076 547.443V601.961H365.207V547.443H425.076ZM364.207 547.443V601.961H304.34V547.443H364.207ZM303.34 547.443V601.961H243.471V547.443H303.34ZM242.471 547.443V601.961H182.604V547.443H242.471ZM181.604 547.443V601.961H121.738V547.443H181.604ZM120.738 547.443V601.961H60.8672L60.8672 547.443H120.738ZM60.8672 546.443H120.738V493.215H60.8672V546.443ZM121.738 546.443H181.604V493.215H121.738V546.443ZM182.604 546.443H242.471V493.215H182.604V546.443ZM243.471 546.443H303.34V493.215H243.471V546.443ZM304.34 546.443H364.207V493.215H304.34V546.443ZM365.207 546.443H425.076V493.215H365.207V546.443ZM426.076 546.443H485.945V493.215H426.076V546.443ZM486.945 546.443H546.811V493.215H486.945V546.443ZM546.811 437.696V492.215H486.945V437.696H546.811ZM485.945 437.696V492.215H426.076V437.696H485.945ZM425.076 437.696V492.215H365.207V437.696H425.076ZM364.207 437.696V492.215H304.34V437.696H364.207ZM303.34 437.696V492.215H243.471V437.696H303.34ZM242.471 437.696V492.215H182.604V437.696H242.471ZM181.604 437.696V492.215H121.738V437.696H181.604ZM120.738 437.696V492.215H60.8672L60.8672 437.696H120.738ZM60.8672 436.696H120.738V383.468H60.8672L60.8672 436.696ZM121.738 436.696H181.604V383.468H121.738V436.696ZM182.604 436.696H242.471V383.468H182.604V436.696ZM243.471 436.696H303.34V383.468H243.471V436.696ZM304.34 436.696H364.207V383.468H304.34V436.696ZM365.207 436.696H425.076V383.468H365.207V436.696ZM426.076 436.696H485.945V383.468H426.076V436.696ZM486.945 436.696H546.811V383.468H486.945V436.696ZM546.811 329.24V382.468H486.945V329.24H546.811ZM485.945 329.24V382.468H426.076V329.24H485.945ZM425.076 329.24V382.468H365.207V329.24H425.076ZM364.207 329.24V382.468H304.34V329.24H364.207ZM303.34 329.24V382.468H243.471V329.24H303.34ZM242.471 329.24V382.468H182.604V329.24H242.471ZM181.604 329.24V382.468H121.738V329.24H181.604ZM120.738 329.24V382.468H60.8672L60.8672 329.24H120.738ZM60.8672 328.24H120.738V273.721H60.8672L60.8672 328.24ZM121.738 328.24H181.604V273.721H121.738V328.24ZM182.604 328.24H242.471V273.721H182.604V328.24ZM243.471 328.24H303.34V273.721H243.471V328.24ZM304.34 328.24H364.207V273.721H304.34V328.24ZM365.207 328.24H425.076V273.721H365.207V328.24ZM426.076 328.24H485.945V273.721H426.076V328.24ZM486.945 328.24H546.811V273.721H486.945V328.24ZM546.811 219.494V272.721H486.945V219.494H546.811ZM485.945 219.494V272.721H426.076V219.494H485.945ZM425.076 219.494V272.721H365.207V219.494H425.076ZM364.207 219.494V272.721H304.34V219.494H364.207ZM303.34 219.494V272.721H243.471V219.494H303.34ZM242.471 219.494V272.721H182.604V219.494H242.471ZM181.604 219.494V272.721H121.738V219.494H181.604ZM120.738 219.494V272.721H60.8672L60.8672 219.494H120.738ZM60.8672 218.494H120.738V163.975H60.8673L60.8672 218.494ZM121.738 218.494H181.604V163.975H121.738V218.494ZM182.604 218.494H242.471V163.975H182.604V218.494ZM243.471 218.494H303.34V163.975H243.471V218.494ZM304.34 218.494H364.207V163.975H304.34V218.494ZM365.207 218.494H425.076V163.975H365.207V218.494ZM426.076 218.494H485.945V163.975H426.076V218.494ZM486.945 218.494H546.811V163.975H486.945V218.494ZM546.811 109.747V162.975H486.945V109.747H546.811ZM485.945 109.747V162.975H426.076V109.747H485.945ZM425.076 109.747V162.975H365.207V109.747H425.076ZM364.207 109.747V162.975H304.34V109.747H364.207ZM303.34 109.747V162.975H243.471V109.747H303.34ZM242.471 109.747V162.975H182.604V109.747H242.471ZM181.604 109.747V162.975H121.738V109.747H181.604ZM120.738 109.747V162.975H60.8673L60.8673 109.747H120.738ZM60.8673 108.747H120.738V54.2279H60.8673L60.8673 108.747ZM121.738 108.747H181.604V54.2279H121.738V108.747ZM182.604 108.747H242.471V54.2279H182.604V108.747ZM243.471 108.747H303.34V54.2279H243.471V108.747ZM304.34 108.747H364.207V54.2279H304.34V108.747ZM365.207 108.747H425.076V54.2279H365.207V108.747ZM426.076 108.747H485.945V54.2279H426.076V108.747ZM486.945 108.747H546.811V54.2279H486.945V108.747Z" fill="url(#paint0_linear_379_1297)"/>
</g>
<defs>
<linearGradient id="paint0_linear_379_1297" x1="-5.5" y1="926" x2="631" y2="926" gradientUnits="userSpaceOnUse">
<stop stop-color="white" stop-opacity="0"/>
<stop offset="0.488761" stop-color="white" stop-opacity="0.88"/>
<stop offset="1" stop-color="white" stop-opacity="0"/>
</linearGradient>
</defs>
</svg>
