<svg width="1705" height="612" viewBox="0 0 1705 612" fill="none" xmlns="http://www.w3.org/2000/svg">
<g opacity="0.4">
<g opacity="0.2">
<path fill-rule="evenodd" clip-rule="evenodd" d="M1704.3 60.8684L1651.07 60.8684L1651.07 120.739L1704.3 120.739L1704.3 121.739L1651.07 121.739L1651.07 181.604L1704.3 181.604L1704.3 182.604L1651.07 182.604L1651.07 242.471L1704.3 242.471L1704.3 243.471L1651.07 243.471L1651.07 303.341L1704.3 303.341L1704.3 304.341L1651.07 304.341L1651.07 364.208L1704.3 364.208L1704.3 365.208L1651.07 365.208L1651.07 425.077L1704.3 425.077L1704.3 426.077L1651.07 426.077L1651.07 485.946L1704.3 485.946L1704.3 486.946L1651.07 486.946L1651.07 546.813L1704.3 546.813L1704.3 547.813L1651.07 547.813L1651.07 611.999L1650.07 611.999L1650.07 547.813L1595.55 547.813L1595.55 611.999L1594.55 611.999L1594.55 547.813L1541.33 547.813L1541.33 611.999L1540.33 611.999L1540.33 547.813L1485.81 547.813L1485.81 611.999L1484.81 611.999L1484.81 547.813L1431.58 547.813L1431.58 611.999L1430.58 611.999L1430.58 547.813L1376.06 547.813L1376.06 611.999L1375.06 611.999L1375.06 547.813L1321.83 547.813L1321.83 611.999L1320.83 611.999L1320.83 547.813L1267.6 547.813L1267.6 611.999L1266.6 611.999L1266.6 547.813L1212.08 547.813L1212.08 611.999L1211.08 611.999L1211.08 547.813L1157.86 547.813L1157.86 611.999L1156.86 611.999L1156.86 547.813L1102.34 547.813L1102.34 611.999L1101.34 611.999L1101.34 547.813L1048.11 547.813L1048.11 611.999L1047.11 611.999L1047.11 547.813L992.593 547.813L992.593 611.999L991.593 611.999L991.593 547.813L938.366 547.813L938.366 611.999L937.366 611.999L937.366 547.813L884.136 547.813L884.136 611.999L883.136 611.999L883.136 547.813L828.616 547.813L828.616 611.999L827.616 611.999L827.616 547.813L774.39 547.813L774.389 611.999L773.389 611.999L773.39 547.813L718.87 547.813L718.87 611.999L717.87 611.999L717.87 547.813L664.643 547.813L664.643 611.999L663.643 611.999L663.643 547.813L609.124 547.813L609.124 611.999L608.124 611.999L608.124 547.813L554.897 547.813L554.897 611.999L553.897 611.999L553.897 547.813L500.671 547.813L500.671 611.999L499.671 611.999L499.671 547.813L445.151 547.813L445.151 611.999L444.151 611.999L444.151 547.813L390.921 547.813L390.921 611.999L389.921 611.999L389.921 547.813L335.405 547.813L335.405 611.999L334.405 611.999L334.405 547.813L281.175 547.813L281.175 611.999L280.175 611.999L280.175 547.813L225.655 547.813L225.655 611.999L224.655 611.999L224.655 547.813L171.429 547.813L171.429 611.999L170.429 611.999L170.429 547.813L117.202 547.813L117.202 611.999L116.202 611.999L116.202 547.813L61.6825 547.813L61.6825 611.999L60.6825 611.999L60.6825 547.813L-0.00112258 547.813L-0.00112253 546.813L60.6825 546.813L60.6825 486.946L-0.00111992 486.946L-0.00111987 485.946L60.6825 485.946L60.6825 426.077L-0.00111726 426.077L-0.00111721 425.077L60.6825 425.077L60.6825 365.208L-0.0011146 365.208L-0.00111455 364.208L60.6825 364.208L60.6825 304.34L-0.00111194 304.34L-0.00111189 303.34L60.6825 303.34L60.6825 243.471L-0.00110928 243.471L-0.00110923 242.471L60.6825 242.471L60.6825 182.604L-0.00110661 182.604L-0.00110657 181.604L60.6825 181.604L60.6825 121.739L-0.00110395 121.739L-0.00110391 120.739L60.6825 120.739L60.6825 60.8682L-0.00110129 60.8682L-0.00110125 59.8682L60.6825 59.8682L60.6825 -6.22505e-05L61.6825 -6.22068e-05L61.6825 59.8682L116.202 59.8682L116.202 -6.22505e-05L117.202 -6.22068e-05L117.202 59.8682L170.429 59.8682L170.429 -6.22505e-05L171.429 -6.22068e-05L171.429 59.8682L224.655 59.8682L224.655 -6.22505e-05L225.655 -6.22068e-05L225.655 59.8682L280.175 59.8683L280.175 -6.22505e-05L281.175 -6.22068e-05L281.175 59.8683L334.405 59.8683L334.405 5.98198e-05L335.405 5.98635e-05L335.405 59.8683L389.921 59.8683L389.921 5.98198e-05L390.921 5.98635e-05L390.921 59.8683L444.151 59.8683L444.151 5.98198e-05L445.151 5.98635e-05L445.151 59.8683L499.671 59.8683L499.671 5.98198e-05L500.671 5.98635e-05L500.671 59.8683L553.897 59.8683L553.897 5.98198e-05L554.897 5.98635e-05L554.897 59.8683L608.124 59.8683L608.124 5.98198e-05L609.124 5.98635e-05L609.124 59.8683L663.643 59.8683L663.643 5.98198e-05L664.643 5.98635e-05L664.643 59.8683L717.87 59.8683L717.87 5.98198e-05L718.87 5.98635e-05L718.87 59.8683L773.39 59.8683L773.39 5.98198e-05L774.39 5.98635e-05L774.39 59.8683L827.616 59.8683L827.616 5.98198e-05L828.616 5.98635e-05L828.616 59.8683L883.136 59.8683L883.136 5.98198e-05L884.136 5.98635e-05L884.136 59.8683L937.366 59.8683L937.366 5.98198e-05L938.366 5.98635e-05L938.366 59.8683L991.593 59.8683L991.593 5.98198e-05L992.593 5.98635e-05L992.593 59.8683L1047.11 59.8683L1047.11 5.98198e-05L1048.11 5.98635e-05L1048.11 59.8683L1101.34 59.8683L1101.34 5.98198e-05L1102.34 5.98635e-05L1102.34 59.8683L1156.86 59.8683L1156.86 5.98198e-05L1157.86 5.98635e-05L1157.86 59.8683L1211.08 59.8683L1211.08 5.98198e-05L1212.08 5.98635e-05L1212.08 59.8683L1266.6 59.8683L1266.6 5.98198e-05L1267.6 5.98635e-05L1267.6 59.8683L1320.83 59.8683L1320.83 5.98198e-05L1321.83 5.98635e-05L1321.83 59.8683L1375.06 59.8683L1375.06 5.98198e-05L1376.06 5.98635e-05L1376.06 59.8683L1430.58 59.8683L1430.58 5.98198e-05L1431.58 5.98635e-05L1431.58 59.8683L1484.81 59.8684L1484.81 5.98198e-05L1485.81 5.98635e-05L1485.81 59.8684L1540.33 59.8684L1540.33 5.98198e-05L1541.33 5.98635e-05L1541.33 59.8684L1594.55 59.8684L1594.55 5.98198e-05L1595.55 5.98635e-05L1595.55 59.8684L1650.07 59.8684L1650.07 5.98198e-05L1651.07 5.98635e-05L1651.07 59.8684L1704.3 59.8684L1704.3 60.8684ZM61.6825 60.8682L61.6825 120.739L116.202 120.739L116.202 60.8682L61.6825 60.8682ZM61.6825 121.739L61.6825 181.604L116.202 181.604L116.202 121.739L61.6825 121.739ZM61.6825 182.604L61.6825 242.471L116.202 242.471L116.202 182.604L61.6825 182.604ZM61.6825 243.471L61.6825 303.34L116.202 303.34L116.202 243.471L61.6825 243.471ZM61.6825 304.34L61.6825 364.208L116.202 364.208L116.202 304.34L61.6825 304.34ZM61.6825 365.208L61.6825 425.077L116.202 425.077L116.202 365.208L61.6825 365.208ZM61.6825 426.077L61.6825 485.946L116.202 485.946L116.202 426.077L61.6825 426.077ZM61.6825 486.946L61.6825 546.813L116.202 546.813L116.202 486.946L61.6825 486.946ZM170.429 546.813L117.202 546.813L117.202 486.946L170.429 486.946L170.429 546.813ZM170.429 485.946L117.202 485.946L117.202 426.077L170.429 426.077L170.429 485.946ZM170.429 425.077L117.202 425.077L117.202 365.208L170.429 365.208L170.429 425.077ZM170.429 364.208L117.202 364.208L117.202 304.34L170.429 304.34L170.429 364.208ZM170.429 303.34L117.202 303.34L117.202 243.471L170.429 243.471L170.429 303.34ZM170.429 242.471L117.202 242.471L117.202 182.604L170.429 182.604L170.429 242.471ZM170.429 181.604L117.202 181.604L117.202 121.739L170.429 121.739L170.429 181.604ZM170.429 120.739L117.202 120.739L117.202 60.8682L170.429 60.8682L170.429 120.739ZM171.429 60.8682L171.429 120.739L224.655 120.739L224.655 60.8682L171.429 60.8682ZM171.429 121.739L171.429 181.604L224.655 181.604L224.655 121.739L171.429 121.739ZM171.429 182.604L171.429 242.471L224.655 242.471L224.655 182.604L171.429 182.604ZM171.429 243.471L171.429 303.34L224.655 303.34L224.655 243.471L171.429 243.471ZM171.429 304.34L171.429 364.208L224.655 364.208L224.655 304.34L171.429 304.34ZM171.429 365.208L171.429 425.077L224.655 425.077L224.655 365.208L171.429 365.208ZM171.429 426.077L171.429 485.946L224.655 485.946L224.655 426.077L171.429 426.077ZM171.429 486.946L171.429 546.813L224.655 546.813L224.655 486.946L171.429 486.946ZM280.175 546.813L225.655 546.813L225.655 486.946L280.175 486.946L280.175 546.813ZM280.175 485.946L225.655 485.946L225.655 426.077L280.175 426.077L280.175 485.946ZM280.175 425.077L225.655 425.077L225.655 365.208L280.175 365.208L280.175 425.077ZM280.175 364.208L225.655 364.208L225.655 304.34L280.175 304.34L280.175 364.208ZM280.175 303.34L225.655 303.34L225.655 243.471L280.175 243.471L280.175 303.34ZM280.175 242.471L225.655 242.471L225.655 182.604L280.175 182.604L280.175 242.471ZM280.175 181.604L225.655 181.604L225.655 121.739L280.175 121.739L280.175 181.604ZM280.175 120.739L225.655 120.739L225.655 60.8682L280.175 60.8683L280.175 120.739ZM281.175 60.8683L281.175 120.739L334.405 120.739L334.405 60.8683L281.175 60.8683ZM281.175 121.739L281.175 181.604L334.405 181.604L334.405 121.739L281.175 121.739ZM281.175 182.604L281.175 242.471L334.405 242.471L334.405 182.604L281.175 182.604ZM281.175 243.471L281.175 303.34L334.405 303.34L334.405 243.471L281.175 243.471ZM281.175 304.34L281.175 364.208L334.405 364.208L334.405 304.34L281.175 304.34ZM281.175 365.208L281.175 425.077L334.405 425.077L334.405 365.208L281.175 365.208ZM281.175 426.077L281.175 485.946L334.405 485.946L334.405 426.077L281.175 426.077ZM281.175 486.946L281.175 546.813L334.405 546.813L334.405 486.946L281.175 486.946ZM389.921 546.813L335.405 546.813L335.405 486.946L389.921 486.946L389.921 546.813ZM389.921 485.946L335.405 485.946L335.405 426.077L389.921 426.077L389.921 485.946ZM389.921 425.077L335.405 425.077L335.405 365.208L389.921 365.208L389.921 425.077ZM389.921 364.208L335.405 364.208L335.405 304.34L389.921 304.34L389.921 364.208ZM389.921 303.34L335.405 303.34L335.405 243.471L389.921 243.471L389.921 303.34ZM389.921 242.471L335.405 242.471L335.405 182.604L389.921 182.604L389.921 242.471ZM389.921 181.604L335.405 181.604L335.405 121.739L389.921 121.739L389.921 181.604ZM389.921 120.739L335.405 120.739L335.405 60.8683L389.921 60.8683L389.921 120.739ZM390.921 60.8683L390.921 120.739L444.151 120.739L444.151 60.8683L390.921 60.8683ZM390.921 121.739L390.921 181.604L444.151 181.604L444.151 121.739L390.921 121.739ZM390.921 182.604L390.921 242.471L444.151 242.471L444.151 182.604L390.921 182.604ZM390.921 243.471L390.921 303.34L444.151 303.34L444.151 243.471L390.921 243.471ZM390.921 304.34L390.921 364.208L444.151 364.208L444.151 304.34L390.921 304.34ZM390.921 365.208L390.921 425.077L444.151 425.077L444.151 365.208L390.921 365.208ZM390.921 426.077L390.921 485.946L444.151 485.946L444.151 426.077L390.921 426.077ZM390.921 486.946L390.921 546.813L444.151 546.813L444.151 486.946L390.921 486.946ZM499.671 546.813L445.151 546.813L445.151 486.946L499.671 486.946L499.671 546.813ZM499.671 485.946L445.151 485.946L445.151 426.077L499.671 426.077L499.671 485.946ZM499.671 425.077L445.151 425.077L445.151 365.208L499.671 365.208L499.671 425.077ZM499.671 364.208L445.151 364.208L445.151 304.34L499.671 304.34L499.671 364.208ZM499.671 303.34L445.151 303.34L445.151 243.471L499.671 243.471L499.671 303.34ZM499.671 242.471L445.151 242.471L445.151 182.604L499.671 182.604L499.671 242.471ZM499.671 181.604L445.151 181.604L445.151 121.739L499.671 121.739L499.671 181.604ZM499.671 120.739L445.151 120.739L445.151 60.8683L499.671 60.8683L499.671 120.739ZM500.671 60.8683L500.671 120.739L553.897 120.739L553.897 60.8683L500.671 60.8683ZM500.671 121.739L500.671 181.604L553.897 181.604L553.897 121.739L500.671 121.739ZM500.671 182.604L500.671 242.471L553.897 242.471L553.897 182.604L500.671 182.604ZM500.671 243.471L500.671 303.34L553.897 303.34L553.897 243.471L500.671 243.471ZM500.671 304.34L500.671 364.208L553.897 364.208L553.897 304.34L500.671 304.34ZM500.671 365.208L500.671 425.077L553.897 425.077L553.897 365.208L500.671 365.208ZM500.671 426.077L500.671 485.946L553.897 485.946L553.897 426.077L500.671 426.077ZM500.671 486.946L500.671 546.813L553.897 546.813L553.897 486.946L500.671 486.946ZM608.124 546.813L554.897 546.813L554.897 486.946L608.124 486.946L608.124 546.813ZM608.124 485.946L554.897 485.946L554.897 426.077L608.124 426.077L608.124 485.946ZM608.124 425.077L554.897 425.077L554.897 365.208L608.124 365.208L608.124 425.077ZM608.124 364.208L554.897 364.208L554.897 304.34L608.124 304.34L608.124 364.208ZM608.124 303.34L554.897 303.34L554.897 243.471L608.124 243.471L608.124 303.34ZM608.124 242.471L554.897 242.471L554.897 182.604L608.124 182.604L608.124 242.471ZM608.124 181.604L554.897 181.604L554.897 121.739L608.124 121.739L608.124 181.604ZM608.124 120.739L554.897 120.739L554.897 60.8683L608.124 60.8683L608.124 120.739ZM609.124 60.8683L609.124 120.739L663.643 120.739L663.643 60.8683L609.124 60.8683ZM609.124 121.739L609.124 181.604L663.643 181.604L663.643 121.739L609.124 121.739ZM609.124 182.604L609.124 242.471L663.643 242.471L663.643 182.604L609.124 182.604ZM609.124 243.471L609.124 303.34L663.643 303.34L663.643 243.471L609.124 243.471ZM609.124 304.34L609.124 364.208L663.643 364.208L663.643 304.34L609.124 304.34ZM609.124 365.208L609.124 425.077L663.643 425.077L663.643 365.208L609.124 365.208ZM609.124 426.077L609.124 485.946L663.643 485.946L663.643 426.077L609.124 426.077ZM609.124 486.946L609.124 546.813L663.643 546.813L663.643 486.946L609.124 486.946ZM717.87 546.813L664.643 546.813L664.643 486.946L717.87 486.946L717.87 546.813ZM717.87 485.946L664.643 485.946L664.643 426.077L717.87 426.077L717.87 485.946ZM717.87 425.077L664.643 425.077L664.643 365.208L717.87 365.208L717.87 425.077ZM717.87 364.208L664.643 364.208L664.643 304.34L717.87 304.34L717.87 364.208ZM717.87 303.34L664.643 303.34L664.643 243.471L717.87 243.471L717.87 303.34ZM717.87 242.471L664.643 242.471L664.643 182.604L717.87 182.604L717.87 242.471ZM717.87 181.604L664.643 181.604L664.643 121.739L717.87 121.739L717.87 181.604ZM717.87 120.739L664.643 120.739L664.643 60.8683L717.87 60.8683L717.87 120.739ZM718.87 60.8683L718.87 120.739L773.39 120.739L773.39 60.8683L718.87 60.8683ZM718.87 121.739L718.87 181.604L773.39 181.604L773.39 121.739L718.87 121.739ZM718.87 182.604L718.87 242.471L773.39 242.471L773.39 182.604L718.87 182.604ZM718.87 243.471L718.87 303.34L773.39 303.34L773.39 243.471L718.87 243.471ZM718.87 304.34L718.87 364.208L773.39 364.208L773.39 304.34L718.87 304.34ZM718.87 365.208L718.87 425.077L773.39 425.077L773.39 365.208L718.87 365.208ZM718.87 426.077L718.87 485.946L773.39 485.946L773.39 426.077L718.87 426.077ZM718.87 486.946L718.87 546.813L773.39 546.813L773.39 486.946L718.87 486.946ZM827.616 546.813L774.39 546.813L774.39 486.946L827.616 486.946L827.616 546.813ZM827.616 485.946L774.39 485.946L774.39 426.077L827.616 426.077L827.616 485.946ZM827.616 425.077L774.39 425.077L774.39 365.208L827.616 365.208L827.616 425.077ZM827.616 364.208L774.39 364.208L774.39 304.34L827.616 304.34L827.616 364.208ZM827.616 303.34L774.39 303.34L774.39 243.471L827.616 243.471L827.616 303.34ZM827.616 242.471L774.39 242.471L774.39 182.604L827.616 182.604L827.616 242.471ZM827.616 181.604L774.39 181.604L774.39 121.739L827.616 121.739L827.616 181.604ZM827.616 120.739L774.39 120.739L774.39 60.8683L827.616 60.8683L827.616 120.739ZM828.616 60.8683L828.616 120.739L883.136 120.739L883.136 60.8683L828.616 60.8683ZM828.616 121.739L828.616 181.604L883.136 181.604L883.136 121.739L828.616 121.739ZM828.616 182.604L828.616 242.471L883.136 242.471L883.136 182.604L828.616 182.604ZM828.616 243.471L828.616 303.34L883.136 303.34L883.136 243.471L828.616 243.471ZM828.616 304.34L828.616 364.208L883.136 364.208L883.136 304.34L828.616 304.34ZM828.616 365.208L828.616 425.077L883.136 425.077L883.136 365.208L828.616 365.208ZM828.616 426.077L828.616 485.946L883.136 485.946L883.136 426.077L828.616 426.077ZM828.616 486.946L828.616 546.813L883.136 546.813L883.136 486.946L828.616 486.946ZM937.366 546.813L884.136 546.813L884.136 486.946L937.366 486.946L937.366 546.813ZM937.366 485.946L884.136 485.946L884.136 426.077L937.366 426.077L937.366 485.946ZM937.366 425.077L884.136 425.077L884.136 365.208L937.366 365.208L937.366 425.077ZM937.366 364.208L884.136 364.208L884.136 304.34L937.366 304.34L937.366 364.208ZM937.366 303.34L884.136 303.34L884.136 243.471L937.366 243.471L937.366 303.34ZM937.366 242.471L884.136 242.471L884.136 182.604L937.366 182.604L937.366 242.471ZM937.366 181.604L884.136 181.604L884.136 121.739L937.366 121.739L937.366 181.604ZM937.366 120.739L884.136 120.739L884.136 60.8683L937.366 60.8683L937.366 120.739ZM938.366 60.8683L938.366 120.739L991.593 120.739L991.593 60.8683L938.366 60.8683ZM938.366 121.739L938.366 181.604L991.593 181.604L991.593 121.739L938.366 121.739ZM938.366 182.604L938.366 242.471L991.593 242.471L991.593 182.604L938.366 182.604ZM938.366 243.471L938.366 303.34L991.593 303.34L991.593 243.471L938.366 243.471ZM938.366 304.34L938.366 364.208L991.593 364.208L991.593 304.34L938.366 304.34ZM938.366 365.208L938.366 425.077L991.593 425.077L991.593 365.208L938.366 365.208ZM938.366 426.077L938.366 485.946L991.593 485.946L991.593 426.077L938.366 426.077ZM938.366 486.946L938.366 546.813L991.593 546.813L991.593 486.946L938.366 486.946ZM1047.11 546.813L992.593 546.813L992.593 486.946L1047.11 486.946L1047.11 546.813ZM1047.11 485.946L992.593 485.946L992.593 426.077L1047.11 426.077L1047.11 485.946ZM1047.11 425.077L992.593 425.077L992.593 365.208L1047.11 365.208L1047.11 425.077ZM1047.11 364.208L992.593 364.208L992.593 304.34L1047.11 304.34L1047.11 364.208ZM1047.11 303.34L992.593 303.34L992.593 243.471L1047.11 243.471L1047.11 303.34ZM1047.11 242.471L992.593 242.471L992.593 182.604L1047.11 182.604L1047.11 242.471ZM1047.11 181.604L992.593 181.604L992.593 121.739L1047.11 121.739L1047.11 181.604ZM1047.11 120.739L992.593 120.739L992.593 60.8683L1047.11 60.8683L1047.11 120.739ZM1048.11 60.8683L1048.11 120.739L1101.34 120.739L1101.34 60.8683L1048.11 60.8683ZM1048.11 121.739L1048.11 181.604L1101.34 181.604L1101.34 121.739L1048.11 121.739ZM1048.11 182.604L1048.11 242.471L1101.34 242.471L1101.34 182.604L1048.11 182.604ZM1048.11 243.471L1048.11 303.34L1101.34 303.34L1101.34 243.471L1048.11 243.471ZM1048.11 304.34L1048.11 364.208L1101.34 364.208L1101.34 304.34L1048.11 304.34ZM1048.11 365.208L1048.11 425.077L1101.34 425.077L1101.34 365.208L1048.11 365.208ZM1048.11 426.077L1048.11 485.946L1101.34 485.946L1101.34 426.077L1048.11 426.077ZM1048.11 486.946L1048.11 546.813L1101.34 546.813L1101.34 486.946L1048.11 486.946ZM1156.86 546.813L1102.34 546.813L1102.34 486.946L1156.86 486.946L1156.86 546.813ZM1156.86 485.946L1102.34 485.946L1102.34 426.077L1156.86 426.077L1156.86 485.946ZM1156.86 425.077L1102.34 425.077L1102.34 365.208L1156.86 365.208L1156.86 425.077ZM1156.86 364.208L1102.34 364.208L1102.34 304.34L1156.86 304.34L1156.86 364.208ZM1156.86 303.34L1102.34 303.34L1102.34 243.471L1156.86 243.471L1156.86 303.34ZM1156.86 242.471L1102.34 242.471L1102.34 182.604L1156.86 182.604L1156.86 242.471ZM1156.86 181.604L1102.34 181.604L1102.34 121.739L1156.86 121.739L1156.86 181.604ZM1156.86 120.739L1102.34 120.739L1102.34 60.8683L1156.86 60.8683L1156.86 120.739ZM1157.86 60.8683L1157.86 120.739L1211.08 120.739L1211.08 60.8683L1157.86 60.8683ZM1157.86 121.739L1157.86 181.604L1211.08 181.604L1211.08 121.739L1157.86 121.739ZM1157.86 182.604L1157.86 242.471L1211.08 242.471L1211.08 182.604L1157.86 182.604ZM1157.86 243.471L1157.86 303.34L1211.08 303.34L1211.08 243.471L1157.86 243.471ZM1157.86 304.34L1157.86 364.208L1211.08 364.208L1211.08 304.34L1157.86 304.34ZM1157.86 365.208L1157.86 425.077L1211.08 425.077L1211.08 365.208L1157.86 365.208ZM1157.86 426.077L1157.86 485.946L1211.08 485.946L1211.08 426.077L1157.86 426.077ZM1157.86 486.946L1157.86 546.813L1211.08 546.813L1211.08 486.946L1157.86 486.946ZM1266.6 546.813L1212.08 546.813L1212.08 486.946L1266.6 486.946L1266.6 546.813ZM1266.6 485.946L1212.08 485.946L1212.08 426.077L1266.6 426.077L1266.6 485.946ZM1266.6 425.077L1212.08 425.077L1212.08 365.208L1266.6 365.208L1266.6 425.077ZM1266.6 364.208L1212.08 364.208L1212.08 304.34L1266.6 304.34L1266.6 364.208ZM1266.6 303.34L1212.08 303.34L1212.08 243.471L1266.6 243.471L1266.6 303.34ZM1266.6 242.471L1212.08 242.471L1212.08 182.604L1266.6 182.604L1266.6 242.471ZM1266.6 181.604L1212.08 181.604L1212.08 121.739L1266.6 121.739L1266.6 181.604ZM1266.6 120.739L1212.08 120.739L1212.08 60.8683L1266.6 60.8683L1266.6 120.739ZM1267.6 60.8683L1267.6 120.739L1320.83 120.739L1320.83 60.8683L1267.6 60.8683ZM1267.6 121.739L1267.6 181.604L1320.83 181.604L1320.83 121.739L1267.6 121.739ZM1267.6 182.604L1267.6 242.471L1320.83 242.471L1320.83 182.604L1267.6 182.604ZM1267.6 243.471L1267.6 303.34L1320.83 303.34L1320.83 243.471L1267.6 243.471ZM1267.6 304.34L1267.6 364.208L1320.83 364.208L1320.83 304.34L1267.6 304.34ZM1267.6 365.208L1267.6 425.077L1320.83 425.077L1320.83 365.208L1267.6 365.208ZM1267.6 426.077L1267.6 485.946L1320.83 485.946L1320.83 426.077L1267.6 426.077ZM1267.6 486.946L1267.6 546.813L1320.83 546.813L1320.83 486.946L1267.6 486.946ZM1375.06 546.813L1321.83 546.813L1321.83 486.946L1375.06 486.946L1375.06 546.813ZM1375.06 485.946L1321.83 485.946L1321.83 426.077L1375.06 426.077L1375.06 485.946ZM1375.06 425.077L1321.83 425.077L1321.83 365.208L1375.06 365.208L1375.06 425.077ZM1375.06 364.208L1321.83 364.208L1321.83 304.34L1375.06 304.341L1375.06 364.208ZM1375.06 303.341L1321.83 303.34L1321.83 243.471L1375.06 243.471L1375.06 303.341ZM1375.06 242.471L1321.83 242.471L1321.83 182.604L1375.06 182.604L1375.06 242.471ZM1375.06 181.604L1321.83 181.604L1321.83 121.739L1375.06 121.739L1375.06 181.604ZM1375.06 120.739L1321.83 120.739L1321.83 60.8683L1375.06 60.8683L1375.06 120.739ZM1376.06 60.8683L1376.06 120.739L1430.58 120.739L1430.58 60.8683L1376.06 60.8683ZM1376.06 121.739L1376.06 181.604L1430.58 181.604L1430.58 121.739L1376.06 121.739ZM1376.06 182.604L1376.06 242.471L1430.58 242.471L1430.58 182.604L1376.06 182.604ZM1376.06 243.471L1376.06 303.341L1430.58 303.341L1430.58 243.471L1376.06 243.471ZM1376.06 304.341L1376.06 364.208L1430.58 364.208L1430.58 304.341L1376.06 304.341ZM1376.06 365.208L1376.06 425.077L1430.58 425.077L1430.58 365.208L1376.06 365.208ZM1376.06 426.077L1376.06 485.946L1430.58 485.946L1430.58 426.077L1376.06 426.077ZM1376.06 486.946L1376.06 546.813L1430.58 546.813L1430.58 486.946L1376.06 486.946ZM1484.81 546.813L1431.58 546.813L1431.58 486.946L1484.81 486.946L1484.81 546.813ZM1484.81 485.946L1431.58 485.946L1431.58 426.077L1484.81 426.077L1484.81 485.946ZM1484.81 425.077L1431.58 425.077L1431.58 365.208L1484.81 365.208L1484.81 425.077ZM1484.81 364.208L1431.58 364.208L1431.58 304.341L1484.81 304.341L1484.81 364.208ZM1484.81 303.341L1431.58 303.341L1431.58 243.471L1484.81 243.471L1484.81 303.341ZM1484.81 242.471L1431.58 242.471L1431.58 182.604L1484.81 182.604L1484.81 242.471ZM1484.81 181.604L1431.58 181.604L1431.58 121.739L1484.81 121.739L1484.81 181.604ZM1484.81 120.739L1431.58 120.739L1431.58 60.8683L1484.81 60.8684L1484.81 120.739ZM1485.81 60.8684L1485.81 120.739L1540.33 120.739L1540.33 60.8684L1485.81 60.8684ZM1485.81 121.739L1485.81 181.604L1540.33 181.604L1540.33 121.739L1485.81 121.739ZM1485.81 182.604L1485.81 242.471L1540.33 242.471L1540.33 182.604L1485.81 182.604ZM1485.81 243.471L1485.81 303.341L1540.33 303.341L1540.33 243.471L1485.81 243.471ZM1485.81 304.341L1485.81 364.208L1540.33 364.208L1540.33 304.341L1485.81 304.341ZM1485.81 365.208L1485.81 425.077L1540.33 425.077L1540.33 365.208L1485.81 365.208ZM1485.81 426.077L1485.81 485.946L1540.33 485.946L1540.33 426.077L1485.81 426.077ZM1485.81 486.946L1485.81 546.813L1540.33 546.813L1540.33 486.946L1485.81 486.946ZM1594.55 546.813L1541.33 546.813L1541.33 486.946L1594.55 486.946L1594.55 546.813ZM1594.55 485.946L1541.33 485.946L1541.33 426.077L1594.55 426.077L1594.55 485.946ZM1594.55 425.077L1541.33 425.077L1541.33 365.208L1594.55 365.208L1594.55 425.077ZM1594.55 364.208L1541.33 364.208L1541.33 304.341L1594.55 304.341L1594.55 364.208ZM1594.55 303.341L1541.33 303.341L1541.33 243.471L1594.55 243.471L1594.55 303.341ZM1594.55 242.471L1541.33 242.471L1541.33 182.604L1594.55 182.604L1594.55 242.471ZM1594.55 181.604L1541.33 181.604L1541.33 121.739L1594.55 121.739L1594.55 181.604ZM1594.55 120.739L1541.33 120.739L1541.33 60.8684L1594.55 60.8684L1594.55 120.739ZM1595.55 60.8684L1595.55 120.739L1650.07 120.739L1650.07 60.8684L1595.55 60.8684ZM1595.55 121.739L1595.55 181.604L1650.07 181.604L1650.07 121.739L1595.55 121.739ZM1595.55 182.604L1595.55 242.471L1650.07 242.471L1650.07 182.604L1595.55 182.604ZM1595.55 243.471L1595.55 303.341L1650.07 303.341L1650.07 243.471L1595.55 243.471ZM1595.55 304.341L1595.55 364.208L1650.07 364.208L1650.07 304.341L1595.55 304.341ZM1595.55 365.208L1595.55 425.077L1650.07 425.077L1650.07 365.208L1595.55 365.208ZM1595.55 426.077L1595.55 485.946L1650.07 485.946L1650.07 426.077L1595.55 426.077ZM1595.55 486.946L1595.55 546.813L1650.07 546.813L1650.07 486.946L1595.55 486.946Z" fill="url(#paint0_linear_767_2297)"/>
</g>
</g>
<defs>
<linearGradient id="paint0_linear_767_2297" x1="778.301" y1="-5.50004" x2="778.301" y2="631" gradientUnits="userSpaceOnUse">
<stop stop-color="white" stop-opacity="0"/>
<stop offset="0.488761" stop-color="white" stop-opacity="0.88"/>
<stop offset="1" stop-color="white" stop-opacity="0"/>
</linearGradient>
</defs>
</svg>
